<?xml version="1.0" encoding="UTF-8" standalone="no"?>
<!DOCTYPE svg PUBLIC "-//W3C//DTD SVG 1.1//EN" "http://www.w3.org/Graphics/SVG/1.1/DTD/svg11.dtd">
<!-- Created with Vectornator (http://vectornator.io/) -->
<svg height="100%" stroke-miterlimit="10" style="fill-rule:nonzero;clip-rule:evenodd;stroke-linecap:round;stroke-linejoin:round;" version="1.1" viewBox="0 0 1024 1024" width="100%" xml:space="preserve" xmlns="http://www.w3.org/2000/svg" xmlns:vectornator="http://vectornator.io" xmlns:xlink="http://www.w3.org/1999/xlink">
<defs>
<filter color-interpolation-filters="sRGB" filterUnits="userSpaceOnUse" height="57.6176" id="Filter" width="245.305" x="73.2083" y="58.9732">
<feDropShadow dx="-0.00541367" dy="0.999985" flood-color="#000000" flood-opacity="0.48232" in="SourceGraphic" result="Shadow" stdDeviation="1.5"/>
</filter>
<filter color-interpolation-filters="sRGB" filterUnits="userSpaceOnUse" height="115.26" id="Filter_2" width="72.046" x="183.724" y="39.0987">
<feDropShadow dx="-0.00541367" dy="0.999985" flood-color="#000000" flood-opacity="0.48232" in="SourceGraphic" result="Shadow" stdDeviation="1.5"/>
</filter>
<filter color-interpolation-filters="sRGB" filterUnits="userSpaceOnUse" height="245.321" id="Filter_3" width="57.2886" x="59.7993" y="72.2804">
<feDropShadow dx="-0.00541367" dy="0.999985" flood-color="#000000" flood-opacity="0.48232" in="SourceGraphic" result="Shadow" stdDeviation="1.5"/>
</filter>
<filter color-interpolation-filters="sRGB" filterUnits="userSpaceOnUse" height="72.0515" id="Filter_4" width="115.259" x="39.7744" y="182.783">
<feDropShadow dx="-0.00541367" dy="0.999985" flood-color="#000000" flood-opacity="0.48232" in="SourceGraphic" result="Shadow" stdDeviation="1.5"/>
</filter>
</defs>
<g id="Layer-1" vectornator:layerName="Layer 1">
<g opacity="1">
<g opacity="1">
<g opacity="1">
<path d="M350.692 184.924C340.265 170.93 312.412 177.196 295.432 152.497C280.364 130.578 302.4 116.594 308.348 117.402C288.614 104.26 283.582 107.161 281.024 106.344C277.567 105.238 278.792 100.163 283.461 100.562C290.263 101.78 305.699 111.635 309.997 114.923C313.914 117.914 332.773 132.181 344.275 158.545C335.679 128.873 317.602 113.663 314.699 111.204C316.24 108.718 319.558 105.168 327.59 103.736C344.062 100.802 369.464 122.589 350.692 184.924Z" fill="#f7567c" fill-rule="evenodd" opacity="1" stroke="none"/>
<path d="M284.328 104.427C284.324 104.424 284.318 104.422 284.308 104.42C284.299 104.417 284.286 104.416 284.274 104.417C284.262 104.417 284.25 104.421 284.246 104.429C284.243 104.437 284.249 104.449 284.275 104.465C284.301 104.481 284.348 104.5 284.416 104.516C284.484 104.532 284.576 104.544 284.665 104.538C284.754 104.532 284.841 104.506 284.864 104.45C284.887 104.393 284.842 104.303 284.655 104.188C284.468 104.073 284.131 103.931 283.636 103.817C283.141 103.703 282.48 103.617 281.834 103.661C281.189 103.705 280.561 103.887 280.396 104.297C280.231 104.708 280.552 105.359 281.905 106.192C283.258 107.025 285.696 108.049 289.278 108.876C292.861 109.704 297.649 110.326 302.319 110.005C306.989 109.684 311.537 108.372 312.732 105.401C313.927 102.43 311.597 97.7141 301.806 91.6867C292.014 85.6594 274.373 78.25 248.447 72.2612C222.521 66.2723 187.87 61.7728 154.075 64.0959C120.279 66.4189 87.3599 75.9145 78.7137 97.414" fill="none" fill-rule="evenodd" filter="url(#Filter)" stroke="#c4b0ff" stroke-linecap="round" stroke-linejoin="round" stroke-width="5" vectornator:shadowAngle="1.57621" vectornator:shadowColor="#000000" vectornator:shadowOffset="1" vectornator:shadowOpacity="0.48232" vectornator:shadowRadius="3"/>
<path d="M231.498 150.359C230.354 132.945 255.614 119.643 252.511 89.8313C249.756 63.3754 223.915 67.0309 219.913 71.5044C226.403 48.7002 232.115 47.6436 233.531 45.3621C235.445 42.2775 231.219 39.2107 227.926 42.5434C223.54 47.8836 218.187 65.3977 217.049 70.6878C216.01 75.505 210.914 98.5976 219.267 126.122C206.557 97.9655 210.445 74.6634 211.059 70.9081C208.273 70.0163 203.445 69.4676 196.404 73.589C181.966 82.0435 176.771 115.104 231.498 150.359Z" fill="#afd9f7" fill-rule="evenodd" filter="url(#Filter_2)" stroke="none" vectornator:shadowAngle="1.57621" vectornator:shadowColor="#000000" vectornator:shadowOffset="1" vectornator:shadowOpacity="0.48232" vectornator:shadowRadius="3"/>
<path d="M231.068 44.6288C231.068 44.6288 231.068 44.6288 231.068 44.6288C231.068 44.6288 231.068 44.6289 231.068 44.6289C231.068 44.629 231.067 44.629 231.067 44.629C231.067 44.629 231.066 44.6289 231.066 44.6288C231.065 44.6286 231.065 44.6283 231.065 44.6279C231.065 44.6275 231.066 44.6268 231.068 44.6262C231.071 44.6255 231.075 44.6249 231.081 44.6249C231.088 44.6249 231.096 44.6256 231.104 44.6283C231.112 44.631 231.119 44.6357 231.116 44.6433C231.112 44.6509 231.098 44.6617 231.057 44.6725C231.015 44.6833 230.944 44.6945 230.838 44.6942C230.732 44.6939 230.588 44.6819 230.456 44.6367C230.324 44.5915 230.201 44.511 230.257 44.3825C230.313 44.2541 230.555 44.0726 231.259 43.8899C231.963 43.7073 233.162 43.5182 234.95 43.5226C236.738 43.527 239.183 43.7307 241.415 44.4942C243.648 45.2577 245.726 46.6195 244.778 48.7908C243.83 50.962 239.738 54.0292 227.84 57.1163C215.942 60.2034 195.665 63.3999 165.447 63.3256" fill="none" fill-rule="evenodd" opacity="1" stroke="#c4b0ff" stroke-linecap="round" stroke-linejoin="round" stroke-width="5"/>
<path d="M484.565 154.025C479.613 137.29 501.324 118.751 491.731 90.3552C483.217 65.1557 458.815 74.4129 455.897 79.6579C457.205 55.9841 462.544 53.6955 463.422 51.1582C464.61 47.7278 459.813 45.6669 457.334 49.6432C454.232 55.8184 452.868 74.0813 452.924 79.4921C452.971 84.4199 453.086 108.068 467.296 133.077C448.697 108.411 447.358 84.8245 447.129 81.0264C444.215 80.7699 439.385 81.2981 433.425 86.869C421.203 98.296 423.417 131.688 484.565 154.025Z" fill="#c4b0ff" fill-rule="evenodd" opacity="1" stroke="none"/>
<path d="M461.143 50.233C461.143 50.233 461.143 50.2331 461.143 50.2331C461.142 50.2332 461.142 50.2333 461.142 50.2333C461.141 50.2334 461.141 50.2334 461.14 50.2333C461.14 50.2332 461.139 50.233 461.14 50.2324C461.14 50.2319 461.141 50.2311 461.144 50.23C461.146 50.2289 461.151 50.2275 461.158 50.2266C461.164 50.2256 461.173 50.2251 461.181 50.2269C461.189 50.2286 461.196 50.2327 461.191 50.2416C461.187 50.2505 461.17 50.2646 461.124 50.283C461.078 50.3013 461 50.3246 460.888 50.3406C460.776 50.3566 460.624 50.3656 460.49 50.3361C460.357 50.3066 460.239 50.2367 460.319 50.0862C460.399 49.9357 460.685 49.6981 461.462 49.3879C462.24 49.0778 463.545 48.6841 465.445 48.4132C467.345 48.1424 469.913 47.9904 472.166 48.489C474.419 48.9876 476.413 50.1704 475.062 52.7134C473.71 55.2564 468.875 59.2731 455.737 64.5153C442.599 69.7576 420.535 76.4126 388.418 80.9897C356.302 85.5669 312.912 88.1365 274.831 79.7094" fill="none" fill-rule="evenodd" opacity="1" stroke="#c4b0ff" stroke-linecap="round" stroke-linejoin="round" stroke-width="5"/>
</g>
<g opacity="1">
<path d="M729.658 181.609C721.361 166.257 692.896 168.435 679.66 141.543C667.916 117.677 691.741 107.022 697.509 108.68C679.88 92.8257 674.482 94.9702 672.069 93.7918C668.807 92.1986 670.753 87.3537 675.315 88.4229C681.87 90.6105 695.721 102.591 699.499 106.465C702.942 109.991 719.544 126.831 727.118 154.58C722.897 123.978 707.206 106.317 704.689 103.464C706.572 101.227 710.368 98.1933 718.523 97.9363C735.246 97.4119 757.235 122.64 729.658 181.609Z" fill="#94d0ac" fill-rule="evenodd" opacity="1" stroke="none"/>
<path d="M675.615 92.3719C675.611 92.3692 675.605 92.3656 675.596 92.3621C675.587 92.3586 675.575 92.3551 675.563 92.3542C675.55 92.3532 675.538 92.3549 675.534 92.3622C675.53 92.3695 675.534 92.3827 675.557 92.4022C675.58 92.4217 675.624 92.4477 675.689 92.4732C675.754 92.4988 675.843 92.5237 675.932 92.5305C676.021 92.5373 676.111 92.5251 676.142 92.4723C676.172 92.4194 676.141 92.3239 675.973 92.183C675.805 92.0421 675.492 91.8535 675.019 91.6689C674.545 91.4842 673.903 91.3037 673.258 91.2544C672.613 91.2051 671.965 91.2937 671.742 91.6761C671.52 92.0584 671.744 92.7497 672.963 93.7693C674.181 94.7888 676.445 96.1539 679.871 97.4901C683.296 98.8263 687.944 100.133 692.611 100.49C697.279 100.847 701.969 100.205 703.58 97.4381C705.192 94.671 703.567 89.6679 694.749 82.2897C685.931 74.9115 669.545 65.0321 644.756 55.3619C619.966 45.6917 586.328 36.2351 552.551 33.6531C518.774 31.0711 484.829 35.713 473.169 55.7384" fill="none" fill-rule="evenodd" opacity="1" stroke="#c4b0ff" stroke-linecap="round" stroke-linejoin="round" stroke-width="5"/>
<path d="M616.705 130.193C618.088 112.797 645.004 103.282 646.239 73.3347C647.334 46.7583 621.235 46.6435 616.63 50.4922C626.345 28.8644 632.15 28.6437 633.88 26.5905C636.219 23.8147 632.481 20.1698 628.741 22.9919C623.629 27.6427 615.804 44.2003 613.914 49.2705C612.19 53.8872 603.813 76.0018 608.102 104.444C599.592 74.747 606.805 52.2508 607.954 48.6234C605.327 47.3387 600.629 46.0985 593.066 49.1599C577.558 55.4405 567.644 87.404 616.705 130.193Z" fill="#ffff63" fill-rule="evenodd" opacity="1" stroke="none"/>
<path d="M957.818 242.055C958.977 224.642 933.728 211.319 936.856 181.51C939.634 155.056 965.472 158.733 969.47 163.21C962.999 140.401 957.288 139.339 955.874 137.056C953.963 133.97 958.191 130.907 961.482 134.243C965.863 139.586 971.201 157.105 972.334 162.396C973.37 167.214 978.446 190.311 970.07 217.829C982.803 189.683 978.935 166.377 978.325 162.622C981.111 161.732 985.939 161.188 992.977 165.315C1007.41 173.782 1012.57 206.846 957.818 242.055Z" fill="#c4b0ff" fill-rule="evenodd" opacity="1" stroke="none"/>
<path d="M631.549 25.5093C631.549 25.5093 631.549 25.5093 631.549 25.5093C631.549 25.5094 631.549 25.5094 631.549 25.5094C631.549 25.5094 631.548 25.5094 631.548 25.5094C631.548 25.5093 631.547 25.5092 631.547 25.509C631.546 25.5087 631.546 25.5084 631.546 25.508C631.546 25.5076 631.547 25.5071 631.55 25.5068C631.552 25.5065 631.557 25.5065 631.563 25.5074C631.569 25.5083 631.577 25.5102 631.585 25.514C631.592 25.5178 631.599 25.5236 631.594 25.5306C631.59 25.5376 631.574 25.5462 631.531 25.5509C631.489 25.5556 631.417 25.5564 631.312 25.5408C631.208 25.5253 631.066 25.4925 630.942 25.4287C630.818 25.3649 630.708 25.2675 630.782 25.1484C630.856 25.0294 631.122 24.8848 631.845 24.8058C632.567 24.7267 633.782 24.7128 635.55 24.9753C637.319 25.2379 639.709 25.7926 641.807 26.8705C643.906 27.9484 645.766 29.5961 644.514 31.6076C643.262 33.6191 638.77 36.0632 626.552 37.3997C614.333 38.7362 593.806 38.9708 563.916 34.5333" fill="none" fill-rule="evenodd" opacity="1" stroke="#c4b0ff" stroke-linecap="round" stroke-linejoin="round" stroke-width="5"/>
<path d="M866.59 170.368C864.107 153.094 888.267 137.885 882.876 108.401C878.09 82.2358 852.607 87.8719 848.962 92.6405C853.676 69.4039 859.289 67.9103 860.525 65.5265C862.195 62.3035 857.746 59.5714 854.719 63.1481C850.758 68.8104 846.771 86.685 846.044 92.047C845.379 96.93 842.078 120.347 852.527 147.146C837.685 120.052 839.766 96.5197 840.088 92.7284C837.243 92.0538 832.387 91.8789 825.684 96.5306C811.94 106.073 809.309 139.435 866.59 170.368Z" fill="#ffae58" fill-rule="evenodd" opacity="1" stroke="none"/>
<path d="M959.038 136.839C959.041 136.835 959.042 136.829 959.039 136.823C959.037 136.816 959.029 136.809 959.015 136.804C959.001 136.799 958.98 136.797 958.956 136.803C958.932 136.809 958.904 136.823 958.885 136.848C958.865 136.873 958.855 136.91 958.873 136.952C958.891 136.994 958.939 137.041 959.029 137.071C959.118 137.101 959.251 137.114 959.406 137.077C959.561 137.039 959.739 136.949 959.862 136.788C959.985 136.627 960.049 136.392 959.933 136.126C959.818 135.859 959.513 135.559 958.942 135.366C958.372 135.173 957.524 135.092 956.534 135.331C955.544 135.57 954.408 136.146 953.624 137.172C952.841 138.199 952.429 139.697 953.168 141.4C953.906 143.102 955.852 145.016 959.493 146.249C963.133 147.483 968.547 148 974.863 146.472C981.179 144.944 988.433 141.27 993.434 134.719C998.436 128.168 1001.06 118.605 996.349 107.739C991.634 96.8743 979.214 84.6593 955.981 76.7864C932.749 68.9134 898.193 65.6166 857.881 75.3686" fill="none" fill-rule="evenodd" opacity="1" stroke="#c4b0ff" stroke-linecap="round" stroke-linejoin="round" stroke-width="5"/>
<path d="M858.403 64.2817C858.403 64.2817 858.403 64.2817 858.402 64.2818C858.402 64.2818 858.402 64.2819 858.402 64.2819C858.401 64.2819 858.401 64.2818 858.4 64.2816C858.4 64.2815 858.399 64.2812 858.4 64.2807C858.4 64.2802 858.401 64.2795 858.404 64.2789C858.407 64.2782 858.412 64.2775 858.418 64.2775C858.425 64.2775 858.434 64.2783 858.442 64.2811C858.449 64.284 858.455 64.2891 858.449 64.2972C858.443 64.3054 858.425 64.3168 858.376 64.3284C858.328 64.3399 858.249 64.3518 858.135 64.3514C858.021 64.351 857.87 64.338 857.742 64.2895C857.615 64.2411 857.508 64.1548 857.609 64.0175C857.71 63.8801 858.027 63.6863 858.841 63.4917C859.655 63.297 861.003 63.0959 862.923 63.1024C864.842 63.1088 867.404 63.3291 869.562 64.1479C871.719 64.9666 873.522 66.425 871.817 68.7462C870.113 71.0674 864.748 74.3437 850.991 77.6336C837.234 80.9236 814.439 84.3223 781.999 84.2133C749.558 84.1043 706.251 80.3806 669.787 66.5423" fill="none" fill-rule="evenodd" opacity="1" stroke="#c4b0ff" stroke-linecap="round" stroke-linejoin="round" stroke-width="5"/>
</g>
</g>
<g opacity="1">
<g opacity="1">
<path d="M186.294 348.985C172.327 338.522 178.666 310.686 154.011 293.641C132.131 278.516 118.089 300.516 118.882 306.466C105.791 286.697 108.706 281.673 107.895 279.113C106.798 275.653 101.72 276.865 102.107 281.535C103.307 288.34 113.122 303.802 116.398 308.109C119.38 312.033 133.597 330.929 159.931 342.5C130.282 333.826 115.119 315.71 112.667 312.8C110.177 314.335 106.619 317.644 105.166 325.672C102.189 342.137 123.911 367.595 186.294 348.985Z" fill="#ffff63" fill-rule="evenodd" opacity="1" stroke="none"/>
<path d="M105.969 282.412C105.967 282.408 105.964 282.402 105.962 282.392C105.96 282.383 105.958 282.37 105.959 282.358C105.96 282.346 105.963 282.334 105.971 282.331C105.979 282.327 105.992 282.334 106.007 282.359C106.023 282.385 106.043 282.432 106.058 282.5C106.074 282.569 106.086 282.66 106.079 282.749C106.073 282.839 106.048 282.925 105.991 282.948C105.934 282.971 105.844 282.926 105.729 282.739C105.615 282.551 105.474 282.214 105.361 281.719C105.248 281.224 105.164 280.562 105.21 279.917C105.256 279.272 105.439 278.643 105.85 278.479C106.261 278.315 106.912 278.639 107.741 279.994C108.57 281.349 109.588 283.79 110.406 287.374C111.224 290.959 111.834 295.748 111.5 300.417C111.167 305.086 109.843 309.632 106.87 310.819C103.896 312.006 99.1857 309.664 93.1838 299.857C87.1819 290.049 79.8183 272.39 73.8969 246.448C67.9754 220.507 63.5658 185.844 65.9767 152.054C68.3875 118.265 77.9685 85.3707 99.4904 76.7804" fill="none" fill-rule="evenodd" filter="url(#Filter_3)" stroke="#c4b0ff" stroke-linecap="round" stroke-linejoin="round" stroke-width="5" vectornator:shadowAngle="1.57621" vectornator:shadowColor="#000000" vectornator:shadowOffset="1" vectornator:shadowOpacity="0.48232" vectornator:shadowRadius="3"/>
<path d="M152.038 229.702C134.628 228.512 121.26 253.738 91.4564 250.557C65.0077 247.734 68.7303 221.902 73.2142 217.912C50.3932 224.343 49.3218 230.052 47.0366 231.462C43.947 233.368 40.8912 229.134 44.2325 225.849C49.584 221.477 67.112 216.17 72.405 215.046C77.2249 214.019 100.331 208.984 127.834 217.407C99.7099 204.625 76.3978 208.453 72.6409 209.056C71.7563 206.268 71.2202 201.439 75.3599 194.409C83.8518 179.992 116.925 174.884 152.038 229.702Z" fill="#ffae58" fill-rule="evenodd" filter="url(#Filter_4)" stroke="none" vectornator:shadowAngle="1.57621" vectornator:shadowColor="#000000" vectornator:shadowOffset="1" vectornator:shadowOpacity="0.48232" vectornator:shadowRadius="3"/>
<path d="M46.3097 228.997C46.3097 228.997 46.3097 228.997 46.3097 228.997C46.3098 228.997 46.3098 228.997 46.3098 228.997C46.3099 228.997 46.3099 228.996 46.3099 228.996C46.3099 228.996 46.3099 228.995 46.3097 228.995C46.3096 228.994 46.3093 228.994 46.3088 228.994C46.3084 228.994 46.3077 228.995 46.3071 228.998C46.3064 229 46.3058 229.004 46.3058 229.01C46.3058 229.017 46.3065 229.025 46.3091 229.033C46.3118 229.041 46.3165 229.048 46.3241 229.045C46.3317 229.042 46.3425 229.027 46.3534 228.986C46.3643 228.944 46.3757 228.873 46.3757 228.767C46.3757 228.662 46.3641 228.517 46.3192 228.385C46.2744 228.252 46.1942 228.129 46.0655 228.185C45.9369 228.241 45.7548 228.482 45.5704 229.186C45.3859 229.889 45.1937 231.089 45.1934 232.876C45.1932 234.664 45.3906 237.11 46.1483 239.344C46.906 241.579 48.2623 243.66 50.4361 242.718C52.6098 241.775 55.6876 237.691 58.8056 225.802C61.9235 213.912 65.1727 193.643 65.1769 163.425" fill="none" fill-rule="evenodd" opacity="1" stroke="#c4b0ff" stroke-linecap="round" stroke-linejoin="round" stroke-width="5"/>
<path d="M155.047 482.777C138.326 477.782 119.73 499.444 91.359 489.778C66.1817 481.198 75.5022 456.821 80.7548 453.916C57.0777 455.163 54.7753 460.496 52.2357 461.368C48.8022 462.546 46.7537 457.744 50.7365 455.276C56.9197 452.189 75.1861 450.873 80.5967 450.942C85.5244 451.002 109.172 451.179 134.144 465.454C109.526 446.791 85.9436 445.39 82.146 445.152C81.8971 442.238 82.4378 437.409 88.0242 431.463C99.4829 419.27 132.869 421.572 155.047 482.777Z" fill="#94d0ac" fill-rule="evenodd" opacity="1" stroke="none"/>
<path d="M51.3164 459.086C51.3164 459.086 51.3164 459.086 51.3165 459.085C51.3166 459.085 51.3167 459.085 51.3167 459.085C51.3168 459.084 51.3168 459.084 51.3167 459.083C51.3166 459.083 51.3163 459.082 51.3158 459.083C51.3153 459.083 51.3145 459.084 51.3134 459.087C51.3123 459.089 51.3109 459.094 51.3099 459.1C51.309 459.107 51.3084 459.116 51.3101 459.124C51.3118 459.132 51.316 459.139 51.3249 459.134C51.3338 459.129 51.3479 459.113 51.3664 459.067C51.3848 459.021 51.4083 458.944 51.4247 458.831C51.441 458.719 51.4504 458.567 51.4212 458.434C51.3921 458.3 51.3224 458.182 51.1717 458.262C51.0211 458.341 50.7827 458.627 50.4705 459.403C50.1583 460.18 49.7612 461.484 49.4855 463.383C49.2097 465.283 49.051 467.85 49.5437 470.104C50.0365 472.358 51.2141 474.356 53.7606 473.011C56.3071 471.666 60.3363 466.841 65.6127 453.717C70.8891 440.593 77.6013 418.546 82.2619 386.441C86.9224 354.337 89.6047 310.953 81.2766 272.851" fill="none" fill-rule="evenodd" opacity="1" stroke="#c4b0ff" stroke-linecap="round" stroke-linejoin="round" stroke-width="5"/>
</g>
<g opacity="1">
<path d="M180.746 729.043C165.414 720.707 167.666 692.247 140.809 678.942C116.974 667.135 106.257 690.932 107.9 696.705C92.0915 679.034 94.2499 673.642 93.0778 671.226C91.4931 667.96 86.6432 669.893 87.7005 674.458C89.8711 681.019 101.816 694.901 105.68 698.689C109.196 702.142 125.994 718.787 153.723 726.433C123.132 722.132 105.512 706.395 102.665 703.871C100.423 705.749 97.3798 709.537 97.1018 717.69C96.5338 734.413 121.704 756.467 180.746 729.043Z" fill="#f7567c" fill-rule="evenodd" opacity="1" stroke="none"/>
<path d="M91.6488 674.768C91.6461 674.765 91.6425 674.759 91.639 674.75C91.6355 674.741 91.6321 674.728 91.6312 674.716C91.6303 674.704 91.632 674.691 91.6393 674.687C91.6466 674.683 91.6598 674.687 91.6792 674.711C91.6986 674.734 91.7246 674.777 91.7499 674.843C91.7753 674.908 91.8 674.997 91.8066 675.086C91.8131 675.175 91.8007 675.265 91.7477 675.295C91.6948 675.326 91.5994 675.295 91.4589 675.126C91.3185 674.957 91.1307 674.644 90.9473 674.17C90.7639 673.696 90.585 673.054 90.5374 672.409C90.4897 671.764 90.58 671.116 90.963 670.894C91.3459 670.672 92.0366 670.899 93.053 672.12C94.0693 673.341 95.4286 675.609 96.7559 679.037C98.0832 682.466 99.3779 687.118 99.7225 691.786C100.067 696.454 99.4136 701.143 96.6423 702.747C93.871 704.351 88.8722 702.714 81.5169 693.876C74.1616 685.039 64.3249 668.627 54.719 643.813C45.1132 618.999 35.744 585.336 33.2497 551.553C30.7555 517.769 35.4856 483.836 55.5412 472.228" fill="none" fill-rule="evenodd" opacity="1" stroke="#c4b0ff" stroke-linecap="round" stroke-linejoin="round" stroke-width="5"/>
<path d="M129.623 615.957C112.223 617.294 102.638 644.186 72.6879 645.343C46.1088 646.369 46.0617 620.27 49.9224 615.674C28.2694 625.334 28.0336 631.138 25.976 632.863C23.1941 635.195 19.559 631.447 22.3908 627.714C27.0548 622.615 43.6326 614.832 48.7078 612.955C53.3289 611.243 75.4652 602.924 103.896 607.287C74.2214 598.7 51.7065 605.855 48.0762 606.994C46.7983 604.364 45.5703 599.662 48.6513 592.108C54.9722 576.616 86.9613 566.785 129.623 615.957Z" fill="#c4b0ff" fill-rule="evenodd" opacity="1" stroke="none"/>
<path d="M240.599 957.359C223.183 958.473 209.925 933.189 180.108 936.24C153.647 938.949 157.257 964.797 161.724 968.806C138.931 962.276 137.884 956.563 135.605 955.143C132.524 953.223 129.45 957.443 132.777 960.743C138.109 965.138 155.614 970.522 160.902 971.669C165.718 972.716 188.801 977.852 216.34 969.548C188.161 982.208 164.866 978.279 161.112 977.66C160.215 980.443 159.658 985.27 163.767 992.319C172.197 1006.77 205.248 1012.02 240.599 957.359Z" fill="#c4b0ff" fill-rule="evenodd" opacity="1" stroke="none"/>
<path d="M24.9008 630.529C24.9008 630.529 24.9008 630.529 24.9009 630.529C24.9009 630.529 24.9009 630.529 24.9009 630.529C24.9009 630.529 24.9009 630.528 24.9009 630.528C24.9008 630.528 24.9007 630.527 24.9005 630.527C24.9003 630.526 24.8999 630.526 24.8995 630.526C24.8991 630.526 24.8986 630.527 24.8983 630.53C24.898 630.532 24.898 630.537 24.8989 630.543C24.8998 630.549 24.9017 630.557 24.9055 630.565C24.9092 630.572 24.915 630.579 24.922 630.574C24.9291 630.57 24.9377 630.554 24.9424 630.511C24.9472 630.469 24.9482 630.397 24.933 630.292C24.9177 630.187 24.8853 630.046 24.8218 629.922C24.7584 629.797 24.6612 629.687 24.542 629.761C24.4228 629.835 24.2775 630.1 24.1965 630.823C24.1156 631.545 24.0985 632.76 24.3565 634.529C24.6144 636.298 25.1629 638.689 26.2354 640.791C27.3078 642.893 28.9507 644.757 30.9654 643.51C32.9802 642.263 35.436 637.778 36.8042 625.562C38.1724 613.347 38.4603 592.821 34.1005 562.92" fill="none" fill-rule="evenodd" opacity="1" stroke="#c4b0ff" stroke-linecap="round" stroke-linejoin="round" stroke-width="5"/>
<path d="M169.148 865.945C151.881 863.417 136.609 887.538 107.139 882.07C80.9869 877.216 86.6891 851.748 91.4671 848.116C68.2184 852.769 66.7102 858.378 64.3232 859.608C61.0959 861.27 58.3754 856.814 61.9599 853.796C67.6325 849.849 85.5174 845.909 90.8813 845.196C95.766 844.544 119.191 841.304 145.963 851.822C118.908 836.91 95.3703 838.93 91.5781 839.242C90.9109 836.395 90.7486 831.538 95.4177 824.848C104.995 811.128 138.364 808.584 169.148 865.945Z" fill="#afd9f7" fill-rule="evenodd" opacity="1" stroke="none"/>
<path d="M135.379 958.306C135.375 958.309 135.37 958.31 135.363 958.307C135.357 958.304 135.349 958.297 135.345 958.283C135.34 958.269 135.338 958.248 135.344 958.224C135.35 958.2 135.364 958.172 135.389 958.153C135.415 958.133 135.451 958.123 135.493 958.142C135.535 958.16 135.582 958.208 135.612 958.297C135.642 958.387 135.654 958.52 135.616 958.674C135.578 958.829 135.488 959.007 135.327 959.13C135.165 959.252 134.93 959.316 134.664 959.199C134.398 959.083 134.098 958.777 133.907 958.207C133.715 957.636 133.636 956.787 133.878 955.798C134.12 954.809 134.699 953.674 135.727 952.893C136.756 952.112 138.255 951.705 139.955 952.448C141.656 953.191 143.565 955.142 144.789 958.785C146.013 962.428 146.515 967.844 144.971 974.156C143.427 980.468 139.734 987.712 133.17 992.697C126.606 997.681 117.036 1000.28 106.183 995.541C95.3304 990.798 83.1477 978.346 75.3352 955.093C67.5226 931.84 64.3155 897.277 74.1722 856.99" fill="none" fill-rule="evenodd" opacity="1" stroke="#c4b0ff" stroke-linecap="round" stroke-linejoin="round" stroke-width="5"/>
<path d="M63.0839 857.482C63.0839 857.482 63.084 857.482 63.084 857.482C63.0841 857.482 63.0841 857.482 63.0841 857.481C63.0841 857.481 63.0841 857.48 63.0839 857.48C63.0837 857.48 63.0834 857.479 63.0829 857.48C63.0825 857.48 63.0818 857.481 63.0811 857.484C63.0804 857.487 63.0797 857.491 63.0797 857.498C63.0797 857.505 63.0804 857.514 63.0833 857.521C63.0861 857.529 63.0912 857.535 63.0994 857.529C63.1075 857.523 63.119 857.505 63.1307 857.456C63.1423 857.408 63.1544 857.329 63.1543 857.215C63.1542 857.101 63.1416 856.95 63.0935 856.822C63.0454 856.694 62.9594 856.587 62.8218 856.688C62.6842 856.788 62.4895 857.105 62.2928 857.919C62.096 858.732 61.8914 860.08 61.8929 862C61.8943 863.919 62.108 866.482 62.9211 868.641C63.7342 870.801 65.188 872.607 67.5136 870.909C69.8392 869.21 73.1294 863.854 76.455 850.105C79.7807 836.357 83.2386 813.571 83.2139 781.131C83.1891 748.69 79.5779 705.373 65.8344 668.873" fill="none" fill-rule="evenodd" opacity="1" stroke="#c4b0ff" stroke-linecap="round" stroke-linejoin="round" stroke-width="5"/>
</g>
</g>
<path d="M73.9854 167.334C58.7048 152.053 71.5655 100.395 87.0045 84.9558C102.443 69.5168 160.232 56.5373 175.513 71.8179C190.794 87.0984 139.562 103.922 124.123 119.361C108.684 134.8 89.266 182.614 73.9854 167.334Z" fill="none" fill-rule="evenodd" opacity="1" stroke="#c4b0ff" stroke-linecap="round" stroke-linejoin="round" stroke-width="5"/>
</g>
</g>
</svg>
