<?xml version="1.0" encoding="UTF-8" standalone="no"?>
<!DOCTYPE svg PUBLIC "-//W3C//DTD SVG 1.1//EN" "http://www.w3.org/Graphics/SVG/1.1/DTD/svg11.dtd">
<!-- Created with Vectornator (http://vectornator.io/) -->
<svg height="100%" stroke-miterlimit="10" style="fill-rule:nonzero;clip-rule:evenodd;stroke-linecap:round;stroke-linejoin:round;" version="1.1" viewBox="0 0 1024 1024" width="100%" xml:space="preserve" xmlns="http://www.w3.org/2000/svg" xmlns:vectornator="http://vectornator.io" xmlns:xlink="http://www.w3.org/1999/xlink">
<defs/>
<clipPath id="ArtboardFrame">
<rect height="1024" width="1024" x="0" y="0"/>
</clipPath>
<g clip-path="url(#ArtboardFrame)" id="Layer-1" vectornator:layerName="Layer 1">
<g opacity="0">
<g opacity="1">
<path d="M596.136 592.922C562.357 592.922 534.467 618.125 530.24 650.752C526.012 618.125 498.122 592.922 464.344 592.922C427.643 592.922 397.892 622.673 397.892 659.374C397.892 696.074 441.98 733.8 461.842 750.85C480.397 766.777 530.24 813.687 530.24 813.687C530.24 813.687 580.082 766.777 598.638 750.85C618.499 733.8 662.587 696.074 662.587 659.374C662.587 622.673 632.836 592.922 596.136 592.922Z" fill="#f7567c" fill-rule="evenodd" opacity="1" stroke="none"/>
<path d="M530.24 819.178C528.887 819.178 527.533 818.681 526.476 817.686C525.978 817.217 476.513 770.68 458.265 755.016L458.073 754.852C436.757 736.555 392.4 698.481 392.4 659.374C392.4 619.704 424.674 587.431 464.344 587.431C493.427 587.431 519.011 604.956 530.24 630.475C541.468 604.956 567.053 587.431 596.136 587.431C635.805 587.431 668.079 619.704 668.079 659.374C668.079 698.48 623.723 736.554 602.406 754.852L602.215 755.016C583.966 770.681 534.501 817.217 534.004 817.686C532.946 818.681 531.593 819.178 530.24 819.178ZM464.344 598.414C430.73 598.414 403.384 625.76 403.384 659.374C403.384 693.433 446.722 730.633 465.227 746.518L465.418 746.683C480.872 759.948 518.25 794.907 530.24 806.153C542.229 794.907 579.608 759.948 595.061 746.683L595.252 746.518C613.758 730.633 657.096 693.433 657.096 659.374C657.096 625.76 629.749 598.414 596.136 598.414C565.592 598.414 539.605 621.218 535.686 651.458C535.331 654.195 533 656.244 530.24 656.244C527.48 656.244 525.148 654.195 524.794 651.458C520.875 621.218 494.888 598.414 464.344 598.414Z" fill="#000000" fill-rule="evenodd" opacity="1" stroke="none"/>
</g>
<path d="M530.793 791.731C529.451 791.731 528.105 791.241 527.046 790.253C512.255 776.442 485.602 751.692 473.279 741.114L473.112 740.971C471.041 739.193 468.693 737.178 466.164 734.965C463.881 732.968 463.649 729.499 465.646 727.217C467.642 724.933 471.112 724.701 473.394 726.699C475.885 728.877 478.212 730.874 480.266 732.637L480.433 732.78C492.282 742.952 516.398 765.283 534.542 782.225C536.759 784.296 536.878 787.77 534.808 789.987C533.727 791.145 532.262 791.731 530.793 791.731Z" fill="#000000" fill-rule="evenodd" opacity="1" stroke="none"/>
<path d="M454.611 722.417C453.233 722.417 451.854 721.902 450.787 720.865C447.156 717.342 443.721 713.834 440.577 710.441C438.515 708.217 438.647 704.743 440.872 702.681C443.096 700.619 446.57 700.751 448.632 702.975C451.646 706.227 454.945 709.595 458.437 712.985C460.613 715.098 460.665 718.574 458.552 720.751C457.475 721.859 456.044 722.417 454.611 722.417Z" fill="#000000" fill-rule="evenodd" opacity="1" stroke="none"/>
</g>
<g opacity="1">
<path d="M839.122 402.857L678.285 569.634" fill="none" fill-rule="evenodd" opacity="1" stroke="#000000" stroke-linecap="round" stroke-linejoin="round" stroke-width="3"/>
<path d="M852.123 628.455L690.613 653.65" fill="none" fill-rule="evenodd" opacity="1" stroke="#000000" stroke-linecap="round" stroke-linejoin="round" stroke-width="3"/>
<path d="M834.76 837.474L686.203 836.79" fill="none" fill-rule="evenodd" opacity="1" stroke="#000000" stroke-linecap="round" stroke-linejoin="round" stroke-width="3"/>
<path d="M206.14 386.248L375.197 552.116" fill="none" fill-rule="evenodd" opacity="1" stroke="#000000" stroke-linecap="round" stroke-linejoin="round" stroke-width="3"/>
<path d="M188.079 625.112L366.407 656.297" fill="none" fill-rule="evenodd" opacity="1" stroke="#000000" stroke-linecap="round" stroke-linejoin="round" stroke-width="3"/>
<path d="M221.488 860.095L389.821 833.604" fill="none" fill-rule="evenodd" opacity="1" stroke="#000000" stroke-linecap="round" stroke-linejoin="round" stroke-width="3"/>
<path d="M529.436 241.896L532.06 560.761" fill="none" fill-rule="evenodd" opacity="1" stroke="#000000" stroke-linecap="round" stroke-linejoin="round" stroke-width="3"/>
<path d="M1100.93 355.236" fill="#000000" fill-rule="evenodd" opacity="1" stroke="none"/>
</g>
<g opacity="1">
<path d="M579.295 101.533L476.712 101.533C464.643 101.533 454.859 111.316 454.859 123.385L454.859 216.807L579.294 216.807L579.294 203.066L607.54 203.066L607.54 101.533L579.295 101.533Z" fill="#fce6a0" fill-rule="evenodd" opacity="1" stroke="none"/>
<path d="M579.295 203.065L468.6 203.065C461.011 203.065 454.859 209.218 454.859 216.807L454.859 216.807C454.859 224.396 461.011 230.548 468.6 230.548L579.294 230.548L579.294 203.065L579.295 203.065Z" fill="#edb2d8" fill-rule="evenodd" opacity="1" stroke="none"/>
<path d="M476.712 98.0638C462.75 98.0638 451.391 109.423 451.391 123.385L451.391 216.807C451.391 226.296 459.111 234.016 468.6 234.016L579.294 234.016C581.21 234.016 582.763 232.463 582.763 230.548L582.763 206.534L622.045 206.534C623.961 206.534 625.513 204.981 625.513 203.065C625.513 201.15 623.961 199.597 622.045 199.597L611.009 199.597L611.009 192.029L622.045 192.029C623.961 192.029 625.514 190.476 625.514 188.561C625.514 186.646 623.961 185.092 622.045 185.092L611.009 185.092L611.009 177.525L622.045 177.525C623.961 177.525 625.514 175.972 625.514 174.056C625.514 172.141 623.961 170.588 622.045 170.588L611.009 170.588L611.009 163.02L622.045 163.02C623.961 163.02 625.514 161.467 625.514 159.552C625.514 157.636 623.961 156.083 622.045 156.083L611.009 156.083L611.009 148.516L622.045 148.516C623.961 148.516 625.514 146.962 625.514 145.047C625.514 143.132 623.961 141.579 622.045 141.579L611.009 141.579L611.009 134.011L622.045 134.011C623.961 134.011 625.514 132.458 625.514 130.543C625.514 128.627 623.961 127.074 622.045 127.074L611.009 127.074L611.009 119.506L622.045 119.506C623.961 119.506 625.514 117.953 625.514 116.037C625.514 114.122 623.961 112.569 622.045 112.569L611.009 112.569L611.009 105.001L622.045 105.001C623.961 105.001 625.514 103.448 625.514 101.532C625.514 99.6169 623.961 98.0638 622.045 98.0638C622.045 98.0638 476.712 98.0638 476.712 98.0638ZM458.932 213.338C460.358 209.375 464.153 206.534 468.601 206.534L575.826 206.534L575.826 213.338L458.932 213.338ZM575.826 220.275L575.826 227.079L468.6 227.079C464.153 227.079 460.358 224.238 458.932 220.275L575.826 220.275ZM468.6 199.597C464.753 199.597 461.197 200.866 458.328 203.008L458.328 123.385C458.328 113.248 466.575 105.001 476.712 105.001L604.072 105.001L604.072 199.597L468.6 199.597Z" fill="#000000" fill-rule="evenodd" opacity="1" stroke="none"/>
<path d="M530.818 195.083L533.109 195.083C535.025 195.083 536.577 193.529 536.577 191.614C536.577 189.699 535.025 188.146 533.109 188.146L530.818 188.146C528.903 188.146 527.35 189.699 527.35 191.614C527.35 193.529 528.903 195.083 530.818 195.083Z" fill="#000000" fill-rule="evenodd" opacity="1" stroke="none"/>
<path d="M547.613 195.083L594.181 195.083C596.096 195.083 597.649 193.529 597.649 191.614C597.649 189.699 596.096 188.146 594.181 188.146L547.613 188.146C545.697 188.146 544.145 189.699 544.145 191.614C544.145 193.529 545.697 195.083 547.613 195.083Z" fill="#000000" fill-rule="evenodd" opacity="1" stroke="none"/>
</g>
<g opacity="1">
<path d="M125.429 247.717L164.512 247.717L164.512 258.507L125.429 258.507L125.429 247.717Z" fill="#e7e1fb" fill-rule="evenodd" opacity="1" stroke="none"/>
<path d="M125.761 260.767L164.939 260.767L164.939 265.889L125.761 265.889L125.761 260.767Z" fill="#f7567c" fill-rule="evenodd" opacity="1" stroke="none"/>
<path d="M142.324 313.628C142.324 304.552 148.808 297.194 156.807 297.194C164.805 297.194 171.289 304.552 171.289 313.628C171.289 322.705 164.805 330.063 156.807 330.063C148.808 330.063 142.324 322.705 142.324 313.628Z" fill="#c4b0ff" fill-rule="evenodd" opacity="1" stroke="none"/>
<path d="M77.8665 348.369C77.8665 339.293 84.3504 331.935 92.3486 331.935C100.347 331.935 106.831 339.293 106.831 348.369C106.831 357.445 100.347 364.803 92.3486 364.803C84.3504 364.803 77.8665 357.445 77.8665 348.369Z" fill="#c4b0ff" fill-rule="evenodd" opacity="1" stroke="none"/>
<path d="M145.872 306.925L124.605 299.538L124.684 267.218L164.307 268.793L162.842 297.195L145.872 306.925Z" fill="#e7e1fb" fill-rule="evenodd" opacity="1" stroke="none"/>
<path d="M110.494 355.289L89.0665 331.719L126.579 299.25L144.12 305.249L144.192 331.995L110.494 355.289Z" fill="#e7e1fb" fill-rule="evenodd" opacity="1" stroke="none"/>
<path d="M169.293 301.151C169.265 301.11 169.239 301.069 169.211 301.029C168.833 300.473 168.481 299.855 168.136 299.144C168.097 299.062 168.05 298.985 168 298.91C167.266 297.317 166.878 295.659 166.878 294.005L166.878 267.032L166.878 259.007L166.878 246.945C166.878 245.834 165.978 244.934 164.868 244.934L154.828 244.934C154.824 244.934 154.82 244.934 154.816 244.934C154.812 244.934 154.808 244.934 154.804 244.934L148.797 244.934C148.793 244.934 148.789 244.934 148.785 244.934C148.781 244.934 148.777 244.934 148.773 244.934L140.756 244.934C140.752 244.934 140.748 244.934 140.744 244.934C140.74 244.934 140.736 244.934 140.732 244.934L132.714 244.934C132.71 244.934 132.706 244.934 132.702 244.934C132.698 244.934 132.694 244.934 132.69 244.934L124.661 244.934C123.551 244.934 122.651 245.834 122.651 246.945L122.651 259.007L122.651 267.048L122.651 292.35C122.651 298.134 119.886 303.567 115.211 306.973L81.6909 331.382C81.558 331.514 81.4327 331.651 81.3043 331.786C81.2341 331.842 81.1662 331.901 81.1036 331.967C75.7369 337.618 74.3161 345.647 76.8675 352.556C76.8826 352.597 76.8962 352.639 76.9116 352.68C76.995 352.901 77.0852 353.121 77.1771 353.34C77.2098 353.418 77.24 353.497 77.2737 353.575C77.3537 353.76 77.4402 353.942 77.5262 354.125C77.5768 354.233 77.6247 354.341 77.6772 354.448C77.7538 354.603 77.8367 354.756 77.9175 354.91C77.9856 355.04 78.0511 355.17 78.1222 355.299C78.1971 355.434 78.278 355.566 78.3562 355.699C78.4398 355.842 78.5208 355.986 78.6082 356.127C78.6862 356.253 78.7706 356.376 78.8516 356.5C78.9458 356.644 79.0372 356.79 79.1355 356.933C79.2257 357.063 79.3225 357.191 79.4163 357.32C79.5124 357.452 79.6052 357.586 79.7049 357.716C79.8323 357.883 79.9673 358.046 80.1007 358.209C80.1732 358.298 80.2418 358.389 80.3162 358.477C80.5285 358.728 80.7478 358.976 80.9747 359.219C81.2046 359.465 81.4402 359.704 81.6796 359.936C81.7606 360.015 81.8445 360.088 81.9267 360.165C82.0845 360.313 82.2419 360.461 82.4035 360.603C82.5187 360.705 82.6368 360.8 82.7536 360.899C82.8844 361.008 83.0144 361.119 83.1475 361.225C83.2853 361.334 83.4257 361.439 83.5659 361.545C83.6799 361.631 83.7937 361.718 83.9094 361.801C84.0668 361.914 84.2263 362.023 84.3862 362.131C84.4861 362.199 84.5855 362.266 84.6864 362.332C84.8623 362.446 85.0402 362.557 85.219 362.665C85.3043 362.717 85.3893 362.768 85.4753 362.818C85.6704 362.932 85.8669 363.043 86.065 363.15C86.1338 363.187 86.2026 363.223 86.2716 363.26C86.4876 363.373 86.7051 363.483 86.9244 363.588C86.9722 363.611 87.0201 363.633 87.0681 363.655C87.3091 363.768 87.5516 363.877 87.7963 363.98C87.8147 363.988 87.8333 363.995 87.8519 364.002C95.006 366.985 103.571 365.623 109.459 359.833L143.55 335.51C145.194 334.336 147.103 333.532 149.188 333.102C149.311 333.103 149.434 333.095 149.557 333.072C150.624 332.877 151.567 332.766 152.458 332.739C152.485 332.739 152.512 332.738 152.54 332.738C152.643 332.735 152.747 332.733 152.85 332.733C153.201 332.732 153.553 332.72 153.904 332.7C155.122 332.632 156.343 332.45 157.561 332.148C159.026 331.785 160.427 331.258 161.746 330.595C167.776 327.562 172.076 321.615 172.796 314.797C172.861 314.18 172.898 313.566 172.907 312.955C172.974 308.682 171.701 304.592 169.293 301.151ZM160.628 326.638C160.625 326.639 160.623 326.64 160.621 326.642C159.371 327.346 158.019 327.891 156.593 328.244C155.66 328.476 154.727 328.62 153.796 328.68C153.478 328.7 153.16 328.71 152.843 328.711C151.803 328.714 150.782 328.785 149.783 328.923C146.609 325.914 144.765 321.741 144.765 317.263C144.765 308.38 151.964 301.18 160.847 301.18C162.228 301.18 163.589 301.358 164.909 301.703C165.152 302.146 165.416 302.582 165.699 303.012C165.796 303.161 165.895 303.308 165.996 303.453C167.925 306.209 168.941 309.474 168.887 312.898C168.879 313.387 168.849 313.879 168.797 314.374C168.254 319.516 165.131 324.063 160.699 326.596C160.675 326.61 160.652 326.624 160.628 326.638ZM126.671 261.017L162.857 261.017L162.857 265.023L126.671 265.037L126.671 261.017ZM130.692 248.955L130.692 250.922C130.692 252.033 131.592 252.933 132.702 252.933C133.812 252.933 134.713 252.033 134.713 250.922L134.713 248.955L138.733 248.955L138.733 250.922C138.733 252.033 139.633 252.933 140.744 252.933C141.854 252.933 142.754 252.033 142.754 250.922L142.754 248.955L146.775 248.955L146.775 250.922C146.775 252.033 147.674 252.933 148.785 252.933C149.895 252.933 150.795 252.033 150.795 250.922L150.795 248.955L152.805 248.955L152.805 250.949C152.805 252.059 153.705 252.959 154.816 252.959C155.926 252.959 156.826 252.059 156.826 250.949L156.826 248.955L162.857 248.955L162.857 256.996L126.671 256.996L126.671 248.955L130.692 248.955ZM104.52 358.7C99.5285 362.157 93.0749 362.394 87.9096 359.577C87.9019 359.573 87.8941 359.569 87.8863 359.565C87.7224 359.475 87.5605 359.38 87.3991 359.284C87.3407 359.249 87.2818 359.215 87.2239 359.18C87.0863 359.096 86.9506 359.008 86.8153 358.919C86.7343 358.866 86.6533 358.812 86.5729 358.757C86.454 358.676 86.3359 358.593 86.2186 358.508C86.1223 358.438 86.0268 358.367 85.9317 358.295C85.8287 358.217 85.7262 358.138 85.6247 358.057C85.5149 357.969 85.4065 357.878 85.2984 357.787C85.2122 357.715 85.1255 357.643 85.0407 357.568C84.9106 357.453 84.7832 357.335 84.656 357.215C84.5942 357.157 84.5313 357.101 84.4706 357.042C84.2814 356.858 84.0953 356.67 83.9134 356.475C83.736 356.285 83.5647 356.092 83.3984 355.895C83.3426 355.829 83.2905 355.761 83.2359 355.694C83.1294 355.565 83.0224 355.435 82.9206 355.302C82.8469 355.206 82.7779 355.108 82.7067 355.011C82.6295 354.906 82.551 354.801 82.4768 354.694C82.3976 354.58 82.3227 354.464 82.2469 354.349C82.1866 354.257 82.1248 354.166 82.0666 354.073C81.9861 353.944 81.9097 353.814 81.8332 353.684C81.7854 353.602 81.7361 353.522 81.6899 353.44C81.6101 353.298 81.5342 353.154 81.4588 353.011C81.4214 352.939 81.383 352.868 81.3465 352.796C81.2685 352.641 81.1943 352.485 81.1217 352.328C81.0932 352.267 81.0638 352.205 81.036 352.143C80.9608 351.976 80.8894 351.806 80.8206 351.637C80.7999 351.586 80.7787 351.535 80.7584 351.484C80.6871 351.302 80.6192 351.12 80.5547 350.937C80.5408 350.898 80.5269 350.859 80.5134 350.819C80.446 350.623 80.3827 350.426 80.3231 350.228C80.3155 350.203 80.308 350.178 80.3007 350.153C80.2383 349.94 80.1798 349.727 80.1264 349.513C80.124 349.504 80.1219 349.495 80.1195 349.486C78.9242 344.655 80.035 339.377 83.4356 335.384C95.193 335.904 104.558 345.595 104.558 357.47C104.558 357.869 104.546 358.278 104.52 358.7ZM141.214 332.238L108.51 355.571C107.667 343.838 99.0752 334.246 87.8175 331.894L117.578 310.223C123.292 306.061 126.671 299.42 126.671 292.35L126.671 269.058L162.857 269.043L162.857 294.005C162.857 295.115 162.986 296.218 163.229 297.302C162.442 297.208 161.647 297.16 160.847 297.16C149.743 297.16 140.744 306.16 140.744 317.263C140.744 322.015 142.409 326.497 145.338 330.043C143.869 330.6 142.485 331.33 141.214 332.238Z" fill="#000000" fill-rule="evenodd" opacity="1" stroke="#000000" stroke-linecap="round" stroke-linejoin="round" stroke-width="1"/>
<path d="M161.651 260.261L200.733 260.261L200.733 271.051L161.651 271.051L161.651 260.261Z" fill="#94d0ac" fill-rule="evenodd" opacity="1" stroke="none"/>
<path d="M161.982 273.311L201.16 273.311L201.16 278.433L161.982 278.433L161.982 273.311Z" fill="#46adf7" fill-rule="evenodd" opacity="1" stroke="none"/>
<path d="M178.546 326.172C178.546 317.096 185.03 309.738 193.028 309.738C201.026 309.738 207.51 317.096 207.51 326.172C207.51 335.248 201.026 342.606 193.028 342.606C185.03 342.606 178.546 335.248 178.546 326.172Z" fill="#ffae58" fill-rule="evenodd" opacity="1" stroke="none"/>
<path d="M114.088 360.913C114.088 351.836 120.572 344.478 128.57 344.478C136.568 344.478 143.052 351.836 143.052 360.913C143.052 369.989 136.568 377.347 128.57 377.347C120.572 377.347 114.088 369.989 114.088 360.913Z" fill="#ffae58" fill-rule="evenodd" opacity="1" stroke="none"/>
<path d="M182.093 319.469L160.826 312.082L160.906 279.762L200.529 281.337L199.063 309.739L182.093 319.469Z" fill="#94d0ac" fill-rule="evenodd" opacity="1" stroke="none"/>
<path d="M146.716 367.833L125.288 344.263L162.8 311.794L180.341 317.793L180.414 344.538L146.716 367.833Z" fill="#94d0ac" fill-rule="evenodd" opacity="1" stroke="none"/>
<path d="M205.515 313.694C205.486 313.654 205.46 313.613 205.432 313.572C205.055 313.017 204.703 312.399 204.358 311.688C204.318 311.606 204.272 311.529 204.222 311.454C203.487 309.861 203.1 308.203 203.1 306.548L203.1 279.576L203.1 271.551L203.1 259.488C203.1 258.378 202.2 257.478 201.089 257.478L191.05 257.478C191.046 257.478 191.042 257.477 191.038 257.477C191.034 257.477 191.03 257.478 191.026 257.478L185.019 257.478C185.015 257.478 185.011 257.477 185.007 257.477C185.003 257.477 184.999 257.478 184.995 257.478L176.977 257.478C176.973 257.478 176.969 257.477 176.965 257.477C176.961 257.477 176.957 257.478 176.953 257.478L168.936 257.478C168.932 257.478 168.928 257.477 168.924 257.477C168.92 257.477 168.916 257.478 168.912 257.478L160.883 257.478C159.772 257.478 158.872 258.378 158.872 259.488L158.872 271.551L158.872 279.592L158.872 304.894C158.872 310.678 156.108 316.111 151.432 319.516L117.912 343.926C117.78 344.058 117.654 344.195 117.526 344.329C117.456 344.386 117.388 344.445 117.325 344.511C111.958 350.162 110.538 358.19 113.089 365.1C113.104 365.141 113.118 365.182 113.133 365.223C113.216 365.445 113.307 365.665 113.399 365.884C113.431 365.962 113.461 366.041 113.495 366.119C113.575 366.304 113.662 366.486 113.748 366.669C113.798 366.776 113.846 366.885 113.899 366.992C113.975 367.147 114.058 367.3 114.139 367.454C114.207 367.583 114.273 367.714 114.344 367.842C114.419 367.977 114.499 368.11 114.578 368.243C114.661 368.386 114.742 368.529 114.83 368.671C114.908 368.796 114.992 368.919 115.073 369.044C115.167 369.188 115.259 369.334 115.357 369.476C115.447 369.607 115.544 369.734 115.638 369.864C115.734 369.996 115.827 370.13 115.926 370.26C116.054 370.427 116.189 370.589 116.322 370.753C116.395 370.842 116.463 370.933 116.538 371.021C116.75 371.272 116.969 371.52 117.196 371.763C117.426 372.009 117.662 372.248 117.901 372.48C117.982 372.558 118.066 372.632 118.148 372.709C118.306 372.857 118.463 373.005 118.625 373.147C118.74 373.248 118.858 373.344 118.975 373.442C119.106 373.552 119.236 373.663 119.369 373.768C119.507 373.878 119.647 373.983 119.787 374.089C119.901 374.175 120.015 374.261 120.131 374.344C120.288 374.458 120.448 374.567 120.608 374.675C120.708 374.742 120.807 374.81 120.908 374.875C121.084 374.99 121.262 375.1 121.441 375.209C121.526 375.26 121.611 375.312 121.697 375.362C121.892 375.476 122.088 375.587 122.287 375.694C122.355 375.731 122.424 375.767 122.493 375.803C122.709 375.917 122.927 376.027 123.146 376.132C123.194 376.154 123.242 376.176 123.29 376.199C123.531 376.312 123.773 376.421 124.018 376.524C124.036 376.531 124.055 376.539 124.073 376.546C131.227 379.529 139.793 378.166 145.68 372.377L179.772 348.054C181.415 346.88 183.324 346.076 185.409 345.646C185.532 345.646 185.656 345.638 185.778 345.616C186.845 345.421 187.789 345.31 188.68 345.283C188.707 345.282 188.734 345.282 188.761 345.281C188.865 345.279 188.969 345.277 189.071 345.277C189.423 345.276 189.774 345.264 190.125 345.244C191.344 345.176 192.565 344.994 193.782 344.692C195.248 344.328 196.648 343.802 197.968 343.138C203.998 340.106 208.297 334.159 209.017 327.341C209.082 326.724 209.119 326.11 209.129 325.499C209.195 321.226 207.923 317.136 205.515 313.694ZM196.849 339.182C196.847 339.183 196.845 339.184 196.842 339.185C195.593 339.89 194.241 340.435 192.814 340.788C191.881 341.02 190.949 341.164 190.018 341.223C189.7 341.244 189.382 341.254 189.064 341.255C188.025 341.257 187.003 341.329 186.004 341.466C182.83 338.457 180.986 334.284 180.986 329.807C180.986 320.924 188.186 313.724 197.069 313.724C198.45 313.724 199.81 313.902 201.13 314.246C201.374 314.69 201.637 315.126 201.921 315.555C202.018 315.705 202.116 315.852 202.217 315.997C204.147 318.753 205.163 322.018 205.108 325.442C205.1 325.931 205.071 326.423 205.019 326.918C204.475 332.06 201.352 336.607 196.921 339.14C196.897 339.153 196.873 339.168 196.849 339.182ZM162.893 273.561L177.289 273.561L190.685 273.561L199.079 273.561L199.079 277.566L186.122 277.571L181.566 277.573L172.737 277.577L162.893 277.581L162.893 273.561ZM166.914 261.499L166.914 263.466C166.914 264.577 167.814 265.476 168.924 265.476C170.034 265.476 170.934 264.577 170.934 263.466L170.934 261.499L174.955 261.499L174.955 263.466C174.955 264.577 175.855 265.476 176.965 265.476C178.075 265.476 178.975 264.577 178.975 263.466L178.975 261.499L182.996 261.499L182.996 263.466C182.996 264.577 183.896 265.476 185.006 265.476C186.117 265.476 187.017 264.577 187.017 263.466L187.017 261.499L189.027 261.499L189.027 263.492C189.027 264.603 189.927 265.503 191.037 265.503C192.147 265.503 193.047 263.492 193.047 263.492L193.047 261.499L199.078 261.499L199.078 269.54L181.616 269.54L162.892 269.54L162.892 261.499L166.914 261.499ZM140.742 371.244C135.75 374.701 129.296 374.938 124.131 372.121C124.123 372.117 124.116 372.113 124.108 372.109C123.944 372.019 123.782 371.924 123.621 371.828C123.562 371.793 123.503 371.759 123.445 371.724C123.308 371.639 123.172 371.551 123.037 371.463C122.956 371.409 122.875 371.356 122.794 371.301C122.675 371.22 122.557 371.136 122.44 371.052C122.344 370.982 122.248 370.911 122.153 370.838C122.05 370.76 121.948 370.682 121.846 370.601C121.736 370.513 121.628 370.422 121.52 370.331C121.434 370.258 121.347 370.186 121.262 370.112C121.132 369.997 121.005 369.878 120.877 369.759C120.816 369.701 120.753 369.645 120.692 369.586C120.503 369.402 120.317 369.214 120.135 369.019C119.958 368.829 119.786 368.635 119.62 368.439C119.564 368.373 119.512 368.305 119.457 368.238C119.351 368.108 119.244 367.978 119.142 367.846C119.068 367.75 118.999 367.652 118.928 367.555C118.851 367.45 118.773 367.345 118.698 367.238C118.619 367.124 118.544 367.008 118.468 366.892C118.408 366.8 118.346 366.71 118.288 366.617C118.208 366.488 118.131 366.358 118.055 366.227C118.007 366.146 117.958 366.065 117.911 365.983C117.832 365.841 117.756 365.698 117.68 365.554C117.643 365.483 117.604 365.412 117.568 365.34C117.49 365.185 117.416 365.029 117.343 364.872C117.315 364.81 117.285 364.749 117.257 364.687C117.182 364.519 117.111 364.35 117.042 364.181C117.021 364.129 117 364.079 116.98 364.027C116.909 363.846 116.841 363.664 116.776 363.48C116.762 363.441 116.748 363.402 116.735 363.363C116.668 363.167 116.604 362.97 116.545 362.771C116.537 362.746 116.529 362.721 116.522 362.697C116.46 362.484 116.401 362.271 116.348 362.057C116.346 362.048 116.343 362.038 116.341 362.029C115.146 357.199 116.256 351.921 119.657 347.927C131.415 348.447 140.779 358.139 140.779 370.013C140.78 370.413 140.767 370.822 140.742 371.244ZM177.435 344.781L144.731 368.114C143.888 356.381 135.297 346.79 124.039 344.438L153.799 322.766C159.514 318.604 162.893 311.963 162.893 304.894L162.893 281.601L199.079 281.587L199.079 306.548C199.079 307.659 199.207 308.761 199.451 309.846C198.664 309.752 197.869 309.704 197.069 309.704C185.965 309.704 176.965 318.703 176.965 329.807C176.965 334.559 178.631 339.041 181.56 342.587C180.091 343.144 178.706 343.874 177.435 344.781Z" fill="#000000" fill-rule="evenodd" opacity="1" stroke="#000000" stroke-linecap="round" stroke-linejoin="round" stroke-width="1"/>
</g>
<g opacity="1">
<path d="M938.232 281.19L928.698 281.19L911.958 287.614L895.218 281.197L886.464 281.197C880.826 281.197 876.213 285.81 876.213 291.447L876.213 247.341C876.213 246.011 875.135 244.934 873.805 244.934C872.476 244.934 871.398 246.011 871.398 247.341L871.398 257.113L864.961 257.113L864.961 247.341C864.961 246.011 863.883 244.934 862.553 244.934C861.223 244.934 860.145 246.011 860.145 247.341L860.145 257.113L853.708 257.113L853.708 247.341C853.708 246.011 852.63 244.934 851.3 244.934C849.971 244.934 848.893 246.011 848.893 247.341L848.893 257.113L842.455 257.113L842.455 247.341C842.455 246.011 841.377 244.934 840.047 244.934C838.717 244.934 837.639 246.011 837.639 247.341L837.639 257.113L831.202 257.113L831.202 247.341C831.202 246.011 830.124 244.934 828.794 244.934C827.465 244.934 826.387 246.011 826.387 247.341L826.387 350.272C826.387 355.912 831 360.532 836.637 360.532L846.005 360.529L862.793 354.107L879.581 360.525L888.406 360.522C894.043 360.522 898.656 355.912 898.656 350.272L898.656 394.379C898.656 395.709 899.734 396.786 901.064 396.786C902.393 396.786 903.471 395.709 903.471 394.379L903.471 384.609L908.705 384.609L908.705 394.379C908.705 395.709 909.783 396.786 911.113 396.786C912.442 396.786 913.52 395.709 913.52 394.379L913.52 384.609L921.161 384.609L921.161 394.379C921.161 395.709 922.239 396.786 923.569 396.786C924.898 396.786 925.976 395.709 925.976 394.379L925.976 384.609L933.617 384.609L933.617 394.379C933.617 395.709 934.695 396.786 936.025 396.786C937.355 396.786 938.433 395.709 938.433 394.379L938.433 384.609L943.667 384.609L943.667 394.379C943.667 395.709 944.745 396.786 946.075 396.786C947.405 396.786 948.483 395.709 948.483 394.379L948.483 291.447C948.483 285.81 943.869 281.19 938.232 281.19Z" fill="#c4b0ff" fill-rule="evenodd" opacity="1" stroke="#000000" stroke-linecap="round" stroke-linejoin="round" stroke-width="5"/>
<path d="M846.123 360.529C846.085 360.532 846.043 360.529 846.005 360.529C840.486 360.387 836.017 355.826 836.017 350.272L836.017 266.744L866.582 266.744L866.582 347.071C866.582 350.786 868.094 354.15 870.534 356.587C872.868 358.917 876.056 360.4 879.581 360.525L846.123 360.529Z" fill="#e7e1fb" fill-rule="evenodd" opacity="1" stroke="#000000" stroke-linecap="round" stroke-linejoin="round" stroke-width="3"/>
<path d="M938.852 374.978L908.287 374.978L908.287 294.648C908.287 290.933 906.775 287.569 904.335 285.133C901.985 282.789 898.772 281.303 895.218 281.197L928.601 281.19C928.634 281.19 928.666 281.19 928.698 281.19C934.29 281.242 938.852 285.842 938.852 291.447C938.852 291.447 938.852 374.978 938.852 374.978Z" fill="#e7e1fb" fill-rule="evenodd" opacity="1" stroke="#000000" stroke-linecap="round" stroke-linejoin="round" stroke-width="3"/>
<path d="M894.812 290.805L876.212 290.805L876.212 347.071C876.212 349.194 877.933 350.915 880.056 350.915L898.656 350.915L898.656 294.649C898.656 292.526 896.935 290.805 894.812 290.805Z" fill="#e7e1fb" fill-rule="evenodd" opacity="1" stroke="#000000" stroke-linecap="round" stroke-linejoin="round" stroke-width="3"/>
</g>
<g opacity="1">
<g opacity="1">
<path d="M897.577 642.452C911.792 640.748 926.035 639.647 940.263 639.668C951.168 639.685 962.077 640.383 972.981 641.475C977.091 641.886 981.2 642.353 985.308 642.861C988.112 643.208 990.914 643.574 993.717 643.953C998.904 644.656 1003.12 642.086 1003.12 637.958L1003.12 625.81L1003.12 613.663C1003.12 611.102 1001.5 608.432 999.032 606.595C997.523 605.473 995.692 604.662 993.717 604.376C975.933 601.808 958.078 600.326 940.262 600.352C922.445 600.379 904.599 601.978 886.821 604.484C884.847 604.761 883.02 605.556 881.511 606.662C879.044 608.467 877.431 611.103 877.431 613.664L877.431 625.811L877.431 637.959C877.431 642.087 881.624 644.573 886.821 643.85C890.404 643.351 893.99 642.883 897.577 642.452Z" fill="#ffa233" fill-rule="evenodd" opacity="1" stroke="none"/>
<path d="M940.262 600.353C958.078 600.326 975.933 601.808 993.717 604.376C995.693 604.662 997.523 605.474 999.033 606.595C996.893 579.584 976.546 557.699 950.263 553.213C947.686 555.728 944.162 557.279 940.275 557.279C938.568 557.279 936.932 556.98 935.414 556.431C933.476 555.73 931.733 554.624 930.288 553.212C903.983 557.701 883.624 579.619 881.511 606.662C883.02 605.556 884.847 604.762 886.821 604.484C904.6 601.978 922.445 600.379 940.262 600.353Z" fill="#ffe67b" fill-rule="evenodd" opacity="1" stroke="none"/>
<path d="M940.275 557.279C944.162 557.279 947.686 555.728 950.264 553.213C952.925 550.616 954.576 546.99 954.576 542.977C954.576 535.079 948.174 528.677 940.275 528.677C932.377 528.677 925.975 535.08 925.975 542.977C925.975 546.99 927.626 550.616 930.288 553.212C931.733 554.624 933.476 555.731 935.414 556.431C936.932 556.98 938.569 557.279 940.275 557.279Z" fill="#7ba9d6" fill-rule="evenodd" opacity="1" stroke="none"/>
</g>
<g opacity="1">
<path d="M1001.65 605.244C1000.36 592.034 994.722 579.419 985.714 569.609C977.508 560.672 966.748 554.32 955.056 551.427C956.487 548.935 957.309 546.051 957.309 542.977C957.309 533.585 949.668 525.944 940.275 525.944C930.883 525.944 923.242 533.585 923.242 542.977C923.242 546.051 924.065 548.935 925.495 551.427C913.791 554.322 903.024 560.683 894.814 569.633C885.818 579.44 880.192 592.044 878.894 605.243C876.332 607.482 874.7 610.525 874.7 613.664L874.7 637.959C874.7 643.028 879.057 646.707 885.06 646.707C885.761 646.707 886.48 646.656 887.198 646.556C907.568 643.721 924.3 642.4 939.856 642.4L940.258 642.401C951.429 642.417 962.527 643.176 972.709 644.193C972.731 644.195 972.753 644.198 972.775 644.2C977.029 644.625 981.124 645.094 984.995 645.574C985.022 645.578 985.048 645.582 985.075 645.584C987.966 645.943 990.734 646.306 993.351 646.661C994.037 646.754 994.726 646.801 995.398 646.801C1001.45 646.801 1005.85 643.082 1005.85 637.959L1005.85 613.664C1005.85 610.576 1004.2 607.517 1001.65 605.244ZM940.275 531.409C946.655 531.409 951.844 536.598 951.844 542.977C951.844 549.356 946.655 554.546 940.275 554.546C933.896 554.546 928.707 549.356 928.707 542.977C928.707 536.598 933.897 531.409 940.275 531.409ZM929.475 556.139C929.675 556.303 929.878 556.463 930.085 556.618C926.936 558.882 922.524 562.592 918.99 567.635C918.124 568.871 918.424 570.575 919.66 571.441C920.137 571.775 920.684 571.936 921.226 571.936C922.086 571.936 922.934 571.53 923.465 570.771C927.684 564.752 933.502 560.796 935.761 559.399C937.2 559.795 938.712 560.011 940.275 560.011C944.371 560.011 948.134 558.557 951.075 556.139C974.202 560.631 991.904 579.007 995.721 602.01C995.192 601.866 994.653 601.751 994.107 601.672C975.227 598.946 957.769 597.621 940.736 597.621L940.258 597.621C923.718 597.646 906.113 599.006 886.439 601.779C885.887 601.857 885.343 601.969 884.811 602.109C888.593 579.057 906.307 560.637 929.475 556.139ZM1000.39 637.959C1000.39 640.279 997.8 641.336 995.398 641.336C994.97 641.336 994.528 641.306 994.084 641.246C992.361 641.012 990.571 640.775 988.727 640.538C989.412 636.841 989.758 631.369 989.781 623.971C989.785 622.462 988.566 621.235 987.057 621.23C987.054 621.23 987.051 621.23 987.048 621.23C985.543 621.23 984.321 622.448 984.316 623.955C984.29 632.683 983.786 637.366 983.294 639.862C981.038 639.592 978.715 639.327 976.334 639.073C976.872 635.605 976.87 631.644 976.869 630.07L976.869 629.927C976.869 628.419 975.646 627.195 974.137 627.195C972.628 627.195 971.404 628.419 971.404 629.927L971.404 630.073C971.407 634.163 971.178 636.812 970.891 638.526C961.215 637.612 950.785 636.952 940.267 636.937L939.857 636.936C927.598 636.936 914.642 637.74 899.828 639.439C899.379 636.063 899.151 631.138 899.154 624.727L899.154 624.501C899.154 622.992 897.93 621.769 896.421 621.769C894.913 621.769 893.689 622.992 893.689 624.501L893.689 624.725C893.688 627.393 893.686 634.618 894.404 640.091C891.81 640.416 889.16 640.767 886.446 641.144C885.976 641.209 885.51 641.242 885.061 641.242C882.624 641.242 880.165 640.227 880.165 637.959L880.165 613.664C880.165 612.066 881.315 610.189 883.143 608.853C883.158 608.842 883.173 608.831 883.188 608.819C884.311 608.01 885.685 607.404 887.203 607.19C906.624 604.453 923.982 603.11 940.267 603.086L940.737 603.086C957.505 603.086 974.708 604.393 993.327 607.081C994.821 607.297 996.174 607.895 997.287 608.694C997.367 608.76 997.449 608.822 997.535 608.879C999.289 610.23 1000.39 612.083 1000.39 613.665L1000.39 637.959L1000.39 637.959L1000.39 637.959Z" fill="#000003" fill-rule="evenodd" opacity="1" stroke="none"/>
<path d="M916.591 578.683C916.905 578.799 917.226 578.855 917.542 578.855C918.652 578.855 919.695 578.174 920.104 577.072L920.165 576.911C920.706 575.503 920.003 573.922 918.594 573.381C917.186 572.84 915.605 573.543 915.063 574.952L914.981 575.17C914.455 576.585 915.176 578.158 916.591 578.683Z" fill="#000003" fill-rule="evenodd" opacity="1" stroke="none"/>
<path d="M986.863 612.96C985.354 613.005 984.168 614.264 984.213 615.773L984.219 615.961C984.263 617.441 985.477 618.611 986.948 618.611C986.976 618.611 987.004 618.611 987.031 618.61C988.54 618.565 989.726 617.306 989.681 615.798L989.675 615.61C989.63 614.102 988.382 612.911 986.863 612.96Z" fill="#000003" fill-rule="evenodd" opacity="1" stroke="none"/>
</g>
</g>
<g opacity="1">
<g opacity="1">
<path d="M44.9918 517.604L135.826 517.604L135.826 654.355L44.9918 654.355L44.9918 517.604Z" fill="#46adf7" fill-rule="evenodd" opacity="1" stroke="none"/>
<path d="M143.886 527.52L141.429 527.52L141.429 521.231L143.886 521.231C145.895 521.231 147.523 519.603 147.523 517.594C147.523 515.585 145.895 513.958 143.886 513.958L42.8588 513.958C40.85 513.958 39.2223 515.585 39.2223 517.594L39.2223 531.156L39.2223 655.783C39.2223 657.792 40.85 659.419 42.8588 659.419L62.4496 659.419L143.887 659.419C145.896 659.419 147.524 657.792 147.524 655.783L147.524 531.156C147.523 529.148 145.895 527.52 143.886 527.52ZM58.8123 652.146L46.4954 652.146L46.4954 534.793L58.8131 534.793L58.8131 652.146L58.8123 652.146ZM126.349 557.334L79.9865 557.334C77.9776 557.334 76.3499 555.706 76.3499 553.697C76.3499 551.688 77.9776 550.06 79.9865 550.06L126.349 550.06C128.358 550.06 129.986 551.688 129.986 553.697C129.986 555.706 128.358 557.334 126.349 557.334ZM134.156 527.52L62.4489 527.52L46.4954 527.52L46.4954 521.231L134.156 521.231C134.156 521.231 134.156 527.52 134.156 527.52Z" fill="#94d0ac" fill-rule="evenodd" opacity="1" stroke="#000000" stroke-linecap="round" stroke-linejoin="round" stroke-width="3"/>
</g>
<g opacity="1">
<path d="M87.4501 624.941C87.4501 622.749 89.1531 620.973 91.2538 620.973C93.3546 620.973 95.0576 622.749 95.0576 624.941C95.0576 627.133 93.3546 628.909 91.2538 628.909C89.1531 628.909 87.4501 627.133 87.4501 624.941Z" fill="#ffff63" fill-rule="evenodd" opacity="1" stroke="none"/>
<path d="M175.917 536.009L180.462 540.145L170.802 549.967L165.93 545.855L175.917 536.009Z" fill="#ffff63" fill-rule="evenodd" opacity="1" stroke="none"/>
<path d="M160.589 543.561L173.999 555.546L167.956 563.471L152.51 548.08L160.589 543.561Z" fill="#e7e1fb" fill-rule="evenodd" opacity="1" stroke="none"/>
<path d="M102.452 599.935L115.725 613.577L97.7738 625.548L91.5329 617.285L102.452 599.935Z" fill="#e7e1fb" fill-rule="evenodd" opacity="1" stroke="none"/>
<path d="M152.459 551.098L166.126 563.694L116.606 615.155L101.159 599.764L152.459 551.098Z" fill="#c4b0ff" fill-rule="evenodd" opacity="1" stroke="none"/>
<path d="M182.91 539.19L177.05 533.33C176.443 532.723 175.459 532.723 174.852 533.33L164.232 543.951L160.935 540.654C160.644 540.363 160.249 540.199 159.836 540.199C159.424 540.199 159.029 540.363 158.737 540.654L152.4 546.992C151.142 546.16 149.664 545.712 148.115 545.712C146.035 545.712 144.084 546.518 142.621 547.98L121.565 569.036C120.958 569.643 120.958 570.627 121.565 571.234C121.869 571.537 122.266 571.689 122.664 571.689C123.062 571.689 123.459 571.537 123.763 571.234L144.819 550.178C145.694 549.302 146.865 548.82 148.115 548.82C148.822 548.82 149.502 548.979 150.119 549.272L100.51 598.882C100.504 598.888 100.499 598.895 100.493 598.901C100.471 598.923 100.451 598.946 100.43 598.97C100.415 598.988 100.399 599.006 100.385 599.025C100.369 599.044 100.355 599.065 100.341 599.085C100.323 599.11 100.306 599.134 100.291 599.16C100.286 599.167 100.28 599.174 100.276 599.182L89.288 617.495C88.9211 618.106 89.0174 618.889 89.5218 619.393L89.9463 619.818L87.324 622.44C85.5385 624.226 85.5385 627.131 87.324 628.916C88.2168 629.809 89.3896 630.256 90.5621 630.256C91.7347 630.256 92.9076 629.809 93.8002 628.916L96.4225 626.294L96.847 626.719C97.1466 627.018 97.5445 627.174 97.9463 627.174C98.2208 627.174 98.4973 627.101 98.7454 626.952L117.059 615.964C117.065 615.96 117.071 615.956 117.077 615.952C117.105 615.934 117.133 615.916 117.161 615.896C117.178 615.884 117.195 615.872 117.212 615.859C117.233 615.842 117.254 615.824 117.275 615.806C117.296 615.788 117.316 615.77 117.335 615.752C117.343 615.744 117.351 615.738 117.358 615.731C117.362 615.727 175.586 557.503 175.586 557.503C176.193 556.896 176.193 555.912 175.586 555.305L172.289 552.009L182.91 541.388C183.517 540.781 183.517 539.797 182.91 539.19ZM91.6027 626.719C91.3246 626.997 90.9553 627.15 90.5621 627.15C90.169 627.15 89.7996 626.997 89.5216 626.719C89.2437 626.441 89.0906 626.071 89.0906 625.678C89.0906 625.285 89.2437 624.916 89.5216 624.638L92.1438 622.015L94.2249 624.097L91.6027 626.719ZM116.259 612.434L114.428 610.603C113.821 609.996 112.837 609.996 112.231 610.603C111.624 611.21 111.624 612.194 112.231 612.801L113.753 614.324L98.1869 623.663L92.5773 618.054L101.917 602.487L107.835 608.406C108.139 608.709 108.537 608.861 108.934 608.861C109.332 608.861 109.729 608.709 110.033 608.406C110.64 607.799 110.64 606.815 110.033 606.208L103.806 599.981L152.51 551.277L164.964 563.73L116.259 612.434ZM172.29 556.404L167.161 561.532L154.708 549.079L159.836 543.951L163.13 547.244C163.135 547.25 168.991 553.105 168.991 553.105C168.995 553.11 172.29 556.404 172.29 556.404ZM170.092 549.811L166.429 546.148L175.951 536.626L179.614 540.289L170.092 549.811Z" fill="#000000" fill-rule="evenodd" opacity="1" stroke="none"/>
</g>
</g>
<g opacity="1">
<path d="M378.947 826.637C355.166 826.637 335.888 845.915 335.888 869.695C335.888 893.476 355.166 912.754 378.947 912.754C402.727 912.754 422.005 893.476 422.005 869.695C422.005 845.915 402.727 826.637 378.947 826.637Z" fill="#e7e1fb" fill-rule="evenodd" opacity="0.754335" stroke="none"/>
<path d="M547.545 762.383C523.764 762.383 504.486 781.661 504.486 805.441C504.486 829.222 523.764 848.5 547.545 848.5C571.326 848.5 590.604 829.222 590.604 805.441C590.604 781.661 571.326 762.383 547.545 762.383Z" fill="#e7e1fb" fill-rule="evenodd" opacity="0.754335" stroke="none"/>
<path d="M716.143 826.637C692.363 826.637 673.085 845.915 673.085 869.695C673.085 893.476 692.363 912.754 716.143 912.754C739.924 912.754 759.202 893.476 759.202 869.695C759.202 845.915 739.924 826.637 716.143 826.637Z" fill="#e7e1fb" fill-rule="evenodd" opacity="0.754335" stroke="none"/>
<path d="M348.346 695.114C324.565 695.114 305.287 714.392 305.287 738.173C305.287 761.953 324.565 781.231 348.346 781.231C372.126 781.231 391.404 761.953 391.404 738.173C391.404 714.392 372.126 695.114 348.346 695.114Z" fill="#e7e1fb" fill-rule="evenodd" opacity="0.754335" stroke="none"/>
<path d="M516.944 630.86C493.164 630.86 473.885 650.138 473.885 673.919C473.885 697.699 493.164 716.977 516.944 716.977C540.725 716.977 560.003 697.699 560.003 673.919C560.003 650.138 540.725 630.86 516.944 630.86Z" fill="#e7e1fb" fill-rule="evenodd" opacity="0.754335" stroke="none"/>
<path d="M685.543 695.114C661.762 695.114 642.484 714.392 642.484 738.173C642.484 761.953 661.762 781.231 685.543 781.231C709.323 781.231 728.601 761.953 728.601 738.173C728.601 714.392 709.323 695.114 685.543 695.114Z" fill="#e7e1fb" fill-rule="evenodd" opacity="0.754335" stroke="none"/>
<path d="M367.868 561.568C344.087 561.568 324.81 580.846 324.81 604.626C324.81 628.407 344.087 647.685 367.868 647.685C391.648 647.685 410.927 628.407 410.927 604.626C410.927 580.846 391.648 561.568 367.868 561.568Z" fill="#e7e1fb" fill-rule="evenodd" opacity="0.754335" stroke="none"/>
<path d="M536.467 497.314C512.686 497.314 493.408 516.592 493.408 540.373C493.408 564.153 512.686 583.431 536.467 583.431C560.247 583.431 579.525 564.153 579.525 540.373C579.525 516.592 560.247 497.314 536.467 497.314Z" fill="#e7e1fb" fill-rule="evenodd" opacity="0.754335" stroke="none"/>
<path d="M705.065 561.568C681.285 561.568 662.007 580.846 662.007 604.626C662.007 628.407 681.285 647.685 705.065 647.685C728.846 647.685 748.124 628.407 748.124 604.626C748.124 580.846 728.846 561.568 705.065 561.568Z" fill="#e7e1fb" fill-rule="evenodd" opacity="0.754335" stroke="none"/>
<path d="M729.049 505.219L331.43 505.219L311.549 901.39L748.931 901.39L729.049 505.219Z" fill="none" fill-rule="evenodd" opacity="1" stroke="#ffff63" stroke-linecap="round" stroke-linejoin="round" stroke-width="25"/>
<path d="M431.574 615.266L431.574 483.209C431.574 422.683 476.306 373.162 530.979 373.162L530.979 373.162C585.651 373.162 630.384 422.683 630.384 483.209L630.384 615.266" fill="none" fill-rule="evenodd" opacity="1" stroke="#ffff63" stroke-linecap="round" stroke-linejoin="round" stroke-width="25"/>
<path d="M431.795 594.496C414.912 594.496 401.226 607.664 401.226 623.908C401.226 640.151 414.912 653.32 431.795 653.32C448.677 653.32 462.363 640.151 462.363 623.908C462.363 607.664 448.677 594.496 431.795 594.496Z" fill="#ffff63" fill-rule="evenodd" opacity="1" stroke="none"/>
<path d="M630.163 594.496C613.281 594.496 599.595 607.664 599.595 623.908C599.595 640.151 613.281 653.32 630.163 653.32C647.046 653.32 660.732 640.151 660.732 623.908C660.732 607.664 647.046 594.496 630.163 594.496Z" fill="#ffff63" fill-rule="evenodd" opacity="1" stroke="none"/>
</g>
<g opacity="1">
<g opacity="1">
<path d="M931.922 894.832L987.581 894.832L987.581 894.832L987.581 922.662L987.581 922.662L931.922 922.662L931.922 922.662L931.922 894.832L931.922 894.832Z" fill="#2f88ff" fill-rule="evenodd" opacity="1" stroke="#000000" stroke-linecap="round" stroke-linejoin="round" stroke-width="4"/>
<path d="M1007.46 763.637L912.044 763.637C912.044 763.637 912.044 795.442 916.02 831.223C919.996 867.003 931.922 894.832 931.922 894.832L987.581 894.832C987.581 894.832 999.508 867.003 1003.48 831.223C1007.46 795.442 1007.46 763.637 1007.46 763.637Z" fill="#e0e4e9" fill-rule="evenodd" opacity="1" stroke="#000000" stroke-linecap="round" stroke-linejoin="round" stroke-width="4"/>
<path d="M946.406 834.755C952.096 827.279 956.482 816.951 958.853 811.344C963.003 816.951 972.013 831.017 974.858 838.493C978.414 847.838 969.523 859.052 958.853 859.052C948.184 859.052 939.292 844.1 946.406 834.755Z" fill="#2f88ff" fill-rule="evenodd" opacity="1" stroke="#000000" stroke-linecap="round" stroke-linejoin="round" stroke-width="4"/>
<path d="M916.02 787.491L1003.48 787.491" fill="none" fill-rule="evenodd" opacity="1" stroke="#000000" stroke-linecap="round" stroke-linejoin="round" stroke-width="4"/>
</g>
<g opacity="1">
<path d="M871.005 866.784L939.693 866.784L939.693 924.093L871.005 924.093L871.005 866.784Z" fill="#d5edf7" fill-rule="evenodd" opacity="1" stroke="none"/>
<g opacity="1">
<path d="M929.717 825.934L929.717 836.316L908.954 836.311L908.954 846.698L924.526 846.698L924.526 857.079C935.998 857.079 945.289 866.371 945.289 877.843L945.289 919.369C945.289 925.105 940.644 929.751 934.908 929.751L872.618 929.751C866.882 929.751 862.236 925.105 862.236 919.369L862.236 877.843C862.236 866.371 871.528 857.079 883 857.079L883 846.698L898.572 846.698L898.572 836.311L880.404 836.316C877.134 836.316 873.293 838.86 868.985 844.621L860.679 838.392C866.752 830.295 873.293 825.934 880.404 825.934L929.717 825.934ZM924.526 867.461L883 867.461C877.264 867.461 872.618 872.107 872.618 877.843L872.618 919.369L934.908 919.369L934.908 877.843C934.908 872.107 930.262 867.461 924.526 867.461ZM908.954 877.843L908.954 888.224L919.335 888.224L919.335 898.606L908.949 898.606L908.954 908.987L898.572 908.987L898.567 898.606L888.191 898.606L888.191 888.224L898.572 888.224L898.572 877.843L908.954 877.843Z" fill="#000000" fill-rule="evenodd" opacity="1" stroke="none"/>
</g>
</g>
</g>
<g opacity="1">
<g opacity="1">
<path d="M40.9406 889.728L30.8578 897.488L22.076 910.779C22.076 910.779 16.1671 900.408 14.9164 896.464C13.4121 891.72 13.7287 880.232 13.7287 880.232L32.9727 873.894L52.6072 876.205L61.5635 880.148L40.9406 889.728Z" fill="#f7dbe2" fill-rule="evenodd" opacity="1" stroke="none"/>
<path d="M74.2638 906.759L82.0997 916.782L95.4564 925.463C95.4564 925.463 85.1303 931.45 81.196 932.731C76.4638 934.271 64.9739 934.041 64.9739 934.041L58.4906 914.846L60.653 895.195L64.5278 886.209L74.2638 906.759Z" fill="#f7dbe2" fill-rule="evenodd" opacity="1" stroke="none"/>
<path d="M90.6453 873.141L100.551 865.156L109.032 851.672C109.032 851.672 115.172 861.907 116.511 865.822C118.122 870.531 118.064 882.023 118.064 882.023L98.9672 888.792L79.2856 886.923L70.243 883.182L90.6453 873.141Z" fill="#f7dbe2" fill-rule="evenodd" opacity="1" stroke="none"/>
<path d="M56.9476 856.864L48.8882 847.019L35.3398 838.641C35.3398 838.641 45.5287 832.423 49.4332 831.054C54.1295 829.408 65.6217 829.379 65.6217 829.379L72.535 848.424L70.815 868.119L67.1431 877.19L56.9476 856.864Z" fill="#f7dbe2" fill-rule="evenodd" opacity="1" stroke="none"/>
<path d="M40.008 927.507L22.4594 913.061L30.9453 898.543L46.9284 886.302L59.1958 883.811L44.6414 905.65L40.008 927.507Z" fill="#ffbaca" fill-rule="evenodd" opacity="1" stroke="none"/>
<path d="M111.136 909.486L95.3864 925.876L81.5624 916.302L70.5819 899.428L69.0384 887.006L89.6981 903.191L111.136 909.486Z" fill="#ffbaca" fill-rule="evenodd" opacity="1" stroke="none"/>
<path d="M90.682 834.969L108.263 849.376L99.81 863.912L83.8545 876.189L71.5928 878.708L86.0979 856.836L90.682 834.969Z" fill="#ffbaca" fill-rule="evenodd" opacity="1" stroke="none"/>
<path d="M19.7195 855.141L34.6556 838.007L48.9275 846.899L60.7133 863.221L62.8573 875.553L41.4371 860.389L19.7195 855.141Z" fill="#ffbaca" fill-rule="evenodd" opacity="1" stroke="none"/>
<path d="M64.1351 934.341L41.9299 929.484L42.8639 912.694L51.5082 894.512L61.2907 886.702L58.2547 909.256L64.1351 934.341Z" fill="#f7567c" fill-rule="evenodd" opacity="1" stroke="none"/>
<path d="M117.933 884.137L112.401 906.184L95.6481 904.738L77.7377 895.544L70.2293 885.528L96.1991 889.318L117.933 884.137Z" fill="#f7567c" fill-rule="evenodd" opacity="1" stroke="none"/>
<path d="M67.0463 828.876L89.2624 833.684L88.3662 850.475L79.7629 868.677L69.998 876.509L72.936 850.429L67.0463 828.876Z" fill="#f7567c" fill-rule="evenodd" opacity="1" stroke="none"/>
<path d="M13.0847 879.183L18.5666 857.123L35.3229 858.531L53.254 867.685L60.7849 877.684L34.8067 873.952L13.0847 879.183Z" fill="#f7567c" fill-rule="evenodd" opacity="1" stroke="none"/>
<path d="M104.332 842.791C93.9429 832.402 80.1303 826.681 65.4382 826.681C50.7461 826.681 36.9334 832.402 26.5445 842.791C16.1555 853.18 10.4342 866.992 10.4342 881.684C10.4342 896.377 16.1555 910.189 26.5445 920.578C36.9334 930.967 50.7461 936.688 65.4382 936.688C80.1303 936.688 93.9429 930.967 104.332 920.578C114.721 910.189 120.442 896.377 120.442 881.684C120.442 866.992 114.721 853.18 104.332 842.791ZM106.616 914.307C95.1514 912.275 84.8484 906.418 77.2517 897.979C79.8746 900.02 82.6846 901.825 85.6506 903.363C93.1506 907.251 101.475 909.361 109.903 909.541C108.896 911.193 107.796 912.783 106.616 914.307ZM66.448 933.164C63.7243 928.212 61.8415 922.875 60.8485 917.283C60.6806 916.338 59.7864 915.708 58.8446 915.857C58.8324 915.859 58.8226 915.859 58.8125 915.861C57.8579 916.031 57.2214 916.942 57.3909 917.897C58.334 923.208 60.0317 928.304 62.4422 933.088C55.2037 932.67 48.3618 930.752 42.2233 927.638C41.9871 912.025 48.9021 897.161 60.7286 887.271C57.6603 894.666 56.2393 902.639 56.594 910.683C56.6357 911.625 57.4126 912.361 58.3467 912.361C58.3727 912.361 58.3991 912.361 58.4256 912.359C58.4356 912.359 58.4455 912.357 58.4555 912.357C59.4104 912.297 60.1445 911.486 60.1022 910.528C59.7477 902.498 61.2848 894.541 64.5685 887.235C66.2374 895.026 69.5763 902.377 74.3696 908.743C79.4495 915.491 86.0419 920.992 93.5608 924.797C85.7338 929.92 76.4353 932.971 66.448 933.164ZM33.9562 922.402C35.9884 910.938 41.8448 900.635 50.2844 893.039C48.2431 895.661 46.4384 898.471 44.9007 901.437C41.0126 908.937 38.8989 917.261 38.7191 925.688C37.0678 924.681 35.479 923.583 33.9562 922.402ZM24.7202 850.203C36.1843 852.235 46.4874 858.091 54.084 866.531C51.4612 864.489 48.6511 862.685 45.6851 861.147C38.1856 857.259 29.8642 855.147 21.4346 854.966C22.4413 853.315 23.5399 851.726 24.7202 850.203ZM64.4278 830.205C72.23 844.4 72.8562 861.486 66.3062 876.127C64.6368 868.339 61.2984 860.99 56.5065 854.625C51.4266 847.878 44.8342 842.377 37.3155 838.572C45.1423 833.449 54.4408 830.398 64.4278 830.205ZM70.9961 882.553C78.784 880.883 86.1325 877.545 92.4973 872.753C99.2447 867.673 104.746 861.081 108.551 853.562C113.674 861.389 116.724 870.687 116.918 880.674C102.723 888.476 85.6367 889.103 70.9961 882.553ZM88.653 835.731C88.8892 851.344 81.9735 866.209 70.1458 876.099C72.9646 869.298 74.401 861.987 74.3343 854.614C74.258 846.163 72.2253 837.814 68.4344 830.282C75.6728 830.699 82.5148 832.617 88.653 835.731ZM19.4844 858.469C35.0979 858.233 49.9623 865.149 59.8522 876.976C53.0547 874.158 45.7486 872.722 38.3675 872.788C29.9164 872.864 21.5676 874.897 14.0353 878.688C14.4525 871.45 16.3707 864.608 19.4844 858.469ZM59.8802 880.816C52.0923 882.486 44.7438 885.824 38.379 890.616C31.6316 895.696 26.1306 902.288 22.3254 909.807C17.2024 901.98 14.1519 892.682 13.9586 882.695C28.1532 874.892 45.2394 874.266 59.8802 880.816ZM111.392 904.9C95.7803 905.138 80.9152 898.221 71.0249 886.394C77.6741 889.15 84.8115 890.583 92.0181 890.583C92.1813 890.583 92.3454 890.582 92.509 890.581C100.96 890.505 109.309 888.472 116.841 884.681C116.424 891.919 114.506 898.761 111.392 904.9ZM78.3783 876.647C85.422 871.571 91.2103 864.863 95.2142 856.995C95.6539 856.131 95.3097 855.074 94.4457 854.634C94.4368 854.63 94.4279 854.626 94.419 854.622C93.5603 854.203 92.52 854.547 92.0846 855.403C89.1633 861.143 85.2258 866.223 80.5095 870.436C82.5848 867.783 84.4175 864.937 85.9759 861.931C89.864 854.432 91.9776 846.108 92.1574 837.681C93.8085 838.688 95.3973 839.786 96.9199 840.966C96.4276 843.74 95.704 846.492 94.7615 849.16C94.442 850.065 94.909 851.056 95.8049 851.389C95.8142 851.393 95.8229 851.397 95.8323 851.4C96.0256 851.469 96.223 851.501 96.417 851.501C97.1404 851.501 97.8179 851.05 98.0726 850.33C98.8565 848.11 99.4959 845.836 99.9903 843.539C102.266 845.602 104.354 847.866 106.232 850.302C100.631 862.44 90.5421 871.817 78.3783 876.647ZM34.0555 840.89C46.1929 846.491 55.5691 856.579 60.3999 868.742C57.4398 864.632 53.9188 860.937 49.9248 857.782C43.2995 852.549 35.53 848.901 27.2943 847.13C29.3565 844.856 31.6209 842.768 34.0555 840.89ZM52.4957 886.723C48.3859 889.683 44.6909 893.204 41.536 897.198C36.3028 903.823 32.6544 911.593 30.8837 919.828C28.609 917.766 26.5213 915.502 24.6439 913.067C30.2449 900.93 40.3328 891.553 52.4957 886.723ZM96.8208 922.479C84.6837 916.878 75.3074 906.79 70.4766 894.627C73.4367 898.737 76.9578 902.431 80.9517 905.586C87.5771 910.82 95.3465 914.468 103.582 916.239C101.52 918.513 99.2554 920.601 96.8208 922.479Z" fill="#000000" fill-rule="evenodd" opacity="1" stroke="none"/>
</g>
<g opacity="1">
<path d="M82.6801 817.928L72.5973 825.688L63.8155 838.978C63.8155 838.978 57.9067 828.607 56.656 824.663C55.1517 819.919 55.4683 808.432 55.4683 808.432L74.7122 802.094L94.3468 804.405L103.303 808.348L82.6801 817.928Z" fill="#f7dbe2" fill-rule="evenodd" opacity="1" stroke="none"/>
<path d="M116.003 834.958L123.839 844.982L137.196 853.663C137.196 853.663 126.87 859.65 122.936 860.93C118.203 862.471 106.713 862.241 106.713 862.241L100.23 843.046L102.393 823.394L106.267 814.408L116.003 834.958Z" fill="#f7dbe2" fill-rule="evenodd" opacity="1" stroke="none"/>
<path d="M132.385 801.34L142.291 793.356L150.771 779.871C150.771 779.871 156.912 790.107 158.251 794.022C159.862 798.73 159.803 810.222 159.803 810.222L140.707 816.991L121.025 815.122L111.983 811.382L132.385 801.34Z" fill="#f7dbe2" fill-rule="evenodd" opacity="1" stroke="none"/>
<path d="M98.6872 785.064L90.6278 775.219L77.0794 766.84C77.0794 766.84 87.2682 760.622 91.1728 759.254C95.8691 757.607 107.361 757.579 107.361 757.579L114.275 776.623L112.555 796.319L108.883 805.389L98.6872 785.064Z" fill="#f7dbe2" fill-rule="evenodd" opacity="1" stroke="none"/>
<path d="M81.7476 855.707L64.199 841.26L72.6849 826.743L88.6679 814.501L100.935 812.01L86.381 833.85L81.7476 855.707Z" fill="#ffbaca" fill-rule="evenodd" opacity="1" stroke="none"/>
<path d="M152.875 837.686L137.126 854.076L123.302 844.502L112.321 827.628L110.778 815.205L131.438 831.391L152.875 837.686Z" fill="#ffbaca" fill-rule="evenodd" opacity="1" stroke="none"/>
<path d="M132.422 763.168L150.003 777.575L141.55 792.111L125.594 804.389L113.332 806.908L127.837 785.036L132.422 763.168Z" fill="#ffbaca" fill-rule="evenodd" opacity="1" stroke="none"/>
<path d="M61.459 783.34L76.3952 766.206L90.6671 775.098L102.453 791.42L104.597 803.753L83.1767 788.588L61.459 783.34Z" fill="#ffbaca" fill-rule="evenodd" opacity="1" stroke="none"/>
<path d="M105.875 862.541L83.6695 857.683L84.6035 840.894L93.2477 822.712L103.03 814.902L99.9943 837.456L105.875 862.541Z" fill="#f7567c" fill-rule="evenodd" opacity="1" stroke="none"/>
<path d="M159.672 812.336L154.141 834.383L137.388 832.938L119.477 823.744L111.969 813.728L137.939 817.518L159.672 812.336Z" fill="#f7567c" fill-rule="evenodd" opacity="1" stroke="none"/>
<path d="M108.786 757.076L131.002 761.883L130.106 778.675L121.503 796.876L111.738 804.708L114.676 778.628L108.786 757.076Z" fill="#f7567c" fill-rule="evenodd" opacity="1" stroke="none"/>
<path d="M54.8243 807.382L60.3061 785.323L77.0625 786.73L94.9936 795.884L102.524 805.883L76.5463 802.152L54.8243 807.382Z" fill="#f7567c" fill-rule="evenodd" opacity="1" stroke="none"/>
<path d="M146.071 770.99C135.682 760.601 121.87 754.88 107.178 754.88C92.4856 754.88 78.673 760.601 68.2841 770.99C57.8951 781.379 52.1738 795.192 52.1738 809.884C52.1738 824.576 57.8951 838.389 68.2841 848.778C78.673 859.167 92.4856 864.888 107.178 864.888C121.87 864.888 135.682 859.167 146.071 848.778C156.46 838.389 162.182 824.576 162.182 809.884C162.182 795.192 156.46 781.379 146.071 770.99ZM148.355 842.507C136.891 840.474 126.588 834.618 118.991 826.178C121.614 828.22 124.424 830.024 127.39 831.562C134.89 835.451 143.215 837.561 151.642 837.74C150.635 839.393 149.536 840.983 148.355 842.507ZM108.188 861.364C105.464 856.411 103.581 851.074 102.588 845.482C102.42 844.538 101.526 843.908 100.584 844.056C100.572 844.058 100.562 844.059 100.552 844.06C99.5975 844.23 98.9609 845.141 99.1304 846.096C100.074 851.407 101.771 856.503 104.182 861.287C96.9433 860.87 90.1013 858.951 83.9629 855.838C83.7267 840.225 90.6416 825.361 102.468 815.471C99.3999 822.866 97.9789 830.839 98.3336 838.882C98.3752 839.825 99.1522 840.561 100.086 840.561C100.112 840.561 100.139 840.56 100.165 840.559C100.175 840.559 100.185 840.557 100.195 840.556C101.15 840.497 101.884 839.686 101.842 838.727C101.487 830.697 103.024 822.74 106.308 815.435C107.977 823.225 111.316 830.576 116.109 836.943C121.189 843.69 127.781 849.191 135.3 852.996C127.473 858.12 118.175 861.17 108.188 861.364ZM75.6958 850.602C77.728 839.138 83.5843 828.835 92.024 821.238C89.9827 823.861 88.178 826.671 86.6402 829.637C82.7521 837.136 80.6385 845.46 80.4587 853.887C78.8074 852.881 77.2186 851.782 75.6958 850.602ZM66.4598 778.402C77.9239 780.434 88.2269 786.291 95.8236 794.73C93.2008 792.689 90.3907 790.884 87.4247 789.346C79.9252 785.458 71.6038 783.347 63.1742 783.166C64.1808 781.514 65.2794 779.925 66.4598 778.402ZM106.167 758.404C113.97 772.599 114.596 789.685 108.046 804.326C106.376 796.538 103.038 789.19 98.246 782.825C93.1661 776.077 86.5738 770.577 79.0551 766.771C86.8818 761.648 96.1804 758.598 106.167 758.404ZM112.736 810.752C120.524 809.083 127.872 805.744 134.237 800.952C140.984 795.873 146.485 789.28 150.29 781.762C155.413 789.588 158.464 798.887 158.657 808.874C144.462 816.676 127.376 817.302 112.736 810.752ZM130.393 763.93C130.629 779.544 123.713 794.409 111.885 804.299C114.704 797.498 116.141 790.187 116.074 782.813C115.998 774.362 113.965 766.013 110.174 758.481C117.412 758.898 124.254 760.816 130.393 763.93ZM61.224 786.669C76.8375 786.433 91.7019 793.348 101.592 805.175C94.7943 802.357 87.4881 800.922 80.1071 800.987C71.656 801.064 63.3072 803.096 55.7749 806.887C56.1921 799.649 58.1102 792.807 61.224 786.669ZM101.62 809.016C93.8319 810.685 86.4834 814.023 80.1186 818.815C73.3712 823.895 67.8702 830.488 64.0649 838.006C58.942 830.18 55.8915 820.881 55.6981 810.894C69.8928 803.092 86.979 802.466 101.62 809.016ZM153.131 833.099C137.52 833.337 122.655 826.42 112.764 814.593C119.414 817.349 126.551 818.782 133.758 818.782C133.921 818.782 134.085 818.782 134.249 818.78C142.7 818.704 151.048 816.671 158.581 812.88C158.163 820.119 156.245 826.961 153.131 833.099ZM120.118 804.847C127.162 799.771 132.95 793.062 136.954 785.195C137.393 784.331 137.049 783.273 136.185 782.833C136.176 782.829 136.167 782.826 136.159 782.822C135.3 782.402 134.26 782.747 133.824 783.602C130.903 789.342 126.965 794.423 122.249 798.635C124.324 795.982 126.157 793.137 127.715 790.131C131.604 782.632 133.717 774.307 133.897 765.881C135.548 766.887 137.137 767.986 138.659 769.166C138.167 771.94 137.444 774.691 136.501 777.36C136.182 778.265 136.649 779.255 137.544 779.589C137.554 779.592 137.562 779.597 137.572 779.6C137.765 779.668 137.963 779.701 138.157 779.701C138.88 779.701 139.557 779.25 139.812 778.529C140.596 776.309 141.235 774.035 141.73 771.738C144.005 773.801 146.094 776.066 147.972 778.501C142.371 790.639 132.282 800.016 120.118 804.847ZM75.795 769.09C87.9324 774.691 97.3087 784.779 102.14 796.941C99.1794 792.832 95.6583 789.137 91.6644 785.982C85.039 780.749 77.2696 777.1 69.0339 775.33C71.096 773.055 73.3604 770.967 75.795 769.09ZM94.2353 814.922C90.1255 817.882 86.4305 821.403 83.2756 825.397C78.0424 832.023 74.394 839.792 72.6233 848.028C70.3486 845.965 68.2609 843.701 66.3834 841.266C71.9844 829.129 82.0723 819.753 94.2353 814.922ZM138.56 850.678C126.423 845.077 117.047 834.989 112.216 822.826C115.176 826.936 118.697 830.631 122.691 833.786C129.317 839.019 137.086 842.667 145.322 844.438C143.259 846.713 140.995 848.801 138.56 850.678Z" fill="#000000" fill-rule="evenodd" opacity="1" stroke="none"/>
</g>
<g opacity="1">
<path d="M124.902 893.172L114.82 900.932L106.038 914.223C106.038 914.223 100.129 903.852 98.8783 899.908C97.374 895.164 97.6906 883.676 97.6906 883.676L116.935 877.338L136.569 879.649L145.525 883.592L124.902 893.172Z" fill="#f7dbe2" fill-rule="evenodd" opacity="1" stroke="none"/>
<path d="M158.226 910.203L166.062 920.226L179.418 928.907C179.418 928.907 169.092 934.894 165.158 936.175C160.426 937.715 148.936 937.485 148.936 937.485L142.453 918.29L144.615 898.639L148.49 889.653L158.226 910.203Z" fill="#f7dbe2" fill-rule="evenodd" opacity="1" stroke="none"/>
<path d="M174.607 876.585L184.513 868.6L192.994 855.116C192.994 855.116 199.134 865.351 200.473 869.266C202.084 873.975 202.026 885.467 202.026 885.467L182.929 892.236L163.248 890.367L154.205 886.626L174.607 876.585Z" fill="#f7dbe2" fill-rule="evenodd" opacity="1" stroke="none"/>
<path d="M140.91 860.308L132.85 850.463L119.302 842.085C119.302 842.085 129.491 835.867 133.395 834.498C138.091 832.852 149.584 832.823 149.584 832.823L156.497 851.868L154.777 871.563L151.105 880.634L140.91 860.308Z" fill="#f7dbe2" fill-rule="evenodd" opacity="1" stroke="none"/>
<path d="M123.97 930.951L106.421 916.505L114.907 901.987L130.89 889.746L143.158 887.255L128.603 909.094L123.97 930.951Z" fill="#ffbaca" fill-rule="evenodd" opacity="1" stroke="none"/>
<path d="M195.098 912.93L179.348 929.32L165.524 919.746L154.544 902.872L153 890.45L173.66 906.635L195.098 912.93Z" fill="#ffbaca" fill-rule="evenodd" opacity="1" stroke="none"/>
<path d="M174.644 838.413L192.225 852.82L183.772 867.356L167.816 879.633L155.555 882.152L170.06 860.28L174.644 838.413Z" fill="#ffbaca" fill-rule="evenodd" opacity="1" stroke="none"/>
<path d="M103.681 858.585L118.617 841.451L132.889 850.343L144.675 866.665L146.819 878.997L125.399 863.833L103.681 858.585Z" fill="#ffbaca" fill-rule="evenodd" opacity="1" stroke="none"/>
<path d="M148.097 937.785L125.892 932.928L126.826 916.138L135.47 897.956L145.253 890.146L142.217 912.7L148.097 937.785Z" fill="#f7567c" fill-rule="evenodd" opacity="1" stroke="none"/>
<path d="M201.895 887.581L196.363 909.628L179.61 908.182L161.7 898.988L154.191 888.972L180.161 892.762L201.895 887.581Z" fill="#f7567c" fill-rule="evenodd" opacity="1" stroke="none"/>
<path d="M151.008 832.32L173.224 837.128L172.328 853.919L163.725 872.121L153.96 879.953L156.898 853.873L151.008 832.32Z" fill="#f7567c" fill-rule="evenodd" opacity="1" stroke="none"/>
<path d="M97.0466 882.627L102.528 860.568L119.285 861.975L137.216 871.129L144.747 881.128L118.769 877.396L97.0466 882.627Z" fill="#f7567c" fill-rule="evenodd" opacity="1" stroke="none"/>
<path d="M188.293 846.235C177.905 835.846 164.092 830.125 149.4 830.125C134.708 830.125 120.895 835.846 110.506 846.235C100.117 856.624 94.3961 870.436 94.3961 885.128C94.3961 899.821 100.117 913.633 110.506 924.022C120.895 934.411 134.708 940.132 149.4 940.132C164.092 940.132 177.905 934.411 188.294 924.022C198.683 913.633 204.404 899.821 204.404 885.128C204.404 870.436 198.682 856.624 188.293 846.235ZM190.577 917.751C179.113 915.719 168.81 909.862 161.214 901.423C163.836 903.464 166.647 905.269 169.613 906.807C177.113 910.695 185.437 912.805 193.865 912.985C192.858 914.637 191.758 916.227 190.577 917.751ZM150.41 936.608C147.686 931.656 145.803 926.319 144.81 920.727C144.643 919.782 143.748 919.152 142.807 919.301C142.794 919.303 142.785 919.303 142.774 919.305C141.82 919.475 141.183 920.386 141.353 921.341C142.296 926.652 143.994 931.748 146.404 936.532C139.166 936.114 132.324 934.196 126.185 931.082C125.949 915.469 132.864 900.605 144.691 890.715C141.622 898.11 140.201 906.083 140.556 914.127C140.598 915.069 141.375 915.805 142.309 915.805C142.335 915.805 142.361 915.805 142.387 915.803C142.398 915.803 142.407 915.801 142.417 915.801C143.372 915.741 144.106 914.93 144.064 913.972C143.71 905.942 145.247 897.985 148.53 890.679C150.199 898.47 153.538 905.821 158.332 912.187C163.411 918.935 170.004 924.436 177.523 928.241C169.696 933.364 160.397 936.415 150.41 936.608ZM117.918 925.846C119.95 914.382 125.807 904.079 134.246 896.483C132.205 899.105 130.4 901.916 128.863 904.881C124.974 912.381 122.861 920.705 122.681 929.132C121.03 928.125 119.441 927.027 117.918 925.846ZM108.682 853.647C120.146 855.679 130.449 861.535 138.046 869.975C135.423 867.933 132.613 866.129 129.647 864.591C122.148 860.703 113.826 858.591 105.397 858.41C106.403 856.759 107.502 855.17 108.682 853.647ZM148.39 833.649C156.192 847.844 156.818 864.93 150.268 879.571C148.599 871.783 145.26 864.434 140.468 858.069C135.388 851.322 128.796 845.821 121.277 842.016C129.104 836.893 138.403 833.842 148.39 833.649ZM154.958 885.997C162.746 884.327 170.094 880.989 176.459 876.197C183.207 871.117 188.708 864.525 192.513 857.006C197.636 864.833 200.686 874.131 200.88 884.118C186.685 891.92 169.599 892.547 154.958 885.997ZM172.615 839.175C172.851 854.788 165.935 869.653 154.108 879.543C156.926 872.742 158.363 865.431 158.296 858.058C158.22 849.607 156.187 841.258 152.396 833.726C159.635 834.143 166.477 836.061 172.615 839.175ZM103.446 861.913C119.06 861.677 133.924 868.593 143.814 880.42C137.017 877.602 129.71 876.166 122.329 876.232C113.878 876.308 105.53 878.341 97.9972 882.132C98.4144 874.894 100.333 868.052 103.446 861.913ZM143.842 884.26C136.054 885.93 128.706 889.268 122.341 894.06C115.594 899.14 110.093 905.732 106.287 913.251C101.164 905.424 98.1138 896.126 97.9205 886.139C112.115 878.336 129.201 877.71 143.842 884.26ZM195.354 908.344C179.742 908.582 164.877 901.665 154.987 889.838C161.636 892.594 168.773 894.027 175.98 894.027C176.143 894.027 176.307 894.026 176.471 894.025C184.922 893.949 193.271 891.916 200.803 888.125C200.385 895.363 198.468 902.205 195.354 908.344ZM162.34 880.091C169.384 875.015 175.172 868.307 179.176 860.439C179.616 859.575 179.272 858.518 178.408 858.078C178.399 858.074 178.39 858.07 178.381 858.066C177.522 857.647 176.482 857.991 176.047 858.847C173.125 864.587 169.188 869.667 164.471 873.88C166.547 871.227 168.379 868.381 169.938 865.375C173.826 857.876 175.94 849.552 176.119 841.125C177.77 842.132 179.359 843.23 180.882 844.41C180.389 847.184 179.666 849.936 178.723 852.604C178.404 853.509 178.871 854.5 179.767 854.833C179.776 854.837 179.785 854.841 179.794 854.844C179.988 854.913 180.185 854.945 180.379 854.945C181.102 854.945 181.78 854.494 182.034 853.774C182.818 851.554 183.458 849.28 183.952 846.983C186.228 849.046 188.316 851.31 190.194 853.746C184.593 865.884 174.504 875.261 162.34 880.091ZM118.017 844.334C130.155 849.935 139.531 860.023 144.362 872.186C141.402 868.076 137.881 864.381 133.887 861.226C127.261 855.993 119.492 852.345 111.256 850.574C113.318 848.3 115.583 846.212 118.017 844.334ZM136.458 890.167C132.348 893.127 128.653 896.648 125.498 900.642C120.265 907.267 116.616 915.037 114.846 923.272C112.571 921.21 110.483 918.946 108.606 916.511C114.207 904.374 124.295 894.997 136.458 890.167ZM180.783 925.923C168.646 920.322 159.269 910.234 154.439 898.071C157.399 902.181 160.92 905.875 164.914 909.03C171.539 914.264 179.308 917.912 187.544 919.683C185.482 921.957 183.217 924.045 180.783 925.923Z" fill="#000000" fill-rule="evenodd" opacity="1" stroke="none"/>
</g>
</g>
</g>
</svg>
