<?xml version="1.0" encoding="iso-8859-1"?>
<!-- Generator: Adobe Illustrator 19.0.0, SVG Export Plug-In . SVG Version: 6.00 Build 0)  -->
<svg version="1.1" id="Layer_1" xmlns="http://www.w3.org/2000/svg" xmlns:xlink="http://www.w3.org/1999/xlink" x="0px" y="0px"
	 viewBox="0 0 512 512" style="enable-background:new 0 0 512 512;" xml:space="preserve">
<path style="fill:#FCE6A0;" d="M376.095,66.319H74.455c-35.487,0-64.256,28.768-64.256,64.256v274.702h365.895v-40.405h83.056
	V66.319H376.095z"/>
<path style="fill:#EDB2D8;" d="M376.095,364.871H50.604c-22.316,0-40.405,18.09-40.405,40.405l0,0
	c0,22.316,18.09,40.405,40.405,40.405h325.489v-80.81H376.095z"/>
<path d="M74.455,56.119C33.4,56.119,0,89.52,0,130.575v274.701c0,27.904,22.701,50.605,50.604,50.605h325.49
	c5.633,0,10.199-4.567,10.199-10.199V375.07h115.507c5.633,0,10.199-4.567,10.199-10.199c0-5.632-4.566-10.199-10.199-10.199H469.35
	V332.42h32.451c5.633,0,10.199-4.567,10.199-10.199c0-5.632-4.566-10.199-10.199-10.199H469.35V289.77h32.451
	c5.633,0,10.199-4.567,10.199-10.199c0-5.632-4.566-10.199-10.199-10.199H469.35V247.12h32.451c5.633,0,10.199-4.567,10.199-10.199
	s-4.566-10.199-10.199-10.199H469.35V204.47h32.451c5.633,0,10.199-4.567,10.199-10.199s-4.566-10.199-10.199-10.199H469.35V161.82
	h32.451c5.633,0,10.199-4.567,10.199-10.199s-4.566-10.199-10.199-10.199H469.35v-22.254h32.451c5.633,0,10.199-4.567,10.199-10.199
	s-4.566-10.199-10.199-10.199H469.35V76.517h32.451c5.633,0,10.199-4.567,10.199-10.199s-4.566-10.199-10.199-10.199
	C501.801,56.119,74.455,56.119,74.455,56.119z M22.175,395.077c4.193-11.652,15.352-20.007,28.43-20.007h315.291v20.007H22.175z
	 M365.895,415.475v20.008H50.604c-13.077,0-24.237-8.356-28.43-20.008H365.895z M50.604,354.672
	c-11.313,0-21.769,3.733-30.206,10.029V130.575c0-29.808,24.25-54.058,54.057-54.058h374.496v278.155H50.604z"/>
<path d="M233.553,341.398h6.735c5.633,0,10.199-4.567,10.199-10.199c0-5.632-4.566-10.199-10.199-10.199h-6.735
	c-5.633,0-10.199,4.567-10.199,10.199C223.353,336.831,227.92,341.398,233.553,341.398z"/>
<path d="M282.937,341.398h136.929c5.633,0,10.199-4.567,10.199-10.199c0-5.632-4.566-10.199-10.199-10.199H282.937
	c-5.633,0-10.199,4.567-10.199,10.199C272.738,336.831,277.304,341.398,282.937,341.398z"/>
<g>
</g>
<g>
</g>
<g>
</g>
<g>
</g>
<g>
</g>
<g>
</g>
<g>
</g>
<g>
</g>
<g>
</g>
<g>
</g>
<g>
</g>
<g>
</g>
<g>
</g>
<g>
</g>
<g>
</g>
</svg>
