<?xml version="1.0" encoding="UTF-8" standalone="no"?>
<!DOCTYPE svg PUBLIC "-//W3C//DTD SVG 1.1//EN" "http://www.w3.org/Graphics/SVG/1.1/DTD/svg11.dtd">
<!-- Created with Vectornator (http://vectornator.io/) -->
<svg height="100%" stroke-miterlimit="10" style="fill-rule:nonzero;clip-rule:evenodd;stroke-linecap:round;stroke-linejoin:round;" version="1.1" viewBox="0 0 1024 1024" width="100%" xml:space="preserve" xmlns="http://www.w3.org/2000/svg" xmlns:vectornator="http://vectornator.io" xmlns:xlink="http://www.w3.org/1999/xlink">
<defs/>
<g id="Layer-1" vectornator:layerName="Layer 1">
<g opacity="1">
<path d="M987.325 204.214L511.703 35.7664L36.0826 204.214L36.0826 798.74L511.703 967.189L987.325 798.74L987.325 204.214Z" fill="#e7e1fb" fill-rule="evenodd" opacity="1" stroke="none"/>
<path d="M987.325 204.214L511.703 35.7664L36.0826 204.214L36.0826 798.74L511.703 967.189L987.325 798.74L987.325 204.214ZM987.325 204.214L511.703 35.7664" fill="#e7e1fb" fill-rule="evenodd" opacity="1" stroke="none"/>
<path d="M511.703 996.916C508.73 996.916 504.767 995.926 501.794 994.934L26.1738 826.485C14.2834 822.522 6.3563 810.631 6.3563 798.74L6.3563 204.214C6.3563 191.333 14.2834 180.434 26.1738 176.471L501.794 8.02179C517.649 2.07537 534.493 10.993 539.447 25.8571C545.394 41.7109 536.474 58.5564 521.612 63.5111L65.8089 225.022L65.8089 777.932L521.612 939.445C537.466 945.389 545.394 962.235 539.447 977.099C535.485 988.99 523.594 996.916 511.703 996.916Z" fill="#423a55" fill-rule="evenodd" opacity="1" stroke="none"/>
<path d="M987.325 204.214L511.703 35.7664M987.325 204.214L511.703 35.7664" fill="#423a55" fill-rule="evenodd" opacity="1" stroke="none"/>
<path d="M1017.05 203.224C1017.05 202.232 1017.05 200.251 1017.05 199.261L1017.05 198.269C1015.07 188.36 1008.13 179.442 998.224 176.471L760.413 92.2454L759.423 92.2454C753.477 90.264 745.551 89.2723 738.615 92.2454L273.894 255.74C262.003 259.703 254.075 271.594 254.075 283.485L254.075 392.482C254.075 409.325 266.958 422.208 283.801 422.208C300.647 422.208 313.527 409.325 313.527 392.482L313.527 304.293L747.532 150.708L898.144 204.214L501.794 344.918C489.905 348.883 481.977 359.782 481.977 372.663C481.977 372.663 481.977 372.663 481.977 373.655L481.977 926.564L65.8089 777.932L65.8089 225.022L521.612 63.5111C537.466 57.5647 545.394 40.7191 539.447 25.8571C533.503 10.0033 516.658 2.07537 501.794 8.02179L26.1738 176.471C14.2834 180.434 6.3563 192.325 6.3563 204.214L6.3563 798.74C6.3563 811.623 14.2834 822.522 26.1738 826.485L501.794 994.934L501.794 994.934C504.767 995.926 508.73 996.916 511.703 996.916C514.676 996.916 518.639 995.926 521.612 994.934L997.232 826.485C1009.12 822.522 1017.05 810.631 1017.05 798.74L1017.05 203.224C1017.05 204.214 1017.05 203.224 1017.05 203.224ZM957.597 777.932L541.429 925.572L541.429 393.472L957.597 245.831L957.597 777.932Z" fill="#423a55" fill-rule="evenodd" opacity="1" stroke="none"/>
</g>
</g>
</svg>
