<?xml version="1.0" encoding="UTF-8" standalone="no"?>
<!DOCTYPE svg PUBLIC "-//W3C//DTD SVG 1.1//EN" "http://www.w3.org/Graphics/SVG/1.1/DTD/svg11.dtd">
<!-- Created with Vectornator (http://vectornator.io/) -->
<svg height="100%" stroke-miterlimit="10" style="fill-rule:nonzero;clip-rule:evenodd;stroke-linecap:round;stroke-linejoin:round;" version="1.1" viewBox="0 0 1024 1024" width="100%" xml:space="preserve" xmlns="http://www.w3.org/2000/svg" xmlns:vectornator="http://vectornator.io" xmlns:xlink="http://www.w3.org/1999/xlink">
<defs/>
<g id="Layer-1" vectornator:layerName="Layer 1">
<g opacity="1">
<path d="M742.773 282.597L503.459 197.841L264.145 282.597L264.145 581.739L503.459 666.496L742.773 581.739L742.773 282.597Z" fill="#e7e1fb" fill-rule="evenodd" opacity="1" stroke="none"/>
<path d="M742.773 282.597L503.459 197.841L264.145 282.597L264.145 581.739L503.459 666.496L742.773 581.739L742.773 282.597ZM742.773 282.597L503.459 197.841" fill="#e7e1fb" fill-rule="evenodd" opacity="1" stroke="none"/>
<path d="M503.459 681.453C501.963 681.453 499.969 680.955 498.473 680.456L259.16 595.699C253.177 593.705 249.188 587.722 249.188 581.739L249.188 282.597C249.188 276.116 253.177 270.632 259.16 268.638L498.473 183.881C506.451 180.889 514.926 185.376 517.419 192.855C520.411 200.832 515.923 209.308 508.445 211.801L279.103 293.067L279.103 571.269L508.445 652.536C516.422 655.527 520.411 664.003 517.419 671.482C515.425 677.465 509.442 681.453 503.459 681.453Z" fill="#423a55" fill-rule="evenodd" opacity="1" stroke="none"/>
<path d="M742.773 282.597L503.459 197.841M742.773 282.597L503.459 197.841" fill="#423a55" fill-rule="evenodd" opacity="1" stroke="none"/>
<path d="M757.73 282.099C757.73 281.6 757.73 280.603 757.73 280.105L757.73 279.606C756.733 274.62 753.243 270.133 748.257 268.638L628.6 226.259L628.102 226.259C625.11 225.262 621.122 224.763 617.632 226.259L383.803 308.523C377.82 310.517 373.831 316.5 373.831 322.483L373.831 377.326C373.831 385.801 380.313 392.283 388.788 392.283C397.264 392.283 403.745 385.801 403.745 377.326L403.745 332.953L622.119 255.675L697.901 282.597L498.473 353.394C492.491 355.389 488.502 360.873 488.502 367.354C488.502 367.354 488.502 367.354 488.502 367.853L488.502 646.055L279.103 571.269L279.103 293.067L508.445 211.801C516.422 208.809 520.411 200.333 517.419 192.855C514.428 184.878 505.952 180.889 498.473 183.881L259.16 268.638C253.177 270.632 249.188 276.615 249.188 282.597L249.188 581.739C249.188 588.221 253.177 593.705 259.16 595.699L498.473 680.456L498.473 680.456C499.969 680.955 501.963 681.453 503.459 681.453C504.955 681.453 506.949 680.955 508.445 680.456L747.758 595.699C753.741 593.705 757.73 587.722 757.73 581.739L757.73 282.099C757.73 282.597 757.73 282.099 757.73 282.099ZM727.815 571.269L518.416 645.556L518.416 377.824L727.815 303.537L727.815 571.269Z" fill="#423a55" fill-rule="evenodd" opacity="1" stroke="none"/>
</g>
<g opacity="1">
<path d="M512.385 363.729L273.071 278.973L33.7578 363.729L33.7578 662.871L273.071 747.628L512.385 662.871L512.385 363.729Z" fill="#f7becb" fill-rule="evenodd" opacity="1" stroke="none"/>
<path d="M512.385 363.729L273.071 278.973L33.7578 363.729L33.7578 662.871L273.071 747.628L512.385 662.871L512.385 363.729ZM512.385 363.729L273.071 278.973" fill="#f7becb" fill-rule="evenodd" opacity="1" stroke="none"/>
<path d="M273.071 762.585C271.575 762.585 269.581 762.087 268.085 761.588L28.7721 676.831C22.7893 674.837 18.8007 668.854 18.8007 662.871L18.8007 363.729C18.8007 357.248 22.7893 351.764 28.7721 349.77L268.085 265.013C276.063 262.021 284.538 266.508 287.031 273.987C290.023 281.964 285.535 290.44 278.057 292.933L48.7149 374.199L48.7149 652.401L278.057 733.668C286.034 736.659 290.023 745.135 287.031 752.614C285.037 758.597 279.054 762.585 273.071 762.585Z" fill="#423a55" fill-rule="evenodd" opacity="1" stroke="none"/>
<path d="M512.385 363.729L273.071 278.973M512.385 363.729L273.071 278.973" fill="#423a55" fill-rule="evenodd" opacity="1" stroke="none"/>
<path d="M527.342 363.231C527.342 362.732 527.342 361.735 527.342 361.237L527.342 360.738C526.345 355.752 522.855 351.265 517.869 349.77L398.212 307.391L397.714 307.391C394.722 306.394 390.734 305.895 387.244 307.391L153.415 389.655C147.432 391.649 143.443 397.632 143.443 403.615L143.443 458.458C143.443 466.933 149.925 473.415 158.4 473.415C166.876 473.415 173.357 466.933 173.357 458.458L173.357 414.085L391.731 336.807L467.513 363.729L268.085 434.526C262.103 436.521 258.114 442.005 258.114 448.486C258.114 448.486 258.114 448.486 258.114 448.985L258.114 727.187L48.7149 652.401L48.7149 374.199L278.057 292.933C286.034 289.941 290.023 281.465 287.031 273.987C284.04 266.01 275.564 262.021 268.085 265.013L28.7721 349.77C22.7893 351.764 18.8007 357.747 18.8007 363.729L18.8007 662.871C18.8007 669.353 22.7893 674.837 28.7721 676.831L268.085 761.588L268.085 761.588C269.581 762.087 271.575 762.585 273.071 762.585C274.567 762.585 276.561 762.087 278.057 761.588L517.37 676.831C523.353 674.837 527.342 668.854 527.342 662.871L527.342 363.231C527.342 363.729 527.342 363.231 527.342 363.231ZM497.427 652.401L288.028 726.688L288.028 458.956L497.427 384.669L497.427 652.401Z" fill="#423a55" fill-rule="evenodd" opacity="1" stroke="none"/>
</g>
<g opacity="1">
<path d="M509.228 368.747L748.541 283.99L987.855 368.747L987.855 667.889L748.541 752.645L509.228 667.889L509.228 368.747Z" fill="#afd9f7" fill-rule="evenodd" opacity="1" stroke="none"/>
<path d="M509.228 368.747L748.541 283.99L987.855 368.747L987.855 667.889L748.541 752.645L509.228 667.889L509.228 368.747ZM509.228 368.747L748.541 283.99" fill="#afd9f7" fill-rule="evenodd" opacity="1" stroke="none"/>
<path d="M748.541 767.602C750.037 767.602 752.031 767.104 753.527 766.605L992.84 681.849C998.82 679.854 1002.81 673.871 1002.81 667.889L1002.81 368.747C1002.81 362.265 998.82 356.781 992.84 354.787L753.527 270.03C745.55 267.039 737.074 271.526 734.581 279.004C731.59 286.981 736.077 295.457 743.556 297.95L972.898 379.217L972.898 657.419L743.556 738.685C735.579 741.677 731.59 750.153 734.581 757.631C736.576 763.614 742.559 767.602 748.541 767.602Z" fill="#423a55" fill-rule="evenodd" opacity="1" stroke="none"/>
<path d="M509.228 368.747L748.541 283.99M509.228 368.747L748.541 283.99" fill="#423a55" fill-rule="evenodd" opacity="1" stroke="none"/>
<path d="M494.271 368.248C494.271 367.75 494.271 366.753 494.271 366.254L494.271 365.755C495.268 360.77 498.758 356.283 503.744 354.787L623.4 312.408L623.899 312.408C626.89 311.411 630.879 310.913 634.369 312.408L868.198 394.672C874.181 396.667 878.169 402.65 878.169 408.632L878.169 463.475C878.169 471.951 871.688 478.432 863.212 478.432C854.737 478.432 848.255 471.951 848.255 463.475L848.255 419.102L629.882 341.824L554.099 368.747L753.527 439.544C759.51 441.538 763.498 447.022 763.498 453.504C763.498 453.504 763.498 453.504 763.498 454.002L763.498 732.204L972.898 657.419L972.898 379.217L743.556 297.95C735.579 294.959 731.59 286.483 734.581 279.004C737.573 271.027 746.049 267.039 753.527 270.03L992.84 354.787C998.82 356.781 1002.81 362.764 1002.81 368.747L1002.81 667.889C1002.81 674.37 998.82 679.854 992.84 681.849L753.527 766.605L753.527 766.605C752.031 767.104 750.037 767.602 748.541 767.602C747.046 767.602 745.051 767.104 743.556 766.605L504.242 681.849C498.259 679.854 494.271 673.871 494.271 667.889L494.271 368.248C494.271 368.747 494.271 368.248 494.271 368.248ZM524.185 657.419L733.584 731.705L733.584 463.974L524.185 389.687L524.185 657.419Z" fill="#423a55" fill-rule="evenodd" opacity="1" stroke="none"/>
</g>
<g opacity="1">
<path d="M754.904 452.17L515.591 367.413L276.277 452.17L276.277 751.311L515.591 836.068L754.904 751.311L754.904 452.17Z" fill="#ffd4a5" fill-rule="evenodd" opacity="1" stroke="none"/>
<path d="M754.904 452.17L515.591 367.413L276.277 452.17L276.277 751.311L515.591 836.068L754.904 751.311L754.904 452.17ZM754.904 452.17L515.591 367.413" fill="#ffd4a5" fill-rule="evenodd" opacity="1" stroke="none"/>
<path d="M515.591 851.025C514.095 851.025 512.101 850.527 510.605 850.028L271.292 765.271C265.309 763.277 261.32 757.294 261.32 751.311L261.32 452.17C261.32 445.688 265.309 440.204 271.292 438.21L510.605 353.453C518.582 350.462 527.058 354.949 529.551 362.427C532.542 370.404 528.055 378.88 520.577 381.373L291.235 462.64L291.235 740.841L520.577 822.108C528.554 825.1 532.542 833.575 529.551 841.054C527.557 847.037 521.574 851.025 515.591 851.025Z" fill="#423a55" fill-rule="evenodd" opacity="1" stroke="none"/>
<path d="M754.904 452.17L515.591 367.413M754.904 452.17L515.591 367.413" fill="#423a55" fill-rule="evenodd" opacity="1" stroke="none"/>
<path d="M769.861 451.671C769.861 451.173 769.861 450.175 769.861 449.677L769.861 449.178C768.864 444.193 765.374 439.705 760.389 438.21L640.732 395.831L640.233 395.831C637.242 394.834 633.253 394.336 629.763 395.831L395.934 478.095C389.951 480.09 385.963 486.072 385.963 492.055L385.963 546.898C385.963 555.374 392.444 561.855 400.92 561.855C409.396 561.855 415.877 555.374 415.877 546.898L415.877 502.525L634.25 425.247L710.033 452.17L510.605 522.967C504.622 524.961 500.634 530.445 500.634 536.927C500.634 536.927 500.634 536.927 500.634 537.425L500.634 815.627L291.235 740.841L291.235 462.64L520.577 381.373C528.554 378.381 532.542 369.906 529.551 362.427C526.559 354.45 518.084 350.462 510.605 353.453L271.292 438.21C265.309 440.204 261.32 446.187 261.32 452.17L261.32 751.311C261.32 757.793 265.309 763.277 271.292 765.271L510.605 850.028L510.605 850.028C512.101 850.527 514.095 851.025 515.591 851.025C517.087 851.025 519.081 850.527 520.577 850.028L759.89 765.271C765.873 763.277 769.861 757.294 769.861 751.311L769.861 451.671C769.861 452.17 769.861 451.671 769.861 451.671ZM739.947 740.841L530.548 815.128L530.548 547.396L739.947 473.11L739.947 740.841Z" fill="#423a55" fill-rule="evenodd" opacity="1" stroke="none"/>
</g>
</g>
</svg>
