<?xml version="1.0" encoding="UTF-8" standalone="no"?>
<!DOCTYPE svg PUBLIC "-//W3C//DTD SVG 1.1//EN" "http://www.w3.org/Graphics/SVG/1.1/DTD/svg11.dtd">
<!-- Created with Vectornator (http://vectornator.io/) -->
<svg height="100%" stroke-miterlimit="10" style="fill-rule:nonzero;clip-rule:evenodd;stroke-linecap:round;stroke-linejoin:round;" version="1.1" viewBox="0 0 1024 1024" width="100%" xml:space="preserve" xmlns="http://www.w3.org/2000/svg" xmlns:vectornator="http://vectornator.io" xmlns:xlink="http://www.w3.org/1999/xlink">
<defs/>
<g id="Layer-1" vectornator:layerName="Layer 1">
<g opacity="0">
<path d="M513.25 501.068L273.936 416.312L34.623 501.068L34.623 800.21L273.936 884.967L513.25 800.21L513.25 501.068Z" fill="#f7becb" fill-rule="evenodd" opacity="1" stroke="none"/>
<path d="M513.25 501.068L273.936 416.312L34.623 501.068L34.623 800.21L273.936 884.967L513.25 800.21L513.25 501.068ZM513.25 501.068L273.936 416.312" fill="#f7becb" fill-rule="evenodd" opacity="1" stroke="none"/>
<path d="M273.936 899.924C272.44 899.924 270.446 899.426 268.95 898.927L29.6373 814.17C23.6545 812.176 19.6659 806.193 19.6659 800.21L19.6659 501.068C19.6659 494.587 23.6545 489.103 29.6373 487.109L268.95 402.352C276.928 399.36 285.403 403.847 287.896 411.326C290.888 419.303 286.4 427.779 278.922 430.272L49.5801 511.538L49.5801 789.74L278.922 871.007C286.899 873.998 290.888 882.474 287.896 889.953C285.902 895.936 279.919 899.924 273.936 899.924Z" fill="#423a55" fill-rule="evenodd" opacity="1" stroke="none"/>
<path d="M513.25 501.068L273.936 416.312M513.25 501.068L273.936 416.312" fill="#423a55" fill-rule="evenodd" opacity="1" stroke="none"/>
<path d="M528.207 500.57C528.207 500.071 528.207 499.074 528.207 498.576L528.207 498.077C527.21 493.091 523.72 488.604 518.734 487.109L399.077 444.73L398.579 444.73C395.587 443.733 391.599 443.234 388.109 444.73L154.28 526.994C148.297 528.988 144.308 534.971 144.308 540.954L144.308 595.797C144.308 604.272 150.79 610.754 159.265 610.754C167.741 610.754 174.222 604.272 174.222 595.797L174.222 551.424L392.596 474.146L468.378 501.068L268.95 571.865C262.968 573.86 258.979 579.344 258.979 585.825C258.979 585.825 258.979 585.825 258.979 586.324L258.979 864.526L49.5801 789.74L49.5801 511.538L278.922 430.272C286.899 427.28 290.888 418.804 287.896 411.326C284.905 403.349 276.429 399.36 268.95 402.352L29.6373 487.109C23.6545 489.103 19.6659 495.086 19.6659 501.068L19.6659 800.21C19.6659 806.692 23.6545 812.176 29.6373 814.17L268.95 898.927L268.95 898.927C270.446 899.426 272.44 899.924 273.936 899.924C275.432 899.924 277.426 899.426 278.922 898.927L518.235 814.17C524.218 812.176 528.207 806.193 528.207 800.21L528.207 500.57C528.207 501.068 528.207 500.57 528.207 500.57ZM498.292 789.74L288.893 864.027L288.893 596.295L498.292 522.008L498.292 789.74Z" fill="#423a55" fill-rule="evenodd" opacity="1" stroke="none"/>
</g>
<g opacity="1">
<path d="M531.023 131.855C524.556 123.771 514.046 120.537 504.345 124.579L116.31 262.008C110.651 263.625 106.608 267.667 103.375 272.518L6.36672 434.199C0.707854 443.092 1.51534 454.41 7.98333 461.686C13.6422 467.345 20.1086 470.578 27.384 470.578C29.8097 470.578 33.0429 469.77 35.4686 468.961L423.506 331.531C429.163 329.915 433.205 325.873 436.44 321.023L533.449 159.341C538.298 151.257 537.491 139.939 531.023 131.855Z" fill="#423a55" fill-rule="evenodd" opacity="1" stroke="none"/>
<path d="M900.467 284.644L512.43 147.215L124.394 284.644L124.394 769.689L512.43 907.119L900.467 769.689L900.467 284.644Z" fill="#e7e1fb" fill-rule="evenodd" opacity="1" stroke="none"/>
<path d="M900.467 284.644L512.43 147.215L124.394 284.644L124.394 769.689L512.43 907.119L900.467 769.689L900.467 284.644ZM900.467 284.644L512.43 147.215" fill="#e7e1fb" fill-rule="evenodd" opacity="1" stroke="none"/>
<path d="M512.43 931.371C510.004 931.371 506.771 930.562 504.345 929.755L116.31 792.325C106.608 789.092 100.142 779.39 100.142 769.689L100.142 284.644C100.142 274.135 106.608 265.241 116.31 262.008L504.345 124.579C517.281 119.729 531.023 127.004 535.065 139.13C539.916 152.065 532.639 165.808 520.514 169.85L148.646 301.62L148.646 752.713L520.514 884.484C533.449 889.333 539.916 903.077 535.065 915.202C531.832 924.903 522.131 931.371 512.43 931.371Z" fill="#423a55" fill-rule="evenodd" opacity="1" stroke="none"/>
<path d="M900.467 284.644L512.43 147.215M900.467 284.644L512.43 147.215M512.43 422.073L124.394 284.644M997.475 446.326L609.44 583.755L512.43 422.073L900.467 284.644L997.475 446.326Z" fill="#e7e1fb" fill-rule="evenodd" opacity="1" stroke="none"/>
<path d="M1018.49 434.199L921.484 272.518L920.676 271.709C920.676 270.9 919.867 270.9 919.867 270.093L919.867 270.093C919.867 269.284 919.06 269.284 919.06 268.476C919.06 268.476 919.06 268.476 919.06 267.667C918.251 266.86 918.251 266.86 917.442 266.051L916.634 265.241L915.825 264.434L915.018 264.434L914.208 263.625C913.401 262.817 912.592 262.817 911.784 262.817C910.975 262.817 910.975 262.008 910.166 262.008L910.166 262.008L910.166 262.008L522.131 124.579C520.514 123.771 518.898 123.771 517.281 123.771L516.472 123.771C514.855 123.771 513.239 123.771 512.43 123.771C511.622 123.771 511.622 123.771 510.813 123.771C509.196 123.771 507.58 124.579 505.963 124.579L117.926 262.008C108.225 265.241 101.759 274.943 101.759 284.644L101.759 769.689C101.759 780.198 108.225 789.092 117.926 792.325L505.963 929.755L505.963 929.755C506.771 929.755 507.58 930.562 508.387 930.562C509.196 930.562 509.196 930.562 510.004 930.562C510.813 930.562 511.622 930.562 513.239 930.562L514.046 930.562C515.663 930.562 516.472 930.562 518.088 930.562L518.898 930.562C519.705 930.562 520.514 929.755 521.322 929.755L521.322 929.755L909.359 792.325C919.06 789.092 925.526 779.39 925.526 769.689L925.526 498.063L1006.37 469.77C1012.84 467.345 1018.49 461.686 1020.92 455.218C1023.34 448.751 1021.73 439.858 1018.49 434.199ZM827.709 284.644L536.682 388.12L536.682 181.168L827.709 284.644ZM148.646 318.597L488.177 439.05L488.177 872.357L148.646 751.904L148.646 318.597ZM876.213 752.713L536.682 873.166L536.682 509.381L588.421 595.881C593.27 603.965 601.355 608.007 609.44 608.007C611.864 608.007 615.097 607.198 617.523 606.391L876.213 515.04L876.213 752.713ZM619.948 554.652L547.999 435.008L889.149 313.747L961.096 433.391L619.948 554.652Z" fill="#423a55" fill-rule="evenodd" opacity="1" stroke="none"/>
</g>
</g>
</svg>
