<?xml version="1.0" encoding="UTF-8" standalone="no"?>
<!DOCTYPE svg PUBLIC "-//W3C//DTD SVG 1.1//EN" "http://www.w3.org/Graphics/SVG/1.1/DTD/svg11.dtd">
<!-- Created with Vectornator (http://vectornator.io/) -->
<svg height="100%" stroke-miterlimit="10" style="fill-rule:nonzero;clip-rule:evenodd;stroke-linecap:round;stroke-linejoin:round;" version="1.1" viewBox="0 0 1024 1024" width="100%" xml:space="preserve" xmlns="http://www.w3.org/2000/svg" xmlns:vectornator="http://vectornator.io" xmlns:xlink="http://www.w3.org/1999/xlink">
<defs/>
<g id="Layer-1" vectornator:layerName="Layer 1">
<g opacity="1">
<path d="M766.741 411.885L766.741 413.16C766.741 576.032 599.248 707.986 392.392 707.986L392.232 707.986C363.706 707.986 335.976 705.436 309.362 700.655C262.668 743.047 208.165 776.035 148.403 798.028C164.977 753.087 175.336 704.958 178.205 654.918C81.151 601.849 17.7236 513.401 17.7236 413.16C17.7236 250.289 185.376 118.334 392.232 118.334C598.611 118.334 765.785 249.651 766.741 411.885Z" fill="#72caaf" fill-rule="evenodd" opacity="1" stroke="none"/>
<path d="M97.4063 413.16C97.4063 373.765 68.7524 341.254 31.174 334.832C22.4727 359.789 17.7236 386.02 17.7236 413.16C17.7236 513.034 80.7048 601.164 177.153 654.296C200.085 621.546 195.623 576.255 164.961 549.147C121.391 510.644 97.4063 462.34 97.4063 413.16Z" fill="#5dbc9d" fill-rule="evenodd" opacity="1" stroke="none"/>
<path d="M691.473 235.882C623.137 164.486 514.577 118.334 392.232 118.334C365.108 118.334 338.702 120.661 313.219 124.964C316.645 165.825 350.495 198.017 392.232 198.017C463.628 198.017 532.665 217.268 586.642 252.217C600.029 260.886 615.041 265.03 629.878 265.03C653.162 265.03 675.983 254.767 691.473 235.882Z" fill="#97e0bb" fill-rule="evenodd" opacity="1" stroke="none"/>
<path d="M901.405 836.754C903.796 888.388 914.154 938.11 931.366 984.326C873.516 962.971 820.607 931.417 774.869 890.938C749.37 896.356 722.597 899.225 695.027 899.225C547.454 899.225 423.946 817.47 392.392 707.986C599.248 707.986 766.741 576.032 766.741 413.16L766.741 411.885C903.796 437.543 1005.79 535.393 1005.79 652.208C1005.79 725.676 965.47 791.653 901.405 836.754Z" fill="#85cbf8" fill-rule="evenodd" opacity="1" stroke="none"/>
<path d="M845.484 436.252C821.037 425.479 794.678 417.112 766.741 411.885L766.741 413.16C766.741 576.032 599.248 707.986 392.392 707.986C400.519 736.162 414.815 762.457 433.954 786.027C655.695 769.342 831.81 620.638 845.484 436.252Z" fill="#7bbeeb" fill-rule="evenodd" opacity="1" stroke="none"/>
<path d="M148.403 813.964C144.244 813.964 140.164 812.339 137.136 809.295C132.738 804.896 131.303 798.331 133.455 792.514C148.738 751.095 158.204 707.859 161.647 663.858C61.326 605.658 1.78702 512.588 1.78702 413.16C1.78702 241.81 176.93 102.397 392.232 102.397C606.515 102.397 781.674 241.189 782.678 411.79C782.678 411.821 782.678 411.853 782.678 411.885L782.678 413.16C782.678 584.51 607.599 723.923 392.392 723.923C366.049 723.923 339.833 721.819 314.255 717.66C267.242 759.063 213.345 791.095 153.917 812.976C152.132 813.646 150.252 813.964 148.403 813.964ZM392.232 134.27C194.524 134.27 33.6601 259.388 33.6601 413.16C33.6601 503.68 90.5536 588.813 185.854 640.941C191.257 643.889 194.476 649.69 194.125 655.842C191.894 694.695 185.264 733.038 174.38 770.25C219.99 749.74 261.68 722.457 298.669 688.878C302.334 685.548 307.37 684.129 312.199 684.99C338.335 689.675 365.284 692.05 392.232 692.05C590.021 692.05 750.805 566.932 750.805 413.16L766.741 411.885L750.805 411.981C749.896 258.846 589.065 134.27 392.232 134.27Z" fill="#423a55" fill-rule="evenodd" opacity="1" stroke="none"/>
<path d="M931.366 1000.26C929.517 1000.26 927.653 999.928 925.836 999.274C868.48 978.095 816.208 947.449 770.311 908.101C745.817 912.803 720.525 915.161 695.027 915.161C542.227 915.161 411.484 831.797 377.077 712.401C375.69 707.572 376.646 702.392 379.658 698.392C382.655 694.392 387.372 692.05 392.392 692.05C590.021 692.05 750.805 566.932 750.805 413.16C750.805 408.427 752.924 403.279 756.558 400.251C760.191 397.224 765.036 395.279 769.658 396.22C918.075 423.997 1021.73 529.274 1021.73 652.208C1021.73 725.421 983.972 795.079 917.804 844.546C920.768 890.762 930.33 935.863 946.314 978.764C948.482 984.597 947.063 991.163 942.665 995.577C939.621 998.621 935.525 1000.26 931.366 1000.26ZM774.869 875.001C778.726 875.001 782.487 876.404 785.419 879.001C821.308 910.747 861.516 936.708 905.31 956.437C894.011 917.966 887.349 878.093 885.484 837.471C885.23 832.036 887.779 826.841 892.226 823.717C954.283 780.035 989.853 717.532 989.853 652.208C989.853 549.784 905.262 461.002 781.929 431.423C769.753 589.004 611.472 714.584 414.655 723.429C453.429 817.183 567.391 883.288 695.027 883.288C721.035 883.288 746.773 880.627 771.554 875.352C772.654 875.113 773.753 875.001 774.869 875.001Z" fill="#423a55" fill-rule="evenodd" opacity="1" stroke="none"/>
<path d="M695.027 915.161C542.227 915.161 411.484 831.797 377.077 712.401L407.707 703.556C437.715 807.717 558.562 883.288 695.027 883.288L695.027 915.161ZM459.532 638.168C451.947 638.168 445.237 632.734 443.867 625.021L438.289 593.626C436.743 584.956 442.528 576.701 451.198 575.155C459.995 573.577 468.138 579.41 469.668 588.064L475.246 619.459C476.792 628.128 471.007 636.383 462.337 637.929C461.381 638.088 460.441 638.168 459.532 638.168ZM540.634 613.578C534.53 613.578 528.713 610.056 526.068 604.128L513.095 575.028C509.494 566.996 513.111 557.561 521.159 553.991C529.191 550.406 538.626 554.007 542.195 562.055L555.168 591.155C558.769 599.187 555.152 608.622 547.104 612.192C545.016 613.148 542.801 613.578 540.634 613.578ZM613.081 568.047C608.683 568.047 604.268 566.231 601.129 562.645L580.061 538.724C574.244 532.11 574.881 522.055 581.479 516.222C588.093 510.421 598.165 511.042 603.965 517.64L625.034 541.561C630.85 548.175 630.213 558.23 623.615 564.063C620.587 566.741 616.842 568.047 613.081 568.047ZM665.64 498.516C663.441 498.516 661.194 498.054 659.058 497.082L630.054 483.886C622.037 480.237 618.5 470.787 622.149 462.786C625.798 454.786 635.249 451.217 643.249 454.882L672.253 468.077C680.27 471.727 683.807 481.177 680.158 489.177C677.481 495.058 671.696 498.516 665.64 498.516ZM97.4063 440.81C88.5934 440.81 81.4698 433.67 81.4698 424.873C81.4698 337.589 143.415 256.823 243.13 214.081C251.13 210.591 260.581 214.352 264.039 222.447C267.513 230.543 263.752 239.914 255.672 243.372C166.555 281.588 113.343 349.43 113.343 424.873C113.343 433.686 106.219 440.81 97.4063 440.81Z" fill="#423a55" fill-rule="evenodd" opacity="1" stroke="none"/>
<path d="M324.167 221.794C316.709 221.794 310.048 216.535 308.55 208.933C306.86 200.296 312.47 191.929 321.108 190.224C348.471 184.821 377.029 182.08 405.938 182.08C414.751 182.08 421.874 189.22 421.874 198.017C421.874 206.814 414.751 213.953 405.938 213.953C379.069 213.953 352.598 216.487 327.243 221.491C326.207 221.698 325.187 221.794 324.167 221.794Z" fill="#423a55" fill-rule="evenodd" opacity="1" stroke="none"/>
<path d="M894.138 726.552C891.764 726.552 889.325 726.026 887.062 724.895C879.174 720.974 875.97 711.397 879.891 703.524C889.421 684.4 894.234 664.463 894.234 644.24C894.234 635.427 901.357 628.303 910.17 628.303C918.983 628.303 926.107 635.427 926.107 644.24C926.107 669.42 920.162 694.153 908.433 717.708C905.644 723.317 899.987 726.552 894.138 726.552Z" fill="#423a55" fill-rule="evenodd" opacity="1" stroke="none"/>
<path d="M702.995 835.479C694.182 835.479 687.059 828.355 687.059 819.542C687.059 810.729 694.182 803.605 702.995 803.605C755.952 803.605 805.403 785.39 842.217 752.306C848.735 746.441 858.807 746.951 864.719 753.517C870.6 760.051 870.058 770.139 863.508 776.019C820.862 814.363 763.841 835.479 702.995 835.479Z" fill="#423a55" fill-rule="evenodd" opacity="1" stroke="none"/>
</g>
</g>
</svg>
