<?xml version="1.0" encoding="UTF-8" standalone="no"?>
<!DOCTYPE svg PUBLIC "-//W3C//DTD SVG 1.1//EN" "http://www.w3.org/Graphics/SVG/1.1/DTD/svg11.dtd">
<!-- Created with Vectornator (http://vectornator.io/) -->
<svg height="100%" stroke-miterlimit="10" style="fill-rule:nonzero;clip-rule:evenodd;stroke-linecap:round;stroke-linejoin:round;" version="1.1" viewBox="0 0 1024 1024" width="100%" xml:space="preserve" xmlns="http://www.w3.org/2000/svg" xmlns:vectornator="http://vectornator.io" xmlns:xlink="http://www.w3.org/1999/xlink">
<defs/>
<g id="Layer-1" vectornator:layerName="Layer 1">
<g opacity="1">
<path d="M512 21.1704C240.922 21.1704 21.1705 240.922 21.1704 512C21.1704 783.078 240.922 1002.83 512 1002.83C783.078 1002.83 1002.83 783.078 1002.83 512C1002.83 240.922 783.078 21.1704 512 21.1704Z" fill="#f9e3ae" fill-rule="evenodd" opacity="1" stroke="none"/>
<path d="M734.1 148.436L734.1 148.436C754.68 127.926 754.733 94.6371 734.223 74.0573C730.384 70.2008 725.967 66.9578 721.128 64.4686C497.415-45.9681 226.442 29.0062 91.2889 238.713C75.8979 263.342 83.383 295.79 108.012 311.181C116.549 316.527 126.453 319.297 136.515 319.174L136.515 319.174C154.115 319.086 170.488 310.199 180.164 295.509C286.113 131.554 497.854 72.6023 673.273 158.252C693.554 168.437 718.078 164.493 734.1 148.436Z" fill="#faefde" fill-rule="evenodd" opacity="1" stroke="none"/>
<path d="M889.062 430.838C912.377 538.996 890.64 663.807 797.382 786.689C794.262 790.791 790.616 794.437 786.514 797.558C663.807 890.64 538.996 912.201 430.838 889.062C413.519 885.434 395.533 890.78 382.982 903.261L382.982 903.261C362.385 923.736 362.279 957.042 382.754 977.64C390.134 985.055 399.547 990.103 409.802 992.137C548.812 1021.59 699.216 981.794 854.704 865.923C859.104 862.645 862.996 858.754 866.274 854.354C982.145 698.866 1021.76 548.637 992.312 409.627C986.65 381.141 958.97 362.648 930.485 368.31C920.23 370.343 910.817 375.392 903.437 382.807L903.437 382.807C890.833 395.358 885.434 413.431 889.062 430.838Z" fill="#f6d397" fill-rule="evenodd" opacity="1" stroke="none"/>
<path d="M512 3.64078C231.245 3.64078 3.64078 231.245 3.64078 512C3.64078 792.755 231.245 1020.36 512 1020.36C792.755 1020.36 1020.36 792.755 1020.36 512C1020.36 231.245 792.772 3.64078 512 3.64078ZM512 985.3C250.598 985.3 38.7 773.402 38.7 512C38.7 250.598 250.598 38.7 512 38.7C773.402 38.7 985.3 250.598 985.3 512C985.3 773.402 773.402 985.3 512 985.3Z" fill="#423a55" fill-rule="evenodd" opacity="1" stroke="none"/>
<path d="M690.977 833.844C616.669 874.688 530.652 888.975 447.14 874.337C437.464 872.637 428.243 879.123 426.543 888.799C424.843 898.476 431.329 907.696 441.005 909.397L441.005 909.397C532.58 925.524 626.924 909.625 708.157 864.346C716.623 859.507 719.568 848.709 714.73 840.242C709.892 831.775 699.094 828.831 690.627 833.669L690.977 833.844ZM782.482 761.797C773.156 771.929 763.27 781.536 752.857 790.546C746.669 797.996 747.703 809.04 755.153 815.228C760.745 819.873 768.616 820.574 774.944 817.016C786.637 807.129 797.75 796.594 808.251 785.462C814.842 778.345 814.404 767.249 807.287 760.658C800.17 754.067 789.073 754.505 782.482 761.622C782.482 761.622 782.482 761.797 782.482 761.797ZM659.074 645.225C664.262 637.056 661.843 626.223 653.674 621.034C645.698 615.968 635.128 618.142 629.799 625.943C596.318 676.778 529.53 704.826 443.634 704.826C359.843 704.826 292.178 676.077 258.346 625.767C252.93 617.739 242.009 615.618 233.98 621.034C225.952 626.451 223.83 637.372 229.247 645.4C269.741 704.826 347.923 739.885 443.634 739.885C542.326 739.885 618.931 706.228 659.074 645.225ZM774.962 406.822L108.836 406.822C99.1422 406.822 91.3064 398.986 91.3064 389.293C91.3064 379.599 99.1422 371.763 108.836 371.763L774.962 371.763C784.656 371.763 792.492 379.599 792.492 389.293C792.492 398.986 784.656 406.822 774.962 406.822Z" fill="#423a55" fill-rule="evenodd" opacity="1" stroke="none"/>
<path d="M389.293 354.233L143.878 354.233L143.878 445.037C143.878 491.701 181.707 529.53 228.371 529.53L304.8 529.53C351.464 529.53 389.293 491.701 389.293 445.037C389.293 445.037 389.293 354.233 389.293 354.233Z" fill="#8b8e98" fill-rule="evenodd" opacity="1" stroke="none"/>
<path d="M355.706 354.233L299.891 354.233L159.742 494.383C170.926 502.955 184.231 508.687 198.833 510.79L355.706 354.233ZM389.293 409.978L389.293 354.233L386.05 354.233L210.753 529.53L269.741 529.53C316.404 529.53 389.293 529.53 389.293 409.978Z" fill="#a0a4ac" fill-rule="evenodd" opacity="1" stroke="none"/>
<path d="M304.817 547.059L228.388 547.059C172.136 547.059 126.383 501.289 126.383 445.037L126.383 354.233C126.383 344.539 134.219 336.704 143.913 336.704L389.328 336.704C399.022 336.704 406.857 344.539 406.857 354.233L406.857 445.037C406.84 501.289 361.07 547.059 304.817 547.059ZM161.425 371.763L161.425 445.037C161.425 481.954 191.453 512 228.371 512L304.8 512C341.717 512 371.763 481.954 371.763 445.037L371.763 371.763L161.425 371.763Z" fill="#423a55" fill-rule="evenodd" opacity="1" stroke="none"/>
<path d="M739.885 354.233L494.47 354.233L494.47 445.037C494.47 491.701 532.299 529.53 578.963 529.53L655.392 529.53C702.056 529.53 739.885 491.701 739.885 445.037C739.885 445.037 739.885 354.233 739.885 354.233Z" fill="#8b8e98" fill-rule="evenodd" opacity="1" stroke="none"/>
<path d="M706.298 354.233L650.484 354.233L510.335 494.383C521.519 502.955 534.824 508.687 549.426 510.79L706.298 354.233ZM739.885 445.037L739.885 354.233L736.642 354.233L564.589 529.53L655.392 529.53C702.056 529.53 739.885 491.701 739.885 445.037Z" fill="#a0a4ac" fill-rule="evenodd" opacity="1" stroke="none"/>
<path d="M655.41 547.059L578.981 547.059C522.728 547.059 476.976 501.289 476.976 445.037L476.976 354.233C476.976 344.539 484.812 336.704 494.505 336.704L739.92 336.704C749.614 336.704 757.45 344.539 757.45 354.233L757.45 445.037C757.432 501.289 711.662 547.059 655.41 547.059ZM512.018 371.763L512.018 445.037C512.018 481.954 542.046 512 578.963 512L655.392 512C692.31 512 722.356 481.954 722.356 445.037L722.356 371.763L512.018 371.763Z" fill="#423a55" fill-rule="evenodd" opacity="1" stroke="none"/>
</g>
</g>
</svg>
