<?xml version="1.0" encoding="UTF-8" standalone="no"?>
<!DOCTYPE svg PUBLIC "-//W3C//DTD SVG 1.1//EN" "http://www.w3.org/Graphics/SVG/1.1/DTD/svg11.dtd">
<!-- Created with Vectornator (http://vectornator.io/) -->
<svg height="100%" stroke-miterlimit="10" style="fill-rule:nonzero;clip-rule:evenodd;stroke-linecap:round;stroke-linejoin:round;" version="1.1" viewBox="0 0 1024 1024" width="100%" xml:space="preserve" xmlns="http://www.w3.org/2000/svg" xmlns:vectornator="http://vectornator.io" xmlns:xlink="http://www.w3.org/1999/xlink">
<defs>
<linearGradient gradientTransform="matrix(1 0 0 1 0 0)" gradientUnits="userSpaceOnUse" id="LinearGradient" x1="153.318" x2="336.878" y1="354.511" y2="354.511">
<stop offset="0.00823075" stop-color="#e74b3b"/>
<stop offset="0.990968" stop-color="#86e74c"/>
</linearGradient>
<linearGradient gradientTransform="matrix(1 0 0 1 0 0)" gradientUnits="userSpaceOnUse" id="LinearGradient_2" x1="734.592" x2="918.152" y1="721.631" y2="721.631">
<stop offset="0.00823075" stop-color="#e74b3b"/>
<stop offset="0.990968" stop-color="#86e74c"/>
</linearGradient>
</defs>
<g id="Layer-1" vectornator:layerName="Layer 1">
<path d="M428.656 326.5C413.192 326.5 400.656 339.036 400.656 354.5C400.656 369.964 413.192 382.5 428.656 382.5L918.156 382.5C933.62 382.5 946.156 369.964 946.156 354.5C946.156 339.036 933.62 326.5 918.156 326.5L428.656 326.5ZM795.781 204.125C788.615 204.125 781.436 206.876 775.969 212.344C770.501 217.811 767.781 224.959 767.781 232.125C767.781 239.291 770.501 246.47 775.969 251.938L878.562 354.531L775.969 457.094C770.501 462.561 767.781 469.709 767.781 476.875C767.781 484.041 770.501 491.22 775.969 496.688C781.436 502.155 788.615 504.875 795.781 504.875C802.947 504.875 810.095 502.155 815.562 496.688L937.938 374.312C943.405 368.845 946.156 361.666 946.156 354.5C946.156 347.334 943.405 340.186 937.938 334.719L815.562 212.344C810.095 206.876 802.947 204.125 795.781 204.125Z" fill="#4ce759" fill-rule="evenodd" opacity="1" stroke="none"/>
<path d="M795.781 204.438C788.692 204.438 781.597 207.153 776.188 212.562C770.778 217.972 768.094 225.035 768.094 232.125C768.094 239.215 770.779 246.31 776.188 251.719C794.961 270.492 825.141 300.672 851.281 326.812L428.656 326.812C413.358 326.812 400.969 339.202 400.969 354.5C400.969 369.798 413.358 382.187 428.656 382.188L851.344 382.188C825.193 408.33 794.976 438.53 776.188 457.312C770.778 462.722 768.094 469.785 768.094 476.875C768.094 483.965 770.779 491.06 776.188 496.469C781.596 501.878 788.691 504.562 795.781 504.562C802.871 504.563 809.934 501.878 815.344 496.469C845.902 465.91 906.965 404.879 937.594 374.25C937.629 374.215 937.684 374.129 937.719 374.094C938.978 372.837 940.126 371.448 941.125 369.969C941.143 369.942 941.138 369.902 941.156 369.875C941.769 368.961 942.227 367.997 942.719 367.031C943.042 366.4 943.413 365.814 943.688 365.156C944.118 364.122 944.387 363.038 944.688 361.969C944.879 361.286 945.141 360.641 945.281 359.938C945.642 358.138 945.844 356.328 945.844 354.5C945.844 352.675 945.672 350.856 945.312 349.062C945.156 348.272 944.848 347.545 944.625 346.781C944.343 345.817 944.108 344.842 943.719 343.906C943.263 342.808 942.681 341.803 942.094 340.781C941.809 340.286 941.595 339.756 941.281 339.281C941.265 339.257 941.235 339.243 941.219 339.219C940.114 337.556 938.834 336.009 937.406 334.625C906.735 303.954 845.859 243.078 815.344 212.562C809.934 207.153 802.87 204.437 795.781 204.438Z" fill="#4ce759" fill-rule="evenodd" opacity="1" stroke="#423a55" stroke-linecap="round" stroke-linejoin="round" stroke-width="6"/>
<path d="M306.285 323.917C289.389 323.917 275.691 337.615 275.691 354.511C275.691 371.407 289.388 385.104 306.285 385.104C323.181 385.104 336.878 371.407 336.878 354.511C336.878 337.615 323.181 323.917 306.285 323.917ZM183.911 323.917C167.015 323.917 153.318 337.615 153.318 354.511C153.318 371.407 167.015 385.104 183.911 385.104C200.808 385.104 214.505 371.407 214.505 354.511C214.505 337.615 200.808 323.917 183.911 323.917Z" fill="url(#LinearGradient)" fill-rule="evenodd" opacity="1" stroke="#423a55" stroke-linecap="round" stroke-linejoin="round" stroke-width="6"/>
<path d="M153.312 693.625C137.849 693.625 125.312 706.161 125.312 721.625C125.312 737.089 137.849 749.625 153.312 749.625L642.812 749.625C658.276 749.625 670.812 737.089 670.812 721.625C670.812 706.161 658.276 693.625 642.812 693.625L153.312 693.625ZM275.688 571.25C268.522 571.25 261.374 574.001 255.906 579.469L133.531 701.844C128.064 707.311 125.312 714.459 125.312 721.625C125.313 728.791 128.064 735.97 133.531 741.438L255.906 863.812C261.374 869.28 268.522 872 275.688 872C282.853 872 290.033 869.28 295.5 863.812C300.967 858.345 303.688 851.166 303.688 844C303.687 836.834 300.967 829.686 295.5 824.219L192.938 721.656L295.5 619.062C300.967 613.595 303.688 606.416 303.688 599.25C303.687 592.084 300.967 584.936 295.5 579.469C290.033 574.001 282.853 571.25 275.688 571.25Z" fill="#e74b3b" fill-rule="evenodd" opacity="1" stroke="none"/>
<path d="M275.688 571.562C268.599 571.562 261.534 574.279 256.125 579.688C225.609 610.203 164.734 671.079 134.062 701.75C132.634 703.134 131.355 704.681 130.25 706.344C129.917 706.844 129.704 707.39 129.406 707.906C128.816 708.932 128.207 709.928 127.75 711.031C127.361 711.967 127.125 712.941 126.844 713.906C126.621 714.67 126.313 715.398 126.156 716.188C125.797 717.981 125.625 719.8 125.625 721.625C125.625 723.452 125.827 725.263 126.188 727.062C126.327 727.766 126.589 728.411 126.781 729.094C127.082 730.163 127.35 731.247 127.781 732.281C128.056 732.939 128.427 733.525 128.75 734.156C129.242 735.122 129.7 736.086 130.312 737C130.331 737.027 130.326 737.067 130.344 737.094C131.343 738.573 132.491 739.962 133.75 741.219C133.802 741.27 133.854 741.324 133.906 741.375C164.539 772.008 225.57 833.039 256.125 863.594C261.533 869.002 268.598 871.688 275.688 871.688C282.777 871.687 289.873 869.002 295.281 863.594C300.689 858.186 303.375 851.089 303.375 844C303.375 836.911 300.69 829.846 295.281 824.438C276.5 805.656 246.298 775.454 220.156 749.312L642.812 749.312C658.108 749.312 670.5 736.921 670.5 721.625C670.5 706.329 658.109 693.937 642.812 693.938L220.219 693.938C246.35 667.798 276.515 637.616 295.281 618.844C300.689 613.436 303.375 606.339 303.375 599.25C303.375 592.161 300.69 585.096 295.281 579.688C289.873 574.279 282.776 571.563 275.688 571.562Z" fill="#e74b3b" fill-rule="evenodd" opacity="1" stroke="#423a55" stroke-linecap="round" stroke-linejoin="round" stroke-width="6"/>
<path d="M765.185 691.038C748.289 691.038 734.592 704.735 734.592 721.631C734.592 738.527 748.289 752.224 765.185 752.224C782.081 752.224 795.779 738.527 795.779 721.631C795.779 704.735 782.081 691.038 765.185 691.038ZM887.559 691.038C870.662 691.038 856.965 704.735 856.965 721.631C856.965 738.527 870.662 752.224 887.559 752.224C904.455 752.224 918.152 738.527 918.152 721.631C918.152 704.735 904.455 691.038 887.559 691.038Z" fill="url(#LinearGradient_2)" fill-rule="evenodd" opacity="1" stroke="#423a55" stroke-linecap="round" stroke-linejoin="round" stroke-width="6"/>
</g>
</svg>
