<?xml version="1.0" encoding="UTF-8" standalone="no"?>
<!DOCTYPE svg PUBLIC "-//W3C//DTD SVG 1.1//EN" "http://www.w3.org/Graphics/SVG/1.1/DTD/svg11.dtd">
<!-- Created with Vectornator (http://vectornator.io/) -->
<svg height="100%" stroke-miterlimit="10" style="fill-rule:nonzero;clip-rule:evenodd;stroke-linecap:round;stroke-linejoin:round;" version="1.1" viewBox="0 0 1024 1024" width="100%" xml:space="preserve" xmlns="http://www.w3.org/2000/svg" xmlns:vectornator="http://vectornator.io" xmlns:xlink="http://www.w3.org/1999/xlink">
<defs/>
<g id="Layer-1" vectornator:layerName="Layer 1">
<g opacity="1">
<path d="M734.908 419.156C734.074 418.068 729.223 412.697 729.223 412.697L729.223 381.505C729.223 328.843 686.913 287.935 635.393 287.935C635.311 287.935 635.229 287.949 635.147 287.949C635.065 287.949 634.983 287.935 634.901 287.935C583.381 287.935 541.071 328.85 541.071 381.505L541.071 412.697C541.071 412.697 536.22 418.075 535.386 419.156C533.99 420.996 532.669 423.781 532.532 427.619C532.45 429.939 538.02 459.222 539.641 464.251C541.42 469.902 544.978 474.534 549.63 476.087L549.63 480.281C549.63 490.681 554.502 500.759 558.121 506.273C569 522.844 578.64 534.968 594.103 542.734C594.103 543.329 594.103 557.594 594.103 558.19C594.103 575.561 583.84 581.712 583.84 581.712C583.84 581.712 592.385 624.891 635.147 624.891C677.909 624.891 686.461 581.698 686.461 581.698C686.461 581.698 676.198 575.287 676.198 558.183C676.198 557.587 676.198 545.094 676.198 544.499C691.661 536.733 701.301 522.831 712.18 506.267C715.799 500.752 720.67 490.674 720.67 480.274L720.67 476.08C725.316 474.527 728.881 469.895 730.659 464.244C732.274 459.215 737.85 429.932 737.768 427.612C737.624 423.781 736.311 420.996 734.908 419.156Z" fill="#a6785f" fill-rule="evenodd" opacity="1" stroke="#b07454" stroke-linecap="butt" stroke-linejoin="miter" stroke-width="1"/>
<path d="M771.984 652.258C771.984 624.891 751.63 609.469 735.209 601.8C724.625 596.853 693.303 581.698 693.303 581.698C693.303 581.698 685.715 577.566 685.626 577.511C684.025 576.56 681.945 577.094 680.953 578.66C680.885 578.79 672.948 590.682 635.147 590.682C597.346 590.682 589.409 578.79 589.382 578.742C588.451 577.094 586.371 576.505 584.722 577.443C584.674 577.47 577.005 581.705 577.005 581.705C577.005 581.705 545.683 596.86 535.098 601.806C518.678 609.469 498.323 624.891 498.323 652.258C498.323 654.927 498.296 662.651 498.323 665.942C498.323 673.502 504.447 679.626 512.007 679.626L635.147 679.626L635.161 679.626L758.301 679.626C765.861 679.626 771.984 673.502 771.984 665.942C772.012 662.651 771.984 654.927 771.984 652.258Z" fill="#60be92" fill-rule="evenodd" opacity="1" stroke="none"/>
<path d="M703.723 293.833C696.621 278.849 675.959 262.272 639.204 262.272C568.138 262.272 525.677 316.74 525.677 369.402C525.677 387.834 530.473 413.6 553.325 431.717L553.605 431.779C554.255 432.757 555.343 433.318 556.465 433.318C556.876 433.318 557.286 433.243 557.69 433.093C559.188 432.518 560.092 430.979 559.845 429.384C559.818 429.206 557.622 413.313 567.809 392.903C570.005 402.674 574.829 405.287 575.527 405.609C577.032 406.32 578.852 405.841 579.803 404.459C580.063 404.083 604.837 368.505 634.976 353.221C634.367 362.471 631.781 374.506 622.188 386.718C621.381 387.752 621.231 389.147 621.805 390.331C622.38 391.521 623.577 392.267 624.884 392.267C641.448 392.267 662.945 385.658 677.177 356.279C678.251 360.692 680.502 365.16 685.195 371.967C687.651 375.525 690.224 378.672 692.496 381.457C694.637 384.084 696.491 386.349 697.825 388.415C710.756 408.503 710.408 429.48 710.401 429.692C710.373 430.972 711.058 432.155 712.173 432.771C713.288 433.387 714.656 433.325 715.724 432.627C716.9 431.841 744.617 412.861 744.617 369.402C744.617 328.426 727.546 297.172 703.723 293.833Z" fill="#565fa1" fill-rule="evenodd" opacity="1" stroke="none"/>
<path d="M635.147 559.893C652.252 559.893 681.33 541.078 681.33 541.078" fill="none" fill-rule="evenodd" opacity="1" stroke="#1f212b" stroke-linecap="butt" stroke-linejoin="miter" stroke-width="1"/>
<path d="M659.093 592.009C679.38 587.993 683.895 580.419 683.895 580.419M586.399 580.419C586.399 580.419 594.096 594.103 635.147 594.103C636.344 594.103 637.425 594.048 638.568 594.027" fill="none" fill-rule="evenodd" opacity="1" stroke="#1f212b" stroke-linecap="round" stroke-linejoin="miter" stroke-width="1"/>
<path d="M659.093 375.771C672.394 363.579 677.813 346.475 679.619 340.953C679.619 353.836 679.243 357.305 688.014 370.031C689.266 371.851 690.552 373.548 691.818 375.163" fill="none" fill-rule="evenodd" opacity="1" stroke="#1f212b" stroke-linecap="round" stroke-linejoin="round" stroke-width="1"/>
<path d="M712.412 416.214C713.965 424.321 713.822 429.781 713.822 429.781C713.822 429.781 741.196 411.534 741.196 369.402C741.196 328.898 724.351 298.636 701.39 297.021C696.409 284.617 678.531 265.692 639.204 265.692C571.517 265.692 529.098 317.547 529.098 369.402C529.098 412.615 555.679 428.7 556.465 429.898C556.465 429.898 553.181 407.928 570.149 382.004C570.149 399.287 576.991 402.53 576.991 402.53C576.991 402.53 604.961 361.971 638.568 347.795C638.568 356.436 637.61 372.645 624.884 388.846C632.78 388.846 639.546 387.252 645.41 384.693M702.074 388.846C704.845 393.492 707 398.131 708.615 402.53" fill="none" fill-rule="evenodd" opacity="1" stroke="#1f212b" stroke-linecap="round" stroke-linejoin="round" stroke-width="1"/>
<path d="M588.978 541.078C588.978 541.078 618.056 559.893 635.161 559.893" fill="none" fill-rule="evenodd" opacity="1" stroke="#1f212b" stroke-linecap="butt" stroke-linejoin="miter" stroke-width="1"/>
<path d="M540.017 413.005C540.017 413.005 536.234 418.068 535.399 419.149C534.003 420.989 532.683 423.774 532.546 427.612C532.464 429.932 538.033 459.215 539.655 464.244C541.434 469.895 544.992 474.527 549.644 476.08L549.644 480.274C549.644 490.674 554.577 503.064 558.196 508.579C569.075 525.15 579.577 538.649 594.116 548.057C594.116 548.652 594.116 557.587 594.116 558.183C594.116 575.287 577.012 581.705 577.012 581.705C577.012 581.705 545.689 596.86 535.105 601.806C518.678 609.469 498.323 624.891 498.323 652.258C498.323 654.927 498.296 662.651 498.323 665.942C498.323 673.502 504.447 679.626 512.007 679.626L635.161 679.626L635.147 679.626L758.301 679.626C765.861 679.626 771.984 673.502 771.984 665.942C772.012 662.651 771.984 654.927 771.984 652.258C771.984 624.891 751.63 609.469 735.209 601.8C724.625 596.853 693.303 581.698 693.303 581.698C693.303 581.698 676.198 575.287 676.198 558.183C676.198 557.587 676.198 548.652 676.198 548.057C690.737 538.649 701.239 525.15 712.118 508.579C715.737 503.065 720.67 490.667 720.67 480.274L720.67 476.08C725.316 474.527 728.881 469.895 730.659 464.244C732.274 459.215 737.85 429.932 737.768 427.612C737.631 423.774 736.311 420.989 734.915 419.149C734.08 418.061 730.297 413.005 730.297 413.005" fill="none" fill-rule="evenodd" opacity="1" stroke="#1f212b" stroke-linecap="butt" stroke-linejoin="round" stroke-width="2"/>
<path d="M611.2 655.679L768.563 655.679" fill="none" fill-rule="evenodd" opacity="1" stroke="#1f212b" stroke-linecap="round" stroke-linejoin="miter" stroke-width="1"/>
<path d="M488.601 419.156C487.766 418.068 482.915 412.697 482.915 412.697L482.915 381.505C482.915 328.843 440.605 287.935 389.086 287.935C389.004 287.935 388.922 287.949 388.839 287.949C388.757 287.949 388.675 287.935 388.593 287.935C337.074 287.935 294.764 328.85 294.764 381.505L294.764 412.697C294.764 412.697 289.913 418.075 289.078 419.156C287.682 420.996 286.362 423.781 286.225 427.619C286.143 429.939 291.712 459.222 293.334 464.251C295.113 469.902 298.67 474.534 303.323 476.087L303.323 480.281C303.323 490.681 308.194 500.759 311.814 506.273C322.692 522.844 332.332 534.968 347.795 542.734C347.795 543.329 347.795 557.594 347.795 558.19C347.795 575.561 337.532 581.712 337.532 581.712C337.532 581.712 346.078 624.891 388.839 624.891C431.601 624.891 440.153 581.698 440.153 581.698C440.153 581.698 429.891 575.287 429.891 558.183C429.891 557.587 429.891 545.094 429.891 544.499C445.353 536.733 454.993 522.831 465.872 506.267C469.491 500.752 474.363 490.674 474.363 480.274L474.363 476.08C479.008 474.527 482.573 469.895 484.352 464.244C485.967 459.215 491.543 429.932 491.461 427.612C491.317 423.781 490.003 420.996 488.601 419.156Z" fill="#ccac94" fill-rule="evenodd" opacity="1" stroke="none"/>
<path d="M525.677 652.258C525.677 624.891 505.322 609.469 488.902 601.8C478.317 596.853 446.995 581.698 446.995 581.698C446.995 581.698 439.408 577.566 439.319 577.511C437.718 576.56 435.638 577.094 434.646 578.66C434.577 578.79 426.641 590.682 388.839 590.682C351.038 590.682 343.101 578.79 343.074 578.742C342.144 577.094 340.064 576.505 338.415 577.443C338.367 577.47 330.697 581.705 330.697 581.705C330.697 581.705 299.375 596.86 288.791 601.806C272.37 609.469 252.016 624.891 252.016 652.258C252.016 654.927 251.988 662.651 252.016 665.942C252.016 673.502 258.139 679.626 265.699 679.626L388.839 679.626L388.853 679.626L511.993 679.626C519.553 679.626 525.677 673.502 525.677 665.942C525.704 662.651 525.677 654.927 525.677 652.258Z" fill="#a3a3cd" fill-rule="evenodd" opacity="1" stroke="none"/>
<path d="M457.416 293.833C450.314 278.849 429.651 262.272 392.897 262.272C321.83 262.272 279.369 316.74 279.369 369.402C279.369 387.834 284.166 413.6 307.017 431.717L307.298 431.779C307.948 432.757 309.036 433.318 310.158 433.318C310.568 433.318 310.979 433.243 311.383 433.093C312.881 432.518 313.784 430.979 313.538 429.384C313.51 429.206 311.314 413.313 321.502 392.903C323.698 402.674 328.521 405.287 329.219 405.609C330.725 406.32 332.544 405.841 333.495 404.459C333.755 404.083 358.53 368.505 388.668 353.221C388.059 362.471 385.473 374.506 375.881 386.718C375.074 387.752 374.923 389.147 375.498 390.331C376.072 391.521 377.27 392.267 378.577 392.267C395.141 392.267 416.638 385.658 430.869 356.279C431.943 360.692 434.194 365.16 438.888 371.967C441.344 375.525 443.917 378.672 446.188 381.457C448.33 384.084 450.184 386.349 451.518 388.415C464.449 408.503 464.1 429.48 464.093 429.692C464.066 430.972 464.75 432.155 465.865 432.771C466.98 433.387 468.349 433.325 469.416 432.627C470.593 431.841 498.309 412.861 498.309 369.402C498.309 328.426 481.239 297.172 457.416 293.833Z" fill="#565fa1" fill-rule="evenodd" opacity="1" stroke="none"/>
<path d="M388.839 559.893C405.944 559.893 435.022 541.078 435.022 541.078" fill="none" fill-rule="evenodd" opacity="1" stroke="#1f212b" stroke-linecap="butt" stroke-linejoin="miter" stroke-width="1"/>
<path d="M412.786 592.009C433.072 587.993 437.588 580.419 437.588 580.419M340.091 580.419C340.091 580.419 347.788 594.103 388.839 594.103C390.037 594.103 391.118 594.048 392.26 594.027" fill="none" fill-rule="evenodd" opacity="1" stroke="#1f212b" stroke-linecap="round" stroke-linejoin="miter" stroke-width="1"/>
<path d="M412.786 375.771C426.087 363.579 431.505 346.475 433.312 340.953C433.312 353.836 432.935 357.305 441.707 370.031C442.959 371.851 444.245 373.548 445.511 375.163" fill="none" fill-rule="evenodd" opacity="1" stroke="#1f212b" stroke-linecap="round" stroke-linejoin="round" stroke-width="1"/>
<path d="M466.105 416.214C467.658 424.321 467.514 429.781 467.514 429.781C467.514 429.781 494.888 411.534 494.888 369.402C494.888 328.898 478.044 298.636 455.082 297.021C450.102 284.617 432.224 265.692 392.897 265.692C325.21 265.692 282.79 317.547 282.79 369.402C282.79 412.615 309.371 428.7 310.158 429.898C310.158 429.898 306.874 407.928 323.842 382.004C323.842 399.287 330.683 402.53 330.683 402.53C330.683 402.53 358.653 361.971 392.26 347.795C392.26 356.436 391.302 372.645 378.577 388.846C386.472 388.846 393.239 387.252 399.102 384.693M455.767 388.846C458.538 393.492 460.693 398.131 462.307 402.53" fill="none" fill-rule="evenodd" opacity="1" stroke="#1f212b" stroke-linecap="round" stroke-linejoin="round" stroke-width="1"/>
<path d="M342.67 541.078C342.67 541.078 371.748 559.893 388.853 559.893" fill="none" fill-rule="evenodd" opacity="1" stroke="#1f212b" stroke-linecap="butt" stroke-linejoin="miter" stroke-width="1"/>
<path d="M293.71 413.005C293.71 413.005 289.926 418.068 289.092 419.149C287.696 420.989 286.375 423.774 286.239 427.612C286.157 429.932 291.726 459.215 293.347 464.244C295.126 469.895 298.684 474.527 303.336 476.08L303.336 480.274C303.336 490.674 308.269 503.064 311.889 508.579C322.767 525.15 333.27 538.649 347.809 548.057C347.809 548.652 347.809 557.587 347.809 558.183C347.809 575.287 330.704 581.705 330.704 581.705C330.704 581.705 299.382 596.86 288.798 601.806C272.37 609.469 252.016 624.891 252.016 652.258C252.016 654.927 251.988 662.651 252.016 665.942C252.016 673.502 258.139 679.626 265.699 679.626L388.853 679.626L388.839 679.626L511.993 679.626C519.553 679.626 525.677 673.502 525.677 665.942C525.704 662.651 525.677 654.927 525.677 652.258C525.677 624.891 505.322 609.469 488.902 601.8C478.317 596.853 446.995 581.698 446.995 581.698C446.995 581.698 429.891 575.287 429.891 558.183C429.891 557.587 429.891 548.652 429.891 548.057C444.43 538.649 454.932 525.15 465.811 508.579C469.43 503.065 474.363 490.667 474.363 480.274L474.363 476.08C479.008 474.527 482.573 469.895 484.352 464.244C485.967 459.215 491.543 429.932 491.461 427.612C491.324 423.774 490.003 420.989 488.608 419.149C487.773 418.061 483.989 413.005 483.989 413.005" fill="none" fill-rule="evenodd" opacity="1" stroke="#1f212b" stroke-linecap="butt" stroke-linejoin="round" stroke-width="2"/>
<path d="M255.423 655.679L412.786 655.679" fill="none" fill-rule="evenodd" opacity="1" stroke="#1f212b" stroke-linecap="round" stroke-linejoin="miter" stroke-width="1"/>
<path d="M612.071 501.942C611.236 500.854 606.385 495.483 606.385 495.483L606.385 464.291C606.385 411.629 564.075 370.721 512.556 370.721C512.474 370.721 512.391 370.735 512.309 370.735C512.227 370.735 512.145 370.721 512.063 370.721C460.544 370.721 418.234 411.636 418.234 464.291L418.234 495.483C418.234 495.483 413.383 500.861 412.548 501.942C411.152 503.782 409.832 506.567 409.695 510.405C409.613 512.724 415.182 542.008 416.804 547.036C418.582 552.688 422.14 557.32 426.793 558.873L426.793 563.067C426.793 573.467 431.664 583.545 435.283 589.059C446.162 605.63 455.802 617.754 471.265 625.52C471.265 626.115 471.265 640.38 471.265 640.975C471.265 658.347 461.002 664.498 461.002 664.498C461.002 664.498 469.548 707.677 512.309 707.677C555.071 707.677 563.623 664.484 563.623 664.484C563.623 664.484 553.361 658.066 553.361 640.962C553.361 640.366 553.361 627.873 553.361 627.278C568.823 619.512 578.463 605.61 589.342 589.046C592.961 583.531 597.833 573.453 597.833 563.053L597.833 558.866C602.478 557.313 606.043 552.681 607.822 547.03C609.437 542.001 615.013 512.718 614.931 510.398C614.787 506.567 613.473 503.782 612.071 501.942Z" fill="#ead6c7" fill-rule="evenodd" opacity="1" stroke="none"/>
<path d="M648.824 734.361C648.824 706.993 628.469 691.572 612.049 683.902C601.464 678.955 570.142 663.801 570.142 663.801C570.142 663.801 562.555 659.668 562.466 659.613C560.865 658.662 558.785 659.196 557.793 660.763C557.724 660.893 549.788 672.784 511.986 672.784C474.185 672.784 466.248 660.893 466.221 660.845C465.291 659.196 463.211 658.608 461.562 659.545C461.514 659.572 453.844 663.808 453.844 663.808C453.844 663.808 422.522 678.962 411.938 683.909C395.517 691.572 375.163 706.993 375.163 734.361C375.163 737.029 375.135 744.754 375.163 748.045C375.163 755.605 381.286 761.728 388.846 761.728L511.986 761.728L512 761.728L635.14 761.728C642.7 761.728 648.824 755.605 648.824 748.045C648.851 744.754 648.824 737.029 648.824 734.361Z" fill="#f15b6c" fill-rule="evenodd" opacity="1" stroke="none"/>
<path d="M580.562 375.936C573.461 360.952 552.798 344.374 516.044 344.374C444.977 344.374 402.516 398.842 402.516 451.504C402.516 469.936 407.312 495.703 430.164 513.82L430.445 513.882C431.095 514.86 432.183 515.421 433.305 515.421C433.715 515.421 434.126 515.346 434.529 515.195C436.028 514.62 436.931 513.081 436.685 511.487C436.657 511.309 434.461 495.415 444.649 475.006C446.845 484.776 451.668 487.39 452.366 487.711C453.871 488.423 455.691 487.944 456.642 486.562C456.902 486.186 481.677 450.608 511.815 435.323C511.206 444.573 508.62 456.608 499.028 468.821C498.22 469.854 498.07 471.25 498.645 472.433C499.219 473.624 500.417 474.37 501.724 474.37C518.288 474.37 539.785 467.76 554.016 438.381C555.09 442.794 557.341 447.262 562.035 454.07C564.491 457.628 567.063 460.775 569.335 463.56C571.476 466.187 573.331 468.451 574.665 470.518C587.596 490.605 587.247 511.583 587.24 511.795C587.213 513.074 587.897 514.258 589.012 514.874C590.127 515.489 591.496 515.428 592.563 514.73C593.747 513.943 621.463 494.964 621.463 451.504C621.456 410.528 604.386 379.274 580.562 375.936Z" fill="#b77748" fill-rule="evenodd" opacity="1" stroke="none"/>
<path d="M511.986 641.996C529.091 641.996 558.169 623.18 558.169 623.18" fill="none" fill-rule="evenodd" opacity="1" stroke="#1f212b" stroke-linecap="butt" stroke-linejoin="miter" stroke-width="1"/>
<path d="M535.933 674.111C556.219 670.095 560.735 662.521 560.735 662.521M463.238 662.521C463.238 662.521 470.935 676.205 511.986 676.205C513.184 676.205 514.265 676.15 515.407 676.13" fill="none" fill-rule="evenodd" opacity="1" stroke="#1f212b" stroke-linecap="round" stroke-linejoin="miter" stroke-width="1"/>
<path d="M535.933 457.874C549.233 445.682 554.652 428.577 556.459 423.056C556.459 435.939 556.082 439.408 564.853 452.134C566.106 453.954 567.392 455.65 568.658 457.265" fill="none" fill-rule="evenodd" opacity="1" stroke="#1f212b" stroke-linecap="round" stroke-linejoin="round" stroke-width="1"/>
<path d="M589.252 498.316C590.805 506.424 590.661 511.884 590.661 511.884C590.661 511.884 618.035 493.636 618.035 451.504C618.035 411 601.191 380.739 578.229 379.124C573.248 366.72 555.371 347.795 516.044 347.795C448.357 347.795 405.937 399.65 405.937 451.504C405.937 494.717 432.518 510.803 433.305 512C433.305 512 430.021 490.031 446.989 464.107C446.989 481.389 453.83 484.632 453.83 484.632C453.83 484.632 481.8 444.074 515.407 429.897C515.407 438.539 514.449 454.747 501.724 470.949C509.619 470.949 516.386 469.355 522.249 466.796M578.914 470.949C581.684 475.594 583.84 480.233 585.454 484.632" fill="none" fill-rule="evenodd" opacity="1" stroke="#1f212b" stroke-linecap="round" stroke-linejoin="round" stroke-width="1"/>
<path d="M645.403 737.782L453.83 737.782M433.305 737.782L419.621 737.782M405.937 737.782L399.095 737.782" fill="none" fill-rule="evenodd" opacity="1" stroke="#1f212b" stroke-linecap="round" stroke-linejoin="miter" stroke-width="1"/>
<path d="M465.817 623.18C465.817 623.18 494.895 641.996 512 641.996" fill="none" fill-rule="evenodd" opacity="1" stroke="#1f212b" stroke-linecap="butt" stroke-linejoin="miter" stroke-width="1"/>
<path d="M416.857 495.107C416.857 495.107 413.073 500.17 412.239 501.251C410.843 503.092 409.522 505.877 409.386 509.715C409.303 512.034 414.873 541.317 416.494 546.346C418.273 551.998 421.831 556.63 426.483 558.183L426.483 562.377C426.483 572.776 431.416 585.167 435.036 590.682C445.914 607.253 456.417 620.752 470.956 630.159C470.956 630.754 470.956 639.69 470.956 640.285C470.956 657.39 453.851 663.808 453.851 663.808C453.851 663.808 422.529 678.962 411.944 683.909C395.517 691.572 375.162 706.993 375.162 734.361C375.162 737.029 375.135 744.754 375.162 748.045C375.162 755.605 381.286 761.728 388.846 761.728L512 761.728L511.986 761.728L635.14 761.728C642.7 761.728 648.824 755.605 648.824 748.045C648.851 744.754 648.824 737.029 648.824 734.361C648.824 706.993 628.469 691.572 612.049 683.902C601.464 678.955 570.142 663.801 570.142 663.801C570.142 663.801 553.038 657.383 553.038 640.278C553.038 639.683 553.038 630.748 553.038 630.152C567.577 620.745 578.079 607.246 588.957 590.675C592.577 585.16 597.51 572.763 597.51 562.37L597.51 558.183C602.155 556.63 605.72 551.998 607.499 546.346C609.114 541.317 614.69 512.034 614.608 509.715C614.471 505.877 613.15 503.092 611.755 501.251C610.92 500.164 607.136 495.107 607.136 495.107" fill="none" fill-rule="evenodd" opacity="1" stroke="#1f212b" stroke-linecap="butt" stroke-linejoin="round" stroke-width="2"/>
</g>
<g opacity="1">
<path d="M267.31 901.761C258.427 901.761 251.226 908.961 251.226 917.844C251.226 926.727 258.427 933.928 267.31 933.928C276.193 933.928 283.394 926.727 283.394 917.844C283.394 908.961 276.193 901.761 267.31 901.761Z" fill="#e7e1fb" fill-rule="evenodd" opacity="0.754335" stroke="none"/>
<path d="M330.287 877.76C321.404 877.76 314.203 884.96 314.203 893.843C314.203 902.726 321.404 909.927 330.287 909.927C339.17 909.927 346.371 902.726 346.371 893.843C346.371 884.96 339.17 877.76 330.287 877.76Z" fill="#e7e1fb" fill-rule="evenodd" opacity="0.754335" stroke="none"/>
<path d="M393.264 901.761C384.381 901.761 377.181 908.961 377.181 917.844C377.181 926.727 384.381 933.928 393.264 933.928C402.147 933.928 409.348 926.727 409.348 917.844C409.348 908.961 402.147 901.761 393.264 901.761Z" fill="#e7e1fb" fill-rule="evenodd" opacity="0.754335" stroke="none"/>
<path d="M255.879 852.632C246.997 852.632 239.796 859.833 239.796 868.716C239.796 877.599 246.997 884.8 255.879 884.8C264.762 884.8 271.963 877.599 271.963 868.716C271.963 859.833 264.762 852.632 255.879 852.632Z" fill="#e7e1fb" fill-rule="evenodd" opacity="0.754335" stroke="none"/>
<path d="M318.857 828.631C309.974 828.631 302.773 835.832 302.773 844.715C302.773 853.598 309.974 860.799 318.857 860.799C327.74 860.799 334.94 853.598 334.94 844.715C334.94 835.832 327.74 828.631 318.857 828.631Z" fill="#e7e1fb" fill-rule="evenodd" opacity="0.754335" stroke="none"/>
<path d="M381.834 852.632C372.951 852.632 365.75 859.833 365.75 868.716C365.75 877.599 372.951 884.8 381.834 884.8C390.717 884.8 397.918 877.599 397.918 868.716C397.918 859.833 390.717 852.632 381.834 852.632Z" fill="#e7e1fb" fill-rule="evenodd" opacity="0.754335" stroke="none"/>
<path d="M263.172 802.749C254.289 802.749 247.088 809.95 247.088 818.832C247.088 827.715 254.289 834.916 263.172 834.916C272.054 834.916 279.256 827.715 279.256 818.832C279.256 809.95 272.054 802.749 263.172 802.749Z" fill="#e7e1fb" fill-rule="evenodd" opacity="0.754335" stroke="none"/>
<path d="M326.149 778.748C317.266 778.748 310.065 785.948 310.065 794.831C310.065 803.714 317.266 810.915 326.149 810.915C335.032 810.915 342.233 803.714 342.233 794.831C342.233 785.948 335.032 778.748 326.149 778.748Z" fill="#e7e1fb" fill-rule="evenodd" opacity="0.754335" stroke="none"/>
<path d="M389.126 802.749C380.243 802.749 373.042 809.95 373.042 818.832C373.042 827.715 380.243 834.916 389.126 834.916C398.009 834.916 405.21 827.715 405.21 818.832C405.21 809.95 398.009 802.749 389.126 802.749Z" fill="#e7e1fb" fill-rule="evenodd" opacity="0.754335" stroke="none"/>
<path d="M398.085 781.7L249.561 781.7L242.135 929.683L405.511 929.683L398.085 781.7Z" fill="none" fill-rule="evenodd" opacity="1" stroke="#ffff63" stroke-linecap="round" stroke-linejoin="round" stroke-width="15"/>
<path d="M286.968 822.807L286.968 773.479C286.968 750.87 303.677 732.373 324.099 732.373L324.099 732.373C344.521 732.373 361.23 750.87 361.23 773.479L361.23 822.807" fill="none" fill-rule="evenodd" opacity="1" stroke="#ffff63" stroke-linecap="round" stroke-linejoin="round" stroke-width="15"/>
<path d="M287.05 815.048C280.744 815.048 275.632 819.967 275.632 826.034C275.632 832.102 280.744 837.021 287.05 837.021C293.356 837.021 298.469 832.102 298.469 826.034C298.469 819.967 293.356 815.048 287.05 815.048Z" fill="#ffff63" fill-rule="evenodd" opacity="1" stroke="none"/>
<path d="M361.148 815.048C354.842 815.048 349.729 819.967 349.729 826.034C349.729 832.102 354.842 837.021 361.148 837.021C367.454 837.021 372.566 832.102 372.566 826.034C372.566 819.967 367.454 815.048 361.148 815.048Z" fill="#ffff63" fill-rule="evenodd" opacity="1" stroke="none"/>
</g>
<g opacity="1">
<path d="M645.092 903.148C636.209 903.148 629.009 910.349 629.009 919.232C629.009 928.115 636.209 935.316 645.092 935.316C653.975 935.316 661.176 928.115 661.176 919.232C661.176 910.349 653.975 903.148 645.092 903.148Z" fill="#e7e1fb" fill-rule="evenodd" opacity="0.754335" stroke="none"/>
<path d="M708.069 879.147C699.187 879.147 691.986 886.348 691.986 895.231C691.986 904.114 699.187 911.315 708.069 911.315C716.952 911.315 724.153 904.114 724.153 895.231C724.153 886.348 716.952 879.147 708.069 879.147Z" fill="#e7e1fb" fill-rule="evenodd" opacity="0.754335" stroke="none"/>
<path d="M771.047 903.148C762.164 903.148 754.963 910.349 754.963 919.232C754.963 928.115 762.164 935.316 771.047 935.316C779.93 935.316 787.13 928.115 787.13 919.232C787.13 910.349 779.93 903.148 771.047 903.148Z" fill="#e7e1fb" fill-rule="evenodd" opacity="0.754335" stroke="none"/>
<path d="M633.662 854.02C624.779 854.02 617.578 861.221 617.578 870.104C617.578 878.987 624.779 886.188 633.662 886.188C642.545 886.188 649.746 878.987 649.746 870.104C649.746 861.221 642.545 854.02 633.662 854.02Z" fill="#e7e1fb" fill-rule="evenodd" opacity="0.754335" stroke="none"/>
<path d="M696.639 830.019C687.756 830.019 680.555 837.22 680.555 846.103C680.555 854.986 687.756 862.187 696.639 862.187C705.522 862.187 712.723 854.986 712.723 846.103C712.723 837.22 705.522 830.019 696.639 830.019Z" fill="#e7e1fb" fill-rule="evenodd" opacity="0.754335" stroke="none"/>
<path d="M759.616 854.02C750.733 854.02 743.532 861.221 743.532 870.104C743.532 878.987 750.733 886.188 759.616 886.188C768.499 886.188 775.7 878.987 775.7 870.104C775.7 861.221 768.499 854.02 759.616 854.02Z" fill="#e7e1fb" fill-rule="evenodd" opacity="0.754335" stroke="none"/>
<path d="M640.954 804.136C632.071 804.136 624.87 811.337 624.87 820.22C624.87 829.103 632.071 836.304 640.954 836.304C649.837 836.304 657.038 829.103 657.038 820.22C657.038 811.337 649.837 804.136 640.954 804.136Z" fill="#e7e1fb" fill-rule="evenodd" opacity="0.754335" stroke="none"/>
<path d="M703.931 780.135C695.048 780.135 687.847 787.336 687.847 796.219C687.847 805.102 695.048 812.303 703.931 812.303C712.814 812.303 720.015 805.102 720.015 796.219C720.015 787.336 712.814 780.135 703.931 780.135Z" fill="#e7e1fb" fill-rule="evenodd" opacity="0.754335" stroke="none"/>
<path d="M766.909 804.136C758.026 804.136 750.825 811.337 750.825 820.22C750.825 829.103 758.026 836.304 766.909 836.304C775.791 836.304 782.992 829.103 782.992 820.22C782.992 811.337 775.791 804.136 766.909 804.136Z" fill="#e7e1fb" fill-rule="evenodd" opacity="0.754335" stroke="none"/>
<path d="M775.867 783.088L627.343 783.088L619.917 931.071L783.294 931.071L775.867 783.088Z" fill="none" fill-rule="evenodd" opacity="1" stroke="#ffff63" stroke-linecap="round" stroke-linejoin="round" stroke-width="15"/>
<path d="M664.751 824.194L664.751 774.867C664.751 752.258 681.459 733.76 701.881 733.76L701.881 733.76C722.304 733.76 739.012 752.258 739.012 774.867L739.012 824.194" fill="none" fill-rule="evenodd" opacity="1" stroke="#ffff63" stroke-linecap="round" stroke-linejoin="round" stroke-width="15"/>
<path d="M664.833 816.436C658.527 816.436 653.414 821.355 653.414 827.422C653.414 833.49 658.527 838.409 664.833 838.409C671.139 838.409 676.251 833.49 676.251 827.422C676.251 821.355 671.139 816.436 664.833 816.436Z" fill="#ffff63" fill-rule="evenodd" opacity="1" stroke="none"/>
<path d="M738.93 816.436C732.624 816.436 727.512 821.355 727.512 827.422C727.512 833.49 732.624 838.409 738.93 838.409C745.236 838.409 750.349 833.49 750.349 827.422C750.349 821.355 745.236 816.436 738.93 816.436Z" fill="#ffff63" fill-rule="evenodd" opacity="1" stroke="none"/>
</g>
<g opacity="1">
<path d="M267.31 194.949C258.427 194.949 251.226 202.15 251.226 211.033C251.226 219.916 258.427 227.117 267.31 227.117C276.193 227.117 283.394 219.916 283.394 211.033C283.394 202.15 276.193 194.949 267.31 194.949Z" fill="#e7e1fb" fill-rule="evenodd" opacity="0.754335" stroke="none"/>
<path d="M330.287 170.948C321.404 170.948 314.203 178.149 314.203 187.032C314.203 195.915 321.404 203.116 330.287 203.116C339.17 203.116 346.371 195.915 346.371 187.032C346.371 178.149 339.17 170.948 330.287 170.948Z" fill="#e7e1fb" fill-rule="evenodd" opacity="0.754335" stroke="none"/>
<path d="M393.264 194.949C384.381 194.949 377.181 202.15 377.181 211.033C377.181 219.916 384.381 227.117 393.264 227.117C402.147 227.117 409.348 219.916 409.348 211.033C409.348 202.15 402.147 194.949 393.264 194.949Z" fill="#e7e1fb" fill-rule="evenodd" opacity="0.754335" stroke="none"/>
<path d="M255.879 145.821C246.997 145.821 239.796 153.022 239.796 161.905C239.796 170.787 246.997 177.988 255.879 177.988C264.762 177.988 271.963 170.787 271.963 161.905C271.963 153.022 264.762 145.821 255.879 145.821Z" fill="#e7e1fb" fill-rule="evenodd" opacity="0.754335" stroke="none"/>
<path d="M318.857 121.82C309.974 121.82 302.773 129.021 302.773 137.904C302.773 146.786 309.974 153.987 318.857 153.987C327.74 153.987 334.94 146.786 334.94 137.904C334.94 129.021 327.74 121.82 318.857 121.82Z" fill="#e7e1fb" fill-rule="evenodd" opacity="0.754335" stroke="none"/>
<path d="M381.834 145.821C372.951 145.821 365.75 153.022 365.75 161.905C365.75 170.787 372.951 177.988 381.834 177.988C390.717 177.988 397.918 170.787 397.918 161.905C397.918 153.022 390.717 145.821 381.834 145.821Z" fill="#e7e1fb" fill-rule="evenodd" opacity="0.754335" stroke="none"/>
<path d="M263.172 95.9369C254.289 95.9369 247.088 103.138 247.088 112.021C247.088 120.903 254.289 128.104 263.172 128.104C272.054 128.104 279.256 120.903 279.256 112.021C279.256 103.138 272.054 95.9369 263.172 95.9369Z" fill="#e7e1fb" fill-rule="evenodd" opacity="0.754335" stroke="none"/>
<path d="M326.149 71.9358C317.266 71.9358 310.065 79.1368 310.065 88.0197C310.065 96.9024 317.266 104.103 326.149 104.103C335.032 104.103 342.233 96.9024 342.233 88.0197C342.233 79.1368 335.032 71.9358 326.149 71.9358Z" fill="#e7e1fb" fill-rule="evenodd" opacity="0.754335" stroke="none"/>
<path d="M389.126 95.9369C380.243 95.9369 373.042 103.138 373.042 112.021C373.042 120.903 380.243 128.104 389.126 128.104C398.009 128.104 405.21 120.903 405.21 112.021C405.21 103.138 398.009 95.9369 389.126 95.9369Z" fill="#e7e1fb" fill-rule="evenodd" opacity="0.754335" stroke="none"/>
<path d="M398.085 74.8885L249.561 74.8885L242.135 222.872L405.511 222.872L398.085 74.8885Z" fill="none" fill-rule="evenodd" opacity="1" stroke="#ffff63" stroke-linecap="round" stroke-linejoin="round" stroke-width="15"/>
<path d="M286.968 115.995L286.968 66.6673C286.968 44.0586 303.677 25.5608 324.099 25.5608L324.099 25.5608C344.521 25.5608 361.23 44.0586 361.23 66.6673L361.23 115.995" fill="none" fill-rule="evenodd" opacity="1" stroke="#ffff63" stroke-linecap="round" stroke-linejoin="round" stroke-width="15"/>
<path d="M287.05 108.236C280.744 108.236 275.632 113.155 275.632 119.223C275.632 125.29 280.744 130.209 287.05 130.209C293.356 130.209 298.469 125.29 298.469 119.223C298.469 113.155 293.356 108.236 287.05 108.236Z" fill="#ffff63" fill-rule="evenodd" opacity="1" stroke="none"/>
<path d="M361.148 108.236C354.842 108.236 349.729 113.155 349.729 119.223C349.729 125.29 354.842 130.209 361.148 130.209C367.454 130.209 372.566 125.29 372.566 119.223C372.566 113.155 367.454 108.236 361.148 108.236Z" fill="#ffff63" fill-rule="evenodd" opacity="1" stroke="none"/>
</g>
<g opacity="1">
<path d="M645.092 192.927C636.209 192.927 629.009 200.127 629.009 209.01C629.009 217.893 636.209 225.094 645.092 225.094C653.975 225.094 661.176 217.893 661.176 209.01C661.176 200.127 653.975 192.927 645.092 192.927Z" fill="#e7e1fb" fill-rule="evenodd" opacity="0.754335" stroke="none"/>
<path d="M708.069 168.926C699.187 168.926 691.986 176.126 691.986 185.009C691.986 193.892 699.187 201.093 708.069 201.093C716.952 201.093 724.153 193.892 724.153 185.009C724.153 176.126 716.952 168.926 708.069 168.926Z" fill="#e7e1fb" fill-rule="evenodd" opacity="0.754335" stroke="none"/>
<path d="M771.047 192.927C762.164 192.927 754.963 200.127 754.963 209.01C754.963 217.893 762.164 225.094 771.047 225.094C779.93 225.094 787.13 217.893 787.13 209.01C787.13 200.127 779.93 192.927 771.047 192.927Z" fill="#e7e1fb" fill-rule="evenodd" opacity="0.754335" stroke="none"/>
<path d="M633.662 143.798C624.779 143.798 617.578 150.999 617.578 159.882C617.578 168.765 624.779 175.966 633.662 175.966C642.545 175.966 649.746 168.765 649.746 159.882C649.746 150.999 642.545 143.798 633.662 143.798Z" fill="#e7e1fb" fill-rule="evenodd" opacity="0.754335" stroke="none"/>
<path d="M696.639 119.797C687.756 119.797 680.555 126.998 680.555 135.881C680.555 144.764 687.756 151.965 696.639 151.965C705.522 151.965 712.723 144.764 712.723 135.881C712.723 126.998 705.522 119.797 696.639 119.797Z" fill="#e7e1fb" fill-rule="evenodd" opacity="0.754335" stroke="none"/>
<path d="M759.616 143.798C750.733 143.798 743.532 150.999 743.532 159.882C743.532 168.765 750.733 175.966 759.616 175.966C768.499 175.966 775.7 168.765 775.7 159.882C775.7 150.999 768.499 143.798 759.616 143.798Z" fill="#e7e1fb" fill-rule="evenodd" opacity="0.754335" stroke="none"/>
<path d="M640.954 93.9146C632.071 93.9146 624.87 101.116 624.87 109.998C624.87 118.881 632.071 126.082 640.954 126.082C649.837 126.082 657.038 118.881 657.038 109.998C657.038 101.116 649.837 93.9146 640.954 93.9146Z" fill="#e7e1fb" fill-rule="evenodd" opacity="0.754335" stroke="none"/>
<path d="M703.931 69.9135C695.048 69.9135 687.847 77.1145 687.847 85.9974C687.847 94.8801 695.048 102.081 703.931 102.081C712.814 102.081 720.015 94.8801 720.015 85.9974C720.015 77.1145 712.814 69.9135 703.931 69.9135Z" fill="#e7e1fb" fill-rule="evenodd" opacity="0.754335" stroke="none"/>
<path d="M766.909 93.9146C758.026 93.9146 750.825 101.116 750.825 109.998C750.825 118.881 758.026 126.082 766.909 126.082C775.791 126.082 782.992 118.881 782.992 109.998C782.992 101.116 775.791 93.9146 766.909 93.9146Z" fill="#e7e1fb" fill-rule="evenodd" opacity="0.754335" stroke="none"/>
<path d="M775.867 72.8662L627.343 72.8662L619.917 220.849L783.294 220.849L775.867 72.8662Z" fill="none" fill-rule="evenodd" opacity="1" stroke="#ffff63" stroke-linecap="round" stroke-linejoin="round" stroke-width="15"/>
<path d="M664.751 113.973L664.751 64.645C664.751 42.0363 681.459 23.5385 701.881 23.5385L701.881 23.5385C722.304 23.5385 739.012 42.0363 739.012 64.645L739.012 113.973" fill="none" fill-rule="evenodd" opacity="1" stroke="#ffff63" stroke-linecap="round" stroke-linejoin="round" stroke-width="15"/>
<path d="M664.833 106.214C658.527 106.214 653.414 111.133 653.414 117.2C653.414 123.268 658.527 128.187 664.833 128.187C671.139 128.187 676.251 123.268 676.251 117.2C676.251 111.133 671.139 106.214 664.833 106.214Z" fill="#ffff63" fill-rule="evenodd" opacity="1" stroke="none"/>
<path d="M738.93 106.214C732.624 106.214 727.512 111.133 727.512 117.2C727.512 123.268 732.624 128.187 738.93 128.187C745.236 128.187 750.349 123.268 750.349 117.2C750.349 111.133 745.236 106.214 738.93 106.214Z" fill="#ffff63" fill-rule="evenodd" opacity="1" stroke="none"/>
</g>
<g opacity="1">
<path d="M91.268 539.183C82.385 539.183 75.1841 546.384 75.1841 555.267C75.1841 564.15 82.385 571.351 91.268 571.351C100.151 571.351 107.352 564.15 107.352 555.267C107.352 546.384 100.151 539.183 91.268 539.183Z" fill="#e7e1fb" fill-rule="evenodd" opacity="0.754335" stroke="none"/>
<path d="M154.245 515.182C145.362 515.182 138.161 522.383 138.161 531.266C138.161 540.149 145.362 547.35 154.245 547.35C163.128 547.35 170.329 540.149 170.329 531.266C170.329 522.383 163.128 515.182 154.245 515.182Z" fill="#e7e1fb" fill-rule="evenodd" opacity="0.754335" stroke="none"/>
<path d="M217.222 539.183C208.339 539.183 201.139 546.384 201.139 555.267C201.139 564.15 208.339 571.351 217.222 571.351C226.105 571.351 233.306 564.15 233.306 555.267C233.306 546.384 226.105 539.183 217.222 539.183Z" fill="#e7e1fb" fill-rule="evenodd" opacity="0.754335" stroke="none"/>
<path d="M79.8375 490.055C70.9546 490.055 63.7536 497.256 63.7536 506.139C63.7536 515.021 70.9546 522.222 79.8375 522.222C88.7202 522.222 95.9213 515.021 95.9213 506.139C95.9213 497.256 88.7202 490.055 79.8375 490.055Z" fill="#e7e1fb" fill-rule="evenodd" opacity="0.754335" stroke="none"/>
<path d="M142.815 466.054C133.932 466.054 126.731 473.255 126.731 482.138C126.731 491.02 133.932 498.221 142.815 498.221C151.698 498.221 158.898 491.02 158.898 482.138C158.898 473.255 151.698 466.054 142.815 466.054Z" fill="#e7e1fb" fill-rule="evenodd" opacity="0.754335" stroke="none"/>
<path d="M205.792 490.055C196.909 490.055 189.708 497.256 189.708 506.139C189.708 515.021 196.909 522.222 205.792 522.222C214.675 522.222 221.876 515.021 221.876 506.139C221.876 497.256 214.675 490.055 205.792 490.055Z" fill="#e7e1fb" fill-rule="evenodd" opacity="0.754335" stroke="none"/>
<path d="M87.1298 440.171C78.2469 440.171 71.0459 447.372 71.0459 456.255C71.0459 465.137 78.2469 472.338 87.1298 472.338C96.0125 472.338 103.214 465.137 103.214 456.255C103.214 447.372 96.0125 440.171 87.1298 440.171Z" fill="#e7e1fb" fill-rule="evenodd" opacity="0.754335" stroke="none"/>
<path d="M150.107 416.17C141.224 416.17 134.023 423.371 134.023 432.254C134.023 441.136 141.224 448.337 150.107 448.337C158.99 448.337 166.191 441.136 166.191 432.254C166.191 423.371 158.99 416.17 150.107 416.17Z" fill="#e7e1fb" fill-rule="evenodd" opacity="0.754335" stroke="none"/>
<path d="M213.084 440.171C204.201 440.171 197 447.372 197 456.255C197 465.137 204.201 472.338 213.084 472.338C221.967 472.338 229.168 465.137 229.168 456.255C229.168 447.372 221.967 440.171 213.084 440.171Z" fill="#e7e1fb" fill-rule="evenodd" opacity="0.754335" stroke="none"/>
<path d="M222.043 419.122L73.5189 419.122L66.0926 567.106L229.469 567.106L222.043 419.122Z" fill="none" fill-rule="evenodd" opacity="1" stroke="#ffff63" stroke-linecap="round" stroke-linejoin="round" stroke-width="15"/>
<path d="M110.926 460.229L110.926 410.901C110.926 388.293 127.635 369.795 148.057 369.795L148.057 369.795C168.479 369.795 185.188 388.293 185.188 410.901L185.188 460.229" fill="none" fill-rule="evenodd" opacity="1" stroke="#ffff63" stroke-linecap="round" stroke-linejoin="round" stroke-width="15"/>
<path d="M111.008 452.47C104.702 452.47 99.59 457.389 99.59 463.457C99.59 469.524 104.702 474.443 111.008 474.443C117.315 474.443 122.427 469.524 122.427 463.457C122.427 457.389 117.315 452.47 111.008 452.47Z" fill="#ffff63" fill-rule="evenodd" opacity="1" stroke="none"/>
<path d="M185.106 452.47C178.8 452.47 173.687 457.389 173.687 463.457C173.687 469.524 178.8 474.443 185.106 474.443C191.412 474.443 196.524 469.524 196.524 463.457C196.524 457.389 191.412 452.47 185.106 452.47Z" fill="#ffff63" fill-rule="evenodd" opacity="1" stroke="none"/>
</g>
<g opacity="1">
<path d="M829.748 539.183C820.865 539.183 813.665 546.384 813.665 555.267C813.665 564.15 820.865 571.351 829.748 571.351C838.631 571.351 845.832 564.15 845.832 555.267C845.832 546.384 838.631 539.183 829.748 539.183Z" fill="#e7e1fb" fill-rule="evenodd" opacity="0.754335" stroke="none"/>
<path d="M892.726 515.182C883.843 515.182 876.642 522.383 876.642 531.266C876.642 540.149 883.843 547.35 892.726 547.35C901.608 547.35 908.809 540.149 908.809 531.266C908.809 522.383 901.608 515.182 892.726 515.182Z" fill="#e7e1fb" fill-rule="evenodd" opacity="0.754335" stroke="none"/>
<path d="M955.703 539.183C946.82 539.183 939.619 546.384 939.619 555.267C939.619 564.15 946.82 571.351 955.703 571.351C964.586 571.351 971.786 564.15 971.786 555.267C971.786 546.384 964.586 539.183 955.703 539.183Z" fill="#e7e1fb" fill-rule="evenodd" opacity="0.754335" stroke="none"/>
<path d="M818.318 490.055C809.435 490.055 802.234 497.256 802.234 506.139C802.234 515.021 809.435 522.222 818.318 522.222C827.201 522.222 834.402 515.021 834.402 506.139C834.402 497.256 827.201 490.055 818.318 490.055Z" fill="#e7e1fb" fill-rule="evenodd" opacity="0.754335" stroke="none"/>
<path d="M881.295 466.054C872.412 466.054 865.211 473.255 865.211 482.138C865.211 491.02 872.412 498.221 881.295 498.221C890.178 498.221 897.379 491.02 897.379 482.138C897.379 473.255 890.178 466.054 881.295 466.054Z" fill="#e7e1fb" fill-rule="evenodd" opacity="0.754335" stroke="none"/>
<path d="M944.272 490.055C935.389 490.055 928.188 497.256 928.188 506.139C928.188 515.021 935.389 522.222 944.272 522.222C953.155 522.222 960.356 515.021 960.356 506.139C960.356 497.256 953.155 490.055 944.272 490.055Z" fill="#e7e1fb" fill-rule="evenodd" opacity="0.754335" stroke="none"/>
<path d="M825.61 440.171C816.727 440.171 809.526 447.372 809.526 456.255C809.526 465.137 816.727 472.338 825.61 472.338C834.493 472.338 841.694 465.137 841.694 456.255C841.694 447.372 834.493 440.171 825.61 440.171Z" fill="#e7e1fb" fill-rule="evenodd" opacity="0.754335" stroke="none"/>
<path d="M888.587 416.17C879.704 416.17 872.503 423.371 872.503 432.254C872.503 441.136 879.704 448.337 888.587 448.337C897.47 448.337 904.671 441.136 904.671 432.254C904.671 423.371 897.47 416.17 888.587 416.17Z" fill="#e7e1fb" fill-rule="evenodd" opacity="0.754335" stroke="none"/>
<path d="M951.565 440.171C942.682 440.171 935.481 447.372 935.481 456.255C935.481 465.137 942.682 472.338 951.565 472.338C960.447 472.338 967.648 465.137 967.648 456.255C967.648 447.372 960.447 440.171 951.565 440.171Z" fill="#e7e1fb" fill-rule="evenodd" opacity="0.754335" stroke="none"/>
<path d="M960.523 419.122L811.999 419.122L804.573 567.106L967.95 567.106L960.523 419.122Z" fill="none" fill-rule="evenodd" opacity="1" stroke="#ffff63" stroke-linecap="round" stroke-linejoin="round" stroke-width="15"/>
<path d="M849.407 460.229L849.407 410.901C849.407 388.293 866.116 369.795 886.538 369.795L886.538 369.795C906.96 369.795 923.668 388.293 923.668 410.901L923.668 460.229" fill="none" fill-rule="evenodd" opacity="1" stroke="#ffff63" stroke-linecap="round" stroke-linejoin="round" stroke-width="15"/>
<path d="M849.489 452.47C843.183 452.47 838.07 457.389 838.07 463.457C838.07 469.524 843.183 474.443 849.489 474.443C855.795 474.443 860.907 469.524 860.907 463.457C860.907 457.389 855.795 452.47 849.489 452.47Z" fill="#ffff63" fill-rule="evenodd" opacity="1" stroke="none"/>
<path d="M923.586 452.47C917.28 452.47 912.168 457.389 912.168 463.457C912.168 469.524 917.28 474.443 923.586 474.443C929.892 474.443 935.005 469.524 935.005 463.457C935.005 457.389 929.892 452.47 923.586 452.47Z" fill="#ffff63" fill-rule="evenodd" opacity="1" stroke="none"/>
</g>
</g>
</svg>
