<?xml version="1.0" encoding="UTF-8" standalone="no"?>
<!DOCTYPE svg PUBLIC "-//W3C//DTD SVG 1.1//EN" "http://www.w3.org/Graphics/SVG/1.1/DTD/svg11.dtd">
<!-- Created with Vectornator (http://vectornator.io/) -->
<svg height="100%" stroke-miterlimit="10" style="fill-rule:nonzero;clip-rule:evenodd;stroke-linecap:round;stroke-linejoin:round;" version="1.1" viewBox="0 0 1024 1024" width="100%" xml:space="preserve" xmlns="http://www.w3.org/2000/svg" xmlns:vectornator="http://vectornator.io" xmlns:xlink="http://www.w3.org/1999/xlink">
<defs/>
<g id="Layer-1" vectornator:layerName="Layer 1">
<path d="M376.156 366.188C359.5 366.188 346 379.688 346 396.344L346 487.031C346 503.687 359.501 517.156 376.156 517.156L597.812 517.156C614.468 517.156 627.969 503.687 627.969 487.031L627.969 396.344C627.969 379.688 614.468 366.188 597.812 366.188L376.156 366.188ZM376.156 386.188L597.812 386.188C603.423 386.188 607.969 390.734 607.969 396.344L607.969 487.031C607.969 492.641 603.423 497.156 597.812 497.156L376.156 497.156C370.546 497.156 366 492.641 366 487.031L366 396.344C366 390.734 370.546 386.188 376.156 386.188Z" fill="#000000" fill-rule="evenodd" opacity="0" stroke="none"/>
<path d="M902.537 940.556L127.339 940.556C88.4038 940.556 56.8737 909.026 56.8737 870.09L56.8737 552.957C56.8737 514.022 88.4038 482.491 127.339 482.491L902.537 482.491C941.472 482.491 973.002 514.022 973.002 552.957L973.002 870.09C973.002 909.026 941.472 940.556 902.537 940.556Z" fill="#83be6c" fill-rule="evenodd" opacity="1" stroke="#47673b" stroke-linecap="square" stroke-linejoin="miter" stroke-width="30"/>
<path d="M514.938 635.18C472.774 635.18 438.594 669.36 438.594 711.524C438.594 753.687 472.774 787.868 514.938 787.868C557.102 787.868 591.282 753.687 591.282 711.524C591.282 669.36 557.102 635.18 514.938 635.18ZM937.731 552.957C918.264 552.957 902.46 537.154 902.46 517.686M92.1446 552.957C111.612 552.957 127.416 537.154 127.416 517.686M937.731 870.09C918.264 870.09 902.46 885.893 902.46 905.361M92.1446 870.09C111.612 870.09 127.416 885.893 127.416 905.361" fill="#83be6c" fill-rule="evenodd" opacity="1" stroke="#47673b" stroke-linecap="square" stroke-linejoin="miter" stroke-width="20"/>
<path d="M820.314 673.352C799.232 673.352 782.142 690.442 782.142 711.524C782.142 732.605 799.232 749.696 820.314 749.696C841.396 749.696 858.486 732.605 858.486 711.524C858.486 690.442 841.396 673.352 820.314 673.352ZM209.562 673.352C188.48 673.352 171.39 690.442 171.39 711.524C171.39 732.605 188.48 749.696 209.562 749.696C230.644 749.696 247.734 732.605 247.734 711.524C247.734 690.442 230.644 673.352 209.562 673.352Z" fill="#83be6c" fill-rule="evenodd" opacity="1" stroke="#47673b" stroke-linecap="square" stroke-linejoin="miter" stroke-width="15"/>
<path d="M210.57 89.2196C168.406 89.2196 134.226 123.4 134.226 165.564C134.226 207.727 168.406 241.908 210.57 241.908C252.734 241.908 286.914 207.727 286.914 165.564C286.914 123.4 252.734 89.2196 210.57 89.2196ZM515.946 89.2196C473.783 89.2196 439.602 123.4 439.602 165.564C439.602 207.727 473.783 241.908 515.946 241.908C558.11 241.908 592.29 207.727 592.29 165.564C592.29 123.4 558.11 89.2196 515.946 89.2196ZM821.323 89.2196C779.159 89.2196 744.978 123.4 744.978 165.564C744.978 207.727 779.159 241.908 821.323 241.908C863.486 241.908 897.667 207.727 897.667 165.564C897.667 123.4 863.486 89.2196 821.323 89.2196Z" fill="none" fill-rule="evenodd" opacity="1" stroke="#c4b0ff" stroke-linecap="butt" stroke-linejoin="miter" stroke-width="20"/>
<path d="M399.656 300.781C374.239 300.781 353.009 318.637 347.562 342.438C353.324 342.438 362.818 342.438 368.281 342.438C373.125 329.745 385.271 320.625 399.656 320.625C414.041 320.625 426.187 329.746 431.031 342.438C437.47 342.438 449.186 342.438 455.625 342.438C460.469 329.746 472.584 320.625 486.969 320.625C501.354 320.625 513.5 329.746 518.344 342.438C524.783 342.438 536.498 342.438 542.938 342.438C547.782 329.746 559.896 320.625 574.281 320.625C588.666 320.625 600.812 329.746 605.656 342.438C611.128 342.438 620.666 342.438 626.438 342.438C620.99 318.64 599.729 300.781 574.312 300.781C556.726 300.781 541.248 309.438 531.469 322.562C531.069 323.099 530.244 323.098 529.844 322.562C520.042 309.437 504.555 300.781 486.969 300.781C469.383 300.781 453.904 309.438 444.125 322.562C443.725 323.099 442.931 323.099 442.531 322.562C432.752 309.438 417.242 300.781 399.656 300.781Z" fill="#c4b0ff" fill-rule="evenodd" opacity="0" stroke="none"/>
<path d="M209.543 246.391C146.636 246.391 92.5656 283.477 66.6986 336.775C72.3756 336.775 77.0797 336.775 82.3273 336.775C106.873 291.708 154.216 260.49 209.543 260.489C264.869 260.489 312.213 291.713 336.758 336.775C353.669 336.775 370.887 336.775 387.798 336.775C412.314 291.729 459.558 260.49 514.904 260.489C570.23 260.489 617.574 291.713 642.119 336.775C659.029 336.775 676.248 336.775 693.158 336.775C717.675 291.729 764.919 260.489 820.265 260.489C875.591 260.489 922.935 291.713 947.48 336.775C952.799 336.775 957.567 336.775 963.327 336.775C937.442 283.492 883.302 246.391 820.374 246.391C768.189 246.391 722.098 271.992 692.721 311.419C680.125 328.324 655.141 328.124 642.666 311.419C613.201 271.961 567.084 246.391 514.904 246.391C462.719 246.391 416.628 271.992 387.251 311.419C374.806 328.122 349.735 328.105 337.305 311.419C307.937 272.005 261.734 246.391 209.543 246.391Z" fill="none" fill-rule="evenodd" opacity="1" stroke="#c4b0ff" stroke-linecap="butt" stroke-linejoin="miter" stroke-width="30"/>
</g>
</svg>
