<?xml version="1.0" encoding="UTF-8" standalone="no"?>
<!DOCTYPE svg PUBLIC "-//W3C//DTD SVG 1.1//EN" "http://www.w3.org/Graphics/SVG/1.1/DTD/svg11.dtd">
<!-- Created with Vectornator (http://vectornator.io/) -->
<svg height="100%" stroke-miterlimit="10" style="fill-rule:nonzero;clip-rule:evenodd;stroke-linecap:round;stroke-linejoin:round;" version="1.1" viewBox="0 0 1024 1024" width="100%" xml:space="preserve" xmlns="http://www.w3.org/2000/svg" xmlns:vectornator="http://vectornator.io" xmlns:xlink="http://www.w3.org/1999/xlink">
<defs/>
<clipPath id="ArtboardFrame">
<rect height="1024" width="1024" x="0" y="0"/>
</clipPath>
<g clip-path="url(#ArtboardFrame)" id="Layer-1" vectornator:layerName="Layer 1">
<path d="M150.433 602.525C143.974 602.519 138.735 607.754 138.735 614.212C138.735 620.671 143.974 625.905 150.433 625.9C156.892 625.905 162.131 620.671 162.131 614.212C162.131 607.754 156.892 602.519 150.433 602.525ZM917.889 283.077C912.868 283.077 908.799 287.146 908.799 292.167C908.799 297.187 912.868 301.257 917.889 301.257C922.909 301.257 926.979 297.187 926.979 292.167C926.979 287.146 922.909 283.077 917.889 283.077Z" fill="#ffffff" fill-rule="evenodd" opacity="1" stroke="none"/>
<path d="M884.126 32.4525C877.671 32.4525 872.439 37.685 872.439 44.1396C872.439 50.5942 877.671 55.8268 884.126 55.8268C890.58 55.8268 895.813 50.5942 895.813 44.1396C895.813 37.685 890.58 32.4525 884.126 32.4525ZM156.926 702.515C150.471 702.515 145.239 707.748 145.239 714.202C145.239 720.657 150.471 725.89 156.926 725.89C163.38 725.89 168.613 720.657 168.613 714.202C168.613 707.748 163.38 702.515 156.926 702.515Z" fill="#f1bc19" fill-rule="evenodd" opacity="1" stroke="none"/>
<path d="M530.914 41.5425C261.971 41.5425 43.9501 259.564 43.9501 528.507C43.95 797.45 261.971 1015.47 530.914 1015.47C799.857 1015.47 1017.88 797.45 1017.88 528.507C1017.88 259.564 799.857 41.5424 530.914 41.5425Z" fill="#f9dbd2" fill-rule="evenodd" opacity="1" stroke="none"/>
<path d="M954.249 20.7653C925.561 20.7653 902.306 44.0209 902.306 72.7082C902.306 101.395 925.561 124.651 954.249 124.651C982.936 124.651 1006.19 101.395 1006.19 72.7082C1006.19 44.0209 982.936 20.7653 954.249 20.7653Z" fill="#f1bc19" fill-rule="evenodd" opacity="1" stroke="none"/>
<path d="M1006.19 166.205C992.565 166.205 981.519 177.252 981.519 190.878C981.519 204.505 992.565 215.551 1006.19 215.551C1019.82 215.551 1030.86 204.505 1030.86 190.878C1030.86 177.252 1019.82 166.205 1006.19 166.205Z" fill="#ee3e54" fill-rule="evenodd" opacity="1" stroke="none"/>
<path d="M889.32 846.657C875.694 846.657 864.647 857.703 864.647 871.33C864.647 884.956 875.694 896.002 889.32 896.002C902.946 896.002 913.993 884.956 913.993 871.33C913.993 857.703 902.946 846.657 889.32 846.657ZM68.623 650.572C39.9357 650.572 16.6801 673.828 16.6801 702.515C16.6801 731.203 39.9357 754.458 68.623 754.458C97.3102 754.458 120.566 731.203 120.566 702.515C120.566 673.828 97.3102 650.572 68.623 650.572Z" fill="#fbcd59" fill-rule="evenodd" opacity="1" stroke="none"/>
<path d="M202.376 992.097C193.552 992.083 185.393 996.783 180.977 1004.42C176.561 1012.06 176.561 1021.48 180.977 1029.12C185.393 1036.76 193.552 1041.46 202.376 1041.44C211.2 1041.46 219.359 1036.76 223.775 1029.12C228.191 1021.48 228.191 1012.06 223.775 1004.42C219.359 996.783 211.2 992.083 202.376 992.097Z" fill="#ee3e54" fill-rule="evenodd" opacity="1" stroke="none"/>
<path d="M872.439 249.314C859.521 249.302 849.043 259.771 849.043 272.688C849.043 285.606 859.521 296.074 872.439 296.062C885.356 296.074 895.834 285.606 895.834 272.688C895.834 259.771 885.356 249.302 872.439 249.314ZM117.969 512.924C100.039 512.924 85.5044 527.459 85.5044 545.388C85.5044 563.318 100.039 577.852 117.969 577.852C135.898 577.852 150.433 563.318 150.433 545.388C150.433 527.459 135.898 512.924 117.969 512.924Z" fill="#ffffff" fill-rule="evenodd" opacity="1" stroke="none"/>
<path d="M359.503 414.232C365.996 427.218 355.607 444.1 342.622 451.891C329.636 459.682 314.053 462.28 301.067 470.071C273.797 486.952 266.006 522.014 281.589 547.985C290.679 563.568 306.262 572.658 323.143 575.255C299.769 580.45 284.186 602.525 288.082 625.9C293.276 649.274 308.859 667.454 330.934 675.245C353.01 681.738 376.384 683.037 398.46 677.842C433.522 710.307 485.464 716.8 527.019 693.425" fill="#472b29" fill-rule="evenodd" opacity="1" stroke="none"/>
<path d="M691.937 414.232C685.444 427.218 695.833 444.1 708.819 451.891C721.804 459.682 737.387 462.28 750.373 470.071C777.643 486.952 785.434 522.014 769.851 547.985C760.761 563.568 745.179 572.658 728.297 575.255C751.671 580.45 767.254 602.525 763.359 625.9C758.164 649.274 742.581 667.454 720.506 675.245C698.43 681.738 675.056 683.037 652.98 677.842C617.919 710.307 565.976 716.8 524.422 693.425" fill="#472b29" fill-rule="evenodd" opacity="1" stroke="none"/>
<path d="M668.563 414.232C669.862 394.754 676.354 371.38 677.653 362.29L662.07 318.138C645.189 297.361 633.502 277.882 610.127 262.3C584.156 245.418 550.393 255.807 520.526 248.015C446.507 229.835 378.982 303.854 355.607 373.977C355.607 373.977 355.607 375.275 354.309 375.275C356.906 388.261 358.204 401.247 359.503 412.934C340.024 412.934 329.636 423.322 336.129 444.1C336.129 444.1 343.92 477.862 349.114 494.744C350.413 503.834 359.503 510.327 368.593 510.327C368.593 520.715 368.593 532.402 368.593 542.791C368.593 555.777 372.489 568.762 380.28 579.151C399.759 607.72 499.749 672.648 524.422 670.051C563.379 670.051 641.293 603.824 662.07 570.061C665.966 563.568 667.264 555.777 668.563 547.985C668.563 535 668.563 522.014 668.563 509.028C676.354 507.73 682.847 501.237 685.444 493.445C690.639 476.564 698.43 442.801 698.43 442.801C703.624 424.621 688.042 412.934 668.563 414.232Z" fill="#d8ad8f" fill-rule="evenodd" opacity="1" stroke="none"/>
<path d="M728.297 745.368L724.402 744.07L716.61 741.472C701.027 734.98 595.843 698.62 595.843 698.62C589.35 696.022 582.857 690.828 580.26 684.335C577.663 671.35 576.364 659.662 577.663 646.677C559.483 654.468 541.303 660.961 523.123 664.857C498.45 667.454 455.597 634.99 455.597 634.99C455.597 634.99 454.299 673.947 453 683.037C450.403 690.828 443.91 696.022 436.119 697.321L334.83 732.382C324.442 734.98 315.352 738.875 306.262 744.07C285.484 758.354 269.902 780.43 263.409 805.102L263.409 805.102C263.409 806.401 263.409 808.998 262.11 812.894C260.812 818.088 260.812 824.581 260.812 829.775C260.812 836.268 260.812 908.988 259.513 916.78C347.816 1007.68 471.18 1001.19 607.53 1001.19C667.264 1001.19 725.7 967.424 777.643 947.945C773.747 825.88 782.837 762.25 728.297 745.368Z" fill="#b2876b" fill-rule="evenodd" opacity="1" stroke="none"/>
<path d="M371.19 520.715C369.892 520.715 368.593 519.417 368.593 518.118L358.204 412.934C358.204 411.635 359.503 410.337 360.802 410.337C362.1 410.337 363.399 411.635 363.399 412.934L373.787 518.118C375.086 519.417 373.787 520.715 371.19 520.715C372.489 520.715 372.489 520.715 371.19 520.715ZM663.369 515.521C663.369 515.521 663.369 514.222 663.369 515.521C662.07 515.521 660.771 514.222 660.771 512.924L667.264 407.74C667.264 406.441 668.563 405.142 669.861 405.142C671.16 405.142 672.459 406.441 672.459 407.74L665.966 512.924C665.966 514.222 665.966 515.521 663.369 515.521Z" fill="#472b29" fill-rule="evenodd" opacity="1" stroke="none"/>
<path d="M403.654 709.008C401.057 825.88 629.606 833.671 614.023 699.918L677.653 721.994L697.132 980.41C697.132 980.41 469.882 1032.35 324.442 955.737L334.83 732.382L403.654 709.008Z" fill="#eab436" fill-rule="evenodd" opacity="1" stroke="none"/>
<path d="M517.929 1007.68C423.133 1007.68 324.442 988.201 255.617 929.765C254.319 928.467 253.02 925.87 253.02 924.571C253.02 923.272 253.02 921.974 253.02 919.377C250.423 820.685 267.304 760.951 304.963 741.472C314.053 736.278 324.441 732.382 334.83 729.785L436.119 696.022C442.611 694.724 446.507 690.828 447.806 685.634C449.104 680.44 450.403 659.662 451.701 649.274C421.834 629.795 386.773 605.122 376.384 588.241C367.294 576.554 363.399 562.27 364.697 547.985L364.697 522.014C355.607 519.417 347.816 511.625 345.219 502.535C340.024 486.952 332.233 453.19 332.233 451.891C327.039 437.607 330.934 428.517 334.83 423.322C337.427 419.427 343.92 414.232 355.607 412.934C355.607 410.337 355.607 409.038 355.607 406.441C351.711 398.65 350.413 392.157 349.114 383.067C349.114 298.66 424.431 229.835 516.63 229.835C608.829 229.835 684.146 298.66 684.146 383.067C684.146 392.157 681.549 399.948 677.653 407.74C677.653 409.038 677.653 410.337 677.653 411.635C688.041 412.934 697.131 416.83 702.326 424.621C706.221 429.815 710.117 438.905 704.923 451.891C703.624 459.682 695.833 489.55 691.937 502.535C690.639 510.327 684.146 518.118 676.354 520.715L676.354 551.881C676.354 560.971 673.757 568.762 669.861 576.554C646.487 607.72 619.217 633.691 586.753 655.767C586.753 666.155 586.753 675.245 589.35 685.634C590.649 689.53 595.843 693.425 601.037 694.724C606.231 696.022 706.221 731.084 721.804 737.577L732.193 741.472L732.193 741.472C781.539 757.055 782.837 803.804 785.434 886.912C785.434 905.092 786.733 924.571 788.031 946.647C788.031 949.244 786.733 951.841 785.434 951.841C743.88 977.812 634.8 1007.68 517.929 1007.68ZM266.006 920.675C412.744 1041.44 699.729 985.604 772.449 944.05C771.15 923.272 771.15 905.092 771.15 888.211C768.553 807.7 768.553 767.444 726.999 754.458L723.103 753.16L715.312 749.264C698.43 742.771 595.843 707.71 594.544 707.71C585.454 705.112 578.962 698.62 575.066 689.53C571.17 676.544 569.872 663.558 571.17 651.871C571.17 649.274 572.469 647.975 573.767 646.677C606.232 625.9 633.502 601.227 655.577 570.061C658.174 564.867 659.473 558.374 659.473 551.881L659.473 512.924C659.473 510.327 662.07 506.431 664.667 506.431C669.862 505.132 675.056 501.237 676.354 496.042C681.549 479.161 689.34 447.995 689.34 445.398C691.937 437.607 691.937 432.412 688.042 428.517C685.444 424.621 677.653 422.024 668.563 422.024C667.264 422.024 664.667 422.024 663.369 420.725C662.07 419.427 662.07 418.128 662.07 415.531C662.07 406.441 662.07 401.247 664.667 398.65C667.264 393.455 668.563 386.962 668.563 380.47C668.563 303.854 599.739 240.224 514.033 240.224C428.327 240.224 359.503 302.555 359.503 380.47C359.503 386.962 362.1 393.455 364.697 398.65C364.697 398.65 364.697 399.948 364.697 401.247C364.697 406.441 365.996 410.337 365.996 415.531C365.996 416.83 365.996 419.427 364.697 420.725C363.399 422.024 362.1 422.024 359.503 422.024C354.309 422.024 346.517 423.322 342.622 427.218C338.726 432.412 340.024 438.905 342.622 444.1C342.622 445.398 350.413 479.161 355.607 494.744C356.906 501.237 362.1 506.431 368.593 505.132C369.892 505.132 372.489 505.132 373.787 506.431C375.086 507.73 376.384 509.028 376.384 511.625L376.384 544.09C376.384 555.777 378.982 567.464 386.773 576.554C395.863 589.54 427.029 614.212 462.09 636.288C463.389 637.587 464.687 640.184 464.687 641.482C464.687 651.871 462.09 677.842 460.792 685.634C456.896 696.022 449.104 703.814 440.014 705.112L340.024 738.875C330.934 741.472 321.844 745.368 312.754 750.562C290.679 762.25 264.707 799.908 268.603 916.78C266.006 918.078 266.006 919.377 266.006 920.675Z" fill="#472b29" fill-rule="evenodd" opacity="1" stroke="none"/>
<path d="M524.421 667.454C499.749 667.454 459.493 645.378 456.896 645.378C455.597 644.08 454.299 642.781 455.597 641.482C456.896 640.184 458.194 638.885 459.493 640.184C459.493 640.184 503.644 663.558 525.72 662.26C545.199 658.364 564.677 651.871 581.559 641.482C582.857 640.184 585.454 641.482 585.454 642.781C586.753 644.08 585.454 646.677 584.156 646.677C565.976 657.065 546.497 664.857 525.72 668.752C525.72 667.454 525.72 667.454 524.421 667.454Z" fill="#472b29" fill-rule="evenodd" opacity="1" stroke="none"/>
<path d="M456.896 266.195C446.138 266.195 437.417 274.916 437.417 285.674C437.417 296.432 446.138 305.152 456.896 305.152C467.654 305.152 476.374 296.432 476.374 285.674C476.374 274.916 467.654 266.195 456.896 266.195Z" fill="#fbcd59" fill-rule="evenodd" opacity="1" stroke="none"/>
<path d="M358.204 436.308C358.204 433.711 358.204 431.114 358.204 427.218L337.427 431.114L345.219 470.071L353.01 468.772L347.816 438.905L358.204 436.308Z" fill="#033b55" fill-rule="evenodd" opacity="1" stroke="none"/>
<path d="M519.227 522.014C529.616 522.014 540.004 516.82 547.796 509.028C549.094 507.73 549.094 507.73 547.796 506.431L547.796 506.431L547.796 506.431C546.497 505.132 546.497 505.132 545.199 506.431L545.199 506.431C530.914 519.417 508.839 519.417 494.554 506.431L493.256 506.431L491.957 506.431C490.659 507.73 490.659 509.028 491.957 509.028C498.45 516.82 508.839 522.014 519.227 522.014Z" fill="#472b29" fill-rule="evenodd" opacity="0.41" stroke="none"/>
<path d="M485.464 379.171L491.957 366.185C462.09 359.692 430.924 359.692 401.057 368.782L410.147 381.768C434.82 373.977 460.792 372.678 485.464 379.171ZM632.203 379.171L638.696 366.185C608.829 359.692 577.663 359.692 547.796 368.782L556.886 381.768C581.559 373.977 607.53 372.678 632.203 379.171ZM440.014 397.351C432.223 397.351 425.73 402.545 423.133 409.038C424.431 409.038 424.431 409.038 425.73 409.038C432.223 410.337 437.417 415.531 436.119 422.024C436.119 427.218 430.924 432.412 425.73 432.412C424.431 432.412 421.834 432.412 420.536 431.114C421.834 441.502 429.626 447.995 440.014 449.294C454.299 446.697 463.389 433.711 460.791 419.427C459.493 409.038 451.702 399.948 440.014 397.351L440.014 397.351ZM593.246 397.351C586.753 397.351 581.559 401.247 577.663 406.441C578.962 406.441 580.26 405.142 581.559 405.142C588.052 406.441 593.246 411.635 591.947 418.128C591.947 423.322 586.753 428.517 581.559 428.517C577.663 428.517 575.066 425.92 572.469 423.322C569.872 433.711 576.364 445.398 588.052 447.995C598.44 450.592 610.127 444.1 612.724 432.412C614.023 429.815 614.023 425.92 612.724 423.322C615.321 411.635 606.232 399.948 593.246 397.351ZM604.933 554.478C606.231 553.18 606.231 551.881 604.933 551.881L604.933 551.881C603.634 550.582 602.336 550.582 602.336 551.881C577.663 567.464 549.094 576.554 520.526 573.957C491.957 575.255 463.389 567.464 438.716 550.582L437.417 550.582L436.119 550.582C434.82 551.881 434.82 553.18 436.119 553.18C460.791 571.36 490.659 580.45 520.526 579.151C550.393 581.748 580.26 572.658 604.933 554.478Z" fill="#472b29" fill-rule="evenodd" opacity="1" stroke="none"/>
<path d="M421.834 479.161C405.33 479.148 391.944 492.524 391.944 509.028C391.944 525.532 405.33 538.908 421.834 538.895C438.339 538.908 451.725 525.532 451.725 509.028C451.725 492.524 438.339 479.148 421.834 479.161ZM615.321 479.161C598.817 479.148 585.431 492.524 585.431 509.028C585.431 525.532 598.817 538.908 615.321 538.895C631.826 538.908 645.212 525.532 645.212 509.028C645.212 492.524 631.826 479.148 615.321 479.161Z" fill="#cd9480" fill-rule="evenodd" opacity="1" stroke="none"/>
<path d="M538.706 220.745C559.483 227.238 608.829 257.105 603.634 297.361C598.44 341.512 677.653 346.707 658.174 424.621C655.577 437.607 672.459 433.711 678.952 422.024C717.909 350.602 716.61 276.584 677.653 229.835C641.293 185.684 555.587 183.087 541.303 198.67C540.004 201.267 538.706 203.864 538.706 206.461C537.407 211.655 536.109 220.745 538.706 220.745Z" fill="#472b29" fill-rule="evenodd" opacity="1" stroke="none"/>
<path d="M627.009 214.252C627.009 189.58 598.44 170.101 573.767 167.504C498.45 159.712 393.266 188.281 347.816 246.717C302.366 305.152 293.276 427.218 319.247 466.175C347.816 509.028 364.697 471.37 369.892 453.19C397.162 358.394 447.806 364.887 493.256 336.318C554.289 298.66 529.616 241.522 612.724 276.584C634.8 286.972 627.009 236.328 627.009 214.252Z" fill="#472b29" fill-rule="evenodd" opacity="1" stroke="none"/>
<path d="M502.346 411.635C472.479 376.574 363.399 401.247 363.399 401.247C365.996 409.038 367.294 416.83 368.593 424.621C376.384 425.92 377.683 444.1 377.683 450.592C381.579 483.057 403.654 506.431 449.104 506.431C480.27 506.431 507.54 481.758 507.54 450.592L507.54 450.592C508.839 436.308 507.54 423.322 502.346 411.635ZM497.152 450.592C497.152 476.564 475.076 498.64 449.104 498.64L447.806 498.64L438.716 498.64C393.266 498.64 385.474 458.384 384.176 433.711C382.877 419.427 394.564 406.441 408.849 405.142C416.64 403.844 427.029 403.844 437.417 403.844C471.18 403.844 486.763 411.635 490.659 418.128C495.853 429.815 498.45 440.204 497.152 450.592ZM534.81 449.294C534.81 480.46 560.782 506.431 593.246 506.431L593.246 506.431C638.696 507.73 660.772 483.057 664.667 450.592C665.966 444.1 665.966 425.92 673.757 424.621C675.056 416.83 677.653 409.038 678.952 401.247C678.952 401.247 568.573 375.275 540.004 411.635C534.81 423.322 533.511 436.308 534.81 449.294ZM551.692 419.427C555.587 412.934 571.17 405.142 604.933 405.142C615.322 405.142 625.71 405.142 633.502 406.441C647.786 407.74 658.174 420.725 658.174 435.01C656.876 459.682 649.084 499.938 603.634 499.938L594.544 499.938C568.573 501.237 546.497 480.46 545.199 453.19L545.199 451.891C543.9 440.204 546.497 428.517 551.692 419.427Z" fill="#ee3e54" fill-rule="evenodd" opacity="1" stroke="none"/>
<path d="M541.303 438.905C534.81 435.01 528.317 432.412 520.526 432.412C514.033 432.412 507.54 433.711 501.047 438.905C498.45 433.711 497.152 428.517 494.554 422.024L546.497 422.024C545.199 428.517 542.602 433.711 541.303 438.905Z" fill="#ee3e54" fill-rule="evenodd" opacity="1" stroke="none"/>
<g opacity="1">
<path d="M798.42 638.885C695.146 638.885 611.426 722.605 611.426 825.88C611.426 929.154 695.146 1012.87 798.42 1012.87C901.694 1012.87 985.414 929.154 985.414 825.88C985.414 722.605 901.694 638.885 798.42 638.885Z" fill="#fdfcee" fill-rule="evenodd" opacity="1" stroke="none"/>
<path d="M798.42 1018.07C691.937 1018.07 606.231 932.362 606.231 825.88C606.231 719.397 691.937 633.691 798.42 633.691C904.903 633.691 990.609 719.397 990.609 825.88C990.609 931.064 903.604 1018.07 798.42 1018.07ZM798.42 642.781C697.131 642.781 615.321 724.591 615.321 825.88C615.321 927.168 697.131 1008.98 798.42 1008.98C899.709 1008.98 981.519 927.168 981.519 825.88C981.519 724.591 898.41 642.781 798.42 642.781Z" fill="#472b29" fill-rule="evenodd" opacity="1" stroke="none"/>
</g>
<g opacity="1">
<path d="M798.42 671.35C713.075 671.35 643.89 740.535 643.89 825.88C643.89 911.224 713.075 980.41 798.42 980.41C883.765 980.41 952.95 911.224 952.95 825.88C952.95 740.535 883.765 671.35 798.42 671.35Z" fill="#8889b9" fill-rule="evenodd" opacity="1" stroke="none"/>
<path d="M798.42 983.007C711.416 983.007 639.994 911.585 639.994 824.581C639.994 737.577 711.416 666.155 798.42 666.155C885.424 666.155 956.846 737.577 956.846 824.581C955.547 912.884 885.424 983.007 798.42 983.007ZM798.42 673.947C715.311 673.947 646.487 741.472 646.487 825.88C646.487 910.287 714.013 977.812 798.42 977.812C882.827 977.812 950.353 910.287 950.353 825.88C950.353 741.472 881.529 673.947 798.42 673.947Z" fill="#472b29" fill-rule="evenodd" opacity="1" stroke="none"/>
</g>
<path d="M797.121 693.425C863.349 693.425 923.083 734.98 946.457 797.311C930.874 714.202 850.363 660.961 768.553 676.544C707.52 688.231 659.473 736.278 647.786 797.311C671.16 734.98 730.894 693.425 797.121 693.425Z" fill="#a1a1ca" fill-rule="evenodd" opacity="0.79" stroke="none"/>
<g opacity="1">
<path d="M862.05 825.88C862.05 816.79 867.244 808.998 875.036 807.7C873.737 799.908 869.841 792.117 865.946 784.325C858.154 788.221 849.064 786.922 843.87 781.728C837.377 775.235 836.079 766.145 839.974 758.354C832.183 754.458 824.391 750.562 816.6 749.264C815.301 757.055 807.51 762.25 799.719 763.548C790.629 764.847 781.539 758.354 778.941 749.264C771.15 750.562 763.359 754.458 755.567 759.652C760.761 768.742 756.866 780.43 747.776 785.624C742.581 788.221 734.79 788.221 729.596 785.624C725.7 793.415 721.804 801.207 720.506 808.998C730.894 811.595 736.089 821.984 733.491 832.372C732.193 838.865 726.999 844.06 720.506 845.358C723.103 853.15 725.7 860.941 730.894 868.732C738.686 864.837 747.776 866.135 752.97 872.628C759.463 877.822 760.761 888.211 756.866 894.704C764.657 898.6 772.449 902.495 780.24 903.794L780.24 903.794C784.136 893.405 794.524 888.211 804.913 892.107C810.107 893.405 815.301 898.6 816.6 903.794C816.6 905.092 816.6 905.092 817.899 903.794C825.69 902.495 832.183 898.6 838.676 894.704L839.974 894.704C836.079 888.211 837.377 879.121 842.571 873.927C847.766 867.434 858.154 864.837 865.946 868.732C869.841 862.24 873.737 854.448 875.036 845.358C865.946 841.462 860.751 834.97 862.05 825.88ZM798.42 838.865C790.629 838.865 785.434 833.671 785.434 825.88C785.434 818.088 790.629 812.894 798.42 812.894C806.211 812.894 811.406 818.088 811.406 825.88C811.406 825.88 811.406 825.88 811.406 827.178C810.107 833.671 804.913 838.865 798.42 838.865Z" fill="#bcbce2" fill-rule="evenodd" opacity="1" stroke="none"/>
<path d="M815.301 905.092L814.003 905.092C814.003 905.092 812.704 903.794 812.704 902.495C811.406 897.301 807.51 894.704 802.316 892.107C798.42 890.808 793.226 890.808 789.33 893.405C785.434 894.704 782.837 898.6 781.539 902.495C781.539 903.794 780.24 905.092 778.941 903.794C769.851 901.197 762.06 898.6 755.567 893.405C754.269 892.107 754.269 890.808 754.269 889.51C758.164 883.017 756.866 875.225 750.373 870.031C745.179 864.837 737.387 863.538 730.894 867.434C729.596 868.732 728.297 867.434 726.999 866.135C721.804 858.344 719.207 850.552 716.61 842.761C716.61 841.462 716.61 840.164 717.909 840.164C723.103 838.865 726.999 834.97 729.596 828.477C732.193 819.387 726.999 810.297 717.909 807.7C716.61 807.7 715.311 806.401 716.61 805.102C719.207 796.012 721.804 788.221 726.999 780.43C728.297 779.131 729.596 779.131 730.894 779.131C736.089 781.728 741.283 781.728 746.477 779.131C750.373 776.534 752.97 773.937 754.269 768.742C755.567 764.847 755.567 759.652 752.97 755.757C752.97 754.458 752.97 753.16 754.269 751.861C762.06 746.667 769.851 744.07 778.941 741.472C780.24 741.472 781.539 741.472 781.539 742.771C784.136 750.562 790.629 755.757 798.42 754.458C804.913 754.458 811.406 749.264 812.704 742.771C812.704 741.472 814.003 740.174 815.301 741.472C824.391 744.07 832.183 746.667 839.974 751.861C841.273 753.16 841.273 754.458 841.273 755.757C837.377 762.25 838.676 770.041 843.87 775.235C849.064 780.43 856.856 781.728 863.349 777.832C864.647 776.534 865.946 777.832 867.244 779.131C872.439 786.922 875.036 794.714 877.633 803.804C877.633 805.102 877.633 806.401 876.334 806.401C869.841 808.998 864.647 815.491 864.647 821.984L864.647 821.984C864.647 828.477 868.543 836.268 875.036 837.567C876.334 837.567 877.633 838.865 876.334 840.164C873.737 847.955 871.14 857.045 865.946 863.538C864.647 864.837 863.349 864.837 862.05 864.837C855.557 860.941 846.467 863.538 841.273 868.732C837.377 873.927 836.079 881.718 838.676 886.912C838.676 888.211 838.676 888.211 838.676 889.51C838.676 890.808 837.377 890.808 836.079 890.808L836.079 890.808C829.586 894.704 821.794 897.301 815.301 899.898C816.6 905.092 816.6 905.092 815.301 905.092ZM797.121 886.912C799.719 886.912 802.316 886.912 803.614 888.211C808.809 890.808 814.003 894.704 816.6 899.898C823.093 898.6 829.586 896.002 834.78 892.107C832.183 884.315 833.481 876.524 838.676 871.33C845.169 863.538 854.259 860.941 863.349 864.837C867.244 859.642 869.841 853.15 871.14 846.657C863.349 842.761 858.154 834.97 859.453 825.88C859.453 816.79 864.647 808.998 872.439 805.102C871.14 798.61 868.543 792.117 864.647 786.922C856.856 790.818 847.766 788.221 841.273 781.728C834.78 775.235 833.481 766.145 836.079 758.354C830.884 754.458 824.391 753.16 817.899 750.562C815.301 758.354 807.51 763.548 799.719 763.548C790.629 764.847 781.539 759.652 777.643 750.562C771.15 751.861 764.657 754.458 759.463 758.354C763.359 768.742 759.463 780.43 749.074 785.624C743.88 788.221 737.387 789.52 730.894 786.922C726.999 792.117 725.7 798.61 723.103 805.102C733.491 808.998 738.686 820.685 734.79 831.074C733.491 837.567 728.297 842.761 723.103 845.358C724.401 851.851 726.999 858.344 730.894 863.538C738.686 860.941 747.776 862.24 754.269 868.732C760.761 875.225 763.359 884.315 759.463 892.107C764.657 896.002 771.15 897.301 777.643 899.898C780.24 896.002 782.837 892.107 788.031 889.51C790.629 888.211 793.226 886.912 797.121 886.912ZM798.42 841.462C789.33 841.462 782.837 834.97 782.837 825.88C782.837 816.79 789.33 810.297 798.42 810.297L798.42 810.297C802.316 810.297 806.211 811.595 808.809 814.192C811.406 816.79 814.003 820.685 814.003 824.581L814.003 825.88C812.704 834.97 806.212 841.462 798.42 841.462L798.42 841.462ZM798.42 815.491L798.42 815.491C793.226 815.491 788.031 820.685 788.031 825.88C788.031 831.074 793.226 836.268 798.42 836.268C803.614 836.268 808.809 832.372 808.809 825.88L808.809 825.88C808.809 823.282 807.51 820.685 806.211 818.088C804.913 815.491 801.017 815.491 798.42 815.491Z" fill="#472b29" fill-rule="evenodd" opacity="1" stroke="none"/>
</g>
<g opacity="1">
<path d="M798.42 871.33C772.449 871.33 752.97 850.552 752.97 824.581C752.97 798.61 773.747 779.131 799.719 779.131C825.69 779.131 845.169 799.908 845.169 824.581C845.169 849.254 823.093 871.33 798.42 871.33L798.42 871.33ZM798.42 798.61C784.136 798.61 771.15 810.297 771.15 825.88C771.15 841.462 782.837 853.15 798.42 853.15C812.704 853.15 825.69 841.462 825.69 825.88L825.69 825.88C824.391 810.297 812.704 798.61 798.42 798.61L798.42 798.61Z" fill="#8889b9" fill-rule="evenodd" opacity="1" stroke="none"/>
<path d="M798.42 872.628C772.449 872.628 750.373 851.851 750.373 824.581C750.373 797.311 771.15 776.534 798.42 776.534C825.69 776.534 846.467 797.311 846.467 824.581C846.467 851.851 824.391 872.628 798.42 872.628ZM798.42 780.43C773.747 780.43 754.269 799.908 754.269 824.581C754.269 849.254 773.747 868.732 798.42 868.732C823.093 868.732 842.571 849.254 842.571 824.581C842.571 799.908 821.794 780.43 798.42 780.43ZM798.42 854.448C782.837 854.448 769.851 841.462 769.851 825.88C769.851 810.297 782.837 797.311 798.42 797.311L799.719 797.311C814.003 798.61 826.989 810.297 826.989 825.88C826.989 841.462 814.003 854.448 798.42 854.448ZM795.823 799.908C782.837 801.207 772.449 811.595 772.449 825.88C772.449 840.164 784.136 851.851 798.42 851.851C812.704 851.851 824.391 840.164 824.391 825.88C824.391 811.595 812.704 801.207 798.42 801.207L795.823 799.908Z" fill="#472b29" fill-rule="evenodd" opacity="1" stroke="none"/>
</g>
</g>
</svg>
