<?xml version="1.0" encoding="UTF-8" standalone="no"?>
<!DOCTYPE svg PUBLIC "-//W3C//DTD SVG 1.1//EN" "http://www.w3.org/Graphics/SVG/1.1/DTD/svg11.dtd">
<!-- Created with Vectornator (http://vectornator.io/) -->
<svg height="100%" stroke-miterlimit="10" style="fill-rule:nonzero;clip-rule:evenodd;stroke-linecap:round;stroke-linejoin:round;" version="1.1" viewBox="0 0 1024 1024" width="100%" xml:space="preserve" xmlns="http://www.w3.org/2000/svg" xmlns:vectornator="http://vectornator.io" xmlns:xlink="http://www.w3.org/1999/xlink">
<defs/>
<g id="Layer-1" vectornator:layerName="Layer 1">
<path d="M880.034 212.338C867.594 197.202 854.245 182.84 840.062 169.342C754.547 87.9682 638.847 38.0294 511.483 38.0294C248.187 38.0294 34.7401 251.476 34.7401 514.772C34.7401 778.068 248.187 991.514 511.483 991.514C774.778 991.514 988.225 778.068 988.225 514.772C988.225 466.114 980.94 419.17 967.397 374.952" fill="none" fill-rule="evenodd" opacity="1" stroke="#423a55" stroke-linecap="round" stroke-linejoin="round" stroke-width="30"/>
<path d="M511.483 82.724C495.026 82.724 481.686 96.0643 481.686 112.52C481.686 128.977 495.026 142.317 511.483 142.317C527.939 142.317 541.279 128.977 541.279 112.52C541.279 96.0643 527.939 82.724 511.483 82.724ZM511.483 172.113C503.254 172.113 496.584 178.783 496.584 187.011C496.584 195.239 503.254 201.91 511.483 201.91C519.711 201.91 526.381 195.239 526.381 187.011C526.381 178.783 519.711 172.113 511.483 172.113ZM511.483 887.227C495.026 887.227 481.686 900.567 481.686 917.023C481.686 933.479 495.026 946.82 511.483 946.82C527.939 946.82 541.279 933.479 541.279 917.023C541.279 900.567 527.939 887.227 511.483 887.227ZM511.483 827.634C503.254 827.634 496.584 834.304 496.584 842.532C496.584 850.76 503.254 857.43 511.483 857.43C519.711 857.43 526.381 850.76 526.381 842.532C526.381 834.304 519.711 827.634 511.483 827.634ZM109.231 484.975C92.775 484.975 79.4347 498.316 79.4347 514.772C79.4347 531.228 92.775 544.568 109.231 544.568C125.687 544.568 139.028 531.228 139.028 514.772C139.028 498.316 125.687 484.975 109.231 484.975ZM183.722 499.874C175.494 499.874 168.824 506.544 168.824 514.772C168.824 523 175.494 529.67 183.722 529.67C191.95 529.67 198.62 523 198.62 514.772C198.62 506.544 191.95 499.874 183.722 499.874ZM913.734 484.975C897.278 484.975 883.938 498.316 883.938 514.772C883.938 531.228 897.278 544.568 913.734 544.568C930.19 544.568 943.53 531.228 943.53 514.772C943.53 498.316 930.19 484.975 913.734 484.975ZM839.243 499.874C831.015 499.874 824.345 506.544 824.345 514.772C824.345 523 831.015 529.67 839.243 529.67C847.471 529.67 854.141 523 854.141 514.772C854.141 506.544 847.471 499.874 839.243 499.874Z" fill="#c4b0ff" fill-rule="evenodd" opacity="1" stroke="#423a55" stroke-linecap="round" stroke-linejoin="round" stroke-width="6"/>
<path d="M699.708 158.966C695.594 166.091 698.035 175.203 705.161 179.317C712.287 183.431 721.398 180.989 725.512 173.864C729.626 166.738 727.185 157.626 720.059 153.512C712.934 149.398 703.822 151.84 699.708 158.966Z" fill="#423a55" fill-rule="evenodd" opacity="1" stroke="none"/>
<path d="M297.436 855.66C294.762 860.27 294.755 865.957 297.417 870.574C300.079 875.192 305.004 878.035 310.334 878.032C315.663 878.029 320.585 875.178 323.241 870.558C325.914 865.947 325.922 860.26 323.26 855.643C320.598 851.025 315.673 848.182 310.343 848.185C305.014 848.189 300.092 851.039 297.436 855.66Z" fill="#423a55" fill-rule="evenodd" opacity="1" stroke="none"/>
<path d="M216.522 788.663C210.704 794.481 210.704 803.914 216.522 809.732C222.34 815.55 231.773 815.55 237.591 809.732C243.409 803.914 243.409 794.481 237.591 788.663C231.773 782.845 222.34 782.845 216.522 788.663Z" fill="#423a55" fill-rule="evenodd" opacity="1" stroke="none"/>
<path d="M896.184 396.281C888.236 398.41 883.52 406.579 885.649 414.527C887.778 422.475 895.948 427.191 903.895 425.062C911.843 422.933 916.56 414.763 914.43 406.816C912.301 398.868 904.132 394.151 896.184 396.281Z" fill="#423a55" fill-rule="evenodd" opacity="1" stroke="none"/>
<path d="M119.123 604.505C111.175 606.635 106.458 614.804 108.588 622.751C110.717 630.699 118.886 635.416 126.834 633.286C134.782 631.157 139.498 622.988 137.369 615.04C135.24 607.092 127.07 602.376 119.123 604.505Z" fill="#423a55" fill-rule="evenodd" opacity="1" stroke="none"/>
<path d="M885.66 615.05C883.53 622.997 888.247 631.167 896.194 633.296C904.142 635.425 912.311 630.709 914.441 622.761C916.57 614.813 911.854 606.644 903.906 604.515C895.958 602.385 887.789 607.102 885.66 615.05Z" fill="#423a55" fill-rule="evenodd" opacity="1" stroke="none"/>
<path d="M108.573 406.833C106.444 414.781 111.161 422.95 119.108 425.079C127.056 427.209 135.225 422.492 137.355 414.544C139.484 406.597 134.767 398.427 126.82 396.298C118.872 394.169 110.703 398.885 108.573 406.833Z" fill="#423a55" fill-rule="evenodd" opacity="1" stroke="none"/>
<path d="M785.374 788.678C779.556 794.496 779.556 803.929 785.374 809.747C791.192 815.565 800.625 815.565 806.443 809.747C812.261 803.929 812.261 794.496 806.443 788.678C800.625 782.86 791.192 782.86 785.374 788.678Z" fill="#423a55" fill-rule="evenodd" opacity="1" stroke="none"/>
<path d="M216.516 219.805C210.698 225.624 210.698 235.057 216.516 240.875C222.334 246.693 231.767 246.692 237.585 240.874C243.403 235.056 243.403 225.623 237.585 219.805C231.767 213.987 222.334 213.987 216.516 219.805Z" fill="#423a55" fill-rule="evenodd" opacity="1" stroke="none"/>
<path d="M611.759 888.935C603.811 891.064 599.094 899.234 601.224 907.181C603.353 915.129 611.522 919.846 619.47 917.716C627.418 915.587 632.134 907.418 630.005 899.47C627.875 891.522 619.706 886.806 611.759 888.935Z" fill="#423a55" fill-rule="evenodd" opacity="1" stroke="none"/>
<path d="M403.53 111.855C395.582 113.985 390.865 122.154 392.995 130.102C395.124 138.049 403.293 142.766 411.241 140.637C419.189 138.507 423.906 130.338 421.776 122.39C419.647 114.443 411.477 109.726 403.53 111.855Z" fill="#423a55" fill-rule="evenodd" opacity="1" stroke="none"/>
<path d="M392.995 899.483C390.866 907.43 395.583 915.6 403.53 917.729C411.478 919.859 419.647 915.142 421.777 907.194C423.906 899.246 419.189 891.077 411.242 888.948C403.294 886.818 395.125 891.535 392.995 899.483Z" fill="#423a55" fill-rule="evenodd" opacity="1" stroke="none"/>
<path d="M601.226 122.386C599.097 130.333 603.814 138.502 611.761 140.632C619.709 142.761 627.878 138.045 630.008 130.097C632.137 122.149 627.421 113.98 619.473 111.851C611.525 109.721 603.356 114.438 601.226 122.386Z" fill="#423a55" fill-rule="evenodd" opacity="1" stroke="none"/>
<path d="M150.225 306.177C146.111 313.302 148.553 322.414 155.678 326.528C162.804 330.642 171.916 328.201 176.03 321.075C180.144 313.949 177.702 304.838 170.576 300.724C163.451 296.61 154.339 299.051 150.225 306.177Z" fill="#423a55" fill-rule="evenodd" opacity="1" stroke="none"/>
<path d="M846.932 708.441C842.818 715.567 845.259 724.678 852.385 728.792C859.511 732.906 868.622 730.465 872.736 723.339C876.85 716.213 874.409 707.102 867.283 702.988C860.158 698.874 851.046 701.315 846.932 708.441Z" fill="#423a55" fill-rule="evenodd" opacity="1" stroke="none"/>
<path d="M155.678 702.992C148.552 707.106 146.111 716.217 150.225 723.343C154.339 730.469 163.45 732.91 170.576 728.796C177.702 724.682 180.143 715.571 176.029 708.445C171.915 701.319 162.803 698.878 155.678 702.992Z" fill="#423a55" fill-rule="evenodd" opacity="1" stroke="none"/>
<path d="M302.906 153.516C295.78 157.63 293.339 166.742 297.453 173.868C301.567 180.993 310.678 183.435 317.804 179.321C324.93 175.207 327.371 166.095 323.257 158.97C319.143 151.844 310.031 149.402 302.906 153.516Z" fill="#423a55" fill-rule="evenodd" opacity="1" stroke="none"/>
<path d="M705.15 850.233C698.024 854.347 695.582 863.458 699.697 870.584C703.811 877.71 712.922 880.151 720.048 876.037C727.174 871.923 729.615 862.812 725.501 855.686C721.387 848.56 712.275 846.119 705.15 850.233Z" fill="#423a55" fill-rule="evenodd" opacity="1" stroke="none"/>
<path d="M779.65 216.808L913.734 246.604L883.938 112.52L779.65 216.808Z" fill="#423a55" fill-rule="evenodd" opacity="1" stroke="none"/>
<path d="M511.483 470.077C486.798 470.077 466.788 490.088 466.788 514.772C466.788 539.456 486.798 559.466 511.483 559.466C536.167 559.466 556.177 539.456 556.177 514.772C556.177 490.088 536.167 470.077 511.483 470.077ZM529.599 473.906L632.247 242.373M543.082 546.371L677.478 680.768" fill="none" fill-rule="evenodd" opacity="1" stroke="#423a55" stroke-linecap="round" stroke-linejoin="round" stroke-width="30"/>
</g>
</svg>
