<?xml version="1.0" encoding="UTF-8" standalone="no"?>
<!DOCTYPE svg PUBLIC "-//W3C//DTD SVG 1.1//EN" "http://www.w3.org/Graphics/SVG/1.1/DTD/svg11.dtd">
<!-- Created with Vectornator (http://vectornator.io/) -->
<svg height="100%" stroke-miterlimit="10" style="fill-rule:nonzero;clip-rule:evenodd;stroke-linecap:round;stroke-linejoin:round;" version="1.1" viewBox="0 0 1024 1024" width="100%" xml:space="preserve" xmlns="http://www.w3.org/2000/svg" xmlns:vectornator="http://vectornator.io" xmlns:xlink="http://www.w3.org/1999/xlink">
<defs/>
<g id="Layer-1" vectornator:layerName="Layer 1">
<path d="M926.927 727.684L725.887 796.018C731.829 786.114 735.791 775.221 734.8 762.346C732.819 734.616 708.061 713.819 679.341 713.819L535.741 713.819C480.281 633.601 328.759 633.601 328.759 633.601L207.936 633.601L207.936 875.246L493.156 964.377C493.156 964.377 579.316 989.135 640.717 964.377C693.206 943.579 904.149 832.661 970.502 797.008C983.377 790.086 1001.21 770.279 991.3 747.491C982.387 728.674 966.541 715.8 926.927 727.684" fill="#f7ebde" fill-rule="evenodd" opacity="1" stroke="none"/>
<path d="M306.971 634.592L207.936 634.592L207.936 875.246L305.149 905.629C306.08 898.251 306.971 891.705 306.971 885.149L306.971 634.592" fill="#d2c8bd" fill-rule="evenodd" opacity="1" stroke="none"/>
<path d="M681.322 849.497L471.368 849.497C454.532 849.497 441.658 836.622 441.658 819.786C441.658 802.95 454.532 790.076 471.368 790.076L681.322 790.076C694.196 790.076 705.09 780.172 705.09 767.298C705.09 750.462 717.964 737.588 734.8 737.588C751.636 737.588 764.511 750.462 764.511 767.298C764.511 812.854 726.877 849.497 681.322 849.497Z" fill="#423a55" fill-rule="evenodd" opacity="1" stroke="none"/>
<path d="M574.364 1004.98C526.828 1004.98 487.214 993.097 484.243 993.097L199.023 903.966C186.149 900.004 178.226 888.12 178.226 875.245L178.226 634.592C178.226 617.756 191.1 604.881 207.936 604.881L328.758 604.881C335.691 604.881 481.272 605.872 549.606 685.099L679.341 685.099C722.916 685.099 760.549 717.781 764.511 760.365C766.491 778.192 761.539 796.018 751.636 811.863C744.704 822.757 731.829 828.699 718.955 825.728L718.955 825.728C710.042 823.748 702.119 816.815 698.157 807.902C694.196 798.989 696.177 789.085 701.128 780.172C703.109 777.201 705.09 772.25 705.09 765.317C704.099 753.433 692.215 744.52 679.341 744.52L535.741 744.52C525.837 744.52 516.924 739.568 510.982 731.645C472.359 676.186 366.392 664.302 328.759 664.302L237.647 664.302L237.647 854.448L502.069 936.647C502.069 936.647 578.326 958.435 629.824 937.637C670.428 920.801 824.922 840.583 956.638 771.259C957.628 770.269 965.551 764.327 963.57 760.365C961.589 755.414 959.609 750.462 935.84 756.404L821.951 795.028C806.105 799.979 789.269 792.056 784.317 776.211C779.366 760.365 787.289 743.53 803.134 738.578L918.014 699.954L919.004 699.954C984.367 682.128 1009.13 715.8 1018.04 737.587C1033.89 774.23 1012.1 809.883 983.377 824.738C901.178 868.313 703.109 972.299 651.611 993.097C626.853 1002.01 599.123 1004.98 574.364 1004.98Z" fill="#423a55" fill-rule="evenodd" opacity="1" stroke="none"/>
<path d="M178.226 914.859C195.062 914.859 207.936 901.985 207.936 885.149L207.936 627.659C207.936 610.823 194.072 596.958 176.245 596.958L34.6261 596.958C30.6647 596.958 34.6261 915.85 34.6261 915.85L178.226 915.85L178.226 914.859Z" fill="#c7d7e2" fill-rule="evenodd" opacity="1" stroke="none"/>
<path d="M178.226 944.57L33.6358 944.57C16.7999 944.57 3.92537 931.695 3.92537 914.859C3.92537 898.023 16.7999 885.149 33.6358 885.149L177.236 885.149L177.236 627.659C177.236 626.669 176.245 626.669 175.255 626.669L34.6261 626.669C17.7902 626.669 4.91571 613.794 4.91571 596.958C4.91571 580.123 17.7902 567.248 34.6261 567.248L176.245 567.248C209.917 567.248 237.647 594.978 237.647 627.659L237.647 885.149C237.647 918.821 210.907 944.57 178.226 944.57Z" fill="#423a55" fill-rule="evenodd" opacity="1" stroke="none"/>
</g>
</svg>
