<?xml version="1.0" encoding="UTF-8" standalone="no"?>
<!DOCTYPE svg PUBLIC "-//W3C//DTD SVG 1.1//EN" "http://www.w3.org/Graphics/SVG/1.1/DTD/svg11.dtd">
<!-- Created with Vectornator (http://vectornator.io/) -->
<svg height="100%" stroke-miterlimit="10" style="fill-rule:nonzero;clip-rule:evenodd;stroke-linecap:round;stroke-linejoin:round;" version="1.1" viewBox="0 0 1024 1024" width="100%" xml:space="preserve" xmlns="http://www.w3.org/2000/svg" xmlns:vectornator="http://vectornator.io" xmlns:xlink="http://www.w3.org/1999/xlink">
<defs/>
<g id="Layer-1" vectornator:layerName="Layer 1">
<g opacity="1">
<path d="M324.865 223.732C324.865 111.277 416.038 20.1042 528.493 20.1042C640.949 20.1042 732.121 111.277 732.121 223.732C732.121 325.555 631.098 372.663 631.098 462.441C619.819 462.441 471.364 462.543 426.943 462.543C426.943 372.663 324.865 325.555 324.865 223.732Z" fill="#f9e3ae" fill-rule="evenodd" opacity="1" stroke="none"/>
<path d="M529.02 598.544L529.02 598.544C585.401 598.544 631.098 552.847 631.098 496.467L631.098 462.441L426.943 462.441L426.943 496.467C426.943 552.847 472.64 598.544 529.02 598.544Z" fill="#c2cde7" fill-rule="evenodd" opacity="1" stroke="none"/>
<path d="M650.799 121.876L650.799 121.876C636.355 136.32 613.524 138.701 596.851 126.911C577.541 113.216 553.978 105.169 528.51 105.169C504.199 105.169 481.639 112.519 462.789 125.108C446.116 136.252 423.863 133.717 409.675 119.545L409.607 119.477C390.773 100.643 393.478 68.9994 415.629 54.1982C447.869 32.6257 486.709 20.1042 528.51 20.1042C571.944 20.1042 612.231 33.7146 645.27 56.9032C666.876 72.0788 669.479 103.195 650.799 121.876Z" fill="#faefde" fill-rule="evenodd" opacity="1" stroke="none"/>
<path d="M715.993 743.324L649.982 759.487L369.779 602.968C372.501 603.988 375.224 605.349 377.946 606.54L538.037 682.078C553.859 689.563 571.383 692.796 588.906 691.605L626.164 688.883C652.194 687.011 675.502 699.941 688.262 720.357C688.942 721.378 689.453 722.398 689.963 723.419C695.237 733.967 705.104 741.453 715.993 743.324Z" fill="#cda1a7" fill-rule="evenodd" opacity="1" stroke="none"/>
<path d="M410.117 785.687L495.93 820.036C538.786 837.185 586.779 836.181 628.886 817.263L679.075 794.703C691.29 789.208 699.15 777.061 699.15 763.672L699.15 756.73C699.15 717.226 665.617 686.025 626.215 688.849L588.94 691.537C571.451 692.796 553.91 689.529 538.054 682.044L377.946 606.489C343.392 590.174 304.943 583.896 266.987 588.37L65.69 612.018C48.558 614.043 35.6452 628.555 35.6452 645.823L35.6452 861.207C35.6452 883.341 56.435 899.588 77.9224 894.212L189.578 866.328C222.056 858.213 256.371 862.364 285.974 877.948L500.115 990.726C539.534 1011.48 586.626 1011.64 626.181 991.135L988.608 803.21C1009.36 792.441 1022.4 771.004 1022.4 747.629L1022.4 747.509C1022.4 706.559 983.725 676.634 944.068 686.909L699.15 750.402" fill="#faefde" fill-rule="evenodd" opacity="1" stroke="none"/>
<path d="M673.443 898.567L626.181 923.066C586.626 943.584 539.534 943.43 500.115 922.658L285.974 809.879C256.354 794.278 222.039 790.144 189.578 798.259L35.6452 836.725L35.6452 861.207C35.6452 883.341 56.435 899.588 77.9224 894.212L189.578 866.328C222.056 858.213 256.371 862.364 285.974 877.948L500.115 990.726C539.534 1011.48 586.626 1011.64 626.181 991.135L746.99 928.493L741.121 918.353C727.476 894.722 697.67 886.012 673.443 898.567Z" fill="#efd8be" fill-rule="evenodd" opacity="1" stroke="none"/>
<path d="M377.946 674.541L538.054 750.095C553.91 757.581 571.451 760.848 588.94 759.589L626.215 756.901C652.228 755.029 675.519 768.044 688.33 788.494C688.891 789.378 689.435 790.382 689.98 791.471C697.398 806.408 713.628 814.694 729.773 810.508C809.683 789.787 1018.57 735.634 1020.92 735.022C1013.99 700.758 979.523 677.705 944.068 686.892L699.15 750.402L698.486 750.487C695.118 714.045 663.474 686.178 626.215 688.866L588.94 691.554C571.451 692.813 553.91 689.546 538.054 682.061L377.946 606.506C343.392 590.191 304.943 583.913 266.987 588.387L65.69 612.018C48.558 614.043 35.6452 628.555 35.6452 645.823L35.6452 683.609L266.987 656.405C304.943 651.948 343.375 658.226 377.946 674.541Z" fill="#fff7f0" fill-rule="evenodd" opacity="1" stroke="none"/>
<path d="M715.993 743.324L916.065 694.157C851.075 711 772.306 731.415 729.773 742.474C725.18 743.665 720.416 743.835 715.993 743.324Z" fill="#fff7f0" fill-rule="evenodd" opacity="1" stroke="none"/>
<g opacity="1">
<path d="M120.71 649.583L86.684 649.583C77.2929 649.583 69.6711 657.188 69.6711 666.596C69.6711 676.004 77.2929 683.609 86.684 683.609L120.71 683.609C130.101 683.609 137.723 676.004 137.723 666.596C137.723 657.188 130.101 649.583 120.71 649.583ZM120.71 734.648L86.684 734.648C77.2929 734.648 69.6711 742.252 69.6711 751.661C69.6711 761.069 77.2929 768.674 86.684 768.674L120.71 768.674C130.101 768.674 137.723 761.069 137.723 751.661C137.723 742.252 130.101 734.648 120.71 734.648ZM120.71 819.712L86.684 819.712C77.2929 819.712 69.6711 827.317 69.6711 836.725C69.6711 846.133 77.2929 853.738 86.684 853.738L120.71 853.738C130.101 853.738 137.723 846.133 137.723 836.725C137.723 827.317 130.101 819.712 120.71 819.712Z" fill="#423a55" fill-rule="evenodd" opacity="1" stroke="none"/>
<path d="M991.517 684.545C971.884 669.352 946.824 664.231 922.802 670.441L694.675 729.595C690.201 716.308 682.46 704.178 672.031 694.48C654.797 678.454 631.438 670.203 607.978 671.921L570.702 674.592C556.139 675.562 541.508 672.908 528.306 666.664L368.18 591.127C330.701 573.433 289.121 566.628 247.984 571.494L46.6866 595.125C20.9971 598.17 1.61932 619.963 1.61932 645.806L1.61932 861.207C1.61932 877.029 8.76475 891.677 21.2352 901.409C33.7057 911.157 49.6809 914.611 65.0265 910.715L176.682 882.83C205.128 875.719 235.088 879.343 261.033 892.987L475.175 1005.77C497.495 1017.52 521.994 1023.39 546.527 1023.39C570.719 1023.39 594.912 1017.67 617.011 1006.21L979.438 818.3C1005.94 804.537 1022.4 777.469 1022.4 747.492C1022.4 722.688 1011.13 699.737 991.517 684.545ZM963.769 788.119L601.342 976.027C566.721 993.942 525.499 993.823 491.031 975.67L276.889 862.891C254.704 851.203 230.256 845.249 205.604 845.249C193.185 845.249 180.715 846.763 168.448 849.842L56.8093 877.726C51.7224 879.019 46.3634 877.88 42.1952 874.613C38.027 871.364 35.6452 866.481 35.6452 861.207L35.6452 645.806C35.6452 637.181 42.1101 629.916 50.6676 628.912L251.965 605.247C286.79 601.147 321.956 606.898 353.668 621.869L513.777 697.406C532.236 706.134 552.788 710.03 573.152 708.482L610.427 705.811C624.735 704.926 638.363 709.605 648.86 719.353C659.357 729.135 665.124 742.389 665.124 756.73L665.124 763.672C665.124 770.375 661.194 776.448 655.086 779.188L604.898 801.747C567.197 818.658 523.576 819.576 485.246 804.231L399.433 769.881C390.654 766.377 380.804 770.63 377.316 779.375C373.811 788.102 378.065 798.004 386.792 801.492L472.606 835.841C519.442 854.606 572.761 853.466 618.849 832.795L669.02 810.236C687.326 802.019 699.15 783.747 699.15 763.672L931.325 703.361C945.072 699.839 959.431 702.748 970.676 711.459C981.922 720.17 988.37 733.304 988.37 747.629C988.37 764.727 978.945 780.242 963.769 788.119ZM512.008 394.389C512.008 403.797 519.629 411.402 529.02 411.402C538.412 411.402 546.033 403.797 546.033 394.389L546.033 299.355L609.1 236.288C615.752 229.636 615.752 218.883 609.1 212.231C602.448 205.579 591.696 205.579 585.044 212.231L516.992 280.283C513.794 283.465 512.008 287.786 512.008 292.311L512.008 394.389Z" fill="#423a55" fill-rule="evenodd" opacity="1" stroke="none"/>
<path d="M409.93 462.543L409.93 479.556L409.93 496.467C409.93 562.119 463.351 615.557 529.02 615.557C594.69 615.557 648.111 562.119 648.111 496.467L648.111 479.454L648.111 462.441C648.111 424.383 669.973 393.487 693.127 360.788C719.378 323.683 749.151 281.661 749.151 223.715C749.134 102.056 650.17 3.09128 528.493 3.09128C406.817 3.09128 307.852 102.056 307.852 223.732C307.852 281.678 337.931 323.751 364.454 360.856C387.847 393.555 409.93 424.468 409.93 462.543ZM614.085 496.467C614.085 543.371 575.925 581.531 529.02 581.531C482.116 581.531 443.956 543.371 443.956 496.467L443.956 479.539L614.085 479.454L614.085 496.467ZM528.493 37.1172C631.387 37.1172 715.108 120.838 715.108 223.732C715.108 270.841 690.933 304.986 665.345 341.138C643.143 372.493 620.295 404.784 615.14 445.428L442.85 445.428C437.627 404.716 414.54 372.408 392.117 341.053C366.292 304.918 341.878 270.773 341.878 223.732C341.878 120.838 425.599 37.1172 528.493 37.1172Z" fill="#423a55" fill-rule="evenodd" opacity="1" stroke="none"/>
<path d="M482.966 270.314C486.284 273.631 490.639 275.298 494.995 275.298C499.35 275.298 503.705 273.631 507.023 270.314C513.675 263.661 513.675 252.909 507.023 246.257L472.997 212.231C466.345 205.579 455.593 205.579 448.941 212.231C442.288 218.883 442.288 229.636 448.941 236.288L482.966 270.314Z" fill="#423a55" fill-rule="evenodd" opacity="1" stroke="none"/>
</g>
</g>
</g>
</svg>
