<?xml version="1.0" encoding="UTF-8" standalone="no"?>
<!DOCTYPE svg PUBLIC "-//W3C//DTD SVG 1.1//EN" "http://www.w3.org/Graphics/SVG/1.1/DTD/svg11.dtd">
<!-- Created with Vectornator (http://vectornator.io/) -->
<svg height="100%" stroke-miterlimit="10" style="fill-rule:nonzero;clip-rule:evenodd;stroke-linecap:round;stroke-linejoin:round;" version="1.1" viewBox="0 0 1024 1024" width="100%" xml:space="preserve" xmlns="http://www.w3.org/2000/svg" xmlns:vectornator="http://vectornator.io" xmlns:xlink="http://www.w3.org/1999/xlink">
<defs/>
<g id="Layer-1" vectornator:layerName="Layer 1">
<path d="M421.775 919.445L155.256 919.445C103.949 919.445 61.9611 877.473 61.9611 826.151L61.9611 106.524C61.9611 55.2174 103.933 13.2291 155.256 13.2291L874.899 13.2291C926.205 13.2291 968.194 55.2011 968.194 106.524L968.194 826.167C968.194 877.473 926.222 919.462 874.899 919.462L821.585 919.462" fill="#e7e1fb" fill-rule="evenodd" opacity="1" stroke="none"/>
<path d="M401.784 552.958L135.265 552.958L135.265 259.774L894.873 259.774L894.873 552.958L774.946 552.958" fill="#c4b0ff" fill-rule="evenodd" opacity="1" stroke="none"/>
<path d="M175.246 59.8846C160.529 59.8846 148.598 71.8156 148.598 86.5332C148.598 101.251 160.529 113.182 175.246 113.182C189.964 113.182 201.895 101.251 201.895 86.5332C201.895 71.8156 189.964 59.8846 175.246 59.8846Z" fill="#ef5390" fill-rule="evenodd" opacity="1" stroke="none"/>
<path d="M268.525 59.8846C253.807 59.8846 241.876 71.8156 241.876 86.5332C241.876 101.251 253.807 113.182 268.525 113.182C283.242 113.182 295.173 101.251 295.173 86.5332C295.173 71.8156 283.242 59.8846 268.525 59.8846Z" fill="#f9e65c" fill-rule="evenodd" opacity="1" stroke="none"/>
<path d="M361.819 59.8846C347.102 59.8846 335.171 71.8156 335.171 86.5332C335.171 101.251 347.102 113.182 361.819 113.182C376.537 113.182 388.468 101.251 388.468 86.5332C388.468 71.8156 376.537 59.8846 361.819 59.8846Z" fill="#60be92" fill-rule="evenodd" opacity="1" stroke="none"/>
<path d="M501.737 376.388L876.221 725.904L695.229 741.505L798.217 969.316L729.564 1000.52L629.709 769.59L501.769 891.295L501.769 376.388L501.737 376.388Z" fill="#8f9eb6" fill-rule="evenodd" opacity="1" stroke="none"/>
<path d="M522.543 415.765L840.075 713.926L684.899 731.338C681.113 731.763 678.828 735.712 680.33 739.204L778.52 966.003L760.847 973.82L522.543 415.765Z" fill="#7783ad" fill-rule="evenodd" opacity="1" stroke="none"/>
<g opacity="1">
<path d="M878.718 4.46593L151.421 4.46593C90.9922 4.46593 41.8236 53.6345 41.8236 114.063L41.8236 841.344C41.8236 901.788 90.9922 950.957 151.421 950.957L417.156 950.957C426.164 950.957 433.475 943.646 433.475 934.638C433.475 925.63 426.164 918.319 417.156 918.319L151.421 918.319C108.992 918.319 74.4613 883.789 74.4613 841.36L74.4613 836.725L180.534 836.725C185.038 836.725 188.693 833.07 188.693 828.566C188.693 824.062 185.038 820.407 180.534 820.407L74.4613 820.407L74.4613 167.654L653.779 167.654C658.283 167.654 661.938 163.999 661.938 159.495C661.938 154.991 658.283 151.335 653.779 151.335L74.4613 151.335L74.4613 114.063C74.4613 71.6341 108.992 37.1036 151.421 37.1036L878.701 37.1036C921.147 37.1036 955.677 71.6341 955.677 114.063L955.677 151.335L849.605 151.335C845.101 151.335 841.445 154.991 841.445 159.495C841.445 163.999 845.101 167.654 849.605 167.654L955.677 167.654L955.677 820.407L816.967 820.407C812.463 820.407 808.808 824.062 808.808 828.566C808.808 833.07 812.463 836.725 816.967 836.725L955.677 836.725L955.677 841.36C955.677 883.789 921.147 918.319 878.718 918.319L825.127 918.319C816.119 918.319 808.808 925.63 808.808 934.638C808.808 943.646 816.119 950.957 825.127 950.957L878.718 950.957C939.146 950.957 988.315 901.788 988.315 841.36L988.315 114.063C988.315 53.6345 939.146 4.46593 878.718 4.46593Z" fill="#423a55" fill-rule="evenodd" opacity="1" stroke="none"/>
<path d="M768.011 167.654C772.515 167.654 776.17 163.999 776.17 159.495C776.17 154.991 772.515 151.335 768.011 151.335L702.736 151.335C698.232 151.335 694.576 154.991 694.576 159.495C694.576 163.999 698.232 167.654 702.736 167.654L768.011 167.654ZM213.171 836.725L425.316 836.725C429.82 836.725 433.475 833.07 433.475 828.566C433.475 824.062 429.82 820.407 425.316 820.407L213.171 820.407C208.667 820.407 205.012 824.062 205.012 828.566C205.012 833.07 208.667 836.725 213.171 836.725ZM139.737 86.06C139.737 104.06 154.374 118.698 172.374 118.698C190.374 118.698 205.012 104.06 205.012 86.06C205.012 68.0603 190.374 53.4224 172.374 53.4224C154.374 53.4224 139.737 68.0603 139.737 86.06ZM188.693 86.06C188.693 95.0517 181.366 102.379 172.374 102.379C163.382 102.379 156.055 95.0517 156.055 86.06C156.055 77.0683 163.382 69.7412 172.374 69.7412C181.366 69.7412 188.693 77.0683 188.693 86.06ZM237.649 86.06C237.649 104.06 252.287 118.698 270.287 118.698C288.287 118.698 302.925 104.06 302.925 86.06C302.925 68.0603 288.287 53.4224 270.287 53.4224C252.287 53.4224 237.649 68.0603 237.649 86.06ZM286.606 86.06C286.606 95.0517 279.279 102.379 270.287 102.379C261.295 102.379 253.968 95.0517 253.968 86.06C253.968 77.0683 261.295 69.7412 270.287 69.7412C279.279 69.7412 286.606 77.0683 286.606 86.06ZM335.562 86.06C335.562 104.06 350.2 118.698 368.2 118.698C386.2 118.698 400.837 104.06 400.837 86.06C400.837 68.0603 386.2 53.4224 368.2 53.4224C350.2 53.4224 335.562 68.0603 335.562 86.06ZM384.519 86.06C384.519 95.0517 377.192 102.379 368.2 102.379C359.208 102.379 351.881 95.0517 351.881 86.06C351.881 77.0683 359.208 69.7412 368.2 69.7412C377.192 69.7412 384.519 77.0683 384.519 86.06ZM716.606 759.26L874.638 745.634C881.067 745.079 886.551 740.803 888.656 734.7C890.761 728.613 889.08 721.841 884.364 717.451L509.88 367.935C505.131 363.496 498.196 362.321 492.239 364.9C486.283 367.494 482.432 373.369 482.432 379.864L482.432 894.771C482.432 901.299 486.315 907.19 492.321 909.768C498.31 912.347 505.262 911.106 509.994 906.602L620.995 801.02L711.58 1010.49C713.31 1014.5 716.606 1017.65 720.686 1019.23C722.579 1019.95 724.57 1020.33 726.561 1020.33C728.862 1020.33 731.179 1019.84 733.317 1018.86L801.97 987.658C810.162 983.937 813.801 974.293 810.097 966.085L716.606 759.26ZM734.949 982.256L641.687 766.587C639.565 761.691 635.192 758.134 629.97 757.073C628.893 756.861 627.8 756.747 626.706 756.747C622.561 756.747 618.53 758.33 615.462 761.234L515.069 856.716L515.069 431.235L562.687 538.091C564.042 541.126 567.028 542.921 570.145 542.921C571.255 542.921 572.381 542.693 573.458 542.22C577.57 540.392 579.431 535.562 577.587 531.449L535.109 436.131L835.261 716.276L690.823 728.744C685.552 729.201 680.819 732.171 678.143 736.74C675.467 741.309 675.173 746.89 677.36 751.721L773.624 964.681L734.949 982.256Z" fill="#423a55" fill-rule="evenodd" opacity="1" stroke="none"/>
<path d="M587.003 559.42C585.224 555.275 580.41 553.365 576.281 555.128C572.136 556.907 570.21 561.704 571.989 565.849L575.171 573.291C576.51 576.375 579.512 578.235 582.678 578.235C583.755 578.235 584.832 578.023 585.893 577.583C590.038 575.804 591.963 571.006 590.185 566.861L587.003 559.42Z" fill="#423a55" fill-rule="evenodd" opacity="1" stroke="none"/>
<path d="M123.418 257.408L123.418 551.146C123.418 555.65 127.073 559.306 131.577 559.306L392.678 559.306C397.182 559.306 400.837 555.65 400.837 551.146C400.837 546.642 397.182 542.987 392.678 542.987L139.737 542.987L139.737 265.567L890.402 265.567L890.402 542.987L784.33 542.987C779.826 542.987 776.17 546.642 776.17 551.146C776.17 555.65 779.826 559.306 784.33 559.306L898.561 559.306C903.065 559.306 906.721 555.65 906.721 551.146L906.721 257.408C906.721 252.904 903.065 249.248 898.561 249.248L131.577 249.248C127.073 249.248 123.418 252.904 123.418 257.408Z" fill="#423a55" fill-rule="evenodd" opacity="1" stroke="none"/>
</g>
</g>
</svg>
