<?xml version="1.0" encoding="UTF-8" standalone="no"?>
<!DOCTYPE svg PUBLIC "-//W3C//DTD SVG 1.1//EN" "http://www.w3.org/Graphics/SVG/1.1/DTD/svg11.dtd">
<!-- Created with Vectornator (http://vectornator.io/) -->
<svg height="100%" stroke-miterlimit="10" style="fill-rule:nonzero;clip-rule:evenodd;stroke-linecap:round;stroke-linejoin:round;" version="1.1" viewBox="0 0 1024 1024" width="100%" xml:space="preserve" xmlns="http://www.w3.org/2000/svg" xmlns:vectornator="http://vectornator.io" xmlns:xlink="http://www.w3.org/1999/xlink">
<defs>
<filter color-interpolation-filters="sRGB" filterUnits="userSpaceOnUse" height="129.856" id="Filter" width="137.151" x="435.739" y="150.119">
<feDropShadow dx="-0.0324749" dy="5.99991" flood-color="#000000" flood-opacity="0.48232" in="SourceGraphic" result="Shadow" stdDeviation="1.5"/>
</filter>
<filter color-interpolation-filters="sRGB" filterUnits="userSpaceOnUse" height="170.326" id="Filter_2" width="184.591" x="441.969" y="486.747">
<feDropShadow dx="-0.0324749" dy="5.99991" flood-color="#000000" flood-opacity="0.48232" in="SourceGraphic" result="Shadow" stdDeviation="1.5"/>
</filter>
<filter color-interpolation-filters="sRGB" filterUnits="userSpaceOnUse" height="187.495" id="Filter_3" width="173.986" x="407.118" y="835.474">
<feDropShadow dx="-0.0324749" dy="5.99991" flood-color="#000000" flood-opacity="0.48232" in="SourceGraphic" result="Shadow" stdDeviation="1.5"/>
</filter>
</defs>
<g id="Layer-1" vectornator:layerName="Layer 1">
<g opacity="1">
<path d="M336.09 301.235L294.93 268.307L336.09 235.378M377.251 78.9694L377.251 317.699C377.251 322.227 380.955 325.931 385.483 325.931L615.98 325.931C620.508 325.931 624.212 322.227 624.212 317.699L624.212 78.9694L377.251 78.9694ZM541.892 128.362L459.571 128.362C455.043 128.362 451.339 124.657 451.339 120.13C451.339 115.602 455.043 111.898 459.571 111.898L541.892 111.898C546.419 111.898 550.124 115.602 550.124 120.13C550.124 124.657 546.419 128.362 541.892 128.362ZM492.499 4.88087L492.499 62.5053L380.79 62.5053L412.978 8.91458C414.459 6.36264 417.176 4.88087 420.057 4.88087L492.499 4.88087ZM620.672 62.5053L508.963 62.5053L508.963 4.88087L581.406 4.88087C584.287 4.88087 587.003 6.36264 588.485 8.91458L620.672 62.5053Z" fill="#83be6c" fill-rule="evenodd" opacity="1" stroke="none"/>
<path d="M311.394 268.307L360.786 268.307" fill="none" fill-rule="evenodd" opacity="1" stroke="#83be6c" stroke-linecap="butt" stroke-linejoin="miter" stroke-width="10"/>
<path d="M665.373 153.058L706.533 120.13L665.373 87.2014" fill="#83be6c" fill-rule="evenodd" opacity="1" stroke="none"/>
<path d="M690.069 120.13L640.676 120.13M640.676 268.307L673.605 268.307" fill="none" fill-rule="evenodd" opacity="1" stroke="#83be6c" stroke-linecap="butt" stroke-linejoin="miter" stroke-width="10"/>
<path d="M665.373 268.307L698.301 268.307" fill="none" fill-rule="evenodd" opacity="1" stroke="#83be6c" stroke-linecap="round" stroke-linejoin="miter" stroke-width="10"/>
<path d="M360.786 120.13L327.858 120.13" fill="none" fill-rule="evenodd" opacity="1" stroke="#83be6c" stroke-linecap="butt" stroke-linejoin="miter" stroke-width="10"/>
<path d="M336.09 120.13L303.162 120.13" fill="none" fill-rule="evenodd" opacity="1" stroke="#83be6c" stroke-linecap="round" stroke-linejoin="miter" stroke-width="10"/>
</g>
<g opacity="1">
<path d="M665.373 647.522L706.533 614.593L665.373 581.665M624.212 425.256L624.212 663.986C624.212 668.513 620.508 672.218 615.98 672.218L385.483 672.218C380.955 672.218 377.251 668.513 377.251 663.986L377.251 425.256L624.212 425.256ZM459.571 474.648L541.892 474.648C546.419 474.648 550.124 470.944 550.124 466.416C550.124 461.889 546.419 458.184 541.892 458.184L459.571 458.184C455.043 458.184 451.339 461.889 451.339 466.416C451.339 470.944 455.043 474.648 459.571 474.648ZM508.963 351.168L508.963 408.792L620.672 408.792L588.485 355.201C587.003 352.649 584.287 351.168 581.406 351.168L508.963 351.168ZM380.79 408.792L492.499 408.792L492.499 351.168L420.057 351.168C417.176 351.168 414.459 352.649 412.978 355.201L380.79 408.792Z" fill="#f7567c" fill-rule="evenodd" opacity="1" stroke="none"/>
<path d="M690.069 614.593L640.676 614.593" fill="#f7567c" fill-rule="evenodd" opacity="1" stroke="#f7567c" stroke-linecap="butt" stroke-linejoin="miter" stroke-width="10"/>
<path d="M336.09 499.345L294.93 466.416L336.09 433.488" fill="#f7567c" fill-rule="evenodd" opacity="1" stroke="none"/>
<path d="M311.394 466.416L360.786 466.416M360.786 614.593L327.858 614.593" fill="#f7567c" fill-rule="evenodd" opacity="1" stroke="#f7567c" stroke-linecap="butt" stroke-linejoin="miter" stroke-width="10"/>
<path d="M336.09 614.593L303.162 614.593" fill="#f7567c" fill-rule="evenodd" opacity="1" stroke="#f7567c" stroke-linecap="round" stroke-linejoin="miter" stroke-width="10"/>
<path d="M640.676 466.416L673.605 466.416" fill="#f7567c" fill-rule="evenodd" opacity="1" stroke="#f7567c" stroke-linecap="butt" stroke-linejoin="miter" stroke-width="10"/>
<path d="M665.373 466.416L698.301 466.416" fill="#f7567c" fill-rule="evenodd" opacity="1" stroke="#f7567c" stroke-linecap="round" stroke-linejoin="miter" stroke-width="10"/>
</g>
<g opacity="1">
<path d="M665.373 993.808L706.533 960.88L665.373 927.952M624.212 771.543L624.212 1010.27C624.212 1014.8 620.508 1018.5 615.98 1018.5L385.483 1018.5C380.955 1018.5 377.251 1014.8 377.251 1010.27L377.251 771.543L624.212 771.543ZM459.571 820.935L541.892 820.935C546.419 820.935 550.124 817.231 550.124 812.703C550.124 808.175 546.419 804.471 541.892 804.471L459.571 804.471C455.043 804.471 451.339 808.175 451.339 812.703C451.339 817.231 455.043 820.935 459.571 820.935ZM508.963 697.454L508.963 755.079L620.672 755.079L588.485 701.488C587.003 698.936 584.287 697.454 581.406 697.454L508.963 697.454ZM380.79 755.079L492.499 755.079L492.499 697.454L420.057 697.454C417.176 697.454 414.459 698.936 412.978 701.488L380.79 755.079Z" fill="#f7567c" fill-rule="evenodd" opacity="1" stroke="none"/>
<path d="M690.069 960.88L640.676 960.88" fill="#f7567c" fill-rule="evenodd" opacity="1" stroke="#f7567c" stroke-linecap="butt" stroke-linejoin="miter" stroke-width="10"/>
<path d="M336.09 845.631L294.93 812.703L336.09 779.775" fill="#f7567c" fill-rule="evenodd" opacity="1" stroke="none"/>
<path d="M311.394 812.703L360.786 812.703M360.786 960.88L327.858 960.88" fill="#f7567c" fill-rule="evenodd" opacity="1" stroke="#f7567c" stroke-linecap="butt" stroke-linejoin="miter" stroke-width="10"/>
<path d="M336.09 960.88L303.162 960.88" fill="#f7567c" fill-rule="evenodd" opacity="1" stroke="#f7567c" stroke-linecap="round" stroke-linejoin="miter" stroke-width="10"/>
<path d="M640.676 812.703L673.605 812.703" fill="#f7567c" fill-rule="evenodd" opacity="1" stroke="#f7567c" stroke-linecap="butt" stroke-linejoin="miter" stroke-width="10"/>
<path d="M665.373 812.703L698.301 812.703" fill="#f7567c" fill-rule="evenodd" opacity="1" stroke="#f7567c" stroke-linecap="round" stroke-linejoin="miter" stroke-width="10"/>
</g>
<g filter="url(#Filter)" vectornator:shadowAngle="1.57621" vectornator:shadowColor="#000000" vectornator:shadowOffset="6" vectornator:shadowOpacity="0.48232" vectornator:shadowRadius="3">
<g opacity="1">
<path d="M461.649 266.627C475.864 264.923 490.106 263.822 504.335 263.843C515.24 263.86 526.149 264.558 537.052 265.65C541.162 266.061 545.272 266.528 549.38 267.036C552.184 267.383 554.986 267.749 557.788 268.127C562.976 268.83 567.19 266.261 567.19 262.133L567.19 249.985L567.19 237.838C567.19 235.277 565.576 232.607 563.104 230.77C561.594 229.648 559.764 228.837 557.788 228.551C540.005 225.983 522.15 224.5 504.334 224.527C486.516 224.554 468.671 226.153 450.892 228.658C448.919 228.936 447.091 229.731 445.583 230.836C443.116 232.642 441.503 235.278 441.503 237.839L441.503 249.986L441.503 262.134C441.503 266.262 445.696 268.748 450.892 268.025C454.476 267.526 458.062 267.058 461.649 266.627Z" fill="#ffa233" fill-rule="evenodd" opacity="1" stroke="none"/>
<path d="M504.334 224.528C522.15 224.501 540.005 225.983 557.789 228.551C559.764 228.837 561.595 229.648 563.104 230.77C560.965 203.759 540.618 181.873 514.335 177.388C511.758 179.903 508.233 181.454 504.347 181.454C502.64 181.454 501.004 181.155 499.486 180.606C497.548 179.905 495.805 178.799 494.36 177.387C468.055 181.876 447.696 203.794 445.583 230.836C447.091 229.731 448.919 228.937 450.893 228.658C468.672 226.153 486.517 224.554 504.334 224.528Z" fill="#ffe67b" fill-rule="evenodd" opacity="1" stroke="none"/>
<path d="M504.347 181.454C508.234 181.454 511.758 179.903 514.336 177.388C516.997 174.791 518.648 171.165 518.648 167.152C518.648 159.254 512.245 152.851 504.347 152.851C496.449 152.851 490.047 159.254 490.047 167.152C490.047 171.165 491.698 174.791 494.36 177.387C495.805 178.799 497.548 179.905 499.486 180.606C501.004 181.155 502.641 181.454 504.347 181.454Z" fill="#7ba9d6" fill-rule="evenodd" opacity="1" stroke="none"/>
</g>
<g opacity="1">
<path d="M565.726 229.419C564.428 216.208 558.794 203.594 549.786 193.784C541.58 184.847 530.82 178.495 519.128 175.602C520.558 173.11 521.381 170.226 521.381 167.152C521.381 157.76 513.74 150.119 504.347 150.119C494.955 150.119 487.314 157.76 487.314 167.152C487.314 170.226 488.137 173.11 489.567 175.602C477.863 178.497 467.096 184.857 458.886 193.807C449.89 203.615 444.264 216.218 442.966 229.418C440.404 231.657 438.771 234.7 438.771 237.839L438.771 262.133C438.771 267.202 443.129 270.882 449.132 270.882C449.832 270.882 450.552 270.831 451.27 270.731C471.639 267.896 488.372 266.575 503.928 266.575L504.33 266.576C515.501 266.592 526.599 267.351 536.78 268.368C536.803 268.37 536.825 268.373 536.847 268.374C541.101 268.8 545.196 269.269 549.067 269.749C549.094 269.753 549.12 269.757 549.147 269.759C552.038 270.118 554.806 270.481 557.422 270.836C558.109 270.929 558.798 270.975 559.47 270.975C565.527 270.975 569.923 267.257 569.923 262.133L569.923 237.839C569.923 234.751 568.275 231.692 565.726 229.419ZM504.347 155.584C510.727 155.584 515.916 160.773 515.916 167.152C515.916 173.531 510.727 178.721 504.347 178.721C497.968 178.721 492.779 173.531 492.779 167.152C492.779 160.773 497.969 155.584 504.347 155.584ZM493.547 180.313C493.747 180.478 493.95 180.638 494.157 180.793C491.008 183.057 486.596 186.767 483.062 191.809C482.196 193.045 482.496 194.75 483.732 195.616C484.209 195.95 484.756 196.111 485.297 196.111C486.158 196.111 487.006 195.705 487.537 194.946C491.756 188.927 497.574 184.97 499.833 183.574C501.271 183.97 502.784 184.186 504.347 184.186C508.443 184.186 512.205 182.732 515.147 180.314C538.274 184.805 555.976 203.182 559.793 226.184C559.264 226.041 558.725 225.926 558.179 225.847C539.299 223.121 521.841 221.796 504.808 221.796L504.33 221.796C487.79 221.821 470.185 223.181 450.511 225.954C449.959 226.031 449.415 226.144 448.883 226.284C452.665 203.232 470.379 184.812 493.547 180.313ZM564.458 262.134C564.458 264.454 561.872 265.511 559.47 265.511C559.042 265.511 558.6 265.481 558.156 265.421C556.433 265.187 554.643 264.95 552.799 264.712C553.484 261.016 553.83 255.544 553.853 248.146C553.857 246.637 552.638 245.41 551.128 245.405C551.126 245.405 551.123 245.405 551.12 245.405C549.615 245.405 548.392 246.623 548.388 248.129C548.361 256.858 547.858 261.541 547.365 264.037C545.11 263.766 542.786 263.502 540.406 263.248C540.944 259.78 540.942 255.819 540.941 254.245L540.941 254.102C540.941 252.593 539.718 251.37 538.209 251.37C536.7 251.37 535.476 252.593 535.476 254.102L535.476 254.248C535.479 258.338 535.25 260.986 534.963 262.701C525.287 261.787 514.857 261.127 504.339 261.112L503.929 261.111C491.67 261.111 478.713 261.915 463.9 263.614C463.45 260.238 463.223 255.313 463.226 248.902L463.226 248.676C463.226 247.167 462.002 245.943 460.493 245.943C458.984 245.943 457.761 247.167 457.761 248.676L457.761 248.9C457.76 251.568 457.758 258.793 458.476 264.266C455.882 264.591 453.232 264.942 450.517 265.319C450.048 265.384 449.582 265.417 449.133 265.417C446.696 265.417 444.237 264.402 444.237 262.134L444.237 237.839C444.237 236.241 445.387 234.364 447.215 233.028C447.23 233.017 447.245 233.006 447.26 232.994C448.383 232.185 449.757 231.579 451.275 231.365C470.696 228.628 488.054 227.285 504.339 227.261L504.808 227.261C521.577 227.261 538.78 228.567 557.399 231.256C558.893 231.472 560.246 232.07 561.359 232.869C561.439 232.935 561.521 232.997 561.607 233.054C563.361 234.404 564.458 236.257 564.458 237.839L564.458 262.134L564.458 262.134L564.458 262.134Z" fill="#000003" fill-rule="evenodd" opacity="1" stroke="none"/>
<path d="M480.663 202.858C480.977 202.974 481.298 203.03 481.614 203.03C482.724 203.03 483.767 202.349 484.176 201.247L484.237 201.086C484.778 199.678 484.075 198.097 482.666 197.556C481.258 197.015 479.677 197.718 479.135 199.127L479.053 199.345C478.527 200.76 479.248 202.333 480.663 202.858Z" fill="#000003" fill-rule="evenodd" opacity="1" stroke="none"/>
<path d="M550.935 237.135C549.426 237.18 548.24 238.438 548.285 239.947L548.29 240.135C548.335 241.616 549.548 242.786 551.02 242.786C551.048 242.786 551.075 242.786 551.103 242.785C552.612 242.74 553.798 241.481 553.753 239.972L553.747 239.784C553.702 238.276 552.454 237.086 550.935 237.135Z" fill="#000003" fill-rule="evenodd" opacity="1" stroke="none"/>
</g>
</g>
<g filter="url(#Filter_2)" vectornator:shadowAngle="1.57621" vectornator:shadowColor="#000000" vectornator:shadowOffset="6" vectornator:shadowOpacity="0.48232" vectornator:shadowRadius="3">
<g opacity="1">
<path d="M452.271 504.758L543.105 504.758L543.105 641.509L452.271 641.509L452.271 504.758Z" fill="#46adf7" fill-rule="evenodd" opacity="1" stroke="none"/>
<path d="M551.165 514.674L548.708 514.674L548.708 508.385L551.165 508.385C553.174 508.385 554.802 506.757 554.802 504.749C554.802 502.74 553.174 501.112 551.165 501.112L450.138 501.112C448.129 501.112 446.501 502.74 446.501 504.749L446.501 518.311L446.501 642.937C446.501 644.946 448.129 646.574 450.138 646.574L469.729 646.574L551.166 646.574C553.175 646.574 554.802 644.946 554.802 642.937L554.802 518.311C554.802 516.303 553.174 514.674 551.165 514.674ZM466.091 639.301L453.774 639.301L453.774 521.947L466.092 521.947L466.092 639.301L466.091 639.301ZM533.628 544.488L487.265 544.488C485.257 544.488 483.629 542.86 483.629 540.851C483.629 538.843 485.257 537.215 487.265 537.215L533.628 537.215C535.637 537.215 537.265 538.843 537.265 540.851C537.265 542.86 535.637 544.488 533.628 544.488ZM541.435 514.674L469.728 514.674L453.774 514.674L453.774 508.385L541.435 508.385C541.435 508.385 541.435 514.674 541.435 514.674Z" fill="#94d0ac" fill-rule="evenodd" opacity="1" stroke="#000000" stroke-linecap="round" stroke-linejoin="round" stroke-width="3"/>
</g>
<g opacity="1">
<path d="M494.729 612.095C494.729 609.904 496.432 608.127 498.533 608.127C500.633 608.127 502.336 609.904 502.336 612.095C502.336 614.287 500.633 616.064 498.533 616.064C496.432 616.064 494.729 614.287 494.729 612.095Z" fill="#ffff63" fill-rule="evenodd" opacity="1" stroke="none"/>
<path d="M583.196 523.163L587.741 527.299L578.081 537.122L573.209 533.009L583.196 523.163Z" fill="#ffff63" fill-rule="evenodd" opacity="1" stroke="none"/>
<path d="M567.868 530.715L581.278 542.701L575.235 550.625L559.788 535.235L567.868 530.715Z" fill="#e7e1fb" fill-rule="evenodd" opacity="1" stroke="none"/>
<path d="M509.731 587.09L523.004 600.731L505.053 612.703L498.812 604.44L509.731 587.09Z" fill="#e7e1fb" fill-rule="evenodd" opacity="1" stroke="none"/>
<path d="M559.738 538.253L573.405 550.848L523.885 602.309L508.438 586.918L559.738 538.253Z" fill="#c4b0ff" fill-rule="evenodd" opacity="1" stroke="none"/>
<path d="M590.189 526.345L584.329 520.484C583.722 519.877 582.738 519.877 582.131 520.484L571.51 531.105L568.214 527.809C567.923 527.517 567.527 527.354 567.115 527.354C566.703 527.354 566.308 527.517 566.016 527.809L559.678 534.146C558.421 533.314 556.943 532.866 555.394 532.866C553.314 532.866 551.362 533.672 549.9 535.135L528.844 556.19C528.237 556.797 528.237 557.781 528.844 558.388C529.147 558.692 529.545 558.843 529.943 558.843C530.341 558.843 530.738 558.692 531.042 558.388L552.098 537.332C552.973 536.457 554.144 535.974 555.394 535.974C556.101 535.974 556.781 536.134 557.398 536.427L507.789 586.037C507.782 586.043 507.777 586.049 507.772 586.055C507.75 586.078 507.73 586.1 507.709 586.124C507.694 586.143 507.678 586.161 507.664 586.179C507.648 586.199 507.634 586.219 507.62 586.239C507.602 586.264 507.585 586.289 507.569 586.314C507.565 586.321 507.559 586.328 507.555 586.336L496.567 604.649C496.2 605.261 496.296 606.044 496.801 606.548L497.225 606.972L494.603 609.594C492.817 611.38 492.817 614.285 494.603 616.071C495.496 616.964 496.668 617.41 497.841 617.41C499.014 617.41 500.187 616.964 501.079 616.071L503.701 613.448L504.126 613.873C504.425 614.173 504.823 614.328 505.225 614.328C505.5 614.328 505.776 614.256 506.024 614.107L524.338 603.119C524.344 603.115 524.35 603.11 524.356 603.107C524.384 603.089 524.412 603.07 524.44 603.051C524.457 603.038 524.474 603.026 524.491 603.013C524.512 602.996 524.533 602.979 524.554 602.96C524.575 602.942 524.595 602.925 524.614 602.906C524.622 602.899 524.63 602.893 524.637 602.885C524.641 602.881 582.865 544.657 582.865 544.657C583.472 544.05 583.472 543.066 582.865 542.46L579.568 539.163L590.189 528.542C590.796 527.935 590.796 526.951 590.189 526.345ZM498.882 613.873C498.604 614.151 498.234 614.304 497.841 614.304C497.448 614.304 497.079 614.151 496.8 613.873C496.523 613.595 496.369 613.226 496.369 612.833C496.369 612.439 496.523 612.07 496.8 611.792L499.423 609.17L501.504 611.251L498.882 613.873ZM523.538 599.589L521.707 597.758C521.1 597.151 520.116 597.151 519.51 597.758C518.903 598.365 518.903 599.348 519.51 599.955L521.032 601.478L505.466 610.818L499.856 605.208L509.196 589.642L515.114 595.56C515.418 595.864 515.815 596.015 516.213 596.015C516.61 596.015 517.008 595.864 517.312 595.56C517.919 594.953 517.919 593.969 517.312 593.363L511.085 587.136L559.789 538.431L572.242 550.885L523.538 599.589ZM579.569 543.559L574.44 548.687L561.987 536.233L567.115 531.105L570.409 534.399C570.414 534.404 576.27 540.26 576.27 540.26C576.274 540.264 579.569 543.559 579.569 543.559ZM577.371 536.965L573.708 533.303L583.23 523.781L586.893 527.444L577.371 536.965Z" fill="#000000" fill-rule="evenodd" opacity="1" stroke="none"/>
</g>
</g>
<g filter="url(#Filter_3)" vectornator:shadowAngle="1.57621" vectornator:shadowColor="#000000" vectornator:shadowOffset="6" vectornator:shadowOpacity="0.48232" vectornator:shadowRadius="3">
<g opacity="1">
<path d="M500.6 968.669L556.258 968.669L556.258 968.669L556.258 996.499L556.258 996.499L500.6 996.499L500.6 996.499L500.6 968.669L500.6 968.669Z" fill="#2f88ff" fill-rule="evenodd" opacity="1" stroke="#000000" stroke-linecap="round" stroke-linejoin="round" stroke-width="4"/>
<path d="M576.136 837.474L480.722 837.474C480.722 837.474 480.722 869.279 484.697 905.059C488.673 940.84 500.6 968.669 500.6 968.669L556.258 968.669C556.258 968.669 568.185 940.84 572.161 905.059C576.136 869.279 576.136 837.474 576.136 837.474Z" fill="#e0e4e9" fill-rule="evenodd" opacity="1" stroke="#000000" stroke-linecap="round" stroke-linejoin="round" stroke-width="4"/>
<path d="M515.083 908.592C520.773 901.116 525.159 890.788 527.53 885.181C531.68 890.788 540.69 904.854 543.535 912.33C547.091 921.675 538.2 932.889 527.53 932.889C516.861 932.889 507.97 917.937 515.083 908.592Z" fill="#2f88ff" fill-rule="evenodd" opacity="1" stroke="#000000" stroke-linecap="round" stroke-linejoin="round" stroke-width="4"/>
<path d="M484.697 861.328L572.161 861.328" fill="none" fill-rule="evenodd" opacity="1" stroke="#000000" stroke-linecap="round" stroke-linejoin="round" stroke-width="4"/>
</g>
<g opacity="1">
<path d="M439.682 940.621L508.37 940.621L508.37 997.93L439.682 997.93L439.682 940.621Z" fill="#d5edf7" fill-rule="evenodd" opacity="1" stroke="none"/>
<g opacity="1">
<path d="M498.394 899.771L498.394 910.153L477.631 910.148L477.631 920.535L493.203 920.535L493.203 930.916C504.675 930.916 513.967 940.208 513.967 951.679L513.967 993.206C513.967 998.942 509.321 1003.59 503.585 1003.59L441.295 1003.59C435.559 1003.59 430.914 998.942 430.914 993.206L430.914 951.679C430.914 940.208 440.205 930.916 451.677 930.916L451.677 920.535L467.249 920.535L467.249 910.148L449.082 910.153C445.811 910.153 441.97 912.696 437.662 918.458L429.356 912.229C435.43 904.132 441.97 899.771 449.082 899.771L498.394 899.771ZM493.203 941.298L451.677 941.298C445.941 941.298 441.295 945.944 441.295 951.679L441.295 993.206L503.585 993.206L503.585 951.679C503.585 945.944 498.939 941.298 493.203 941.298ZM477.631 951.679L477.631 962.061L488.013 962.061L488.013 972.443L477.626 972.443L477.631 982.824L467.249 982.824L467.244 972.443L456.868 972.443L456.868 962.061L467.249 962.061L467.249 951.679L477.631 951.679Z" fill="#000000" fill-rule="evenodd" opacity="1" stroke="none"/>
</g>
</g>
</g>
</g>
</svg>
