<?xml version="1.0" encoding="UTF-8" standalone="no"?>
<!DOCTYPE svg PUBLIC "-//W3C//DTD SVG 1.1//EN" "http://www.w3.org/Graphics/SVG/1.1/DTD/svg11.dtd">
<!-- Created with Vectornator (http://vectornator.io/) -->
<svg height="100%" stroke-miterlimit="10" style="fill-rule:nonzero;clip-rule:evenodd;stroke-linecap:round;stroke-linejoin:round;" version="1.1" viewBox="0 0 1024 1024" width="100%" xml:space="preserve" xmlns="http://www.w3.org/2000/svg" xmlns:vectornator="http://vectornator.io" xmlns:xlink="http://www.w3.org/1999/xlink">
<defs/>
<g id="Layer-1" vectornator:layerName="Layer 1">
<g opacity="1">
<path d="M835.787 419.776C835.787 242.246 690.535 96.9934 513.004 96.9934C335.474 96.9934 190.222 242.246 190.222 419.776C190.222 535.056 250.167 634.196 340.085 691.836C360.835 717.198 374.669 749.476 374.669 781.754L374.669 788.671L651.34 788.671L651.34 786.365C651.34 751.782 662.868 719.503 683.618 694.142C775.842 636.502 835.787 535.056 835.787 419.776Z" fill="#fbc02d" fill-rule="evenodd" opacity="1" stroke="none"/>
<path d="M559.116 973.118L466.893 973.118C416.17 973.118 374.669 931.618 374.669 880.895L374.669 765.615L651.34 765.615L651.34 880.895C651.34 931.618 609.839 973.118 559.116 973.118" fill="#9fa8da" fill-rule="evenodd" opacity="1" stroke="none"/>
<path d="M577.561 970.813C570.644 998.48 542.977 1019.23 513.004 1019.23C483.032 1019.23 455.365 998.48 448.448 970.813C453.059 973.118 459.976 973.118 466.893 973.118L559.116 973.118C566.033 973.118 572.95 973.118 577.561 970.813ZM651.34 880.895L383.891 917.784C390.808 933.923 404.642 950.062 420.781 959.285L637.506 929.312C646.729 915.479 651.34 899.339 651.34 880.895M374.669 827.866L374.669 873.978L651.34 834.783L651.34 788.671L374.669 827.866Z" fill="#5c6bc0" fill-rule="evenodd" opacity="1" stroke="none"/>
<path d="M665.173 378.276L596.006 332.164C589.089 327.553 577.561 327.553 570.644 332.164L513.004 369.053L457.67 332.164C450.753 327.553 439.225 327.553 432.309 332.164L363.141 378.276C358.53 382.887 353.919 387.498 353.919 394.415C353.919 401.332 353.919 408.248 358.53 412.86L446.142 521.222L446.142 765.615L492.254 765.615L492.254 512C492.254 507.389 489.948 502.778 487.643 498.166L411.558 403.637L446.142 380.581L501.476 417.471C508.393 422.082 519.921 422.082 526.838 417.471L582.172 380.581L616.756 403.637L540.672 498.166C538.366 502.778 536.06 507.389 536.06 512L536.06 765.615L582.172 765.615L582.172 521.222L669.785 412.86C674.396 408.248 676.701 401.332 674.396 394.415C672.09 387.498 669.785 380.581 665.173 378.276Z" fill="#fff59d" fill-rule="evenodd" opacity="1" stroke="none"/>
<path d="M210.972 705.67C201.749 696.447 201.749 682.614 210.972 673.391L210.972 673.391C220.194 664.169 234.028 664.169 243.25 673.391L243.25 673.391C252.472 682.614 252.472 696.447 240.945 705.67L240.945 705.67C236.333 710.281 231.722 712.587 224.805 712.587L224.805 712.587C222.5 712.587 215.583 710.281 210.972 705.67ZM782.759 705.67C773.536 696.447 773.536 682.614 782.759 673.391L782.759 673.391C791.981 664.169 805.815 664.169 815.037 671.086L815.037 671.086C824.259 680.308 824.259 694.142 815.037 703.364L815.037 703.364C810.426 707.975 803.509 710.281 798.898 710.281L798.898 710.281C791.981 712.587 787.37 710.281 782.759 705.67ZM153.332 627.28C146.415 615.752 151.026 601.918 162.554 595.001L162.554 595.001C174.082 588.085 187.916 592.696 194.833 604.224L194.833 604.224C201.749 615.752 197.138 629.585 185.61 636.502L185.61 636.502C180.999 638.808 178.694 638.808 174.082 638.808L174.082 638.808C164.86 638.808 157.943 634.196 153.332 627.28ZM840.398 636.502C828.871 629.585 826.565 615.752 831.176 604.224L831.176 604.224C838.093 592.696 851.926 588.085 863.454 595.001L863.454 595.001C874.982 601.918 877.288 615.752 872.677 627.28L872.677 627.28L872.677 627.28L872.677 627.28C868.066 634.196 861.149 638.808 851.926 638.808L851.926 638.808C847.315 638.808 845.01 636.502 840.398 636.502ZM116.443 539.667C111.831 528.139 118.748 514.306 132.582 512L132.582 512C144.11 507.389 157.943 514.306 160.249 528.139L160.249 528.139C162.554 539.667 157.943 553.501 144.11 555.806L144.11 555.806C141.804 555.806 139.499 555.806 137.193 555.806L137.193 555.806C127.971 555.806 118.748 548.889 116.443 539.667ZM881.899 553.501C870.371 548.889 863.454 537.361 865.76 525.834L865.76 525.834C870.371 514.306 881.899 507.389 895.733 509.694L895.733 509.694C907.261 512 914.177 525.834 911.872 537.361L911.872 537.361C909.566 546.584 900.344 553.501 888.816 553.501L888.816 553.501C886.51 555.806 884.205 555.806 881.899 553.501ZM97.9978 445.138C97.9978 445.138 97.9978 442.832 97.9978 445.138L97.9978 445.138C97.9978 442.832 97.9978 442.832 97.9978 445.138L97.9978 445.138L97.9978 445.138L97.9978 445.138C97.9978 431.304 107.22 419.776 121.054 419.776L121.054 419.776C134.887 419.776 144.11 428.999 146.415 440.527L146.415 440.527L146.415 440.527L146.415 440.527L146.415 440.527L146.415 440.527C146.415 452.055 137.193 463.583 125.665 465.888L125.665 465.888C125.665 465.888 125.665 465.888 123.359 465.888L123.359 465.888C109.526 465.888 100.303 456.666 97.9978 445.138ZM902.649 465.888C888.816 465.888 879.594 454.36 879.594 440.527L879.594 440.527C879.594 428.999 891.122 417.471 904.955 419.776L904.955 419.776C916.483 419.776 928.011 431.304 925.705 445.138L925.705 445.138C925.705 456.666 916.483 465.888 902.649 465.888L902.649 465.888L902.649 465.888ZM877.288 355.22C874.982 343.692 884.205 329.858 895.733 327.553L895.733 327.553C907.261 325.247 921.094 334.469 923.4 345.997L923.4 345.997L923.4 345.997L923.4 345.997C925.705 359.831 916.483 371.359 904.955 373.664L904.955 373.664C902.649 373.664 902.649 373.664 900.344 373.664L900.344 373.664C888.816 373.664 877.288 366.748 877.288 355.22ZM123.359 373.664C111.831 371.359 102.609 359.831 104.915 345.997L104.915 345.997C107.22 334.469 118.748 325.247 130.276 327.553L130.276 327.553C144.11 329.858 151.026 341.386 148.721 355.22L148.721 355.22C146.415 366.748 137.193 373.664 125.665 373.664L125.665 373.664C125.665 373.664 123.359 373.664 123.359 373.664ZM851.926 274.524C847.315 262.996 851.926 249.163 863.454 244.551L863.454 244.551C874.982 239.94 888.816 244.551 893.427 256.079L893.427 256.079C898.038 267.607 893.427 281.441 881.899 286.052L881.899 286.052C879.594 286.052 874.982 288.358 872.677 288.358L872.677 288.358C863.454 288.358 856.538 281.441 851.926 274.524ZM144.11 283.746C132.582 279.135 127.971 265.302 132.582 253.774L132.582 253.774C137.193 242.246 151.026 237.635 162.554 242.246L162.554 242.246C174.082 246.857 178.694 260.69 174.082 272.218L174.082 272.218C169.471 281.441 162.554 286.052 153.332 286.052L153.332 286.052C151.026 286.052 146.415 286.052 144.11 283.746ZM808.12 198.439C801.203 189.217 803.509 175.384 812.731 166.161L812.731 166.161C821.954 159.244 838.093 161.55 845.01 170.772L845.01 170.772C851.926 179.995 849.621 196.134 840.398 203.051L840.398 203.051C835.787 205.356 831.176 207.662 826.565 207.662L826.565 207.662C819.648 207.662 812.731 205.356 808.12 198.439ZM185.61 203.051C176.388 196.134 174.082 182.3 180.999 170.772L180.999 170.772C187.916 161.55 204.055 159.244 213.277 166.161L213.277 166.161C222.5 173.078 224.805 189.217 217.889 198.439L217.889 198.439C213.277 205.356 206.361 207.662 199.444 207.662L199.444 207.662C194.833 207.662 190.222 207.662 185.61 203.051ZM750.48 138.494C741.258 129.272 738.952 115.438 748.175 106.216L748.175 106.216C757.397 96.9934 771.231 94.6879 780.453 103.91L780.453 103.91C789.675 113.133 791.981 126.966 782.759 136.189L782.759 136.189C778.147 140.8 771.231 143.105 764.314 143.105L764.314 143.105C759.703 143.105 755.092 140.8 750.48 138.494ZM243.25 133.883C234.028 124.661 236.333 110.827 245.556 101.605L245.556 101.605L245.556 101.605L245.556 101.605C254.778 92.3823 270.917 94.6878 277.834 103.91L277.834 103.91C287.056 113.133 284.751 126.966 275.528 136.189L275.528 136.189C270.917 140.8 266.306 143.105 261.695 143.105L261.695 143.105C254.778 143.105 247.861 138.494 243.25 133.883ZM679.007 90.0767L679.007 90.0767C667.479 85.4655 662.868 69.3263 669.785 60.104L669.785 60.104C676.701 48.576 688.229 43.9648 699.757 50.8816L699.757 50.8816L699.757 50.8816L699.757 50.8816C711.285 57.7984 715.897 71.6319 708.98 80.8543L708.98 80.8543C704.369 90.0767 697.452 94.6878 688.229 94.6878L688.229 94.6878C685.924 92.3823 681.313 92.3823 679.007 90.0767ZM317.029 78.5487C312.418 67.0207 317.029 53.1872 328.557 48.576L328.557 48.576L328.557 48.576L328.557 48.576C340.085 41.6592 353.919 46.2704 358.53 57.7984L358.53 57.7984C365.447 69.3263 358.53 83.1599 349.307 87.7711L349.307 87.7711C347.002 90.0767 342.391 90.0767 337.779 90.0767L337.779 90.0767C328.557 92.3823 321.64 87.7711 317.029 78.5487ZM598.311 60.104C586.783 57.7984 577.561 43.9648 579.867 32.4369L579.867 32.4369C582.172 20.9089 596.006 11.6865 607.534 13.9921L607.534 13.9921L607.534 13.9921L607.534 13.9921C619.062 16.2977 628.284 30.1313 623.673 41.6592L623.673 41.6592C621.367 53.1872 612.145 60.104 600.617 60.104L600.617 60.104C602.922 62.4096 600.617 60.104 598.311 60.104ZM400.03 43.9648C397.725 32.4369 404.642 18.6033 418.475 16.2977L418.475 16.2977C430.003 13.9921 443.837 20.9089 446.142 32.4369L446.142 32.4369C448.448 43.9648 441.531 57.7984 430.003 60.104L430.003 60.104C427.698 60.104 425.392 60.104 425.392 60.104L425.392 60.104C411.558 60.104 402.336 53.1872 400.03 43.9648ZM489.948 27.8257C489.948 13.9921 499.171 4.76976 513.004 4.76976L513.004 4.76976L513.004 4.76976L513.004 4.76976C524.532 4.76976 536.06 13.9921 536.06 27.8257L536.06 27.8257C536.06 39.3536 524.532 50.8816 513.004 50.8816L513.004 50.8816C501.476 50.8816 489.948 39.3536 489.948 27.8257Z" fill="#ffea00" fill-rule="evenodd" opacity="1" stroke="none"/>
</g>
</g>
</svg>
