<?xml version="1.0" encoding="UTF-8" standalone="no"?>
<!DOCTYPE svg PUBLIC "-//W3C//DTD SVG 1.1//EN" "http://www.w3.org/Graphics/SVG/1.1/DTD/svg11.dtd">
<!-- Created with Vectornator (http://vectornator.io/) -->
<svg height="100%" stroke-miterlimit="10" style="fill-rule:nonzero;clip-rule:evenodd;stroke-linecap:round;stroke-linejoin:round;" version="1.1" viewBox="0 0 1024 1024" width="100%" xml:space="preserve" xmlns="http://www.w3.org/2000/svg" xmlns:vectornator="http://vectornator.io" xmlns:xlink="http://www.w3.org/1999/xlink">
<defs>
<filter color-interpolation-filters="sRGB" filterUnits="userSpaceOnUse" height="414.908" id="Filter" width="518.974" x="250.092" y="310.226">
<feDropShadow dx="-0.0541248" dy="9.99985" flood-color="#000000" flood-opacity="0.48232" in="SourceGraphic" result="Shadow" stdDeviation="2.5"/>
</filter>
</defs>
<g id="Layer-1" vectornator:layerName="Layer 1">
<path d="M509.633 20.5497C239.21 20.5497 20.0023 239.757 20.0023 510.18C20.0023 780.604 239.21 999.811 509.633 999.811C780.056 999.811 999.264 780.604 999.264 510.18C999.264 239.757 780.056 20.5497 509.633 20.5497ZM670.869 740.65L460.67 530.451L460.67 216.402L558.596 216.402L558.596 489.91L740.102 671.416L670.869 740.65Z" fill="#ffd4a5" fill-rule="evenodd" opacity="1" stroke="none"/>
<g filter="url(#Filter)" vectornator:shadowAngle="1.57621" vectornator:shadowColor="#000000" vectornator:shadowOffset="10" vectornator:shadowOpacity="0.48232" vectornator:shadowRadius="5">
<path d="M285.442 573.802C285.442 595.555 303.074 613.187 324.827 613.187C331.686 613.187 373.507 613.187 396.126 613.187L406.626 704.075L436.923 704.075C436.923 704.075 436.923 587.708 436.923 585.921C436.923 570.863 424.713 558.654 409.656 558.654C406.317 558.654 389.037 558.654 370.271 558.654C370.271 534.66 370.271 492.003 370.271 492.003C370.271 468.578 351.282 449.588 327.857 449.588C304.432 449.588 285.442 468.578 285.442 492.003C285.442 492.003 285.442 560.145 285.442 573.802ZM733.824 573.802C733.824 595.555 716.192 613.187 694.439 613.187C687.58 613.187 645.759 613.187 623.14 613.187L612.64 704.075L582.344 704.075C582.344 704.075 582.344 587.708 582.344 585.921C582.344 570.863 594.553 558.654 609.61 558.654C612.949 558.654 630.23 558.654 648.995 558.654C648.995 534.66 648.995 492.003 648.995 492.003C648.995 468.578 667.985 449.588 691.41 449.588C714.834 449.588 733.824 468.578 733.824 492.003C733.824 492.003 733.824 560.145 733.824 573.802Z" fill="#a3a3cd" fill-rule="evenodd" opacity="1" stroke="none"/>
<path d="M564.166 467.766C564.166 477.273 564.166 522.299 564.166 522.299L455.1 522.299C455.1 522.299 455.1 497.886 455.1 467.766C455.1 437.646 479.513 413.233 509.633 413.233C539.753 413.233 564.166 437.646 564.166 467.766Z" fill="#6b6aaf" fill-rule="evenodd" opacity="1" stroke="none"/>
<path d="M327.857 352.641C307.778 352.641 291.501 368.918 291.501 388.996C291.501 409.075 307.778 425.351 327.857 425.351C347.935 425.351 364.212 409.075 364.212 388.996C364.212 368.918 347.935 352.641 327.857 352.641ZM691.41 352.641C671.331 352.641 655.054 368.918 655.054 388.996C655.054 409.075 671.331 425.351 691.41 425.351C711.488 425.351 727.765 409.075 727.765 388.996C727.765 368.918 711.488 352.641 691.41 352.641ZM509.633 316.286C489.555 316.286 473.278 332.562 473.278 352.641C473.278 372.719 489.555 388.996 509.633 388.996C529.712 388.996 545.988 372.719 545.988 352.641C545.988 332.562 529.712 316.286 509.633 316.286Z" fill="#ead6c7" fill-rule="evenodd" opacity="1" stroke="none"/>
<path d="M358.153 643.483L321.797 643.483C285.048 643.483 255.146 613.581 255.146 576.832L255.146 498.062C255.146 494.711 257.861 492.003 261.205 492.003C264.55 492.003 267.265 494.711 267.265 498.062L267.265 576.832C267.265 606.904 291.732 631.365 321.797 631.365L358.153 631.365C361.497 631.365 364.212 634.073 364.212 637.424C364.212 640.775 361.497 643.483 358.153 643.483Z" fill="#1f212b" fill-rule="evenodd" opacity="1" stroke="none"/>
<path d="M436.923 710.135L406.626 710.135C403.548 710.135 400.961 707.826 400.61 704.772L390.721 619.246L324.827 619.246C299.766 619.246 279.383 598.863 279.383 573.802L279.383 492.003C279.383 465.276 301.129 443.529 327.857 443.529C354.584 443.529 376.33 465.276 376.33 492.003L376.33 552.595L409.656 552.595C428.034 552.595 442.982 567.549 442.982 585.921L442.982 704.075C442.982 707.426 440.267 710.135 436.923 710.135ZM412.025 698.016L430.863 698.016L430.863 585.921C430.863 574.226 421.35 564.713 409.656 564.713L370.271 564.713C366.926 564.713 364.212 562.005 364.212 558.654L364.212 492.003C364.212 471.953 347.907 455.648 327.857 455.648C307.807 455.648 291.501 471.953 291.501 492.003L291.501 573.802C291.501 592.174 306.449 607.128 324.827 607.128L396.126 607.128C399.204 607.128 401.791 609.436 402.143 612.49L412.025 698.016ZM697.469 643.483L661.113 643.483C657.769 643.483 655.054 640.775 655.054 637.424C655.054 634.073 657.769 631.365 661.113 631.365L697.469 631.365C727.535 631.365 752.002 606.904 752.002 576.832L752.002 498.062C752.002 494.711 754.716 492.003 758.061 492.003C761.406 492.003 764.12 494.711 764.12 498.062L764.12 576.832C764.12 613.581 734.218 643.483 697.469 643.483Z" fill="#1f212b" fill-rule="evenodd" opacity="1" stroke="none"/>
<path d="M612.64 710.135L582.344 710.135C578.999 710.135 576.284 707.426 576.284 704.075L576.284 585.921C576.284 567.549 591.233 552.595 609.61 552.595L642.936 552.595L642.936 492.003C642.936 465.276 664.682 443.529 691.41 443.529C718.137 443.529 739.883 465.276 739.883 492.003L739.883 573.802C739.883 598.863 719.5 619.246 694.439 619.246L628.545 619.246L618.663 704.772C618.305 707.826 615.718 710.135 612.64 710.135ZM588.403 698.016L607.241 698.016L617.124 612.49C617.475 609.436 620.068 607.128 623.14 607.128L694.439 607.128C712.817 607.128 727.765 592.174 727.765 573.802L727.765 492.003C727.765 471.953 711.459 455.648 691.41 455.648C671.36 455.648 655.054 471.953 655.054 492.003L655.054 558.654C655.054 562.005 652.34 564.713 648.995 564.713L609.61 564.713C597.916 564.713 588.403 574.226 588.403 585.921L588.403 698.016ZM327.857 431.411C304.468 431.411 285.442 412.379 285.442 388.996C285.442 365.614 304.468 346.582 327.857 346.582C351.245 346.582 370.271 365.614 370.271 388.996C370.271 412.379 351.245 431.411 327.857 431.411ZM327.857 358.7C311.151 358.7 297.561 372.291 297.561 388.996C297.561 405.701 311.151 419.292 327.857 419.292C344.562 419.292 358.153 405.701 358.153 388.996C358.153 372.291 344.562 358.7 327.857 358.7ZM691.41 431.411C668.021 431.411 648.995 412.379 648.995 388.996C648.995 365.614 668.021 346.582 691.41 346.582C714.798 346.582 733.824 365.614 733.824 388.996C733.824 412.379 714.798 431.411 691.41 431.411ZM691.41 358.7C674.704 358.7 661.113 372.291 661.113 388.996C661.113 405.701 674.704 419.292 691.41 419.292C708.115 419.292 721.706 405.701 721.706 388.996C721.706 372.291 708.115 358.7 691.41 358.7ZM509.633 395.055C486.245 395.055 467.219 376.023 467.219 352.641C467.219 329.258 486.245 310.226 509.633 310.226C533.022 310.226 552.048 329.258 552.048 352.641C552.048 376.023 533.022 395.055 509.633 395.055ZM509.633 322.345C492.928 322.345 479.337 335.936 479.337 352.641C479.337 369.346 492.928 382.937 509.633 382.937C526.338 382.937 539.929 369.346 539.929 352.641C539.929 335.936 526.338 322.345 509.633 322.345Z" fill="#1f212b" fill-rule="evenodd" opacity="1" stroke="none"/>
<path d="M612.64 528.358L406.626 528.358C403.282 528.358 400.567 525.65 400.567 522.299C400.567 518.948 403.282 516.24 406.626 516.24L612.64 516.24C615.984 516.24 618.699 518.948 618.699 522.299C618.699 525.65 615.984 528.358 612.64 528.358Z" fill="#1f212b" fill-rule="evenodd" opacity="1" stroke="none"/>
<path d="M564.166 528.358L455.1 528.358C451.755 528.358 449.041 525.65 449.041 522.299L449.041 467.766C449.041 434.355 476.223 407.174 509.633 407.174C543.044 407.174 570.225 434.355 570.225 467.766L570.225 522.299C570.225 525.65 567.511 528.358 564.166 528.358ZM461.159 516.24L558.107 516.24L558.107 467.766C558.107 441.039 536.36 419.292 509.633 419.292C482.906 419.292 461.159 441.039 461.159 467.766L461.159 516.24Z" fill="#1f212b" fill-rule="evenodd" opacity="1" stroke="none"/>
<path d="M542.959 473.825C541.286 473.825 539.929 472.468 539.929 470.796L539.929 467.766C539.929 466.839 539.869 465.918 539.79 465.015C539.638 463.349 540.862 461.87 542.529 461.719C544.231 461.616 545.673 462.797 545.825 464.458C545.922 465.554 545.988 466.645 545.988 467.766L545.988 470.796C545.988 472.468 544.631 473.825 542.959 473.825ZM476.307 504.121C474.635 504.121 473.278 502.764 473.278 501.092L473.278 467.766C473.278 448.837 487.487 433.277 506.331 431.574C507.997 431.471 509.469 432.653 509.621 434.319C509.772 435.985 508.542 437.464 506.876 437.609C491.177 439.027 479.337 451.988 479.337 467.766L479.337 501.092C479.337 502.764 477.98 504.121 476.307 504.121ZM539.293 455.648C538.19 455.648 537.13 455.042 536.591 453.999C533.706 448.364 529.144 443.82 523.394 440.863C521.903 440.1 521.321 438.27 522.085 436.785C522.848 435.295 524.678 434.707 526.163 435.476C533.052 439.015 538.523 444.468 541.983 451.242C542.741 452.733 542.153 454.557 540.662 455.32C540.226 455.538 539.76 455.648 539.293 455.648ZM373.301 564.713L349.064 564.713C334.031 564.713 321.797 552.48 321.797 537.447L321.797 513.21C321.797 511.538 323.155 510.18 324.827 510.18C326.499 510.18 327.857 511.538 327.857 513.21L327.857 537.447C327.857 549.141 337.37 558.654 349.064 558.654L373.301 558.654C374.973 558.654 376.33 560.011 376.33 561.684C376.33 563.356 374.973 564.713 373.301 564.713ZM324.827 504.121C323.155 504.121 321.797 502.764 321.797 501.092L321.797 488.973C321.797 487.301 323.155 485.944 324.827 485.944C326.499 485.944 327.857 487.301 327.857 488.973L327.857 501.092C327.857 502.764 326.499 504.121 324.827 504.121ZM670.202 564.713L645.965 564.713C644.293 564.713 642.936 563.356 642.936 561.684C642.936 560.011 644.293 558.654 645.965 558.654L670.202 558.654C681.897 558.654 691.41 549.141 691.41 537.447L691.41 513.21C691.41 511.538 692.767 510.18 694.439 510.18C696.111 510.18 697.469 511.538 697.469 513.21L697.469 537.447C697.469 552.48 685.235 564.713 670.202 564.713ZM694.439 504.121C692.767 504.121 691.41 502.764 691.41 501.092L691.41 488.973C691.41 487.301 692.767 485.944 694.439 485.944C696.111 485.944 697.469 487.301 697.469 488.973L697.469 501.092C697.469 502.764 696.111 504.121 694.439 504.121Z" fill="#1f212b" fill-rule="evenodd" opacity="1" stroke="none"/>
</g>
</g>
</svg>
