<?xml version="1.0" encoding="UTF-8" standalone="no"?>
<!DOCTYPE svg PUBLIC "-//W3C//DTD SVG 1.1//EN" "http://www.w3.org/Graphics/SVG/1.1/DTD/svg11.dtd">
<!-- Created with Vectornator (http://vectornator.io/) -->
<svg height="100%" stroke-miterlimit="10" style="fill-rule:nonzero;clip-rule:evenodd;stroke-linecap:round;stroke-linejoin:round;" version="1.1" viewBox="0 0 1024 1024" width="100%" xml:space="preserve" xmlns="http://www.w3.org/2000/svg" xmlns:vectornator="http://vectornator.io" xmlns:xlink="http://www.w3.org/1999/xlink">
<defs>
<linearGradient gradientTransform="matrix(1 0 0 1 0 0)" gradientUnits="userSpaceOnUse" id="LinearGradient" x1="323.993" x2="437.657" y1="304.393" y2="304.393">
<stop offset="0.651179" stop-color="#d0d09d"/>
<stop offset="0.995398" stop-color="#ffff4d"/>
</linearGradient>
<linearGradient gradientTransform="matrix(1 0 0 1 0 0)" gradientUnits="userSpaceOnUse" id="LinearGradient_2" x1="319.622" x2="442.029" y1="304.393" y2="304.393">
<stop offset="0.140854" stop-color="#ffffc1"/>
<stop offset="0.991434" stop-color="#ffff4d"/>
</linearGradient>
<linearGradient gradientTransform="matrix(1 0 0 1 0 0)" gradientUnits="userSpaceOnUse" id="LinearGradient_3" x1="343.666" x2="417.985" y1="304.393" y2="304.393">
<stop offset="0.452344" stop-color="#d0d09d"/>
<stop offset="0.987703" stop-color="#ebeb47"/>
</linearGradient>
<linearGradient gradientTransform="matrix(1 0 0 1 100.394 78.9349)" gradientUnits="userSpaceOnUse" id="LinearGradient_4" x1="323.993" x2="437.657" y1="304.393" y2="304.393">
<stop offset="0.651179" stop-color="#d0d09d"/>
<stop offset="0.995398" stop-color="#ffff4d"/>
</linearGradient>
<linearGradient gradientTransform="matrix(1 0 0 1 100.394 78.9349)" gradientUnits="userSpaceOnUse" id="LinearGradient_5" x1="319.622" x2="442.029" y1="304.393" y2="304.393">
<stop offset="0.140854" stop-color="#ffffc1"/>
<stop offset="0.991434" stop-color="#ffff4d"/>
</linearGradient>
<linearGradient gradientTransform="matrix(1 0 0 1 100.394 78.9349)" gradientUnits="userSpaceOnUse" id="LinearGradient_6" x1="343.666" x2="417.985" y1="304.393" y2="304.393">
<stop offset="0.452344" stop-color="#d0d09d"/>
<stop offset="0.987703" stop-color="#ebeb47"/>
</linearGradient>
</defs>
<g id="Layer-1" vectornator:layerName="Layer 1">
<path d="M184.296 798.507L525.993 251.792L867.69 798.507L184.296 798.507Z" fill="none" fill-rule="evenodd" opacity="1" stroke="#423a55" stroke-linecap="round" stroke-linejoin="round" stroke-width="15"/>
<g opacity="1">
<path d="M384.938 874.157L384.938 673.135C384.938 668.087 380.849 663.998 375.801 663.998L247.878 663.998C242.829 663.998 238.74 659.909 238.74 654.861L238.74 645.723C238.74 630.583 226.469 618.311 211.328 618.311L87.9742 618.311C72.8336 618.311 60.5622 630.583 60.5622 645.723L60.5622 874.157L384.938 874.157Z" fill="#b7b2c7" fill-rule="evenodd" opacity="1" stroke="none"/>
<path d="M61.0967 872.48L106.249 695.979L430.625 695.979L383.444 880.402C381.635 887.479 375.261 892.432 367.956 892.432L76.5891 892.432C66.1497 892.432 58.5108 882.591 61.0967 872.48Z" fill="#e7e1fb" fill-rule="evenodd" opacity="1" stroke="none"/>
<path d="M60.5622 878.726C58.0403 878.726 55.9935 876.684 55.9935 874.157L55.9935 645.723C55.9935 628.093 70.3391 613.743 87.9742 613.743L211.328 613.743C228.963 613.743 243.309 628.093 243.309 645.723L243.309 654.861C243.309 657.383 245.36 659.429 247.878 659.429L375.801 659.429C383.357 659.429 389.507 665.579 389.507 673.135L389.507 695.979C389.507 698.505 387.46 700.548 384.938 700.548C382.416 700.548 380.369 698.505 380.369 695.979L380.369 673.135C380.369 670.614 378.318 668.567 375.801 668.567L247.878 668.567C240.321 668.567 234.172 662.417 234.172 654.861L234.172 645.723C234.172 633.128 223.924 622.88 211.328 622.88L87.9742 622.88C75.3784 622.88 65.1308 633.128 65.1308 645.723L65.1308 874.157C65.1308 876.684 63.0841 878.726 60.5622 878.726Z" fill="#423a55" fill-rule="evenodd" opacity="1" stroke="none"/>
<path d="M367.956 897L76.5891 897C70.1929 897 64.2719 894.099 60.3475 889.051C56.4275 883.998 55.0843 877.542 56.6697 871.347L101.822 694.846C102.343 692.826 104.161 691.41 106.249 691.41L430.625 691.41C432.036 691.41 433.37 692.063 434.234 693.178C435.097 694.293 435.399 695.746 435.052 697.112L387.871 881.535C385.546 890.641 377.354 897 367.956 897ZM109.794 700.548L65.5238 873.613L65.5238 873.613C64.642 877.054 65.3867 880.64 67.5659 883.445C69.7452 886.25 73.0346 887.863 76.5891 887.863L367.956 887.863C373.178 887.863 377.729 884.331 379.021 879.269L424.74 700.548L109.794 700.548ZM61.0967 872.48L61.1424 872.48L61.0967 872.48Z" fill="#423a55" fill-rule="evenodd" opacity="1" stroke="none"/>
<path d="M158.789 650.292L81.1212 650.292C79.8602 650.292 78.8369 649.269 78.8369 648.008C78.8369 646.747 79.8602 645.723 81.1212 645.723L158.789 645.723C160.05 645.723 161.073 646.747 161.073 648.008C161.073 649.269 160.05 650.292 158.789 650.292Z" fill="#423a55" fill-rule="evenodd" opacity="1" stroke="none"/>
<g opacity="1">
<path d="M304.986 780.499L304.986 862.735L284.427 839.892L263.868 862.735L243.309 839.892L222.75 862.735L202.191 839.892L181.632 862.735L181.632 734.813C181.632 729.764 185.721 725.675 190.769 725.675L295.849 725.675C300.897 725.675 304.986 729.764 304.986 734.813L304.986 753.087L307.27 753.087L307.27 780.499L304.986 780.499Z" fill="#ffffcf" fill-rule="evenodd" opacity="1" stroke="none"/>
<path d="M304.986 865.02C304.351 865.02 303.73 864.755 303.287 864.266L284.427 843.305L265.568 864.266C264.704 865.221 263.037 865.221 262.173 864.266L243.309 843.305L224.45 864.266C223.586 865.221 221.919 865.221 221.055 864.266L202.191 843.305L183.332 864.266C182.701 864.965 181.705 865.207 180.814 864.869C179.928 864.531 179.348 863.681 179.348 862.735L179.348 734.813C179.348 728.512 184.474 723.391 190.769 723.391L295.849 723.391C302.144 723.391 307.27 728.512 307.27 734.813L307.27 753.087C307.27 754.348 306.247 755.372 304.986 755.372C303.725 755.372 302.702 754.348 302.702 753.087L302.702 734.813C302.702 731.034 299.627 727.96 295.849 727.96L190.769 727.96C186.991 727.96 183.916 731.034 183.916 734.813L183.916 856.782L200.491 838.361C201.355 837.407 203.022 837.407 203.886 838.361L222.745 859.323L241.605 838.361C242.468 837.407 244.136 837.407 244.999 838.361L263.859 859.323L282.718 838.361C283.582 837.407 285.249 837.407 286.113 838.361L302.702 856.782L302.702 780.499C302.702 779.238 303.725 778.215 304.986 778.215C306.247 778.215 307.27 779.238 307.27 780.499L307.27 862.735C307.27 863.681 306.69 864.531 305.804 864.869C305.539 864.969 305.26 865.02 304.986 865.02Z" fill="#1f212b" fill-rule="evenodd" opacity="1" stroke="none"/>
<path d="M304.986 773.646C303.725 773.646 302.702 772.623 302.702 771.362L302.702 766.793C302.702 765.532 303.725 764.509 304.986 764.509C306.247 764.509 307.27 765.532 307.27 766.793L307.27 771.362C307.27 772.623 306.247 773.646 304.986 773.646Z" fill="#1f212b" fill-rule="evenodd" opacity="1" stroke="none"/>
<path d="M286.711 755.372L199.907 755.372C198.646 755.372 197.622 754.348 197.622 753.087C197.622 751.826 198.646 750.803 199.907 750.803L286.711 750.803C287.972 750.803 288.996 751.826 288.996 753.087C288.996 754.348 287.972 755.372 286.711 755.372Z" fill="#1f212b" fill-rule="evenodd" opacity="1" stroke="none"/>
<path d="M197.622 785.068C197.622 783.806 198.645 782.784 199.907 782.784C201.168 782.784 202.191 783.806 202.191 785.068C202.191 786.33 201.168 787.352 199.907 787.352C198.645 787.352 197.622 786.33 197.622 785.068Z" fill="#1f212b" fill-rule="evenodd" opacity="1" stroke="none"/>
<path d="M227.319 769.078L199.907 769.078C198.646 769.078 197.622 768.054 197.622 766.793C197.622 765.532 198.646 764.509 199.907 764.509L227.319 764.509C228.58 764.509 229.603 765.532 229.603 766.793C229.603 768.054 228.58 769.078 227.319 769.078Z" fill="#1f212b" fill-rule="evenodd" opacity="1" stroke="none"/>
<path d="M259.299 787.352L209.044 787.352C207.783 787.352 206.76 786.329 206.76 785.068C206.76 783.807 207.783 782.784 209.044 782.784L259.299 782.784C260.56 782.784 261.584 783.807 261.584 785.068C261.584 786.329 260.56 787.352 259.299 787.352Z" fill="#1f212b" fill-rule="evenodd" opacity="1" stroke="none"/>
<path d="M197.622 798.774C197.622 797.512 198.645 796.49 199.907 796.49C201.168 796.49 202.191 797.512 202.191 798.774C202.191 800.036 201.168 801.058 199.907 801.058C198.645 801.058 197.622 800.036 197.622 798.774Z" fill="#1f212b" fill-rule="evenodd" opacity="1" stroke="none"/>
<path d="M259.299 801.058L209.044 801.058C207.783 801.058 206.76 800.035 206.76 798.774C206.76 797.513 207.783 796.49 209.044 796.49L259.299 796.49C260.56 796.49 261.584 797.513 261.584 798.774C261.584 800.035 260.56 801.058 259.299 801.058Z" fill="#1f212b" fill-rule="evenodd" opacity="1" stroke="none"/>
<path d="M197.622 812.48C197.622 811.218 198.645 810.196 199.907 810.196C201.168 810.196 202.191 811.218 202.191 812.48C202.191 813.742 201.168 814.764 199.907 814.764C198.645 814.764 197.622 813.742 197.622 812.48Z" fill="#1f212b" fill-rule="evenodd" opacity="1" stroke="none"/>
<path d="M259.299 814.764L209.044 814.764C207.783 814.764 206.76 813.741 206.76 812.48C206.76 811.219 207.783 810.196 209.044 810.196L259.299 810.196C260.56 810.196 261.584 811.219 261.584 812.48C261.584 813.741 260.56 814.764 259.299 814.764Z" fill="#1f212b" fill-rule="evenodd" opacity="1" stroke="none"/>
<path d="M270.721 808.263C270.721 807.852 270.886 807.445 271.205 807.057C271.53 806.664 271.891 806.472 272.279 806.472C272.503 806.472 272.809 806.628 273.206 806.938C273.599 807.253 273.997 807.596 274.403 807.975C274.81 808.359 275.454 808.706 276.345 809.031C277.231 809.355 278.232 809.542 279.347 809.597L279.347 799.203L277.049 798.418C276.51 798.239 275.824 797.924 274.988 797.481C274.152 797.038 273.526 796.586 273.12 796.133C272.708 795.676 272.334 795.064 271.991 794.297C271.649 793.529 271.484 792.661 271.484 791.697C271.484 790.528 271.708 789.49 272.16 788.595C272.617 787.699 273.229 786.996 274.011 786.471C274.787 785.954 275.619 785.561 276.496 785.287C277.373 785.013 278.323 784.84 279.342 784.766L279.342 783.601C279.342 783.391 279.447 783.204 279.657 783.035C279.881 782.866 280.142 782.784 280.452 782.784C280.736 782.784 280.991 782.866 281.22 783.035C281.444 783.204 281.558 783.391 281.558 783.601L281.558 784.689C283.258 784.766 284.802 785.027 286.186 785.484C287.575 785.941 288.269 786.525 288.269 787.252C288.269 787.613 288.128 788.006 287.84 788.417C287.552 788.828 287.182 789.038 286.725 789.038C286.584 789.038 285.99 788.814 284.948 788.357C283.906 787.901 282.773 787.649 281.558 787.599L281.558 796.499C282.654 796.864 283.564 797.221 284.281 797.577C285.003 797.929 285.761 798.408 286.565 799.021C287.369 799.633 287.977 800.419 288.384 801.364C288.795 802.319 288.996 803.429 288.996 804.709C288.996 806.961 288.329 808.747 286.99 810.049C285.651 811.356 283.842 812.151 281.563 812.434L281.563 813.905C281.563 814.125 281.448 814.326 281.224 814.504C280.991 814.678 280.736 814.764 280.452 814.764C280.142 814.764 279.881 814.678 279.667 814.499C279.456 814.321 279.351 814.125 279.351 813.901L279.351 812.549C276.916 812.521 274.865 812.032 273.206 811.073C271.553 810.109 270.721 809.172 270.721 808.263ZM274.847 791.382C274.847 792.606 275.23 793.525 276.007 794.137C276.775 794.749 277.949 795.32 279.52 795.836L279.52 787.654C276.4 787.937 274.847 789.18 274.847 791.382ZM281.389 809.519C284.221 809.099 285.638 807.601 285.638 805.024C285.638 803.672 285.268 802.612 284.532 801.858C283.792 801.099 282.746 800.46 281.384 799.944L281.389 809.519L281.389 809.519Z" fill="#1f212b" fill-rule="evenodd" opacity="1" stroke="none"/>
</g>
</g>
<g opacity="1">
<path d="M917.007 863.658L715.904 863.658L669.495 910.066L669.495 647.085C669.495 621.561 690.379 600.677 715.904 600.677L917.007 600.677C942.532 600.677 963.416 621.561 963.416 647.085L963.416 817.249C963.416 842.774 942.532 863.658 917.007 863.658Z" fill="#ffffa2" fill-rule="evenodd" opacity="1" stroke="#423a55" stroke-dasharray="5.234600067138672" stroke-linecap="square" stroke-linejoin="round" stroke-width="7"/>
<path d="M889.27 790.843L830.208 731.781L808.334 753.654L867.397 812.717C870.421 815.741 874.373 817.249 878.333 817.249C882.294 817.249 886.246 815.741 889.27 812.717C892.295 809.693 893.803 805.74 893.803 801.78C893.803 797.82 892.295 793.867 889.27 790.843Z" fill="#004d40" fill-rule="evenodd" opacity="1" stroke="#423a55" stroke-dasharray="5.234600067138672" stroke-linecap="square" stroke-linejoin="round" stroke-width="2"/>
<path d="M825.815 738.278L814.831 749.261L759.141 693.494L747.926 693.494L731.373 665.881L742.434 654.82L770.047 671.372L770.047 682.588L825.815 738.278Z" fill="#e0e0e0" fill-rule="evenodd" opacity="1" stroke="#423a55" stroke-dasharray="5.234600067138672" stroke-linecap="square" stroke-linejoin="round" stroke-width="2"/>
<path d="M825.737 738.278L800.058 712.598L789.152 723.504L814.831 749.261L825.737 738.278Z" fill="#bdbdbd" fill-rule="evenodd" opacity="1" stroke="#423a55" stroke-dasharray="5.234600067138672" stroke-linecap="square" stroke-linejoin="round" stroke-width="4"/>
<path d="M909.272 689.626C909.272 713.14 890.245 732.167 866.731 732.167C860.621 732.167 854.897 730.852 849.638 728.609L765.484 812.686C762.467 815.703 758.522 817.249 754.578 817.249C750.633 817.249 746.688 815.703 743.672 812.686C740.616 809.669 739.085 805.725 739.085 801.78C739.085 797.835 740.616 793.891 743.672 790.874L827.748 706.72C825.505 701.46 824.19 695.737 824.19 689.626C824.19 666.113 843.218 647.085 866.731 647.085C872.842 647.085 878.565 648.4 883.825 650.643L847.472 686.996L869.361 708.886L905.714 672.533C907.958 677.792 909.272 683.516 909.272 689.626Z" fill="#e0e0e0" fill-rule="evenodd" opacity="1" stroke="#423a55" stroke-dasharray="5.234600067138672" stroke-linecap="square" stroke-linejoin="miter" stroke-width="2"/>
</g>
<g opacity="1">
<path d="M642.641 378.97L368.48 310.033C358.35 307.484 352.147 297.115 354.696 286.985L388.441 152.775C390.989 142.645 401.359 136.442 411.488 138.991L685.65 207.928C695.779 210.476 701.982 220.846 699.434 230.975L665.689 365.19C663.14 375.315 652.77 381.519 642.641 378.97Z" fill="#83be6c" fill-rule="evenodd" opacity="1" stroke="none"/>
<path d="M647.271 383.919C645.369 383.919 643.459 383.683 641.57 383.21L641.57 383.21L367.409 314.269C361.38 312.752 356.287 308.962 353.078 303.598C349.869 298.234 348.934 291.952 350.451 285.919L384.196 151.704C387.339 139.222 400.069 131.611 412.546 134.746L686.712 203.683C699.202 206.826 706.813 219.548 703.67 232.038L669.92 366.248C668.403 372.277 664.613 377.37 659.249 380.579C655.564 382.791 651.446 383.919 647.271 383.919ZM643.708 374.734C647.476 375.687 651.402 375.092 654.759 373.081C658.126 371.066 660.495 367.888 661.444 364.119L695.193 229.904C696.142 226.14 695.556 222.21 693.541 218.848C691.53 215.482 688.347 213.113 684.579 212.164L410.422 143.227C402.631 141.273 394.653 146.02 392.677 153.841L358.932 288.056C357.983 291.82 358.569 295.751 360.584 299.112C362.595 302.474 365.778 304.848 369.542 305.792L643.708 374.734Z" fill="#423a55" fill-rule="evenodd" opacity="1" stroke="none"/>
<path d="M598.583 212.898L426.112 169.531C423.419 180.22 413.18 186.861 403.235 184.36L382.67 266.145C392.62 268.646 398.504 279.348 395.816 290.041L628.018 348.425C630.706 337.727 640.954 331.087 650.904 333.587L671.468 251.802L671.464 251.802C661.514 249.301 655.629 238.608 658.314 227.911L637.456 222.665" fill="#47673b" fill-rule="evenodd" opacity="1" stroke="none"/>
<path d="M628.013 350.611C627.838 350.611 627.659 350.589 627.48 350.545L395.278 292.161C394.714 292.017 394.233 291.659 393.936 291.16C393.639 290.662 393.547 290.067 393.687 289.503C394.858 284.865 394.277 280.1 392.061 276.074C389.875 272.095 386.347 269.324 382.132 268.266C381.568 268.121 381.088 267.763 380.79 267.265C380.493 266.766 380.401 266.172 380.541 265.608L401.106 183.822C401.398 182.651 402.579 181.951 403.759 182.235C412.494 184.452 421.587 178.498 423.987 168.994C424.275 167.826 425.46 167.118 426.636 167.407L599.108 210.774C600.279 211.067 600.988 212.26 600.695 213.427C600.397 214.595 599.213 215.298 598.041 215.014L427.598 172.159C424.118 182.03 414.527 188.185 404.848 186.896L385.289 264.677C389.761 266.342 393.481 269.582 395.89 273.966C398.299 278.342 399.151 283.405 398.364 288.432L626.518 345.798C628.201 340.997 631.349 336.945 635.537 334.23C639.743 331.502 644.551 330.422 649.273 331.056L668.836 253.275C659.642 249.839 654.147 239.872 655.756 229.524L636.918 224.794C635.747 224.501 635.039 223.307 635.332 222.14C635.629 220.969 636.792 220.265 637.985 220.553L658.842 225.795C660.014 226.088 660.722 227.277 660.429 228.448C658.038 237.957 663.227 247.483 671.992 249.682C672.556 249.826 673.037 250.184 673.335 250.683C673.632 251.181 673.724 251.776 673.584 252.34L653.019 334.125C652.875 334.689 652.517 335.17 652.018 335.467C651.52 335.76 650.917 335.848 650.361 335.716C646.156 334.65 641.727 335.432 637.92 337.898C634.064 340.399 631.296 344.329 630.134 348.963C629.884 349.951 628.997 350.611 628.013 350.611Z" fill="#423a55" fill-rule="evenodd" opacity="1" stroke="none"/>
<path d="M610.242 215.827L606.356 214.853" fill="#423a55" fill-rule="evenodd" opacity="1" stroke="none"/>
<path d="M610.247 218.013C610.072 218.013 609.893 217.991 609.714 217.948L605.823 216.968C604.651 216.676 603.943 215.482 604.236 214.315C604.529 213.148 605.7 212.444 606.889 212.728L610.78 213.707C611.952 214 612.66 215.194 612.367 216.361C612.118 217.353 611.226 218.013 610.247 218.013Z" fill="#423a55" fill-rule="evenodd" opacity="1" stroke="none"/>
<path d="M489.072 251.628C484.068 271.526 496.142 291.714 516.04 296.718C535.938 301.722 556.125 289.648 561.129 269.75C566.134 249.852 554.06 229.665 534.162 224.661C514.264 219.656 494.076 231.73 489.072 251.628Z" fill="#83be6c" fill-rule="evenodd" opacity="1" stroke="none"/>
<path d="M525.086 300.017C521.921 300.017 518.704 299.628 515.499 298.828C494.463 293.538 481.658 272.122 486.944 251.085C492.233 230.053 513.65 217.261 534.687 222.529C544.877 225.091 553.459 231.469 558.849 240.484C564.244 249.498 565.804 260.078 563.242 270.268C558.757 288.096 542.691 300.017 525.086 300.017ZM525.095 225.707C509.449 225.707 495.167 236.304 491.184 252.152C486.48 270.845 497.864 289.884 516.566 294.583C535.255 299.296 554.298 287.903 558.998 269.201C561.275 260.143 559.889 250.74 555.094 242.726C550.302 234.709 542.674 229.043 533.616 226.77C530.77 226.053 527.911 225.707 525.095 225.707Z" fill="#423a55" fill-rule="evenodd" opacity="1" stroke="none"/>
<g opacity="1">
<path d="M444.625 237.819C442.859 244.841 447.12 251.965 454.142 253.731C461.164 255.497 468.288 251.237 470.054 244.214C471.82 237.192 467.56 230.068 460.537 228.302C453.515 226.536 446.391 230.797 444.625 237.819Z" fill="#83be6c" fill-rule="evenodd" opacity="1" stroke="none"/>
<path d="M457.33 256.3C456.101 256.3 454.847 256.152 453.596 255.841C449.636 254.845 446.296 252.366 444.202 248.855C442.108 245.349 441.5 241.236 442.492 237.275C444.547 229.095 452.858 224.107 461.059 226.166C469.238 228.23 474.222 236.558 472.167 244.737L472.167 244.737C470.423 251.666 464.176 256.3 457.33 256.3ZM457.334 230.075C452.442 230.075 447.979 233.388 446.737 238.342C446.025 241.17 446.457 244.108 447.952 246.617C449.452 249.118 451.835 250.893 454.663 251.601C457.487 252.318 460.429 251.885 462.939 250.386C465.444 248.886 467.218 246.504 467.927 243.675C469.396 237.83 465.833 231.885 459.996 230.416C459.109 230.18 458.213 230.075 457.334 230.075ZM470.047 244.2L470.091 244.2L470.047 244.2Z" fill="#423a55" fill-rule="evenodd" opacity="1" stroke="none"/>
</g>
<g opacity="1">
<path d="M584.498 272.776C582.732 279.798 586.994 286.922 594.016 288.687C601.039 290.453 608.162 286.191 609.928 279.169C611.693 272.146 607.431 265.022 600.409 263.257C593.387 261.492 586.263 265.754 584.498 272.776Z" fill="#83be6c" fill-rule="evenodd" opacity="1" stroke="none"/>
<path d="M597.224 291.274C595.995 291.274 594.74 291.125 593.49 290.815C585.311 288.751 580.327 280.428 582.386 272.248C584.441 264.069 592.756 259.081 600.953 261.14C609.132 263.203 614.116 271.531 612.061 279.711L612.061 279.711C610.317 286.64 604.07 291.274 597.224 291.274ZM597.228 265.048C592.336 265.048 587.873 268.362 586.631 273.315C585.158 279.156 588.716 285.101 594.557 286.57C597.385 287.291 600.327 286.85 602.832 285.355C605.337 283.855 607.112 281.473 607.821 278.644C609.289 272.799 605.727 266.854 599.89 265.385C599.003 265.153 598.107 265.048 597.228 265.048ZM609.941 279.173L609.985 279.173L609.941 279.173Z" fill="#423a55" fill-rule="evenodd" opacity="1" stroke="none"/>
</g>
<g opacity="1">
<g opacity="1">
<path d="M380.825 247.561C349.438 247.561 323.993 273.006 323.993 304.393C323.993 335.781 349.438 361.225 380.825 361.225C412.213 361.225 437.657 335.781 437.657 304.393C437.657 273.006 412.213 247.561 380.825 247.561Z" fill="url(#LinearGradient)" fill-rule="evenodd" opacity="1" stroke="none"/>
<path d="M380.825 365.597C347.076 365.597 319.622 338.143 319.622 304.393C319.622 270.644 347.076 243.19 380.825 243.19C414.575 243.19 442.029 270.644 442.029 304.393C442.029 338.143 414.575 365.597 380.825 365.597ZM380.825 251.933C351.898 251.933 328.365 275.466 328.365 304.393C328.365 333.321 351.898 356.854 380.825 356.854C409.753 356.854 433.285 333.321 433.285 304.393C433.285 275.466 409.753 251.933 380.825 251.933Z" fill="url(#LinearGradient_2)" fill-rule="evenodd" opacity="1" stroke="#423a55" stroke-linecap="round" stroke-linejoin="round" stroke-width="1"/>
</g>
<g opacity="1">
<path d="M380.825 267.234C360.303 267.234 343.666 283.871 343.666 304.393C343.666 324.916 360.303 341.553 380.825 341.553C401.348 341.553 417.985 324.916 417.985 304.393C417.985 283.871 401.348 267.234 380.825 267.234Z" fill="url(#LinearGradient_3)" fill-rule="evenodd" opacity="1" stroke="none"/>
<path d="M380.825 343.739C359.129 343.739 341.48 326.09 341.48 304.393C341.48 282.697 359.129 265.048 380.825 265.048C402.522 265.048 420.17 282.697 420.17 304.393C420.17 326.09 402.522 343.739 380.825 343.739ZM380.825 269.42C361.542 269.42 345.852 285.11 345.852 304.393C345.852 323.677 361.542 339.367 380.825 339.367C400.109 339.367 415.799 323.677 415.799 304.393C415.799 285.11 400.109 269.42 380.825 269.42Z" fill="#423a55" fill-rule="evenodd" opacity="1" stroke="none"/>
</g>
</g>
<g opacity="1">
<g opacity="1">
<path d="M481.219 326.496C449.832 326.496 424.387 351.941 424.387 383.328C424.387 414.716 449.832 440.16 481.219 440.16C512.606 440.16 538.051 414.716 538.051 383.328C538.051 351.941 512.606 326.496 481.219 326.496Z" fill="url(#LinearGradient_4)" fill-rule="evenodd" opacity="1" stroke="none"/>
<path d="M481.219 444.532C447.47 444.532 420.015 417.078 420.015 383.328C420.015 349.579 447.47 322.125 481.219 322.125C514.968 322.125 542.423 349.579 542.423 383.328C542.423 417.078 514.968 444.532 481.219 444.532ZM481.219 330.868C452.292 330.868 428.759 354.401 428.759 383.328C428.759 412.256 452.292 435.788 481.219 435.788C510.146 435.788 533.679 412.256 533.679 383.328C533.679 354.401 510.146 330.868 481.219 330.868Z" fill="url(#LinearGradient_5)" fill-rule="evenodd" opacity="1" stroke="#423a55" stroke-linecap="round" stroke-linejoin="round" stroke-width="1"/>
</g>
<g opacity="1">
<path d="M481.219 346.169C460.697 346.169 444.06 362.806 444.06 383.328C444.06 403.851 460.697 420.488 481.219 420.488C501.742 420.488 518.378 403.851 518.378 383.328C518.378 362.806 501.742 346.169 481.219 346.169Z" fill="url(#LinearGradient_6)" fill-rule="evenodd" opacity="1" stroke="none"/>
<path d="M481.219 422.673C459.522 422.673 441.874 405.025 441.874 383.328C441.874 361.632 459.522 343.983 481.219 343.983C502.916 343.983 520.564 361.632 520.564 383.328C520.564 405.025 502.916 422.673 481.219 422.673ZM481.219 348.355C461.936 348.355 446.246 364.045 446.246 383.328C446.246 402.612 461.936 418.302 481.219 418.302C500.503 418.302 516.192 402.612 516.192 383.328C516.192 364.045 500.503 348.355 481.219 348.355Z" fill="#423a55" fill-rule="evenodd" opacity="1" stroke="none"/>
</g>
</g>
</g>
</g>
</svg>
