<?xml version="1.0" encoding="UTF-8" standalone="no"?>
<!DOCTYPE svg PUBLIC "-//W3C//DTD SVG 1.1//EN" "http://www.w3.org/Graphics/SVG/1.1/DTD/svg11.dtd">
<!-- Created with Vectornator (http://vectornator.io/) -->
<svg height="100%" stroke-miterlimit="10" style="fill-rule:nonzero;clip-rule:evenodd;stroke-linecap:round;stroke-linejoin:round;" version="1.1" viewBox="0 0 1024 1024" width="100%" xml:space="preserve" xmlns="http://www.w3.org/2000/svg" xmlns:vectornator="http://vectornator.io" xmlns:xlink="http://www.w3.org/1999/xlink">
<defs/>
<g id="Layer-1" vectornator:layerName="Layer 1">
<path d="M861.516 992.905L8.42155 992.905L8.42155 726.313L861.516 726.313C936.162 726.313 994.812 784.963 994.812 859.609L994.812 859.609C994.812 934.255 936.162 992.905 861.516 992.905Z" fill="#b0bec5" fill-rule="evenodd" opacity="1" stroke="none"/>
<path d="M141.718 779.631C96.3969 779.631 61.74 814.288 61.74 859.609C61.74 904.93 96.3969 939.587 141.718 939.587C187.038 939.587 221.695 904.93 221.695 859.609C221.695 814.288 187.038 779.631 141.718 779.631ZM141.718 886.268C125.722 886.268 115.058 875.605 115.058 859.609C115.058 843.613 125.722 832.95 141.718 832.95C157.713 832.95 168.377 843.613 168.377 859.609C168.377 875.605 157.713 886.268 141.718 886.268ZM381.65 779.631C336.33 779.631 301.673 814.288 301.673 859.609C301.673 904.93 336.33 939.587 381.65 939.587C426.971 939.587 461.628 904.93 461.628 859.609C461.628 814.288 426.971 779.631 381.65 779.631ZM381.65 886.268C365.655 886.268 354.991 875.605 354.991 859.609C354.991 843.613 365.655 832.95 381.65 832.95C397.646 832.95 408.31 843.613 408.31 859.609C408.31 875.605 397.646 886.268 381.65 886.268ZM861.516 779.631C816.196 779.631 781.539 814.288 781.539 859.609C781.539 904.93 816.196 939.587 861.516 939.587C906.837 939.587 941.494 904.93 941.494 859.609C941.494 814.288 906.837 779.631 861.516 779.631ZM861.516 886.268C845.521 886.268 834.857 875.605 834.857 859.609C834.857 843.613 845.521 832.95 861.516 832.95C877.512 832.95 888.175 843.613 888.175 859.609C888.175 875.605 877.512 886.268 861.516 886.268ZM621.583 779.631C576.263 779.631 541.606 814.288 541.606 859.609C541.606 904.93 576.263 939.587 621.583 939.587C666.904 939.587 701.561 904.93 701.561 859.609C701.561 814.288 666.904 779.631 621.583 779.631ZM621.583 886.268C605.588 886.268 594.924 875.605 594.924 859.609C594.924 843.613 605.588 832.95 621.583 832.95C637.579 832.95 648.243 843.613 648.243 859.609C648.243 875.605 637.579 886.268 621.583 886.268Z" fill="#37474f" fill-rule="evenodd" opacity="1" stroke="none"/>
<path d="M808.198 699.654L168.377 699.654C139.052 699.654 115.058 675.66 115.058 646.335L115.058 59.8327C115.058 30.5076 139.052 6.51429 168.377 6.51429L808.198 6.51429C837.523 6.51429 861.516 30.5076 861.516 59.8327L861.516 646.335C861.516 675.66 837.523 699.654 808.198 699.654Z" fill="#ff9800" fill-rule="evenodd" opacity="1" stroke="none"/>
<path d="M581.595 219.788L394.98 219.788C373.653 219.788 354.991 201.127 354.991 179.799L354.991 179.799C354.991 158.472 373.653 139.81 394.98 139.81L581.595 139.81C602.922 139.81 621.583 158.472 621.583 179.799L621.583 179.799C621.583 201.127 602.922 219.788 581.595 219.788Z" fill="#8a5100" fill-rule="evenodd" opacity="1" stroke="none"/>
<path d="M861.516 699.654L8.42155 699.654L8.42155 752.972L861.516 752.972C920.167 752.972 968.153 800.959 968.153 859.609C968.153 918.259 920.167 966.246 861.516 966.246L8.42155 966.246L8.42155 1019.56L861.516 1019.56C949.492 1019.56 1021.47 947.584 1021.47 859.609C1021.47 771.634 949.492 699.654 861.516 699.654Z" fill="#607d8b" fill-rule="evenodd" opacity="1" stroke="none"/>
</g>
</svg>
