<?xml version="1.0" encoding="UTF-8" standalone="no"?>
<!DOCTYPE svg PUBLIC "-//W3C//DTD SVG 1.1//EN" "http://www.w3.org/Graphics/SVG/1.1/DTD/svg11.dtd">
<!-- Created with Vectornator (http://vectornator.io/) -->
<svg height="100%" stroke-miterlimit="10" style="fill-rule:nonzero;clip-rule:evenodd;stroke-linecap:round;stroke-linejoin:round;" version="1.1" viewBox="0 0 1024 1024" width="100%" xml:space="preserve" xmlns="http://www.w3.org/2000/svg" xmlns:vectornator="http://vectornator.io" xmlns:xlink="http://www.w3.org/1999/xlink">
<defs>
<filter color-interpolation-filters="sRGB" filterUnits="userSpaceOnUse" height="995.813" id="Filter" width="993.813" x="15.2471" y="18.527">
<feDropShadow dx="-0.0270624" dy="4.99993" flood-color="#000000" flood-opacity="0.48232" in="SourceGraphic" result="Shadow" stdDeviation="1.5"/>
</filter>
<filter color-interpolation-filters="sRGB" filterUnits="userSpaceOnUse" height="678.164" id="Filter_2" width="709.029" x="157.639" y="177.852">
<feDropShadow dx="-0.0270624" dy="4.99993" flood-color="#000000" flood-opacity="0.48232" in="SourceGraphic" result="Shadow" stdDeviation="2"/>
</filter>
<filter color-interpolation-filters="sRGB" filterUnits="userSpaceOnUse" height="247.897" id="Filter_3" width="206.595" x="200.884" y="585.342">
<feDropShadow dx="-0.0378873" dy="6.9999" flood-color="#000000" flood-opacity="0.48232" in="SourceGraphic" result="Shadow" stdDeviation="1.5"/>
</filter>
<filter color-interpolation-filters="sRGB" filterUnits="userSpaceOnUse" height="41.3609" id="Filter_4" width="41.3609" x="221.416" y="779.044">
<feComponentTransfer in="SourceGraphic" result="Alpha">
<feFuncA slope="0.754335" type="linear"/>
</feComponentTransfer>
<feDropShadow dx="-0.0162374" dy="2.99996" flood-color="#000000" flood-opacity="0.48232" in="Alpha" result="Shadow" stdDeviation="1.5"/>
</filter>
<filter color-interpolation-filters="sRGB" filterUnits="userSpaceOnUse" height="41.3609" id="Filter_5" width="41.3609" x="290.645" y="752.661">
<feComponentTransfer in="SourceGraphic" result="Alpha">
<feFuncA slope="0.754335" type="linear"/>
</feComponentTransfer>
<feDropShadow dx="-0.0162374" dy="2.99996" flood-color="#000000" flood-opacity="0.48232" in="Alpha" result="Shadow" stdDeviation="1.5"/>
</filter>
<filter color-interpolation-filters="sRGB" filterUnits="userSpaceOnUse" height="41.3609" id="Filter_6" width="41.3607" x="359.873" y="779.044">
<feComponentTransfer in="SourceGraphic" result="Alpha">
<feFuncA slope="0.754335" type="linear"/>
</feComponentTransfer>
<feDropShadow dx="-0.0162374" dy="2.99996" flood-color="#000000" flood-opacity="0.48232" in="Alpha" result="Shadow" stdDeviation="1.5"/>
</filter>
<filter color-interpolation-filters="sRGB" filterUnits="userSpaceOnUse" height="41.3609" id="Filter_7" width="41.3609" x="208.851" y="725.039">
<feComponentTransfer in="SourceGraphic" result="Alpha">
<feFuncA slope="0.754335" type="linear"/>
</feComponentTransfer>
<feDropShadow dx="-0.0162374" dy="2.99996" flood-color="#000000" flood-opacity="0.48232" in="Alpha" result="Shadow" stdDeviation="1.5"/>
</filter>
<filter color-interpolation-filters="sRGB" filterUnits="userSpaceOnUse" height="41.3609" id="Filter_8" width="41.3609" x="278.079" y="698.656">
<feComponentTransfer in="SourceGraphic" result="Alpha">
<feFuncA slope="0.754335" type="linear"/>
</feComponentTransfer>
<feDropShadow dx="-0.0162374" dy="2.99996" flood-color="#000000" flood-opacity="0.48232" in="Alpha" result="Shadow" stdDeviation="1.5"/>
</filter>
<filter color-interpolation-filters="sRGB" filterUnits="userSpaceOnUse" height="41.3609" id="Filter_9" width="41.3607" x="347.308" y="725.039">
<feComponentTransfer in="SourceGraphic" result="Alpha">
<feFuncA slope="0.754335" type="linear"/>
</feComponentTransfer>
<feDropShadow dx="-0.0162374" dy="2.99996" flood-color="#000000" flood-opacity="0.48232" in="Alpha" result="Shadow" stdDeviation="1.5"/>
</filter>
<filter color-interpolation-filters="sRGB" filterUnits="userSpaceOnUse" height="41.3607" id="Filter_10" width="41.3609" x="216.867" y="670.204">
<feComponentTransfer in="SourceGraphic" result="Alpha">
<feFuncA slope="0.754335" type="linear"/>
</feComponentTransfer>
<feDropShadow dx="-0.0162374" dy="2.99996" flood-color="#000000" flood-opacity="0.48232" in="Alpha" result="Shadow" stdDeviation="1.5"/>
</filter>
<filter color-interpolation-filters="sRGB" filterUnits="userSpaceOnUse" height="41.3607" id="Filter_11" width="41.3609" x="286.096" y="643.82">
<feComponentTransfer in="SourceGraphic" result="Alpha">
<feFuncA slope="0.754335" type="linear"/>
</feComponentTransfer>
<feDropShadow dx="-0.0162374" dy="2.99996" flood-color="#000000" flood-opacity="0.48232" in="Alpha" result="Shadow" stdDeviation="1.5"/>
</filter>
<filter color-interpolation-filters="sRGB" filterUnits="userSpaceOnUse" height="41.3607" id="Filter_12" width="41.3607" x="355.325" y="670.204">
<feComponentTransfer in="SourceGraphic" result="Alpha">
<feFuncA slope="0.754335" type="linear"/>
</feComponentTransfer>
<feDropShadow dx="-0.0162374" dy="2.99996" flood-color="#000000" flood-opacity="0.48232" in="Alpha" result="Shadow" stdDeviation="1.5"/>
</filter>
<filter color-interpolation-filters="sRGB" filterUnits="userSpaceOnUse" height="183.673" id="Filter_13" width="200.595" x="203.922" y="639.566">
<feDropShadow dx="-0.0162374" dy="2.99996" flood-color="#000000" flood-opacity="0.48232" in="SourceGraphic" result="Shadow" stdDeviation="1.5"/>
</filter>
<filter color-interpolation-filters="sRGB" filterUnits="userSpaceOnUse" height="120.411" id="Filter_14" width="102.634" x="253.206" y="585.342">
<feDropShadow dx="-0.0162374" dy="2.99996" flood-color="#000000" flood-opacity="0.48232" in="SourceGraphic" result="Shadow" stdDeviation="1.5"/>
</filter>
<filter color-interpolation-filters="sRGB" filterUnits="userSpaceOnUse" height="30.1539" id="Filter_15" width="31.1035" x="248.245" y="683.724">
<feDropShadow dx="-0.0162374" dy="2.99996" flood-color="#000000" flood-opacity="0.48232" in="SourceGraphic" result="Shadow" stdDeviation="1.5"/>
</filter>
<filter color-interpolation-filters="sRGB" filterUnits="userSpaceOnUse" height="30.1539" id="Filter_16" width="31.1038" x="329.697" y="683.724">
<feDropShadow dx="-0.0162374" dy="2.99996" flood-color="#000000" flood-opacity="0.48232" in="SourceGraphic" result="Shadow" stdDeviation="1.5"/>
</filter>
<filter color-interpolation-filters="sRGB" filterUnits="userSpaceOnUse" height="388.892" id="Filter_17" width="383.251" x="636.078" y="568.652">
<feDropShadow dx="-0.0541248" dy="9.99985" flood-color="#000000" flood-opacity="0.48232" in="SourceGraphic" result="Shadow" stdDeviation="2.5"/>
</filter>
</defs>
<g id="Layer-1" vectornator:layerName="Layer 1">
<path d="M1006.09 1006.34L18.2742 1006.34L18.2742 18.527L1006.09 18.527L1006.09 1006.34Z" fill="#ffffdd" fill-rule="evenodd" filter="url(#Filter)" stroke="none" vectornator:shadowAngle="1.57621" vectornator:shadowColor="#000000" vectornator:shadowOffset="5" vectornator:shadowOpacity="0.48232" vectornator:shadowRadius="3"/>
<path d="M74.0378 432.771C69.6405 432.771 66.0716 429.202 66.0716 424.805L66.0716 74.2906C66.0716 69.8933 69.6405 66.3244 74.0378 66.3244L599.81 66.3244C604.207 66.3244 607.776 69.8933 607.776 74.2906C607.776 78.688 604.207 82.2569 599.81 82.2569L82.0041 82.2569L82.0041 424.805C82.0041 429.202 78.4352 432.771 74.0378 432.771ZM74.0378 560.231C69.6405 560.231 66.0716 556.662 66.0716 552.265L66.0716 472.603C66.0716 468.205 69.6405 464.636 74.0378 464.636C78.4352 464.636 82.0041 468.205 82.0041 472.603L82.0041 552.265C82.0041 556.662 78.4352 560.231 74.0378 560.231ZM790.999 958.543L74.0378 958.543C69.6405 958.543 66.0716 954.974 66.0716 950.577L66.0716 839.049C66.0716 834.652 69.6405 831.083 74.0378 831.083C78.4352 831.083 82.0041 834.652 82.0041 839.049L82.0041 942.611L790.999 942.611C795.397 942.611 798.965 946.179 798.965 950.577C798.965 954.974 795.397 958.543 790.999 958.543ZM950.324 910.746C945.927 910.746 942.358 907.177 942.358 902.779L942.358 313.278C942.358 308.88 945.927 305.312 950.324 305.312C954.721 305.312 958.29 308.88 958.29 313.278L958.29 902.779C958.29 907.177 954.721 910.746 950.324 910.746ZM950.324 273.447C945.927 273.447 942.358 269.878 942.358 265.48L942.358 217.683C942.358 213.286 945.927 209.717 950.324 209.717C954.721 209.717 958.29 213.286 958.29 217.683L958.29 265.48C958.29 269.878 954.721 273.447 950.324 273.447ZM950.324 177.852C945.927 177.852 942.358 174.283 942.358 169.885L942.358 138.021C942.358 133.623 945.927 130.054 950.324 130.054C954.721 130.054 958.29 133.623 958.29 138.021L958.29 169.885C958.29 174.283 954.721 177.852 950.324 177.852Z" fill="#423a55" fill-rule="evenodd" opacity="1" stroke="none"/>
<path d="M1006.09 1022.27L18.2742 1022.27C9.47943 1022.27 2.34168 1015.15 2.34168 1006.34L2.34168 18.527C2.34168 9.71632 9.47943 2.5945 18.2742 2.5945L1006.09 2.5945C1014.88 2.5945 1022.02 9.71632 1022.02 18.527L1022.02 1006.34C1022.02 1015.15 1014.88 1022.27 1006.09 1022.27ZM34.2066 990.408L990.155 990.408L990.155 34.4595L34.2066 34.4595L34.2066 990.408Z" fill="#423a55" fill-rule="evenodd" opacity="1" stroke="none"/>
<g filter="url(#Filter_2)" vectornator:shadowAngle="1.57621" vectornator:shadowColor="#000000" vectornator:shadowOffset="5" vectornator:shadowOpacity="0.48232" vectornator:shadowRadius="4">
<path d="M862.695 185.818L862.695 297.345C862.695 301.806 859.19 305.312 854.729 305.312L169.633 305.312C165.172 305.312 161.666 301.806 161.666 297.345L161.666 185.818C161.666 181.357 165.172 177.852 169.633 177.852L854.729 177.852C859.19 177.852 862.695 181.357 862.695 185.818ZM719.303 361.075L719.303 440.738C719.303 445.199 715.798 448.704 711.337 448.704L169.633 448.704C165.172 448.704 161.666 445.199 161.666 440.738L161.666 361.075C161.666 356.614 165.172 353.109 169.633 353.109L711.337 353.109C715.798 353.109 719.303 356.614 719.303 361.075Z" fill="#e7e1fb" fill-rule="evenodd" opacity="1" stroke="none"/>
<path d="M448.451 568.197L448.451 839.049C448.451 843.511 444.946 847.016 440.485 847.016L169.633 847.016C165.172 847.016 161.666 843.511 161.666 839.049L161.666 568.197C161.666 563.736 165.172 560.231 169.633 560.231L440.485 560.231C444.946 560.231 448.451 563.736 448.451 568.197Z" fill="#c4b0ff" fill-rule="evenodd" opacity="1" stroke="none"/>
<path d="M854.729 576.164L552.012 576.164C547.615 576.164 544.046 572.595 544.046 568.197C544.046 563.8 547.615 560.231 552.012 560.231L854.729 560.231C859.126 560.231 862.695 563.8 862.695 568.197C862.695 572.595 859.127 576.164 854.729 576.164ZM854.729 671.758L631.674 671.758C627.277 671.758 623.708 668.19 623.708 663.792C623.708 659.395 627.277 655.826 631.674 655.826L854.729 655.826C859.126 655.826 862.695 659.395 862.695 663.792C862.695 668.19 859.127 671.758 854.729 671.758ZM854.729 767.353L711.337 767.353C706.939 767.353 703.371 763.784 703.371 759.387C703.371 754.99 706.939 751.421 711.337 751.421L854.729 751.421C859.126 751.421 862.695 754.99 862.695 759.387C862.695 763.784 859.127 767.353 854.729 767.353ZM854.729 305.312L169.633 305.312C165.235 305.312 161.666 301.743 161.666 297.345L161.666 185.818C161.666 181.421 165.235 177.852 169.633 177.852L854.729 177.852C859.126 177.852 862.695 181.421 862.695 185.818L862.695 297.345C862.695 301.743 859.127 305.312 854.729 305.312ZM177.599 289.379L846.763 289.379L846.763 193.784L177.599 193.784L177.599 289.379ZM711.337 448.704L169.633 448.704C165.235 448.704 161.666 445.135 161.666 440.738L161.666 361.075C161.666 356.678 165.235 353.109 169.633 353.109L711.337 353.109C715.734 353.109 719.303 356.678 719.303 361.075L719.303 440.738C719.303 445.135 715.734 448.704 711.337 448.704ZM177.599 432.771L703.371 432.771L703.371 369.041L177.599 369.041L177.599 432.771ZM440.485 847.016L169.633 847.016C165.235 847.016 161.666 843.447 161.666 839.049L161.666 568.197C161.666 563.8 165.235 560.231 169.633 560.231L440.485 560.231C444.882 560.231 448.451 563.8 448.451 568.197L448.451 839.049C448.451 843.447 444.882 847.016 440.485 847.016ZM177.599 831.083L432.519 831.083L432.519 576.164L177.599 576.164L177.599 831.083Z" fill="#423a55" fill-rule="evenodd" opacity="1" stroke="none"/>
</g>
<g filter="url(#Filter_3)" vectornator:shadowAngle="1.57621" vectornator:shadowColor="#000000" vectornator:shadowOffset="7" vectornator:shadowOpacity="0.48232" vectornator:shadowRadius="3">
<path d="M242.113 779.044C232.348 779.044 224.432 786.96 224.432 796.725C224.432 806.489 232.348 814.405 242.113 814.405C251.877 814.405 259.793 806.489 259.793 796.725C259.793 786.96 251.877 779.044 242.113 779.044Z" fill="#e7e1fb" fill-rule="evenodd" filter="url(#Filter_4)" stroke="none" vectornator:shadowAngle="1.57621" vectornator:shadowColor="#000000" vectornator:shadowOffset="3" vectornator:shadowOpacity="0.48232" vectornator:shadowRadius="3"/>
<path d="M311.341 752.661C301.577 752.661 293.661 760.576 293.661 770.341C293.661 780.106 301.577 788.022 311.341 788.022C321.106 788.022 329.022 780.106 329.022 770.341C329.022 760.576 321.106 752.661 311.341 752.661Z" fill="#e7e1fb" fill-rule="evenodd" filter="url(#Filter_5)" stroke="none" vectornator:shadowAngle="1.57621" vectornator:shadowColor="#000000" vectornator:shadowOffset="3" vectornator:shadowOpacity="0.48232" vectornator:shadowRadius="3"/>
<path d="M380.57 779.044C370.805 779.044 362.89 786.96 362.89 796.725C362.89 806.489 370.805 814.405 380.57 814.405C390.335 814.405 398.25 806.489 398.25 796.725C398.25 786.96 390.335 779.044 380.57 779.044Z" fill="#e7e1fb" fill-rule="evenodd" filter="url(#Filter_6)" stroke="none" vectornator:shadowAngle="1.57621" vectornator:shadowColor="#000000" vectornator:shadowOffset="3" vectornator:shadowOpacity="0.48232" vectornator:shadowRadius="3"/>
<path d="M229.548 725.039C219.783 725.039 211.867 732.955 211.867 742.72C211.867 752.484 219.783 760.4 229.548 760.4C239.312 760.4 247.228 752.484 247.228 742.72C247.228 732.955 239.312 725.039 229.548 725.039Z" fill="#e7e1fb" fill-rule="evenodd" filter="url(#Filter_7)" stroke="none" vectornator:shadowAngle="1.57621" vectornator:shadowColor="#000000" vectornator:shadowOffset="3" vectornator:shadowOpacity="0.48232" vectornator:shadowRadius="3"/>
<path d="M298.776 698.656C289.012 698.656 281.096 706.572 281.096 716.336C281.096 726.101 289.012 734.017 298.776 734.017C308.541 734.017 316.457 726.101 316.457 716.336C316.457 706.572 308.541 698.656 298.776 698.656Z" fill="#e7e1fb" fill-rule="evenodd" filter="url(#Filter_8)" stroke="none" vectornator:shadowAngle="1.57621" vectornator:shadowColor="#000000" vectornator:shadowOffset="3" vectornator:shadowOpacity="0.48232" vectornator:shadowRadius="3"/>
<path d="M368.005 725.039C358.24 725.039 350.325 732.955 350.325 742.72C350.325 752.484 358.24 760.4 368.005 760.4C377.769 760.4 385.685 752.484 385.685 742.72C385.685 732.955 377.769 725.039 368.005 725.039Z" fill="#e7e1fb" fill-rule="evenodd" filter="url(#Filter_9)" stroke="none" vectornator:shadowAngle="1.57621" vectornator:shadowColor="#000000" vectornator:shadowOffset="3" vectornator:shadowOpacity="0.48232" vectornator:shadowRadius="3"/>
<path d="M237.564 670.204C227.799 670.204 219.883 678.119 219.883 687.884C219.883 697.649 227.799 705.564 237.564 705.564C247.328 705.564 255.244 697.649 255.244 687.884C255.244 678.119 247.328 670.204 237.564 670.204Z" fill="#e7e1fb" fill-rule="evenodd" filter="url(#Filter_10)" stroke="none" vectornator:shadowAngle="1.57621" vectornator:shadowColor="#000000" vectornator:shadowOffset="3" vectornator:shadowOpacity="0.48232" vectornator:shadowRadius="3"/>
<path d="M306.792 643.82C297.028 643.82 289.112 651.736 289.112 661.501C289.112 671.265 297.028 679.181 306.792 679.181C316.557 679.181 324.473 671.265 324.473 661.501C324.473 651.736 316.557 643.82 306.792 643.82Z" fill="#e7e1fb" fill-rule="evenodd" filter="url(#Filter_11)" stroke="none" vectornator:shadowAngle="1.57621" vectornator:shadowColor="#000000" vectornator:shadowOffset="3" vectornator:shadowOpacity="0.48232" vectornator:shadowRadius="3"/>
<path d="M376.021 670.204C366.256 670.204 358.341 678.119 358.341 687.884C358.341 697.649 366.256 705.564 376.021 705.564C385.786 705.564 393.701 697.649 393.701 687.884C393.701 678.119 385.786 670.204 376.021 670.204Z" fill="#e7e1fb" fill-rule="evenodd" filter="url(#Filter_12)" stroke="none" vectornator:shadowAngle="1.57621" vectornator:shadowColor="#000000" vectornator:shadowOffset="3" vectornator:shadowOpacity="0.48232" vectornator:shadowRadius="3"/>
<path d="M385.869 647.066L222.602 647.066L214.438 809.739L394.033 809.739L385.869 647.066Z" fill="none" fill-rule="evenodd" filter="url(#Filter_13)" stroke="#ffff63" stroke-linecap="round" stroke-linejoin="round" stroke-width="15" vectornator:shadowAngle="1.57621" vectornator:shadowColor="#000000" vectornator:shadowOffset="3" vectornator:shadowOpacity="0.48232" vectornator:shadowRadius="3"/>
<path d="M263.722 692.253L263.722 638.029C263.722 613.176 282.09 592.842 304.539 592.842L304.539 592.842C326.988 592.842 345.356 613.176 345.356 638.029L345.356 692.253" fill="none" fill-rule="evenodd" filter="url(#Filter_14)" stroke="#ffff63" stroke-linecap="round" stroke-linejoin="round" stroke-width="15" vectornator:shadowAngle="1.57621" vectornator:shadowColor="#000000" vectornator:shadowOffset="3" vectornator:shadowOpacity="0.48232" vectornator:shadowRadius="3"/>
<path d="M263.813 683.724C256.88 683.724 251.261 689.131 251.261 695.801C251.261 702.471 256.88 707.878 263.813 707.878C270.745 707.878 276.364 702.471 276.364 695.801C276.364 689.131 270.745 683.724 263.813 683.724Z" fill="#ffff63" fill-rule="evenodd" filter="url(#Filter_15)" stroke="none" vectornator:shadowAngle="1.57621" vectornator:shadowColor="#000000" vectornator:shadowOffset="3" vectornator:shadowOpacity="0.48232" vectornator:shadowRadius="3"/>
<path d="M345.265 683.724C338.333 683.724 332.714 689.131 332.714 695.801C332.714 702.471 338.333 707.878 345.265 707.878C352.198 707.878 357.817 702.471 357.817 695.801C357.817 689.131 352.198 683.724 345.265 683.724Z" fill="#ffff63" fill-rule="evenodd" filter="url(#Filter_16)" stroke="none" vectornator:shadowAngle="1.57621" vectornator:shadowColor="#000000" vectornator:shadowOffset="3" vectornator:shadowOpacity="0.48232" vectornator:shadowRadius="3"/>
</g>
<g filter="url(#Filter_17)" vectornator:shadowAngle="1.57621" vectornator:shadowColor="#000000" vectornator:shadowOffset="10" vectornator:shadowOpacity="0.48232" vectornator:shadowRadius="5">
<path d="M827.437 573.845C727.058 573.845 645.684 655.218 645.684 755.598C645.684 855.977 727.058 937.351 827.437 937.351C927.816 937.351 1009.19 855.977 1009.19 755.598C1009.19 655.218 927.816 573.845 827.437 573.845Z" fill="#7aef4d" fill-rule="evenodd" opacity="1" stroke="none"/>
<path d="M827.437 594.616C738.508 594.586 666.4 666.668 666.4 755.598C666.4 844.527 738.508 916.61 827.437 916.579C916.366 916.61 988.474 844.527 988.474 755.598C988.474 666.668 916.366 594.586 827.437 594.616Z" fill="#83be6c" fill-rule="evenodd" opacity="1" stroke="none"/>
<path d="M814.455 815.317C811.957 815.317 809.449 814.418 807.465 812.611L745.15 750.296C740.907 746.443 740.595 739.868 744.454 735.626C748.312 731.393 754.876 731.066 759.124 734.93L814.314 790.77L905.985 698.709C910.15 694.773 916.719 694.949 920.666 699.13C924.607 703.3 924.42 709.869 920.245 713.81L821.579 812.476C819.585 814.366 817.02 815.317 814.455 815.317Z" fill="#fefdef" fill-rule="evenodd" opacity="1" stroke="none"/>
<path d="M827.437 942.544C824.57 942.544 822.244 940.222 822.244 937.351C822.244 934.479 824.57 932.158 827.437 932.158C924.794 932.158 1004 852.955 1004 755.598C1004 658.24 924.794 579.038 827.437 579.038C824.57 579.038 822.244 576.716 822.244 573.845C822.244 570.973 824.57 568.652 827.437 568.652C930.522 568.652 1014.38 652.513 1014.38 755.598C1014.38 858.683 930.522 942.544 827.437 942.544Z" fill="#423a55" fill-rule="evenodd" opacity="1" stroke="none"/>
<path d="M827.437 942.544C823.854 942.544 820.291 942.44 816.75 942.237C813.889 942.076 811.697 939.62 811.863 936.754C812.03 933.892 814.548 931.732 817.347 931.872C820.691 932.064 824.051 932.158 827.437 932.158C830.303 932.158 832.63 934.479 832.63 937.351C832.63 940.222 830.303 942.544 827.437 942.544ZM786.252 937.86C785.862 937.86 785.473 937.818 785.073 937.73C778.151 936.125 771.26 934.105 764.582 931.722C761.876 930.756 760.469 927.785 761.435 925.09C762.401 922.385 765.386 920.977 768.071 921.949C774.375 924.197 780.882 926.103 787.415 927.614C790.209 928.263 791.948 931.052 791.304 933.846C790.749 936.234 788.615 937.86 786.252 937.86ZM738.046 919.082C737.178 919.082 736.301 918.864 735.491 918.407C729.332 914.922 723.298 911.038 717.549 906.858C715.228 905.175 714.714 901.93 716.401 899.608C718.089 897.292 721.335 896.778 723.656 898.461C729.083 902.407 734.79 906.074 740.606 909.371C743.098 910.784 743.976 913.951 742.563 916.444C741.613 918.137 739.858 919.082 738.046 919.082ZM697.115 887.478C695.765 887.478 694.409 886.948 693.391 885.904C688.443 880.82 683.738 875.399 679.412 869.791C677.662 867.516 678.077 864.26 680.352 862.505C682.616 860.76 685.882 861.175 687.632 863.445C691.719 868.742 696.159 873.857 700.833 878.665C702.832 880.722 702.786 884.009 700.729 886.008C699.727 886.995 698.418 887.478 697.115 887.478ZM666.689 845.68C664.825 845.68 663.023 844.677 662.094 842.917C658.77 836.639 655.784 830.111 653.219 823.532C652.175 820.857 653.499 817.846 656.168 816.807C658.838 815.748 661.85 817.087 662.893 819.757C665.318 825.973 668.138 832.131 671.275 838.056C672.614 840.591 671.649 843.738 669.114 845.077C668.341 845.488 667.51 845.68 666.689 845.68ZM649.288 797.001C646.868 797.001 644.702 795.303 644.204 792.836C642.802 785.909 641.784 778.805 641.176 771.717C640.932 768.86 643.051 766.347 645.907 766.103C648.8 765.833 651.282 767.972 651.526 770.834C652.097 777.528 653.058 784.237 654.382 790.78C654.953 793.589 653.136 796.331 650.321 796.902C649.973 796.97 649.625 797.001 649.288 797.001ZM646.333 745.383C646.188 745.383 646.042 745.378 645.892 745.362C643.035 745.124 640.912 742.615 641.15 739.754C641.748 732.671 642.755 725.567 644.147 718.634C644.708 715.82 647.424 713.981 650.259 714.563C653.073 715.124 654.891 717.866 654.33 720.675C653.016 727.223 652.066 733.938 651.505 740.632C651.277 743.337 649.007 745.383 646.333 745.383ZM657.955 694.996C657.326 694.996 656.693 694.887 656.075 694.648C653.401 693.61 652.076 690.598 653.115 687.923C655.691 681.302 658.671 674.764 661.974 668.507C663.314 665.973 666.445 665.002 668.99 666.336C671.524 667.676 672.495 670.818 671.155 673.357C668.034 679.267 665.225 685.431 662.795 691.688C662 693.739 660.037 694.996 657.955 694.996ZM683.374 649.952C682.268 649.952 681.152 649.604 680.207 648.872C677.932 647.122 677.511 643.861 679.261 641.592C683.587 635.973 688.287 630.546 693.22 625.462C695.219 623.401 698.507 623.359 700.563 625.353C702.619 627.353 702.671 630.64 700.672 632.696C696.014 637.5 691.574 642.625 687.482 647.938C686.469 649.257 684.927 649.952 683.374 649.952ZM720.421 613.867C718.816 613.867 717.237 613.124 716.22 611.738C714.527 609.421 715.036 606.171 717.352 604.483C723.08 600.297 729.109 596.408 735.267 592.908C737.755 591.495 740.933 592.368 742.345 594.86C743.758 597.353 742.885 600.526 740.393 601.944C734.577 605.246 728.885 608.923 723.474 612.87C722.555 613.545 721.48 613.867 720.421 613.867ZM766.088 589.652C763.958 589.652 761.959 588.333 761.201 586.209C760.235 583.509 761.637 580.538 764.337 579.572C771.021 577.178 777.907 575.148 784.808 573.543C787.592 572.905 790.396 574.629 791.045 577.423C791.694 580.211 789.959 583.005 787.166 583.654C780.654 585.176 774.152 587.087 767.843 589.351C767.261 589.553 766.669 589.652 766.088 589.652ZM817.046 579.334C814.314 579.334 812.024 577.199 811.863 574.442C811.697 571.575 813.889 569.124 816.75 568.958C820.291 568.756 823.854 568.652 827.437 568.652C830.303 568.652 832.63 570.973 832.63 573.845C832.63 576.716 830.303 579.038 827.437 579.038C824.051 579.038 820.691 579.131 817.352 579.323C817.248 579.328 817.15 579.334 817.046 579.334ZM907.928 621.76C907.481 621.76 907.024 621.646 906.609 621.402C903.301 619.449 899.863 617.59 896.389 615.866C895.101 615.227 894.577 613.669 895.215 612.381C895.849 611.099 897.412 610.574 898.695 611.208C902.283 612.989 905.835 614.916 909.247 616.93C910.483 617.663 910.888 619.252 910.161 620.488C909.678 621.303 908.81 621.76 907.928 621.76ZM923.506 632.26C922.956 632.26 922.406 632.089 921.933 631.725C920.256 630.443 918.552 629.196 916.823 627.981C915.65 627.155 915.369 625.535 916.19 624.367C917.01 623.193 918.635 622.908 919.809 623.733C921.59 624.985 923.356 626.273 925.085 627.597C926.222 628.469 926.44 630.095 925.568 631.237C925.059 631.912 924.285 632.26 923.506 632.26Z" fill="#423a55" fill-rule="evenodd" opacity="1" stroke="none"/>
<path d="M827.437 916.579C738.674 916.579 666.456 844.366 666.456 755.598C666.456 666.829 738.674 594.616 827.437 594.616C846.474 594.616 865.117 597.914 882.856 604.415C884.201 604.914 884.897 606.404 884.398 607.749C883.905 609.105 882.415 609.79 881.07 609.297C863.907 602.998 845.862 599.809 827.437 599.809C741.535 599.809 671.649 669.696 671.649 755.598C671.649 841.499 741.535 911.386 827.437 911.386C913.339 911.386 983.225 841.499 983.225 755.598C983.225 711.774 964.609 669.727 932.148 640.247C931.083 639.281 931.005 637.64 931.971 636.581C932.937 635.521 934.583 635.443 935.637 636.404C969.178 666.866 988.418 710.31 988.418 755.598C988.418 844.366 916.2 916.579 827.437 916.579Z" fill="#423a55" fill-rule="evenodd" opacity="1" stroke="none"/>
<path d="M814.455 817.913C811.214 817.913 808.109 816.713 805.715 814.532L743.316 752.134C740.839 749.891 739.333 746.697 739.172 743.233C739.011 739.77 740.201 736.446 742.532 733.881C747.362 728.589 755.587 728.21 760.869 733.014L814.32 787.088L904.147 696.881C906.733 694.446 910.109 693.267 913.484 693.282C916.953 693.381 920.173 694.825 922.556 697.348C924.94 699.867 926.196 703.165 926.098 706.633C925.999 710.097 924.555 713.322 922.032 715.705L823.423 814.32C820.946 816.656 817.783 817.913 814.455 817.913ZM752.186 734.821C750.062 734.821 747.928 735.678 746.375 737.381C744.978 738.918 744.262 740.912 744.36 742.989C744.459 745.066 745.357 746.983 746.894 748.38L809.303 810.783C812.035 813.26 816.932 813.297 819.803 810.596L918.412 711.982C919.98 710.502 920.848 708.57 920.905 706.488C920.962 704.411 920.209 702.432 918.781 700.921C917.353 699.405 915.416 698.543 913.333 698.481C911.298 698.382 909.283 699.171 907.772 700.604L816.158 792.603C815.67 793.091 815.005 793.366 814.32 793.366L814.314 793.366C813.624 793.366 812.959 793.086 812.476 792.597L757.28 736.758C755.852 735.465 754.024 734.821 752.186 734.821Z" fill="#423a55" fill-rule="evenodd" opacity="1" stroke="none"/>
</g>
</g>
</svg>
