<?xml version="1.0" encoding="UTF-8" standalone="no"?>
<!DOCTYPE svg PUBLIC "-//W3C//DTD SVG 1.1//EN" "http://www.w3.org/Graphics/SVG/1.1/DTD/svg11.dtd">
<!-- Created with Vectornator (http://vectornator.io/) -->
<svg height="100%" stroke-miterlimit="10" style="fill-rule:nonzero;clip-rule:evenodd;stroke-linecap:round;stroke-linejoin:round;" version="1.1" viewBox="0 0 1024 1024" width="100%" xml:space="preserve" xmlns="http://www.w3.org/2000/svg" xmlns:vectornator="http://vectornator.io" xmlns:xlink="http://www.w3.org/1999/xlink">
<defs/>
<g id="Layer-1" vectornator:layerName="Layer 1">
<path d="M501.003 203.306C332.873 203.306 196.088 340.091 196.088 508.221C196.088 667.631 319.09 798.623 475.116 811.825C478.165 800.757 482.952 790.298 489.142 780.419C493.319 773.802 498.35 767.552 503.808 761.514C505.942 759.167 508.138 756.88 510.455 754.654C531.921 733.706 560.98 716.814 596.38 705.898C575.128 681.779 561.986 650.312 561.986 614.942C561.986 538.012 622.268 477.73 699.198 477.73C714.931 477.73 729.811 480.505 743.746 485.2C743.746 485.292 743.776 485.414 743.776 485.505C768.17 493.677 789.056 508.252 804.942 527.553C805.339 521.119 805.918 514.747 805.918 508.221C805.918 340.091 669.133 203.306 501.003 203.306ZM531.494 520.845L400.594 651.745L357.479 608.63L470.511 495.598L470.511 325.272L531.494 325.272L531.494 520.845Z" fill="#e7e1fb" fill-rule="evenodd" opacity="1" stroke="#423a55" stroke-dasharray="5.234600067138672" stroke-linecap="round" stroke-linejoin="round" stroke-width="15"/>
<path d="M699.198 538.713C657.098 538.713 622.969 572.842 622.969 614.942C622.969 657.042 657.098 691.17 699.198 691.17C741.298 691.17 775.427 657.042 775.427 614.942C775.427 572.842 741.298 538.713 699.198 538.713ZM866.901 874.12C866.901 867.716 866.901 848.751 866.901 842.317C866.901 789.079 790.794 752.154 699.198 752.154C607.601 752.154 531.494 789.079 531.494 842.317C531.494 848.751 531.494 867.747 531.494 874.12C531.494 874.12 866.901 874.12 866.901 874.12Z" fill="#c4b0ff" fill-rule="evenodd" opacity="1" stroke="#423a55" stroke-dasharray="5.234600067138672" stroke-linecap="round" stroke-linejoin="round" stroke-width="15"/>
</g>
</svg>
