<?xml version="1.0" encoding="UTF-8" standalone="no"?>
<!DOCTYPE svg PUBLIC "-//W3C//DTD SVG 1.1//EN" "http://www.w3.org/Graphics/SVG/1.1/DTD/svg11.dtd">
<!-- Created with Vectornator (http://vectornator.io/) -->
<svg height="100%" stroke-miterlimit="10" style="fill-rule:nonzero;clip-rule:evenodd;stroke-linecap:round;stroke-linejoin:round;" version="1.1" viewBox="0 0 1024 1024" width="100%" xml:space="preserve" xmlns="http://www.w3.org/2000/svg" xmlns:vectornator="http://vectornator.io" xmlns:xlink="http://www.w3.org/1999/xlink">
<defs/>
<g id="Layer-1" vectornator:layerName="Layer 1">
<path d="M955.177 734.193L69.1068 734.193C40.1391 734.193 17.9873 712.041 17.9873 683.074L17.9873 274.118C17.9873 245.15 40.1391 222.998 69.1068 222.998L955.177 222.998C984.145 222.998 1006.3 245.15 1006.3 274.118L1006.3 683.074C1006.3 712.041 984.145 734.193 955.177 734.193Z" fill="#c2cde7" fill-rule="evenodd" opacity="1" stroke="none"/>
<path d="M955.177 734.193L69.1068 734.193C40.1391 734.193 17.9873 712.041 17.9873 683.074L17.9873 580.835C17.9873 551.867 40.1391 529.715 69.1068 529.715L955.177 529.715C984.145 529.715 1006.3 551.867 1006.3 580.835L1006.3 683.074C1006.3 712.041 984.145 734.193 955.177 734.193Z" fill="#acb7d0" fill-rule="evenodd" opacity="1" stroke="none"/>
<path d="M679.132 972.751L239.505 972.751C210.537 972.751 188.386 950.599 188.386 921.631L188.386 631.954L835.899 631.954L835.899 815.984C835.899 829.616 830.787 843.248 820.563 851.768L714.916 957.415C704.692 967.639 692.764 972.751 679.132 972.751Z" fill="#bbdef9" fill-rule="evenodd" opacity="1" stroke="none"/>
<path d="M818.859 855.176L818.859 642.178L563.262 965.935L699.58 965.935L818.859 855.176ZM317.888 965.935L583.709 630.25L558.15 630.25L292.328 965.935L317.888 965.935ZM471.247 965.935L737.068 630.25L660.389 630.25L394.567 965.935L471.247 965.935Z" fill="#def0ff" fill-rule="evenodd" opacity="1" stroke="none"/>
<path d="M307.664 771.681L328.112 810.872L367.304 831.32L328.112 853.472L307.664 890.959L287.217 853.472L248.025 831.32L287.217 810.872L307.664 771.681ZM489.99 683.074L503.622 710.337L530.886 723.969L503.622 739.305L489.99 764.865L474.655 739.305L447.391 723.969L474.655 710.337L489.99 683.074ZM622.901 798.944L633.125 815.984L651.869 826.208L633.125 836.432L622.901 855.176L614.381 836.432L595.637 826.208L614.381 815.984L622.901 798.944Z" fill="#ffffff" fill-rule="evenodd" opacity="1" stroke="none"/>
<path d="M699.58 972.751L699.58 836.432L835.899 836.432L699.58 972.751ZM904.058 393.397L1006.3 393.397L1006.3 529.715L904.058 529.715L904.058 393.397Z" fill="#ffefb8" fill-rule="evenodd" opacity="1" stroke="none"/>
<path d="M801.819 222.998L222.465 222.998L273.585 52.6002L750.7 52.6002L801.819 222.998Z" fill="#faefde" fill-rule="evenodd" opacity="1" stroke="none"/>
<path d="M921.098 308.198L921.098 308.198C921.098 318.421 914.282 325.237 904.058 325.237L256.545 325.237C246.321 325.237 239.505 318.421 239.505 308.198L239.505 308.198C239.505 297.974 246.321 291.158 256.545 291.158L904.058 291.158C914.282 291.158 921.098 297.974 921.098 308.198Z" fill="#dce5f5" fill-rule="evenodd" opacity="1" stroke="none"/>
<path d="M86.1466 291.158L154.306 291.158L154.306 342.277L86.1466 342.277L86.1466 291.158Z" fill="#f75f83" fill-rule="evenodd" opacity="1" stroke="none"/>
<path d="M171.346 325.237L171.346 308.198C171.346 289.454 156.01 274.118 137.266 274.118L103.186 274.118C84.4426 274.118 69.1068 289.454 69.1068 308.198L69.1068 325.237C69.1068 343.981 84.4426 359.317 103.186 359.317L137.266 359.317C156.01 359.317 171.346 343.981 171.346 325.237ZM137.266 325.237L103.186 325.237L103.186 308.198L137.266 308.198L137.266 325.237ZM69.1068 427.476C58.8829 427.476 52.067 434.292 52.067 444.516L52.067 478.596C52.067 488.82 58.8829 495.636 69.1068 495.636C79.3307 495.636 86.1466 488.82 86.1466 478.596L86.1466 444.516C86.1466 434.292 79.3307 427.476 69.1068 427.476ZM154.306 427.476C144.082 427.476 137.266 434.292 137.266 444.516L137.266 478.596C137.266 488.82 144.082 495.636 154.306 495.636C164.53 495.636 171.346 488.82 171.346 478.596L171.346 444.516C171.346 434.292 164.53 427.476 154.306 427.476ZM239.505 427.476C229.281 427.476 222.465 434.292 222.465 444.516L222.465 478.596C222.465 488.82 229.281 495.636 239.505 495.636C249.729 495.636 256.545 488.82 256.545 478.596L256.545 444.516C256.545 434.292 249.729 427.476 239.505 427.476ZM324.704 427.476C314.48 427.476 307.664 434.292 307.664 444.516L307.664 478.596C307.664 488.82 314.48 495.636 324.704 495.636C334.928 495.636 341.744 488.82 341.744 478.596L341.744 444.516C341.744 434.292 334.928 427.476 324.704 427.476ZM409.903 427.476C399.679 427.476 392.863 434.292 392.863 444.516L392.863 478.596C392.863 488.82 399.679 495.636 409.903 495.636C420.127 495.636 426.943 488.82 426.943 478.596L426.943 444.516C426.943 434.292 420.127 427.476 409.903 427.476ZM495.102 427.476C484.878 427.476 478.063 434.292 478.063 444.516L478.063 478.596C478.063 488.82 484.878 495.636 495.102 495.636C505.326 495.636 512.142 488.82 512.142 478.596L512.142 444.516C512.142 434.292 505.326 427.476 495.102 427.476ZM580.301 427.476C570.078 427.476 563.262 434.292 563.262 444.516L563.262 478.596C563.262 488.82 570.078 495.636 580.301 495.636C590.525 495.636 597.341 488.82 597.341 478.596L597.341 444.516C597.341 434.292 590.525 427.476 580.301 427.476ZM665.501 427.476C655.277 427.476 648.461 434.292 648.461 444.516L648.461 478.596C648.461 488.82 655.277 495.636 665.501 495.636C675.724 495.636 682.54 488.82 682.54 478.596L682.54 444.516C682.54 434.292 675.724 427.476 665.501 427.476ZM835.899 427.476C825.675 427.476 818.859 434.292 818.859 444.516L818.859 478.596C818.859 488.82 825.675 495.636 835.899 495.636C846.123 495.636 852.939 488.82 852.939 478.596L852.939 444.516C852.939 434.292 846.123 427.476 835.899 427.476ZM750.7 427.476C740.476 427.476 733.66 434.292 733.66 444.516L733.66 478.596C733.66 488.82 740.476 495.636 750.7 495.636C760.924 495.636 767.739 488.82 767.739 478.596L767.739 444.516C767.739 434.292 760.924 427.476 750.7 427.476Z" fill="#8d6c9f" fill-rule="evenodd" opacity="1" stroke="none"/>
<path d="M972.217 205.959L815.451 205.959L791.595 90.0878C784.779 57.7122 757.516 35.5604 725.14 35.5604L297.44 35.5604C265.065 35.5604 237.801 59.4161 230.985 90.0878L207.129 205.959L154.306 205.959L52.067 205.959C23.0993 205.959 0.947525 228.11 0.947525 257.078L0.947525 700.113C0.947525 713.745 6.05947 727.377 16.2834 735.897C26.5073 746.121 38.4351 751.233 52.067 751.233L171.346 751.233L171.346 938.671C171.346 952.303 176.458 965.935 186.682 974.455C196.905 984.678 208.833 989.79 222.465 989.79L692.764 989.79C701.284 989.79 709.804 986.382 716.62 979.566L842.715 853.472C849.531 846.656 852.939 838.136 852.939 829.616L852.939 751.233L972.217 751.233C985.849 751.233 999.481 746.121 1008 735.897C1018.22 725.673 1023.34 713.745 1023.34 700.113L1023.34 257.078C1023.34 228.11 1001.19 205.959 972.217 205.959ZM716.62 931.855L716.62 853.472L795.003 853.472L716.62 931.855ZM818.859 819.392L716.62 819.392C708.1 819.392 699.58 822.8 692.764 829.616C685.948 836.432 682.54 844.952 682.54 853.472L682.54 955.711L222.465 955.711C217.353 955.711 213.945 954.007 210.537 950.599C207.129 947.191 205.425 943.783 205.425 938.671L205.425 648.994L818.859 648.994L818.859 819.392ZM990.961 376.357L922.802 376.357C914.282 376.357 905.762 379.765 898.946 386.581C892.13 393.397 888.722 401.917 888.722 410.436L888.722 512.675C888.722 521.195 892.13 529.715 898.946 536.531C905.762 543.347 914.282 546.755 922.802 546.755L990.961 546.755L990.961 700.113C989.257 705.225 987.553 708.633 984.145 712.041C980.737 715.449 977.329 717.153 972.217 717.153L852.939 717.153L852.939 648.994L904.058 648.994C914.282 648.994 921.098 642.178 921.098 631.954C921.098 621.73 914.282 614.914 904.058 614.914L835.899 614.914L188.386 614.914L120.226 614.914C110.002 614.914 103.186 621.73 103.186 631.954C103.186 642.178 110.002 648.994 120.226 648.994L171.346 648.994L171.346 717.153L52.067 717.153C46.955 717.153 43.5471 715.449 40.1391 712.041C36.7311 708.633 35.0272 705.225 35.0272 700.113L35.0272 257.078C35.0272 246.854 41.8431 240.038 52.067 240.038L154.306 240.038L222.465 240.038L716.62 240.038C726.844 240.038 733.66 233.222 733.66 222.998C733.66 212.775 726.844 205.959 716.62 205.959L242.913 205.959L265.065 96.9037C268.473 81.5679 282.105 69.64 299.144 69.64L726.844 69.64C743.884 69.64 757.516 81.5679 760.924 96.9037L786.483 226.406C788.187 234.926 795.003 240.038 803.523 240.038L973.921 240.038C984.145 240.038 990.961 246.854 990.961 257.078C990.961 257.078 990.961 376.357 990.961 376.357ZM989.257 410.436L989.257 512.675L921.098 512.675L921.098 410.436L989.257 410.436Z" fill="#423a55" fill-rule="evenodd" opacity="1" stroke="none"/>
</g>
</svg>
