<?xml version="1.0" encoding="UTF-8" standalone="no"?>
<!DOCTYPE svg PUBLIC "-//W3C//DTD SVG 1.1//EN" "http://www.w3.org/Graphics/SVG/1.1/DTD/svg11.dtd">
<!-- Created with Vectornator (http://vectornator.io/) -->
<svg height="100%" stroke-miterlimit="10" style="fill-rule:nonzero;clip-rule:evenodd;stroke-linecap:round;stroke-linejoin:round;" version="1.1" viewBox="0 0 1024 1024" width="100%" xml:space="preserve" xmlns="http://www.w3.org/2000/svg" xmlns:vectornator="http://vectornator.io" xmlns:xlink="http://www.w3.org/1999/xlink">
<defs>
<filter color-interpolation-filters="sRGB" filterUnits="userSpaceOnUse" height="244.006" id="Filter" width="192.384" x="522.322" y="219.138">
<feDropShadow dx="-0.0324749" dy="5.99991" flood-color="#000000" flood-opacity="0.48232" in="SourceGraphic" result="Shadow" stdDeviation="1.5"/>
</filter>
</defs>
<g id="Layer-1" vectornator:layerName="Layer 1">
<path d="M926.149 721.322L725.109 789.656C731.051 779.752 735.013 768.859 734.022 755.984C732.041 728.254 707.283 707.457 678.563 707.457L534.963 707.457C479.503 627.239 327.981 627.239 327.981 627.239L207.158 627.239L207.158 868.884L492.378 958.015C492.378 958.015 578.538 982.773 639.939 958.015C692.428 937.217 903.371 826.299 969.724 790.646C982.599 783.724 1000.43 763.917 990.522 741.129C981.609 722.312 965.763 709.438 926.149 721.322" fill="#f7ebde" fill-rule="evenodd" opacity="1" stroke="none"/>
<path d="M306.193 628.23L207.158 628.23L207.158 868.884L304.371 899.267C305.302 891.889 306.193 885.343 306.193 878.787L306.193 628.23" fill="#d2c8bd" fill-rule="evenodd" opacity="1" stroke="none"/>
<path d="M680.544 843.135L470.59 843.135C453.754 843.135 440.88 830.26 440.88 813.424C440.88 796.588 453.754 783.714 470.59 783.714L680.544 783.714C693.418 783.714 704.312 773.81 704.312 760.936C704.312 744.1 717.186 731.226 734.022 731.226C750.858 731.226 763.733 744.1 763.733 760.936C763.733 806.492 726.099 843.135 680.544 843.135Z" fill="#423a55" fill-rule="evenodd" opacity="1" stroke="none"/>
<path d="M573.586 998.619C526.05 998.619 486.436 986.735 483.465 986.735L198.245 897.604C185.371 893.642 177.448 881.758 177.448 868.883L177.448 628.23C177.448 611.394 190.322 598.519 207.158 598.519L327.98 598.519C334.913 598.519 480.494 599.51 548.828 678.737L678.563 678.737C722.138 678.737 759.771 711.419 763.733 754.003C765.713 771.83 760.761 789.656 750.858 805.501C743.926 816.395 731.051 822.337 718.177 819.366L718.177 819.366C709.264 817.386 701.341 810.453 697.379 801.54C693.418 792.627 695.399 782.723 700.35 773.81C702.331 770.839 704.312 765.888 704.312 758.955C703.321 747.071 691.437 738.158 678.563 738.158L534.963 738.158C525.059 738.158 516.146 733.206 510.204 725.283C471.581 669.824 365.614 657.94 327.981 657.94L236.869 657.94L236.869 848.086L501.291 930.285C501.291 930.285 577.548 952.073 629.046 931.275C669.65 914.439 824.144 834.221 955.86 764.897C956.85 763.907 964.773 757.965 962.792 754.003C960.811 749.052 958.831 744.1 935.062 750.042L821.173 788.666C805.327 793.617 788.491 785.694 783.539 769.849C778.588 754.003 786.511 737.168 802.356 732.216L917.236 693.592L918.226 693.592C983.589 675.766 1008.35 709.438 1017.26 731.225C1033.11 767.868 1011.32 803.521 982.599 818.376C900.4 861.951 702.331 965.937 650.833 986.735C626.075 995.648 598.345 998.619 573.586 998.619Z" fill="#423a55" fill-rule="evenodd" opacity="1" stroke="none"/>
<path d="M177.448 908.497C194.284 908.497 207.158 895.623 207.158 878.787L207.158 621.297C207.158 604.461 193.294 590.596 175.467 590.596L33.8479 590.596C29.8865 590.596 33.8479 909.488 33.8479 909.488L177.448 909.488C177.448 909.488 177.448 908.497 177.448 908.497Z" fill="#c7d7e2" fill-rule="evenodd" opacity="1" stroke="none"/>
<path d="M177.448 938.208L32.8576 938.208C16.0217 938.208 3.14719 925.333 3.14719 908.497C3.14719 891.661 16.0217 878.787 32.8576 878.787L176.458 878.787L176.458 621.297C176.458 620.307 175.467 620.307 174.477 620.307L33.8479 620.307C17.012 620.307 4.13753 607.432 4.13753 590.596C4.13753 573.761 17.012 560.886 33.8479 560.886L175.467 560.886C209.139 560.886 236.869 588.616 236.869 621.297L236.869 878.787C236.869 912.459 210.129 938.208 177.448 938.208Z" fill="#423a55" fill-rule="evenodd" opacity="1" stroke="none"/>
<path d="M785.52 261.802L785.52 512.359L448.803 512.359L448.803 261.802L617.161 82.5492L785.52 261.802Z" fill="#94d0ac" fill-rule="evenodd" opacity="1" stroke="none"/>
<path d="M785.52 542.069L448.803 542.069C431.967 542.069 419.092 529.195 419.092 512.359L419.092 261.802C419.092 244.966 431.967 232.091 448.803 232.091C465.639 232.091 478.513 244.966 478.513 261.802L478.513 482.649L755.81 482.649L755.81 261.802C755.81 244.966 768.684 232.091 785.52 232.091C802.356 232.091 815.23 244.966 815.23 261.802L815.23 512.359C815.23 529.195 802.356 542.069 785.52 542.069ZM736.003 223.178C719.167 223.178 706.292 210.304 706.292 193.468L706.292 115.231C706.292 98.3947 719.167 85.5202 736.003 85.5202C752.839 85.5202 765.713 98.3947 765.713 115.231L765.713 193.468C765.713 210.304 752.839 223.178 736.003 223.178Z" fill="#423a55" fill-rule="evenodd" opacity="1" stroke="none"/>
<path d="M832.066 331.126C824.144 331.126 816.221 328.155 810.279 322.213L617.161 119.192L423.054 322.213C412.16 334.097 393.343 334.097 381.459 323.203C369.575 312.309 369.575 293.493 380.469 281.609L595.374 56.8002C606.268 44.9161 627.065 44.9161 637.959 56.8002L852.864 281.609C863.757 293.493 863.757 312.309 851.873 323.203C846.922 328.155 839.989 331.126 832.066 331.126Z" fill="#423a55" fill-rule="evenodd" opacity="1" stroke="none"/>
<g filter="url(#Filter)" vectornator:shadowAngle="1.57621" vectornator:shadowColor="#000000" vectornator:shadowOffset="6" vectornator:shadowOpacity="0.48232" vectornator:shadowRadius="3">
<path d="M559.264 415.509C549.945 415.509 542.391 423.538 542.391 433.443C542.391 443.348 549.945 451.377 559.264 451.377C568.582 451.377 576.136 443.348 576.136 433.443C576.136 423.538 568.582 415.509 559.264 415.509Z" fill="#e7e1fb" fill-rule="evenodd" opacity="0.754335" stroke="none"/>
<path d="M625.327 388.748C616.009 388.748 608.455 396.777 608.455 406.681C608.455 416.586 616.009 424.615 625.327 424.615C634.646 424.615 642.2 416.586 642.2 406.681C642.2 396.777 634.646 388.748 625.327 388.748Z" fill="#e7e1fb" fill-rule="evenodd" opacity="0.754335" stroke="none"/>
<path d="M691.391 415.509C682.073 415.509 674.519 423.538 674.519 433.443C674.519 443.348 682.073 451.377 691.391 451.377C700.71 451.377 708.263 443.348 708.263 433.443C708.263 423.538 700.71 415.509 691.391 415.509Z" fill="#e7e1fb" fill-rule="evenodd" opacity="0.754335" stroke="none"/>
<path d="M547.273 360.73C537.954 360.73 530.401 368.759 530.401 378.664C530.401 388.569 537.954 396.598 547.273 396.598C556.591 396.598 564.145 388.569 564.145 378.664C564.145 368.759 556.591 360.73 547.273 360.73Z" fill="#e7e1fb" fill-rule="evenodd" opacity="0.754335" stroke="none"/>
<path d="M613.337 333.969C604.019 333.969 596.464 341.998 596.464 351.902C596.464 361.807 604.019 369.836 613.337 369.836C622.655 369.836 630.209 361.807 630.209 351.902C630.209 341.998 622.655 333.969 613.337 333.969Z" fill="#e7e1fb" fill-rule="evenodd" opacity="0.754335" stroke="none"/>
<path d="M679.401 360.73C670.082 360.73 662.529 368.759 662.529 378.664C662.529 388.569 670.082 396.598 679.401 396.598C688.719 396.598 696.273 388.569 696.273 378.664C696.273 368.759 688.719 360.73 679.401 360.73Z" fill="#e7e1fb" fill-rule="evenodd" opacity="0.754335" stroke="none"/>
<path d="M554.923 305.109C545.604 305.109 538.05 313.138 538.05 323.042C538.05 332.947 545.604 340.976 554.923 340.976C564.241 340.976 571.795 332.947 571.795 323.042C571.795 313.138 564.241 305.109 554.923 305.109Z" fill="#e7e1fb" fill-rule="evenodd" opacity="0.754335" stroke="none"/>
<path d="M620.986 278.347C611.668 278.347 604.114 286.376 604.114 296.281C604.114 306.185 611.668 314.214 620.986 314.214C630.305 314.214 637.859 306.185 637.859 296.281C637.859 286.376 630.305 278.347 620.986 278.347Z" fill="#e7e1fb" fill-rule="evenodd" opacity="0.754335" stroke="none"/>
<path d="M687.05 305.109C677.732 305.109 670.178 313.138 670.178 323.042C670.178 332.947 677.732 340.976 687.05 340.976C696.369 340.976 703.922 332.947 703.922 323.042C703.922 313.138 696.369 305.109 687.05 305.109Z" fill="#e7e1fb" fill-rule="evenodd" opacity="0.754335" stroke="none"/>
<path d="M696.448 281.639L540.645 281.639L532.854 446.644L704.239 446.644L696.448 281.639Z" fill="none" fill-rule="evenodd" opacity="1" stroke="#ffff63" stroke-linecap="round" stroke-linejoin="round" stroke-width="15"/>
<path d="M579.885 327.474L579.885 272.472C579.885 247.263 597.413 226.638 618.836 226.638L618.836 226.638C640.259 226.638 657.787 247.263 657.787 272.472L657.787 327.474" fill="none" fill-rule="evenodd" opacity="1" stroke="#ffff63" stroke-linecap="round" stroke-linejoin="round" stroke-width="15"/>
<path d="M579.972 318.823C573.356 318.823 567.993 324.308 567.993 331.073C567.993 337.838 573.356 343.323 579.972 343.323C586.587 343.323 591.949 337.838 591.949 331.073C591.949 324.308 586.587 318.823 579.972 318.823Z" fill="#ffff63" fill-rule="evenodd" opacity="1" stroke="none"/>
<path d="M657.701 318.823C651.086 318.823 645.723 324.308 645.723 331.073C645.723 337.838 651.086 343.323 657.701 343.323C664.316 343.323 669.679 337.838 669.679 331.073C669.679 324.308 664.316 318.823 657.701 318.823Z" fill="#ffff63" fill-rule="evenodd" opacity="1" stroke="none"/>
</g>
</g>
</svg>
