<?xml version="1.0" encoding="UTF-8" standalone="no"?>
<!DOCTYPE svg PUBLIC "-//W3C//DTD SVG 1.1//EN" "http://www.w3.org/Graphics/SVG/1.1/DTD/svg11.dtd"
[
<!ATTLIST g
  xmlns:vectornator CDATA #FIXED "http://vectornator.io"
  vectornator:layerName CDATA #IMPLIED >
<!ATTLIST g
  xmlns:vectornator CDATA #FIXED "http://vectornator.io"
  vectornator:mask CDATA #IMPLIED >
<!ATTLIST text
  xmlns:vectornator CDATA #FIXED "http://vectornator.io"
  vectornator:width CDATA #IMPLIED >
<!ATTLIST text
  xmlns:vectornator CDATA #FIXED "http://vectornator.io"
  vectornator:text CDATA #IMPLIED >

<!ATTLIST path
  xmlns:vectornator CDATA #FIXED "http://vectornator.io"
  vectornator:blendMode CDATA #IMPLIED >
<!ATTLIST path
  xmlns:vectornator CDATA #FIXED "http://vectornator.io"
  vectornator:shadowColor CDATA #IMPLIED >
<!ATTLIST path
  xmlns:vectornator CDATA #FIXED "http://vectornator.io"
  vectornator:shadowOpacity CDATA #IMPLIED >
<!ATTLIST path
  xmlns:vectornator CDATA #FIXED "http://vectornator.io"
  vectornator:shadowRadius CDATA #IMPLIED >
<!ATTLIST path
  xmlns:vectornator CDATA #FIXED "http://vectornator.io"
  vectornator:shadowOffset CDATA #IMPLIED >
<!ATTLIST path
  xmlns:vectornator CDATA #FIXED "http://vectornator.io"
  vectornator:shadowAngle CDATA #IMPLIED >

<!ATTLIST image
  xmlns:vectornator CDATA #FIXED "http://vectornator.io"
  vectornator:blendMode CDATA #IMPLIED >
<!ATTLIST image
  xmlns:vectornator CDATA #FIXED "http://vectornator.io"
  vectornator:shadowColor CDATA #IMPLIED >
<!ATTLIST image
  xmlns:vectornator CDATA #FIXED "http://vectornator.io"
  vectornator:shadowOpacity CDATA #IMPLIED >
<!ATTLIST image
  xmlns:vectornator CDATA #FIXED "http://vectornator.io"
  vectornator:shadowRadius CDATA #IMPLIED >
<!ATTLIST image
  xmlns:vectornator CDATA #FIXED "http://vectornator.io"
  vectornator:shadowOffset CDATA #IMPLIED >
<!ATTLIST image
  xmlns:vectornator CDATA #FIXED "http://vectornator.io"
  vectornator:shadowAngle CDATA #IMPLIED >

<!ATTLIST g
  xmlns:vectornator CDATA #FIXED "http://vectornator.io"
  vectornator:blendMode CDATA #IMPLIED >
<!ATTLIST g
  xmlns:vectornator CDATA #FIXED "http://vectornator.io"
  vectornator:shadowColor CDATA #IMPLIED >
<!ATTLIST g
  xmlns:vectornator CDATA #FIXED "http://vectornator.io"
  vectornator:shadowOpacity CDATA #IMPLIED >
<!ATTLIST g
  xmlns:vectornator CDATA #FIXED "http://vectornator.io"
  vectornator:shadowRadius CDATA #IMPLIED >
<!ATTLIST g
  xmlns:vectornator CDATA #FIXED "http://vectornator.io"
  vectornator:shadowOffset CDATA #IMPLIED >
<!ATTLIST g
  xmlns:vectornator CDATA #FIXED "http://vectornator.io"
  vectornator:shadowAngle CDATA #IMPLIED >

<!ENTITY % SVG.filter.extra.content  "| feDropShadow" >
<!ELEMENT feDropShadow EMPTY>
<!ATTLIST feDropShadow
  xmlns:svg CDATA #FIXED "http://www.w3.org/Graphics/SVG/1.1/DTD/svg11.dtd"
  dx CDATA #IMPLIED>
<!ATTLIST feDropShadow
  xmlns:svg CDATA #FIXED "http://www.w3.org/Graphics/SVG/1.1/DTD/svg11.dtd"
  dy CDATA #IMPLIED>
<!ATTLIST feDropShadow
  xmlns:svg CDATA #FIXED "http://www.w3.org/Graphics/SVG/1.1/DTD/svg11.dtd"
  stdDeviation CDATA #IMPLIED>
<!ATTLIST feDropShadow
  xmlns:svg CDATA #FIXED "http://www.w3.org/Graphics/SVG/1.1/DTD/svg11.dtd"
  flood-opacity CDATA #IMPLIED>
<!ATTLIST feDropShadow
  xmlns:svg CDATA #FIXED "http://www.w3.org/Graphics/SVG/1.1/DTD/svg11.dtd"
  in CDATA #IMPLIED>
<!ATTLIST feDropShadow
  xmlns:svg CDATA #FIXED "http://www.w3.org/Graphics/SVG/1.1/DTD/svg11.dtd"
  result CDATA #IMPLIED>
<!ATTLIST feDropShadow
  xmlns:svg CDATA #FIXED "http://www.w3.org/Graphics/SVG/1.1/DTD/svg11.dtd"
  flood-color CDATA #IMPLIED>
]
>
<!-- Created with Vectornator (http://vectornator.io/) -->
<svg height="100%" stroke-miterlimit="10" style="fill-rule:nonzero;clip-rule:evenodd;stroke-linecap:round;stroke-linejoin:round;" version="1.1" viewBox="0 0 1024 1024" width="100%" xml:space="preserve" xmlns="http://www.w3.org/2000/svg" xmlns:vectornator="http://vectornator.io" xmlns:xlink="http://www.w3.org/1999/xlink">
<defs>
<clipPath id="TextBounds">
<rect height="861.588" transform="matrix(0.614981 -0.788542 0.788542 0.614981 -275.584 92.8005)" width="683.244" x="213.828" y="160.239"/>
</clipPath>
</defs>
<clipPath id="ArtboardFrame">
<rect height="1024" width="1024" x="0" y="0"/>
</clipPath>
<g clip-path="url(#ArtboardFrame)" id="Layer-1" vectornator:layerName="Layer 1">
<path d="M337.357 56.1719C337.357 56.1719 364.349 2.38001 499.309 2.38001C634.27 2.38001 661.262 56.1719 661.262 56.1719C661.262 56.1719 688.254 190.652 634.27 217.548C634.27 217.548 602.689 190.652 499.309 190.652C395.93 190.652 364.349 217.548 364.349 217.548C312.902 203.266 337.357 56.1719 337.357 56.1719Z" fill="#6a1b9a" fill-rule="evenodd" opacity="1" stroke="none"/>
<path d="M599.531 277.526C641.962 214.643 665.149 146.542 665.149 115.128C665.149 83.6596 661.262 56.1719 661.262 56.1719C661.262 56.1719 738.405 226.45 761.537 281.452C784.67 336.508 753.818 411.198 722.966 458.347C692.114 505.549 279.459 1024.43 279.459 1024.43L121.42 890.753C121.42 890.753 557.126 340.408 599.531 277.526Z" fill="#ab47bc" fill-rule="evenodd" opacity="1" stroke="none"/>
<path d="M877.198 890.753L719.16 1024.43C719.16 1024.43 306.532 505.549 275.653 458.347C244.801 411.198 213.949 336.508 237.081 281.452C260.213 226.45 337.357 56.1719 337.357 56.1719C337.357 56.1719 333.47 83.6596 333.47 115.128C333.47 146.542 356.629 214.643 399.088 277.526C441.492 340.408 877.198 890.753 877.198 890.753Z" fill="#ba68c8" fill-rule="evenodd" opacity="1" stroke="none"/>
<path d="M499.309 746.86C452.694 687.769 406.106 628.464 367.318 578.733C355.846 593.338 344.402 607.915 333.011 622.412C372.527 673.057 418.981 732.094 464.921 790.351C476.312 775.988 487.784 761.438 499.309 746.86ZM499.309 409.719C538.421 460.149 584.658 519.293 631.301 578.733C643.555 562.999 654.973 548.287 665.392 534.839C616.941 473.086 571 414.238 533.373 365.664C522.819 379.354 511.429 394.066 499.309 409.719Z" fill="#7b1fa2" fill-rule="evenodd" opacity="1" stroke="none"/>
</g>
<g id="Name" vectornator:layerName="Name">
<text clip-path="url(#TextBounds)" fill="#efe9f0" font-family="Helvetica-Bold" font-size="100" opacity="1" stroke="none" text-anchor="middle" transform="matrix(0.614981 0.788542 -0.788542 0.614981 242.656 160.239)" vectornator:text="Multiple&#x20;Myeloma" vectornator:width="1054.12" x="0" y="0">
<tspan textLength="833.447" x="532.062" y="97">Multiple Myeloma</tspan>
</text>
</g>
</svg>
