<?xml version="1.0" encoding="iso-8859-1"?>
<!-- Generator: Adobe Illustrator 19.0.0, SVG Export Plug-In . SVG Version: 6.00 Build 0)  -->
<svg xmlns="http://www.w3.org/2000/svg" xmlns:xlink="http://www.w3.org/1999/xlink" version="1.1" id="Capa_1" x="0px" y="0px" viewBox="0 0 473.023 473.023" style="enable-background:new 0 0 473.023 473.023;" xml:space="preserve" width="512" height="512">
<g>
	<path style="fill:#F2EBD9;" d="M394.747,112.94h-29.7l-52.145,20.009l-52.145-19.989h-27.27c-17.56,0-31.93,14.37-31.93,31.93V7.5   c0-4.143-3.358-7.5-7.5-7.5s-7.5,3.357-7.5,7.5v30.44h-20.052V7.5c0-4.143-3.358-7.5-7.5-7.5s-7.5,3.357-7.5,7.5v30.44h-20.052V7.5   c0-4.143-3.358-7.5-7.5-7.5s-7.5,3.357-7.5,7.5v30.44H96.399V7.5c0-4.143-3.358-7.5-7.5-7.5s-7.5,3.357-7.5,7.5v30.44H61.347V7.5   c0-4.143-3.358-7.5-7.5-7.5s-7.5,3.357-7.5,7.5v320.63c0,17.57,14.37,31.96,31.93,31.96l29.18-0.01l52.295-20.005l52.295,19.995   l27.49-0.01c17.56,0,31.93-14.36,31.93-31.93v137.393c0,4.143,3.358,7.5,7.5,7.5s7.5-3.357,7.5-7.5V435.09h16.302v30.433   c0,4.143,3.358,7.5,7.5,7.5s7.5-3.357,7.5-7.5V435.09h23.801v30.433c0,4.143,3.358,7.5,7.5,7.5s7.5-3.357,7.5-7.5V435.09h23.802   v30.433c0,4.143,3.358,7.5,7.5,7.5s7.5-3.357,7.5-7.5V435.09h16.305v30.433c0,4.143,3.358,7.5,7.5,7.5s7.5-3.357,7.5-7.5V144.89   C426.677,127.33,412.307,112.94,394.747,112.94z"/>
	<path style="fill:#FFCC75;" d="M107.827,360.08c-0.12,0.01-0.25,0-0.37,0c-17.19-0.44-31.11-14.65-31.11-31.95V67.94h95.21v250.22   c0,11.57,4.71,22.05,12.31,29.64c7.27,7.26,17.2,11.88,28.18,12.27L107.827,360.08z"/>
	<path style="fill:#FFCC75;" d="M396.677,405.09h-95.21V154.86c0-11.57-4.71-22.05-12.31-29.64c-7.32-7.3-17.33-11.93-28.4-12.26   l103.99-0.02c0.1,0,0.2,0,0.3,0c17.42,0.16,31.63,14.49,31.63,31.95V405.09z"/>
	<path style="fill:#FFCC75;" d="M259.493,142.889h-57.94V318.16c0,6.613,5.361,11.974,11.974,11.974h57.94V154.863   C271.467,148.25,266.106,142.889,259.493,142.889z"/>
</g>















</svg>
