<?xml version="1.0" encoding="iso-8859-1"?>
<!-- Generator: Adobe Illustrator 19.0.0, SVG Export Plug-In . SVG Version: 6.00 Build 0)  -->
<svg version="1.1" id="Layer_1" xmlns="http://www.w3.org/2000/svg" xmlns:xlink="http://www.w3.org/1999/xlink" x="0px" y="0px"
	 viewBox="0 0 511.935 511.935" style="enable-background:new 0 0 511.935 511.935;" xml:space="preserve">
<g>
	<g>
		<path d="M447.071,238.626c-0.12-0.171-0.231-0.345-0.349-0.517c-1.603-2.359-3.097-4.982-4.561-8.001
			c-0.168-0.347-0.366-0.674-0.577-0.992c-3.119-6.762-4.764-13.799-4.764-20.823V93.802V59.737V8.536
			c0-4.713-3.82-8.533-8.533-8.533h-42.616c-0.017,0-0.034-0.003-0.051-0.003s-0.034,0.002-0.051,0.003h-25.498
			c-0.017,0-0.034-0.003-0.051-0.003s-0.034,0.002-0.051,0.003h-34.032c-0.017,0-0.034-0.003-0.051-0.003s-0.034,0.002-0.051,0.003
			h-34.032c-0.017,0-0.034-0.003-0.051-0.003s-0.034,0.002-0.051,0.003H257.62c-4.713,0-8.533,3.82-8.533,8.533v51.201V93.87v107.4
			c0,24.552-11.734,47.615-31.58,62.069L75.223,366.95c-0.564,0.562-1.096,1.142-1.641,1.714c-0.298,0.239-0.586,0.491-0.852,0.771
			C49.95,393.422,43.919,427.5,54.749,456.83c0.064,0.174,0.122,0.35,0.187,0.524c0.354,0.941,0.737,1.873,1.127,2.803
			c0.139,0.332,0.267,0.668,0.41,0.998c0.34,0.784,0.707,1.557,1.072,2.333c0.215,0.457,0.418,0.918,0.641,1.372
			c0.325,0.659,0.677,1.308,1.02,1.961c0.289,0.55,0.567,1.105,0.869,1.65c0.318,0.572,0.661,1.134,0.993,1.7
			c0.355,0.606,0.699,1.216,1.07,1.815c0.331,0.534,0.689,1.056,1.033,1.584c0.4,0.613,0.788,1.231,1.205,1.836
			c0.383,0.555,0.794,1.096,1.192,1.644c0.408,0.561,0.802,1.129,1.225,1.683c0.541,0.708,1.114,1.398,1.68,2.092
			c0.308,0.377,0.599,0.763,0.915,1.137c0.901,1.067,1.832,2.117,2.795,3.149c0.976,1.046,1.976,2.059,2.992,3.044
			c0.344,0.334,0.7,0.647,1.049,0.974c0.67,0.628,1.338,1.256,2.024,1.858c0.489,0.43,0.99,0.837,1.486,1.254
			c0.555,0.465,1.107,0.935,1.672,1.384c0.585,0.466,1.181,0.911,1.776,1.359c0.484,0.365,0.967,0.733,1.458,1.086
			c0.668,0.481,1.345,0.943,2.024,1.403c0.424,0.286,0.846,0.574,1.274,0.851c0.747,0.486,1.502,0.955,2.261,1.415
			c0.362,0.219,0.723,0.437,1.088,0.65c0.828,0.485,1.662,0.954,2.503,1.408c0.292,0.157,0.584,0.312,0.877,0.466
			c0.917,0.482,1.84,0.948,2.771,1.393c0.203,0.097,0.406,0.19,0.61,0.285c1.023,0.48,2.052,0.942,3.091,1.379
			c0.078,0.033,0.157,0.064,0.236,0.096c30.367,12.66,66.724,6.877,91.715-17.698l144.71-103.245
			c6.976-4.982,15.08-8.395,23.93-10.221c0.521,0.002,1.045-0.032,1.566-0.127c4.529-0.827,8.533-1.3,12.315-1.413
			c0.115-0.003,0.23-0.005,0.346-0.007c0.441-0.011,0.881-0.02,1.317-0.02c1.492-0.004,2.983-0.055,4.474-0.139
			c5.172-0.289,10.354-1.061,15.522-2.344c6.221-1.542,12.167-3.777,17.766-6.593c25.596-12.872,43.846-38.115,46.904-67.057
			c0.275-2.618,0.432-5.226,0.472-7.818C462.694,270.596,457.294,253.234,447.071,238.626z M410.289,346.813
			c-0.01,0.005-0.019,0.01-0.029,0.016c-5.304,2.991-11.043,5.304-17.099,6.803c-3.96,0.983-7.917,1.594-11.87,1.848
			c-1.35,0.086-2.699,0.13-4.046,0.132c-4.413,0.012-8.75,0.316-12.99,0.899c-13.473-12.772-21.301-30.485-21.301-49.491
			c0-37.706,30.56-68.267,68.267-68.267c5.863,0,11.636,0.753,17.241,2.217c1.032,1.881,2.152,3.734,3.354,5.556
			c0.412,0.634,0.83,1.259,1.259,1.873c8.19,11.7,12.503,25.557,12.271,40.093c-0.033,2.076-0.159,4.165-0.38,6.264
			c-2.306,21.827-15.563,41.129-34.374,51.879C410.49,346.693,410.391,346.755,410.289,346.813z M266.153,68.27h153.6v17.002
			l-153.6,0.061V68.27z M283.22,17.069v8.352c0,4.713,3.821,8.533,8.533,8.533s8.533-3.82,8.533-8.533v-8.352h17.067v8.352
			c0,4.713,3.82,8.533,8.533,8.533s8.533-3.82,8.533-8.533v-8.352h17.067v8.352c0,4.713,3.82,8.533,8.533,8.533
			s8.533-3.82,8.533-8.533v-8.352h8.533v8.463c0,4.713,3.82,8.533,8.533,8.533s8.533-3.82,8.533-8.533v-8.463h25.6v34.134h-153.6
			V17.069H283.22z M172.127,482.91c-21.188,14.672-48.582,15.678-70.507,3.722c-0.033-0.018-0.066-0.034-0.099-0.052
			c-0.696-0.381-1.383-0.785-2.068-1.192c-0.248-0.148-0.498-0.292-0.744-0.443c-0.584-0.357-1.16-0.731-1.734-1.107
			c-0.344-0.226-0.688-0.453-1.029-0.686c-0.505-0.345-1.006-0.699-1.504-1.059c-0.409-0.296-0.814-0.599-1.218-0.905
			c-0.437-0.331-0.872-0.666-1.303-1.009c-0.466-0.373-0.926-0.758-1.385-1.145c-0.366-0.308-0.734-0.614-1.094-0.931
			c-0.552-0.486-1.093-0.99-1.633-1.498c-0.262-0.246-0.529-0.484-0.787-0.735c-0.803-0.779-1.593-1.579-2.365-2.406
			c-0.753-0.807-1.48-1.628-2.186-2.461c-0.237-0.28-0.458-0.57-0.69-0.853c-0.452-0.551-0.906-1.102-1.338-1.664
			c-0.313-0.407-0.606-0.824-0.908-1.236c-0.328-0.447-0.661-0.891-0.976-1.345c-0.336-0.484-0.654-0.977-0.976-1.467
			c-0.256-0.39-0.518-0.776-0.765-1.17c-0.342-0.546-0.666-1.099-0.991-1.653c-0.203-0.345-0.412-0.688-0.608-1.036
			c-0.339-0.602-0.661-1.211-0.981-1.821c-0.159-0.304-0.322-0.605-0.477-0.911c-0.331-0.657-0.646-1.32-0.954-1.985
			c-0.121-0.262-0.246-0.522-0.364-0.785c-0.319-0.712-0.622-1.43-0.914-2.15c-0.088-0.217-0.178-0.432-0.264-0.65
			c-0.303-0.77-0.591-1.544-0.865-2.322c-0.059-0.166-0.118-0.331-0.175-0.498c-0.286-0.833-0.555-1.67-0.808-2.512
			c-0.032-0.106-0.064-0.212-0.095-0.317c-0.265-0.902-0.513-1.807-0.74-2.717c-0.01-0.038-0.019-0.077-0.029-0.115
			c-5.074-20.505-0.359-42.909,14.076-59.859c49.907,2.207,89.657,43.346,89.657,93.749
			C172.289,479.383,172.235,481.117,172.127,482.91z M327.882,370.582l-138.819,99.043c-3.579-49.804-40.048-90.516-87.834-100.5
			l126.325-91.99c24.256-17.667,38.599-45.856,38.599-75.865V102.4l153.6-0.061v105.954c0,4.713,0.545,9.394,1.578,13.999
			c-3.34-0.399-6.714-0.605-10.111-0.605c-47.132,0-85.333,38.201-85.333,85.333c0,20.172,7.069,39.197,19.502,54.247
			C339.153,363.631,333.277,366.729,327.882,370.582z"/>
	</g>
</g>
<g>
</g>
<g>
</g>
<g>
</g>
<g>
</g>
<g>
</g>
<g>
</g>
<g>
</g>
<g>
</g>
<g>
</g>
<g>
</g>
<g>
</g>
<g>
</g>
<g>
</g>
<g>
</g>
<g>
</g>
</svg>
