<?xml version="1.0" standalone="no"?>
<!DOCTYPE svg PUBLIC "-//W3C//DTD SVG 20010904//EN"
 "http://www.w3.org/TR/2001/REC-SVG-20010904/DTD/svg10.dtd">
<svg version="1.0" xmlns="http://www.w3.org/2000/svg"
 width="4081.000000pt" height="4081.000000pt" viewBox="0 0 4081.000000 4081.000000"
 preserveAspectRatio="xMidYMid meet">

<g transform="translate(0.000000,4081.000000) scale(0.100000,-0.100000)"
fill="#000000" stroke="none">
<path d="M36212 40785 c-75 -15 -96 -32 -118 -97 -13 -41 -24 -55 -64 -79 -31
-19 -54 -43 -65 -67 -24 -51 -50 -81 -90 -109 -19 -13 -51 -49 -72 -80 -39
-60 -160 -196 -282 -318 -39 -39 -76 -85 -82 -103 -6 -19 -25 -40 -47 -53 -58
-35 -83 -61 -103 -107 -11 -26 -31 -49 -50 -60 -59 -32 -80 -55 -103 -107 -19
-42 -31 -55 -63 -68 -47 -18 -60 -33 -93 -100 -20 -41 -35 -56 -75 -77 -44
-22 -53 -32 -71 -80 -19 -48 -29 -59 -73 -83 -44 -24 -56 -38 -82 -90 -20 -43
-42 -70 -69 -89 -21 -15 -52 -47 -67 -70 -15 -24 -63 -81 -106 -127 -43 -46
-89 -100 -101 -120 -13 -20 -48 -58 -79 -84 -31 -26 -68 -69 -82 -95 -17 -30
-44 -59 -75 -79 -35 -23 -57 -48 -75 -84 -16 -30 -38 -57 -57 -67 -57 -32 -78
-54 -99 -103 -18 -40 -31 -54 -73 -77 -42 -22 -56 -37 -81 -86 -25 -49 -39
-64 -80 -86 -43 -23 -52 -34 -70 -81 -18 -47 -27 -58 -74 -82 -38 -21 -56 -39
-68 -65 -9 -21 -21 -48 -27 -60 -5 -13 -26 -32 -46 -42 -43 -22 -61 -42 -89
-97 -11 -23 -41 -59 -67 -80 -25 -21 -70 -73 -101 -116 -30 -42 -77 -96 -104
-120 -27 -23 -63 -63 -79 -89 -16 -26 -52 -64 -78 -83 -31 -22 -58 -53 -74
-82 -16 -33 -40 -58 -73 -80 -36 -23 -58 -48 -80 -89 -24 -44 -41 -62 -80 -84
-42 -23 -55 -38 -80 -89 -23 -46 -37 -64 -60 -71 -47 -16 -73 -44 -93 -96 -15
-42 -25 -53 -67 -74 -49 -25 -61 -40 -89 -112 -11 -28 -26 -43 -62 -61 -39
-20 -54 -35 -79 -83 -18 -36 -47 -71 -73 -91 -24 -18 -59 -56 -78 -85 -20 -29
-63 -80 -96 -113 -33 -33 -78 -85 -98 -115 -21 -31 -59 -73 -85 -94 -26 -22
-60 -61 -77 -87 -16 -26 -51 -64 -77 -83 -31 -22 -59 -54 -77 -88 -19 -33 -40
-58 -59 -67 -47 -21 -83 -60 -101 -108 -14 -36 -26 -48 -61 -65 -48 -23 -80
-57 -90 -97 -8 -36 -19 -48 -73 -77 -48 -26 -56 -37 -84 -106 -11 -28 -27 -43
-65 -62 -42 -22 -55 -35 -78 -83 -21 -44 -38 -64 -72 -83 -33 -19 -52 -40 -74
-84 -18 -32 -50 -74 -74 -93 -24 -20 -60 -59 -80 -87 -21 -28 -72 -87 -114
-131 -42 -45 -84 -95 -93 -113 -9 -17 -41 -50 -71 -72 -37 -27 -63 -57 -81
-91 -15 -30 -38 -57 -56 -67 -56 -31 -76 -52 -99 -101 -16 -36 -32 -55 -63
-71 -59 -33 -74 -48 -87 -89 -15 -48 -36 -70 -83 -89 -33 -13 -43 -25 -67 -78
-25 -55 -35 -66 -73 -83 -46 -20 -70 -47 -81 -94 -7 -28 -41 -60 -94 -89 -20
-11 -40 -36 -57 -73 -17 -35 -44 -70 -71 -92 -25 -20 -59 -57 -76 -82 -17 -25
-64 -79 -104 -119 -40 -40 -84 -93 -98 -116 -14 -24 -48 -62 -76 -86 -28 -24
-66 -67 -85 -95 -20 -32 -50 -63 -77 -78 -32 -19 -52 -41 -73 -81 -22 -43 -40
-61 -77 -82 -39 -21 -53 -36 -75 -82 -23 -48 -35 -61 -77 -83 -50 -25 -62 -40
-89 -110 -10 -27 -25 -42 -61 -59 -41 -20 -51 -31 -74 -82 -22 -50 -33 -63
-76 -86 -41 -22 -55 -38 -80 -87 -23 -45 -40 -65 -75 -85 -33 -19 -54 -43 -80
-89 -20 -35 -53 -76 -73 -91 -21 -15 -56 -54 -79 -87 -22 -32 -73 -92 -113
-133 -40 -41 -81 -90 -91 -108 -10 -18 -44 -52 -76 -77 -37 -28 -65 -61 -78
-88 -12 -25 -34 -51 -53 -61 -53 -31 -78 -58 -102 -112 -18 -42 -30 -54 -57
-63 -43 -14 -71 -44 -89 -94 -15 -44 -22 -51 -81 -80 -35 -18 -48 -33 -72 -83
-24 -50 -37 -64 -75 -85 -37 -19 -52 -35 -76 -84 -21 -42 -40 -65 -62 -76 -50
-25 -63 -39 -91 -97 -18 -38 -40 -65 -72 -88 -25 -18 -56 -51 -68 -73 -12 -22
-54 -71 -92 -110 -38 -39 -87 -94 -108 -124 -22 -29 -63 -73 -92 -97 -28 -23
-62 -64 -75 -90 -17 -34 -39 -57 -74 -79 -37 -22 -57 -44 -76 -81 -19 -37 -39
-59 -76 -82 -40 -24 -56 -43 -77 -87 -23 -47 -35 -60 -75 -79 -43 -20 -52 -31
-77 -86 -25 -54 -35 -66 -68 -79 -43 -17 -92 -69 -92 -96 0 -23 -37 -71 -55
-71 -26 0 -81 -59 -94 -99 -6 -22 -23 -49 -37 -58 -61 -43 -86 -68 -105 -105
-11 -22 -46 -65 -78 -96 -32 -31 -75 -79 -97 -107 -21 -27 -70 -84 -109 -125
-39 -41 -79 -88 -89 -105 -10 -16 -37 -43 -62 -60 -29 -20 -54 -49 -74 -87
-24 -45 -41 -63 -80 -84 -41 -22 -55 -37 -76 -81 -16 -35 -36 -61 -56 -71 -58
-32 -81 -56 -104 -108 -18 -42 -30 -54 -57 -63 -39 -13 -82 -55 -92 -91 -13
-44 -34 -69 -77 -88 -43 -19 -53 -32 -82 -104 -11 -28 -27 -43 -66 -63 -43
-22 -54 -34 -74 -79 -15 -34 -40 -66 -70 -91 -26 -21 -64 -63 -84 -94 -20 -30
-61 -78 -90 -106 -30 -27 -74 -78 -99 -112 -24 -34 -67 -81 -94 -104 -28 -23
-61 -64 -75 -90 -17 -34 -36 -55 -62 -68 -45 -23 -63 -42 -91 -99 -13 -24 -36
-51 -53 -60 -56 -31 -86 -62 -104 -108 -14 -36 -25 -49 -58 -64 -51 -23 -80
-54 -95 -102 -14 -42 -23 -51 -83 -81 -35 -18 -46 -31 -61 -72 -20 -54 -43
-85 -62 -85 -25 0 -66 -43 -91 -96 -19 -40 -35 -59 -62 -73 -44 -23 -63 -43
-90 -97 -12 -23 -42 -60 -68 -83 -25 -22 -71 -73 -101 -113 -31 -40 -81 -98
-112 -128 -31 -31 -68 -74 -83 -97 -15 -23 -45 -54 -68 -68 -25 -16 -52 -46
-72 -81 -22 -39 -45 -65 -79 -85 -35 -22 -54 -44 -76 -87 -24 -46 -38 -61 -74
-79 -49 -23 -69 -47 -88 -104 -9 -29 -21 -40 -60 -58 -59 -26 -64 -32 -88 -95
-10 -27 -27 -54 -38 -60 -79 -42 -93 -56 -110 -107 -13 -37 -25 -56 -47 -68
-54 -29 -85 -60 -101 -100 -10 -23 -37 -57 -68 -82 -28 -24 -65 -64 -82 -89
-17 -25 -67 -83 -112 -130 -45 -47 -90 -99 -100 -117 -10 -18 -39 -47 -63 -65
-24 -18 -58 -57 -74 -86 -19 -32 -52 -68 -86 -95 -38 -28 -65 -59 -82 -92 -17
-33 -36 -56 -59 -67 -49 -25 -79 -56 -97 -104 -11 -30 -25 -46 -46 -55 -48
-20 -86 -57 -99 -97 -16 -50 -27 -62 -74 -82 -49 -21 -62 -36 -84 -97 -14 -41
-24 -52 -68 -75 -41 -23 -54 -37 -72 -77 -14 -33 -39 -65 -77 -97 -30 -26 -62
-61 -71 -78 -9 -17 -48 -65 -88 -106 -40 -41 -90 -100 -113 -131 -23 -32 -62
-74 -87 -94 -25 -21 -57 -60 -72 -87 -19 -35 -43 -60 -78 -83 -38 -24 -57 -45
-75 -84 -20 -42 -35 -58 -78 -82 -43 -24 -57 -39 -80 -87 -22 -47 -35 -61 -74
-81 -37 -19 -52 -34 -69 -70 -11 -25 -24 -53 -28 -61 -4 -8 -29 -25 -55 -38
-41 -19 -51 -31 -75 -85 -24 -52 -36 -66 -74 -86 -35 -18 -51 -34 -67 -70 -27
-56 -44 -77 -92 -107 -21 -13 -47 -43 -59 -65 -11 -23 -56 -79 -100 -126 -44
-46 -90 -101 -104 -122 -13 -22 -49 -61 -80 -87 -31 -27 -68 -70 -82 -96 -17
-31 -42 -57 -74 -76 -34 -22 -55 -45 -73 -81 -25 -49 -35 -59 -106 -104 -21
-14 -40 -38 -50 -62 -22 -58 -26 -63 -79 -90 -47 -23 -55 -34 -88 -115 -6 -14
-31 -35 -59 -50 -47 -24 -56 -35 -89 -110 -10 -24 -30 -43 -62 -60 -40 -21
-53 -36 -81 -90 -22 -44 -45 -74 -72 -92 -22 -15 -51 -47 -66 -70 -15 -24 -62
-79 -104 -123 -42 -44 -88 -98 -102 -121 -14 -22 -49 -60 -77 -83 -28 -23 -63
-65 -78 -93 -19 -35 -43 -60 -80 -84 -41 -26 -59 -46 -78 -86 -20 -42 -35 -58
-73 -78 -38 -20 -53 -36 -77 -85 -25 -48 -39 -63 -77 -83 -45 -23 -68 -54 -91
-124 -3 -9 -29 -29 -57 -43 -45 -23 -55 -34 -79 -88 -24 -54 -34 -65 -75 -84
-39 -19 -51 -32 -74 -80 -17 -37 -42 -68 -68 -88 -23 -16 -65 -66 -95 -109
-30 -43 -71 -93 -93 -110 -21 -17 -58 -59 -83 -93 -24 -34 -66 -81 -93 -103
-27 -23 -61 -63 -75 -88 -16 -30 -44 -60 -77 -82 -36 -24 -59 -50 -76 -84 -14
-28 -36 -55 -54 -65 -55 -29 -86 -61 -99 -99 -16 -49 -24 -59 -73 -80 -50 -23
-60 -34 -83 -97 -16 -42 -26 -54 -73 -80 -47 -26 -57 -37 -75 -85 -16 -42 -29
-60 -57 -75 -53 -30 -64 -42 -86 -89 -19 -38 -67 -91 -105 -113 -8 -4 -38 -42
-65 -83 -28 -41 -76 -100 -107 -130 -32 -30 -70 -76 -86 -101 -16 -25 -48 -60
-73 -77 -26 -19 -58 -55 -76 -87 -22 -38 -44 -62 -69 -75 -43 -22 -57 -36 -91
-98 -17 -31 -40 -55 -70 -72 -35 -20 -52 -39 -75 -85 -25 -49 -39 -65 -78 -85
-36 -19 -52 -35 -68 -70 -11 -25 -24 -52 -28 -60 -4 -8 -29 -25 -55 -38 -41
-19 -51 -30 -75 -86 -24 -52 -37 -68 -72 -87 -32 -18 -52 -40 -79 -88 -20 -34
-53 -76 -74 -92 -21 -15 -63 -63 -93 -106 -30 -43 -77 -98 -104 -122 -28 -24
-64 -65 -80 -90 -15 -25 -52 -64 -81 -86 -32 -25 -62 -59 -77 -88 -16 -32 -36
-54 -60 -67 -48 -24 -76 -56 -96 -108 -14 -34 -27 -48 -66 -68 -52 -26 -70
-47 -89 -107 -10 -31 -20 -42 -55 -57 -48 -20 -81 -57 -90 -101 -7 -29 -16
-38 -85 -82 -22 -15 -46 -44 -65 -82 -21 -42 -40 -65 -62 -76 -48 -24 -57 -33
-88 -94 -16 -32 -47 -71 -72 -92 -23 -19 -67 -68 -97 -107 -30 -39 -75 -91
-101 -116 -26 -25 -60 -65 -76 -90 -15 -25 -52 -63 -81 -86 -30 -23 -66 -62
-83 -92 -20 -35 -46 -62 -78 -82 -38 -24 -53 -42 -72 -84 -20 -46 -32 -58 -72
-78 -41 -20 -52 -32 -78 -86 -23 -49 -36 -64 -60 -72 -42 -14 -78 -55 -99
-113 -15 -40 -25 -51 -67 -73 -42 -21 -53 -33 -73 -79 -18 -39 -37 -63 -73
-89 -27 -19 -59 -54 -73 -78 -13 -24 -58 -79 -100 -123 -42 -44 -87 -96 -100
-115 -13 -19 -53 -64 -89 -100 -36 -36 -74 -79 -83 -97 -9 -18 -40 -48 -68
-69 -34 -24 -59 -53 -76 -86 -16 -31 -37 -56 -57 -66 -46 -25 -92 -75 -103
-113 -7 -26 -21 -40 -55 -59 -67 -36 -76 -46 -94 -101 -15 -43 -23 -53 -64
-74 -56 -28 -63 -36 -86 -98 -15 -39 -26 -52 -66 -73 -38 -21 -53 -37 -73 -79
-15 -32 -43 -68 -71 -91 -26 -22 -67 -68 -93 -104 -25 -36 -72 -91 -104 -123
-32 -31 -72 -79 -89 -107 -17 -27 -52 -65 -79 -85 -30 -22 -60 -56 -76 -86
-19 -34 -43 -59 -75 -79 -37 -22 -55 -43 -78 -87 -23 -47 -37 -62 -70 -76 -48
-22 -77 -56 -91 -108 -9 -32 -19 -43 -63 -66 -43 -23 -57 -38 -82 -87 -25 -50
-38 -64 -80 -85 -43 -23 -52 -33 -70 -81 -16 -42 -29 -60 -57 -75 -55 -31 -67
-44 -94 -102 -15 -31 -43 -67 -66 -86 -22 -17 -66 -66 -97 -107 -30 -41 -77
-95 -104 -119 -27 -24 -63 -68 -82 -97 -18 -28 -54 -66 -79 -84 -27 -18 -55
-48 -67 -73 -23 -46 -57 -87 -72 -87 -25 0 -72 -49 -93 -96 -20 -45 -31 -57
-75 -79 -45 -23 -54 -34 -80 -90 -23 -51 -34 -65 -61 -74 -46 -16 -75 -47 -93
-100 -13 -39 -23 -50 -63 -71 -38 -20 -53 -36 -77 -84 -21 -42 -44 -69 -75
-91 -25 -18 -56 -51 -70 -77 -14 -25 -60 -83 -104 -129 -43 -46 -89 -100 -101
-119 -13 -20 -45 -56 -72 -79 -26 -23 -64 -65 -83 -93 -19 -28 -55 -66 -80
-83 -29 -20 -54 -51 -74 -87 -23 -44 -40 -62 -77 -83 -38 -20 -53 -37 -75 -82
-17 -35 -39 -62 -57 -72 -57 -31 -79 -54 -102 -106 -19 -44 -30 -56 -67 -72
-52 -24 -61 -34 -85 -98 -15 -41 -26 -53 -67 -74 -47 -25 -57 -38 -89 -113
-10 -23 -32 -47 -56 -63 -23 -14 -56 -50 -77 -82 -20 -32 -69 -92 -109 -133
-39 -41 -86 -95 -103 -121 -16 -25 -49 -58 -72 -74 -23 -16 -55 -52 -71 -80
-16 -29 -51 -67 -81 -90 -35 -27 -61 -57 -76 -88 -14 -30 -35 -55 -54 -65 -56
-31 -88 -64 -109 -113 -17 -38 -28 -50 -55 -59 -41 -14 -75 -52 -97 -112 -14
-35 -26 -49 -50 -59 -48 -19 -73 -46 -97 -104 -18 -44 -29 -57 -67 -77 -35
-18 -51 -35 -74 -80 -17 -33 -47 -72 -74 -94 -26 -21 -61 -58 -78 -83 -17 -25
-65 -82 -108 -126 -42 -45 -83 -95 -92 -111 -9 -17 -44 -55 -77 -84 -36 -31
-71 -73 -86 -101 -17 -34 -36 -55 -63 -69 -44 -22 -69 -50 -94 -106 -13 -28
-31 -46 -65 -64 -38 -20 -52 -36 -75 -83 -23 -48 -36 -61 -78 -83 -42 -21 -54
-33 -70 -72 -31 -73 -33 -75 -85 -103 -42 -23 -52 -34 -69 -80 -16 -41 -32
-63 -70 -91 -29 -22 -63 -60 -79 -90 -17 -28 -61 -83 -99 -122 -38 -38 -84
-91 -101 -118 -18 -26 -55 -65 -82 -87 -28 -22 -62 -62 -77 -89 -19 -35 -41
-59 -73 -77 -35 -20 -51 -39 -72 -83 -23 -48 -35 -61 -77 -82 -49 -25 -61 -40
-89 -112 -11 -28 -26 -43 -64 -62 -37 -19 -53 -35 -66 -63 -33 -76 -42 -87
-86 -113 -35 -20 -51 -38 -72 -82 -17 -35 -44 -70 -73 -93 -25 -21 -62 -62
-81 -91 -20 -30 -60 -77 -91 -106 -30 -29 -73 -81 -95 -116 -23 -35 -63 -79
-90 -99 -34 -25 -57 -52 -74 -88 -20 -42 -35 -58 -76 -80 -43 -24 -54 -36 -76
-85 -20 -48 -31 -61 -64 -76 -43 -19 -88 -66 -88 -92 -1 -33 -27 -64 -76 -91
-41 -22 -51 -34 -67 -76 -22 -59 -38 -79 -87 -106 -23 -13 -45 -39 -63 -73
-15 -29 -53 -77 -83 -105 -31 -29 -75 -83 -99 -119 -23 -37 -66 -86 -94 -110
-29 -24 -63 -65 -77 -93 -18 -36 -38 -58 -74 -80 -38 -23 -55 -42 -75 -85 -17
-36 -37 -62 -57 -72 -58 -32 -87 -63 -103 -111 -13 -40 -22 -51 -55 -66 -51
-23 -75 -50 -91 -103 -12 -41 -29 -60 -94 -106 -15 -10 -35 -38 -45 -62 -11
-24 -54 -81 -97 -127 -43 -45 -89 -104 -102 -130 -16 -32 -40 -57 -73 -78 -38
-24 -54 -44 -77 -93 -25 -50 -37 -65 -69 -79 -50 -22 -66 -41 -89 -102 -15
-41 -27 -54 -63 -74 -51 -28 -59 -38 -81 -101 -13 -39 -23 -49 -72 -74 -56
-29 -78 -60 -62 -85 4 -8 564 -11 1844 -11 1793 0 1839 0 1862 19 13 11 28 39
34 63 9 38 17 46 62 71 42 22 55 37 77 82 18 39 40 65 75 90 31 22 61 56 80
89 16 29 50 71 74 92 24 22 72 74 107 117 34 43 79 91 99 108 21 16 53 54 72
84 20 34 52 67 80 85 33 21 56 48 77 88 24 44 41 62 76 81 47 24 68 48 81 91
11 36 32 57 80 80 36 17 47 30 68 79 21 49 31 61 64 74 47 19 77 51 92 98 14
43 32 61 84 83 32 13 43 26 67 80 24 52 37 68 72 88 33 18 51 38 76 85 18 35
49 75 68 90 20 14 56 54 81 87 50 65 171 200 277 306 35 36 74 84 85 107 15
29 38 53 77 78 44 28 59 46 76 85 15 37 29 53 57 66 53 24 71 43 96 100 19 43
32 56 76 80 47 26 56 36 75 84 19 48 28 58 70 80 42 22 54 35 80 89 23 48 40
68 66 82 40 21 54 36 88 97 14 25 45 60 70 77 26 19 59 55 79 88 18 31 64 88
102 127 37 38 81 89 98 113 16 24 54 64 84 90 30 26 65 66 76 90 14 27 37 52
68 72 33 21 57 47 78 84 21 39 43 62 75 81 35 20 52 39 75 85 25 50 38 64 79
85 43 22 53 33 77 86 24 52 34 64 67 77 46 18 59 33 92 100 19 38 37 58 70 77
35 20 51 38 72 83 20 41 41 67 73 89 25 18 57 53 72 78 14 25 61 81 103 125
42 44 91 101 109 127 17 26 51 61 75 77 28 19 53 49 72 85 19 36 41 62 64 75
46 26 76 58 94 103 16 36 58 78 81 78 19 0 52 41 74 92 16 39 28 51 68 70 41
20 52 31 76 83 25 52 35 63 80 85 46 22 54 31 73 80 18 46 31 61 77 92 43 29
59 47 73 84 12 31 35 61 71 92 29 25 65 64 79 86 15 23 60 75 99 116 40 41 86
97 104 123 18 26 55 64 82 84 30 23 59 56 76 89 15 30 40 60 58 70 48 27 75
56 95 101 12 27 31 50 51 61 55 30 81 57 99 103 13 35 26 48 59 65 56 27 76
50 98 108 15 40 26 53 67 75 48 27 60 43 90 111 11 23 31 43 60 58 34 18 51
37 75 83 18 33 51 74 77 95 25 20 65 68 90 105 25 37 72 93 105 123 32 31 73
78 89 105 18 29 50 62 75 78 30 19 54 45 74 82 22 41 40 60 77 80 39 21 53 37
76 83 23 47 37 62 75 82 40 20 52 33 78 87 25 54 37 67 77 87 45 23 60 42 87
114 6 15 25 35 43 44 50 25 78 54 100 106 15 36 31 54 61 70 39 22 52 37 106
127 14 22 40 51 59 65 18 13 57 57 85 98 29 41 84 106 122 146 39 39 86 88
106 109 19 21 50 51 67 66 17 16 40 48 51 72 13 29 30 49 53 60 50 26 77 55
100 107 14 32 29 50 49 59 51 20 80 50 104 105 20 45 31 57 71 75 41 20 51 31
75 84 23 52 34 64 69 80 47 21 76 53 85 95 7 30 38 67 94 109 18 12 40 40 51
61 10 20 50 68 87 106 38 38 83 89 100 114 17 25 58 71 91 102 33 31 70 75 83
97 13 24 43 55 72 73 36 23 55 45 78 90 16 32 37 62 47 65 41 15 86 59 107
108 19 42 31 55 62 68 47 19 66 39 92 99 16 38 29 52 68 72 48 24 59 37 87
107 10 27 27 44 65 64 44 24 55 37 81 91 16 35 40 68 52 75 37 18 78 61 96 98
8 19 45 64 82 100 36 36 85 91 108 123 23 31 63 75 90 98 27 22 61 63 76 90
18 34 42 58 76 79 38 24 56 44 77 85 21 44 36 60 75 81 40 22 54 38 76 83 22
46 35 60 77 81 48 25 57 36 91 113 11 27 25 40 50 48 39 13 82 62 98 111 7 20
25 42 46 56 69 43 87 62 99 103 8 29 22 47 43 58 57 32 79 54 108 112 18 35
44 69 67 86 21 15 56 52 78 83 22 30 74 91 115 136 42 44 86 96 99 116 14 20
40 47 59 60 48 32 72 58 87 94 15 35 47 66 90 88 19 10 41 36 60 74 21 40 40
63 64 75 49 25 77 54 96 103 13 36 26 50 68 72 43 23 57 38 80 86 23 48 36 61
78 82 49 25 54 33 88 117 5 15 25 35 43 44 51 25 68 45 93 101 17 37 37 62 72
87 27 19 59 54 72 77 24 42 142 175 280 314 38 39 78 88 89 110 14 27 37 52
71 72 36 23 57 45 74 80 27 52 46 72 92 96 19 10 41 36 60 73 25 49 39 63 78
82 43 20 52 30 77 86 25 54 35 66 63 76 43 13 65 37 97 103 19 38 36 58 70 77
35 20 51 38 72 83 19 39 39 64 67 81 41 26 50 37 102 118 16 25 41 53 54 62
14 9 58 58 99 109 41 50 93 110 116 132 23 22 55 60 70 83 15 24 49 60 76 81
28 21 60 58 76 86 19 35 40 56 75 76 39 22 53 38 77 87 22 46 38 64 60 73 45
18 84 57 97 98 15 48 26 59 68 77 51 21 68 40 86 95 15 43 23 53 66 74 51 26
73 52 84 97 8 31 30 53 77 76 23 12 43 36 66 79 19 37 51 77 78 99 25 21 60
58 77 83 32 47 157 187 269 301 36 36 77 86 92 113 17 30 40 54 65 67 45 22
69 50 95 108 13 28 29 45 56 57 50 22 76 51 93 100 10 31 24 46 59 65 66 36
75 46 93 99 13 42 21 50 69 74 50 24 56 31 76 85 16 44 29 63 53 77 51 29 78
57 97 102 13 28 37 55 74 82 32 24 64 58 76 81 11 22 51 70 88 107 38 38 87
95 109 128 22 33 61 75 86 94 25 18 57 55 72 82 17 32 43 60 75 81 35 23 58
49 79 88 24 45 41 62 81 84 42 23 56 38 78 84 23 47 35 60 77 82 44 22 53 32
71 80 18 45 29 59 62 75 59 29 79 52 97 105 13 39 23 51 53 65 52 24 80 52 93
94 14 45 33 66 78 92 23 13 49 42 71 81 19 33 54 76 78 96 23 19 66 67 94 106
28 39 74 91 101 115 27 25 63 66 81 92 18 27 54 65 80 84 26 21 60 60 77 91
22 38 43 61 69 74 43 22 68 50 93 106 13 28 31 46 65 64 38 20 53 36 77 85 22
43 39 65 64 77 49 24 73 51 91 100 12 36 23 47 65 67 56 27 69 41 86 91 15 45
35 68 81 91 28 14 46 35 67 78 18 34 47 72 70 90 22 18 65 67 95 110 31 43 72
91 91 106 20 15 60 59 89 99 30 39 71 84 93 99 23 16 52 50 68 78 19 35 42 60
76 81 37 23 57 44 77 84 21 42 39 61 77 83 38 22 55 41 79 87 25 48 39 63 76
80 45 21 55 35 84 106 11 28 27 43 66 63 45 23 55 33 79 88 24 54 34 65 75 85
39 19 51 31 70 75 26 56 43 76 93 101 21 11 43 36 64 77 18 34 51 75 72 93 21
17 63 63 93 103 30 40 77 94 105 120 28 26 69 74 90 105 21 31 47 59 58 63 23
7 79 69 103 113 9 17 39 45 66 62 44 27 82 77 82 107 0 14 41 47 81 65 29 13
42 29 64 76 22 49 35 63 66 77 48 22 73 49 90 98 15 44 26 54 83 82 29 15 46
33 59 60 37 82 44 91 86 114 34 18 48 35 67 76 14 34 39 66 69 91 26 21 61 58
78 83 17 25 64 78 104 119 41 41 87 93 102 116 16 23 53 63 83 88 30 25 65 68
78 94 14 26 38 55 54 63 49 27 76 54 104 106 17 31 39 55 57 64 45 21 65 41
92 94 14 29 37 55 55 65 55 30 86 62 99 100 16 49 26 61 71 79 46 18 74 52 88
104 9 33 19 43 60 64 50 26 72 50 85 95 10 34 33 59 77 81 27 14 46 35 69 80
22 40 47 70 75 90 23 16 53 46 65 66 13 21 60 76 104 123 45 47 94 104 109
126 15 23 50 61 77 84 28 23 63 63 78 87 16 25 50 61 77 82 27 20 64 61 81 91
23 38 46 61 79 79 36 20 52 38 75 83 21 42 39 63 67 77 48 25 77 57 92 105 10
30 21 42 54 57 53 23 81 54 98 104 10 32 22 44 58 61 46 23 90 66 90 89 0 33
27 67 70 91 37 20 53 37 71 76 21 46 78 108 99 108 4 0 29 30 55 68 26 37 66
84 90 105 24 20 68 70 98 110 30 39 73 87 96 105 22 18 56 57 75 86 19 30 55
68 81 86 28 19 57 52 75 84 21 37 45 63 80 84 38 24 56 44 77 86 21 44 36 60
68 75 47 22 67 43 85 91 18 48 28 59 69 76 51 21 68 40 86 93 13 40 22 50 73
76 51 27 59 36 78 85 19 47 29 59 70 82 38 21 55 39 79 84 20 39 45 68 75 89
27 19 56 51 72 81 14 27 47 67 71 89 24 22 66 67 92 100 50 63 155 178 279
305 40 41 78 89 85 105 7 20 31 42 65 63 43 25 59 42 79 86 20 41 36 60 64 75
46 23 64 42 92 98 16 32 34 49 70 67 52 27 71 50 90 108 10 32 22 43 69 65 52
26 58 33 77 83 18 48 26 58 67 78 48 23 61 38 88 105 10 26 31 48 65 70 35 23
58 48 78 85 17 30 47 66 70 83 22 16 55 51 73 77 18 26 71 87 118 137 48 49
86 94 86 99 0 5 35 44 78 86 42 42 86 91 97 110 11 18 40 48 65 65 26 19 58
54 78 88 23 40 45 63 72 77 41 21 75 58 86 93 10 33 32 54 80 77 40 20 69 60
86 120 3 8 27 26 54 40 41 21 54 35 79 84 25 50 38 64 79 85 53 28 56 31 85
103 16 39 27 50 66 67 39 17 49 28 71 76 19 41 39 66 73 90 25 18 64 60 85 93
21 33 55 73 76 88 20 15 54 52 75 82 22 29 66 79 98 110 32 31 77 83 98 115
22 32 61 73 86 91 26 19 60 57 78 87 21 36 46 62 75 79 33 19 53 41 76 84 25
46 42 64 80 85 40 21 54 36 76 83 23 49 35 61 78 83 44 23 54 33 76 84 23 52
31 61 70 76 48 18 74 49 94 108 10 31 20 42 55 57 47 20 81 57 90 100 7 30 56
80 79 80 19 0 53 41 71 87 11 27 36 59 66 84 27 23 65 65 84 94 20 29 67 83
105 121 39 38 80 88 91 112 12 23 32 50 46 60 56 38 86 70 111 116 19 35 41
58 72 76 35 20 51 38 73 83 23 48 36 61 78 83 45 22 54 33 77 85 22 51 32 63
71 82 45 22 62 45 96 128 6 13 31 38 57 54 35 22 54 44 72 81 13 28 44 68 68
90 24 21 73 76 107 121 34 46 82 99 105 118 24 19 57 62 75 94 21 40 40 62 61
71 39 16 85 69 100 114 9 29 22 42 61 61 52 27 70 48 89 108 9 30 21 42 62 63
43 22 53 33 77 86 23 51 35 64 76 86 48 26 57 37 91 115 10 22 34 50 60 68 24
16 51 44 61 62 25 48 86 127 133 172 23 22 58 63 76 92 19 29 54 66 78 83 28
19 55 50 73 82 19 37 43 63 78 85 39 26 57 47 82 97 23 46 40 66 60 74 46 16
72 44 91 97 15 42 25 54 65 75 52 28 68 47 86 103 9 27 28 49 67 78 37 27 61
55 76 86 12 26 56 83 98 127 41 45 86 97 98 117 12 20 47 58 78 84 31 27 66
68 79 96 16 31 37 54 58 65 50 26 74 53 93 105 15 39 26 52 64 73 58 32 64 39
87 101 16 43 25 53 66 73 42 20 52 31 76 86 22 48 40 70 77 97 32 23 58 53 74
85 14 27 57 83 96 124 39 41 83 97 99 123 15 27 51 65 79 86 35 26 59 54 75
89 19 40 34 56 74 77 42 24 53 36 78 90 23 51 34 65 61 74 49 17 77 49 94 107
14 48 20 56 69 83 46 26 55 36 70 80 13 39 29 62 71 98 73 62 72 85 -6 95 -30
3 -860 6 -1845 6 -1387 0 -1804 -3 -1853 -13z"/>
<path d="M28526 40768 c-14 -13 -31 -41 -38 -63 -10 -32 -22 -44 -56 -60 -57
-28 -74 -47 -93 -103 -12 -39 -22 -50 -57 -67 -55 -27 -73 -46 -92 -97 -10
-28 -27 -50 -50 -65 -65 -41 -88 -63 -94 -89 -11 -41 -36 -74 -77 -100 -21
-13 -55 -50 -75 -81 -35 -55 -134 -166 -272 -306 -37 -37 -76 -86 -88 -109
-14 -28 -40 -55 -75 -78 -41 -27 -60 -48 -79 -88 -21 -43 -35 -59 -75 -80 -41
-22 -55 -37 -77 -82 -21 -45 -36 -61 -80 -85 -46 -27 -56 -38 -75 -85 -17 -45
-28 -58 -60 -73 -54 -27 -82 -55 -93 -96 -14 -50 -19 -55 -72 -79 -48 -21 -52
-27 -87 -114 -6 -16 -32 -41 -61 -59 -38 -23 -58 -45 -77 -82 -14 -28 -55 -81
-91 -117 -36 -35 -82 -88 -103 -116 -21 -29 -58 -69 -83 -89 -25 -20 -59 -59
-76 -86 -16 -27 -52 -65 -79 -85 -35 -25 -58 -52 -77 -90 -19 -40 -37 -60 -63
-74 -48 -24 -75 -55 -100 -111 -15 -37 -27 -49 -54 -58 -43 -14 -65 -38 -97
-103 -21 -43 -32 -54 -70 -67 -46 -17 -61 -37 -90 -117 -8 -22 -25 -37 -64
-56 -47 -23 -56 -33 -71 -75 -19 -51 -42 -77 -94 -105 -19 -11 -40 -34 -51
-60 -24 -52 -45 -78 -87 -107 -18 -12 -49 -47 -69 -77 -20 -30 -72 -91 -116
-137 -44 -45 -86 -94 -93 -108 -8 -14 -39 -47 -70 -73 -31 -27 -66 -69 -79
-93 -15 -31 -40 -57 -77 -82 -38 -26 -61 -50 -80 -86 -16 -32 -38 -57 -61 -70
-56 -32 -70 -47 -95 -103 -19 -45 -30 -56 -68 -72 -47 -20 -79 -60 -91 -113
-5 -22 -17 -33 -60 -52 -48 -21 -57 -30 -75 -72 -31 -74 -33 -77 -83 -101 -41
-19 -51 -30 -75 -86 -24 -52 -37 -68 -72 -87 -31 -17 -52 -39 -71 -74 -14 -28
-51 -72 -80 -100 -30 -27 -70 -72 -89 -99 -19 -28 -68 -84 -109 -125 -41 -42
-83 -90 -92 -108 -9 -18 -40 -48 -68 -69 -35 -25 -59 -53 -79 -91 -21 -43 -37
-60 -76 -81 -40 -22 -54 -38 -77 -85 -24 -47 -36 -61 -74 -79 -48 -22 -79 -60
-90 -111 -5 -22 -17 -33 -60 -52 -43 -19 -57 -31 -70 -62 -33 -78 -40 -87 -88
-112 -52 -27 -54 -29 -85 -103 -16 -38 -27 -50 -65 -66 -39 -18 -49 -29 -70
-75 -15 -35 -40 -67 -71 -93 -26 -21 -65 -65 -86 -97 -22 -31 -69 -85 -105
-120 -36 -34 -77 -81 -90 -104 -14 -23 -46 -59 -72 -79 -57 -46 -66 -57 -92
-110 -12 -25 -35 -49 -58 -62 -47 -26 -71 -53 -97 -106 -14 -29 -33 -48 -68
-67 -53 -29 -68 -46 -87 -103 -10 -30 -21 -42 -54 -57 -52 -23 -76 -49 -96
-102 -12 -33 -25 -47 -59 -64 -62 -32 -79 -50 -94 -102 -11 -40 -18 -49 -62
-71 -40 -20 -55 -35 -75 -76 -33 -66 -46 -81 -93 -105 -28 -15 -44 -33 -59
-66 -11 -25 -56 -84 -99 -130 -44 -46 -90 -100 -104 -121 -13 -20 -52 -61 -85
-90 -33 -29 -69 -70 -79 -90 -10 -20 -43 -54 -72 -77 -36 -27 -62 -57 -77 -89
-14 -29 -34 -54 -53 -64 -56 -30 -87 -62 -100 -100 -16 -49 -24 -59 -73 -80
-50 -23 -62 -37 -86 -98 -15 -40 -24 -50 -56 -61 -52 -18 -76 -44 -95 -101
-14 -42 -22 -50 -71 -74 -40 -19 -58 -34 -66 -57 -7 -17 -17 -45 -23 -61 -8
-20 -28 -39 -60 -56 -38 -21 -53 -37 -73 -80 -18 -38 -40 -64 -75 -89 -27 -20
-62 -57 -77 -83 -15 -26 -62 -83 -104 -127 -42 -44 -91 -100 -108 -126 -16
-25 -49 -58 -72 -74 -25 -17 -55 -52 -73 -83 -21 -38 -45 -63 -79 -84 -37 -23
-56 -44 -78 -87 -22 -45 -37 -61 -69 -76 -51 -23 -65 -38 -88 -99 -15 -42 -24
-51 -60 -65 -56 -22 -70 -37 -91 -97 -14 -41 -25 -52 -59 -69 -57 -28 -81 -52
-93 -94 -14 -50 -18 -55 -76 -84 -47 -24 -74 -57 -74 -91 0 -23 -40 -66 -82
-87 -29 -15 -45 -32 -60 -66 -11 -25 -51 -77 -90 -116 -38 -40 -88 -97 -109
-127 -21 -31 -60 -73 -85 -94 -25 -21 -61 -63 -80 -92 -19 -30 -47 -60 -62
-68 -38 -20 -77 -64 -95 -107 -11 -26 -29 -44 -70 -67 -47 -27 -58 -38 -78
-88 -21 -50 -29 -59 -74 -79 -50 -22 -60 -34 -89 -108 -12 -29 -25 -42 -59
-56 -50 -22 -73 -48 -88 -104 -9 -32 -17 -41 -62 -61 -60 -26 -70 -37 -87 -91
-16 -50 -35 -72 -82 -96 -28 -14 -44 -34 -65 -77 -18 -37 -42 -67 -69 -87 -23
-16 -57 -52 -75 -80 -19 -27 -70 -87 -114 -133 -43 -46 -89 -99 -100 -118 -12
-19 -43 -52 -71 -72 -28 -22 -60 -58 -76 -87 -18 -34 -44 -61 -80 -85 -41 -27
-59 -48 -80 -92 -22 -45 -34 -58 -61 -67 -43 -15 -70 -44 -96 -104 -17 -39
-28 -51 -63 -66 -52 -22 -64 -35 -88 -98 -18 -49 -21 -51 -81 -78 -35 -16 -53
-41 -79 -111 -8 -22 -24 -37 -50 -49 -45 -20 -75 -50 -85 -85 -12 -41 -33 -69
-75 -95 -22 -14 -54 -49 -73 -78 -19 -29 -64 -83 -101 -120 -36 -38 -82 -92
-102 -121 -19 -30 -55 -68 -80 -86 -27 -19 -58 -54 -76 -87 -22 -39 -45 -64
-79 -85 -37 -22 -54 -42 -74 -84 -21 -45 -34 -58 -76 -79 -44 -23 -54 -34 -79
-89 -24 -54 -34 -66 -63 -75 -44 -15 -71 -45 -94 -103 -16 -41 -26 -52 -73
-75 -49 -25 -57 -33 -75 -83 -18 -48 -27 -58 -70 -80 -48 -24 -57 -35 -91
-113 -11 -25 -31 -46 -60 -63 -28 -17 -53 -43 -72 -77 -16 -29 -64 -87 -105
-130 -42 -43 -88 -97 -102 -120 -15 -23 -49 -59 -77 -80 -29 -23 -59 -59 -73
-88 -18 -35 -40 -58 -78 -82 -42 -27 -59 -46 -80 -90 -22 -46 -34 -59 -74 -79
-41 -20 -52 -32 -77 -85 -26 -53 -36 -64 -77 -83 -39 -17 -52 -30 -69 -68 -12
-26 -25 -54 -29 -62 -4 -8 -28 -25 -52 -36 -53 -26 -62 -36 -79 -89 -17 -53
-25 -62 -77 -85 -37 -16 -48 -28 -68 -73 -22 -50 -44 -74 -108 -119 -14 -10
-35 -38 -47 -64 -13 -26 -45 -67 -72 -93 -27 -25 -74 -78 -103 -117 -30 -39
-77 -91 -105 -114 -28 -24 -62 -64 -76 -92 -18 -35 -39 -57 -76 -80 -40 -25
-55 -42 -74 -84 -20 -45 -31 -57 -75 -79 -44 -23 -54 -34 -78 -86 -24 -53 -33
-63 -77 -83 -48 -23 -59 -35 -88 -109 -12 -29 -25 -42 -59 -56 -50 -22 -73
-48 -88 -104 -7 -27 -20 -44 -41 -55 -57 -32 -78 -54 -103 -106 -19 -40 -37
-60 -73 -83 -34 -21 -58 -47 -81 -87 -17 -32 -57 -81 -87 -109 -30 -28 -73
-78 -95 -111 -22 -34 -63 -79 -91 -101 -32 -25 -61 -59 -76 -89 -14 -28 -37
-55 -54 -65 -58 -31 -80 -54 -102 -106 -20 -43 -31 -56 -72 -76 -42 -20 -53
-33 -78 -84 -25 -53 -35 -64 -80 -85 -47 -23 -53 -30 -75 -87 -22 -57 -28 -63
-73 -82 -42 -17 -52 -27 -69 -68 -31 -74 -33 -76 -83 -103 -41 -21 -53 -34
-78 -88 -22 -46 -40 -70 -68 -87 -22 -14 -58 -53 -81 -87 -23 -35 -73 -94
-111 -132 -38 -39 -78 -87 -89 -108 -10 -20 -44 -55 -73 -77 -35 -26 -64 -59
-83 -93 -20 -37 -41 -59 -73 -78 -35 -20 -52 -40 -76 -85 -23 -47 -39 -64 -70
-79 -56 -26 -71 -42 -90 -98 -14 -44 -21 -51 -67 -72 -52 -23 -62 -34 -91
-108 -11 -28 -27 -43 -63 -62 -48 -24 -58 -37 -87 -108 -11 -28 -27 -43 -64
-62 -36 -18 -54 -35 -66 -63 -31 -70 -44 -88 -85 -118 -23 -16 -59 -57 -82
-90 -22 -33 -71 -91 -109 -130 -37 -38 -78 -86 -91 -106 -14 -20 -47 -55 -75
-77 -31 -24 -59 -58 -72 -85 -21 -45 -44 -68 -101 -99 -22 -12 -40 -35 -56
-73 -21 -46 -32 -58 -76 -80 -42 -22 -54 -34 -70 -73 -30 -72 -32 -73 -79 -91
-45 -16 -59 -34 -95 -122 -6 -14 -29 -33 -55 -45 -54 -26 -63 -36 -80 -89 -16
-50 -35 -72 -83 -96 -28 -15 -43 -32 -61 -73 -14 -32 -40 -66 -65 -87 -23 -19
-67 -68 -98 -109 -32 -41 -87 -104 -123 -140 -36 -36 -73 -79 -82 -97 -9 -18
-39 -48 -67 -68 -32 -23 -61 -55 -78 -88 -20 -36 -41 -58 -73 -77 -36 -20 -51
-37 -74 -86 -25 -52 -35 -63 -80 -84 -40 -20 -55 -34 -69 -65 -33 -76 -42 -88
-72 -98 -45 -14 -73 -44 -91 -100 -14 -42 -22 -52 -60 -68 -49 -22 -80 -56
-89 -99 -6 -27 -38 -60 -99 -103 -15 -10 -36 -38 -47 -63 -12 -25 -45 -64 -74
-90 -30 -25 -75 -78 -102 -119 -27 -40 -74 -93 -104 -118 -33 -27 -63 -62 -74
-87 -13 -30 -35 -53 -74 -79 -41 -27 -61 -49 -81 -89 -21 -43 -37 -59 -76 -80
-40 -22 -54 -38 -79 -87 -25 -50 -38 -64 -75 -81 -45 -21 -55 -34 -84 -107
-12 -29 -26 -42 -59 -57 -54 -24 -64 -35 -86 -97 -14 -41 -24 -52 -66 -73 -44
-22 -54 -34 -82 -91 -25 -53 -41 -72 -75 -92 -31 -18 -52 -40 -69 -74 -13 -26
-61 -86 -107 -133 -45 -47 -94 -103 -108 -125 -14 -22 -47 -57 -74 -78 -28
-22 -57 -56 -70 -82 -16 -33 -37 -55 -77 -81 -44 -28 -59 -45 -78 -88 -20 -46
-32 -59 -77 -83 -46 -24 -56 -35 -74 -83 -18 -45 -29 -58 -61 -73 -56 -28 -80
-54 -98 -107 -12 -37 -23 -51 -47 -61 -48 -20 -86 -56 -99 -97 -16 -50 -27
-62 -77 -83 -37 -16 -46 -27 -72 -83 -22 -49 -39 -71 -70 -92 -26 -18 -60 -57
-92 -106 -27 -42 -72 -97 -100 -120 -28 -23 -66 -66 -84 -94 -18 -28 -56 -68
-83 -88 -34 -25 -58 -53 -74 -88 -19 -41 -36 -58 -77 -82 -38 -22 -59 -43 -72
-71 -11 -22 -23 -47 -27 -55 -4 -8 -30 -27 -57 -42 -41 -22 -54 -37 -79 -89
-25 -51 -36 -65 -64 -74 -43 -14 -77 -54 -91 -105 -10 -36 -17 -44 -63 -64
-57 -25 -70 -41 -87 -105 -8 -31 -20 -47 -42 -59 -45 -25 -88 -62 -88 -76 0
-22 -54 -94 -92 -123 -20 -15 -60 -59 -88 -98 -29 -38 -76 -92 -106 -119 -30
-26 -66 -70 -79 -97 -17 -33 -40 -58 -75 -81 -36 -24 -58 -48 -81 -91 -23 -43
-40 -63 -64 -73 -40 -16 -79 -62 -95 -109 -9 -29 -22 -40 -66 -61 -55 -26 -59
-31 -92 -116 -7 -16 -31 -37 -64 -55 -46 -25 -55 -35 -74 -83 -18 -46 -29 -59
-64 -77 -61 -32 -76 -48 -90 -99 -12 -42 -28 -60 -94 -107 -15 -10 -35 -36
-47 -58 -11 -23 -55 -78 -98 -122 -43 -45 -92 -103 -109 -128 -17 -25 -51 -61
-76 -80 -24 -19 -57 -56 -73 -84 -19 -32 -46 -61 -78 -82 -36 -23 -57 -47 -77
-85 -21 -42 -38 -59 -80 -83 -46 -27 -56 -38 -74 -85 -18 -45 -29 -59 -62 -75
-59 -29 -79 -52 -98 -107 -14 -44 -21 -51 -68 -72 -41 -18 -55 -31 -66 -57
-33 -84 -42 -98 -78 -112 -45 -18 -66 -41 -81 -87 -11 -36 -31 -60 -88 -105
-18 -15 -53 -57 -79 -96 -25 -38 -64 -84 -86 -102 -22 -18 -60 -60 -85 -94
-24 -34 -67 -81 -94 -104 -28 -23 -61 -64 -75 -90 -15 -31 -36 -54 -57 -65
-50 -26 -77 -55 -102 -110 -18 -42 -30 -54 -57 -63 -45 -15 -78 -51 -98 -104
-12 -34 -25 -47 -66 -69 -40 -22 -55 -37 -68 -70 -10 -24 -21 -50 -25 -58 -4
-8 -26 -24 -49 -35 -62 -31 -70 -42 -87 -132 -14 -72 -15 -319 -13 -2146 2
-1568 6 -2069 15 -2078 24 -24 59 -1 89 58 17 32 60 89 102 130 40 41 83 91
97 113 13 21 49 60 80 86 30 27 68 70 83 96 17 30 45 60 76 81 37 24 57 46 77
88 22 44 36 59 68 74 51 23 65 38 88 99 14 39 25 51 48 59 54 18 83 46 103
100 16 43 26 55 59 72 58 29 82 53 93 97 13 45 21 53 80 82 39 18 48 29 67 76
14 38 31 62 55 77 18 12 42 29 54 37 12 8 33 40 48 70 16 32 44 69 67 87 22
17 67 66 99 109 33 43 79 95 104 116 24 22 60 65 80 96 20 32 49 64 64 72 38
20 78 65 96 109 9 22 28 44 47 55 59 32 80 55 103 107 19 42 31 55 62 67 49
20 68 41 91 102 15 42 24 51 58 63 52 18 70 37 92 98 15 42 25 53 63 71 53 26
76 53 90 106 8 28 20 45 42 56 56 31 80 55 98 97 18 41 82 115 99 115 5 0 36
37 69 83 34 45 83 101 111 124 27 24 63 67 81 97 20 36 46 64 75 83 32 20 54
45 76 86 21 41 41 63 67 76 45 23 71 51 97 104 15 31 33 48 70 67 43 21 53 32
70 76 26 65 39 81 74 89 38 8 66 40 88 100 16 43 25 53 66 73 43 20 52 31 77
87 22 48 37 68 62 81 48 24 67 43 87 89 10 24 41 61 71 86 28 24 73 75 98 113
26 38 71 89 100 115 30 25 67 69 84 98 19 35 46 62 79 84 38 24 57 46 78 88
24 46 37 60 76 79 40 19 50 31 75 86 25 54 35 66 63 75 44 15 78 51 97 104 12
33 24 46 58 62 56 28 69 42 90 101 15 42 24 52 67 74 43 22 54 34 81 90 25 51
41 70 74 90 29 17 51 41 69 75 14 27 56 79 92 115 36 36 84 90 107 121 23 32
61 73 86 94 25 20 58 60 75 89 20 36 45 63 76 82 35 22 54 44 76 87 24 47 38
61 75 79 47 22 79 60 90 110 4 20 18 34 47 49 61 31 84 56 102 109 14 43 21
50 66 68 43 18 52 28 70 69 31 74 33 76 84 103 41 21 52 35 79 90 25 52 39 70
74 88 30 17 50 38 67 73 14 27 57 81 97 121 39 40 86 96 104 124 18 29 55 68
82 88 32 23 59 55 78 90 21 41 40 61 77 82 37 22 54 41 74 83 16 33 38 60 56
70 57 31 79 54 102 106 19 43 29 55 59 65 43 14 81 57 98 111 10 36 19 44 65
65 44 19 56 30 68 61 28 70 40 88 74 105 47 23 60 38 90 100 18 35 41 62 71
83 25 17 56 51 69 75 14 24 61 81 105 127 44 46 89 100 100 120 12 20 46 57
76 81 30 25 68 67 85 95 19 33 46 60 75 77 34 20 52 40 72 81 21 43 37 60 80
84 46 27 56 38 74 85 18 46 29 59 63 75 56 28 73 48 92 103 12 39 22 50 56 67
58 28 81 52 95 98 12 38 19 46 88 90 22 15 46 44 65 82 22 45 40 66 70 82 30
16 51 42 85 98 27 47 65 94 98 123 30 25 70 70 89 99 19 30 56 69 82 88 29 21
58 54 75 85 20 36 43 60 78 82 38 24 55 43 76 86 22 46 36 61 76 82 48 25 63
43 90 112 11 27 25 41 58 56 54 24 73 46 88 100 10 39 16 46 64 67 42 19 56
31 70 62 34 77 42 87 87 110 37 20 50 34 75 86 21 45 41 69 72 90 23 16 58 52
76 80 18 29 66 85 106 126 39 40 84 94 99 118 16 25 50 61 77 82 29 22 60 57
77 88 20 37 42 60 77 82 38 24 56 44 77 86 18 37 36 58 55 66 50 20 79 50 103
105 19 43 31 56 61 69 54 22 71 41 90 97 15 45 21 51 70 73 45 20 57 31 69 62
28 72 40 87 90 112 44 23 52 32 69 79 15 43 29 61 72 93 30 22 63 57 74 79 11
22 51 70 88 107 37 37 86 93 109 124 23 31 60 71 82 88 22 18 56 59 76 91 25
40 51 68 84 89 37 22 55 42 74 82 19 41 35 58 73 79 40 23 54 38 79 88 26 54
36 64 77 81 40 17 51 27 69 68 12 26 25 55 29 63 4 8 24 23 46 34 57 26 71 42
90 98 14 44 21 51 68 72 42 19 56 31 70 62 34 78 42 88 87 112 38 19 51 33 73
82 18 38 42 71 67 91 22 17 65 66 96 108 31 42 78 96 105 120 27 24 65 66 83
94 19 28 56 67 82 86 29 22 59 58 76 89 20 36 40 58 65 71 46 23 63 43 95 106
19 38 33 53 59 63 41 15 70 45 88 92 18 47 36 67 68 75 40 10 69 42 88 97 14
43 21 51 70 74 50 23 55 29 75 85 20 54 27 63 69 84 54 27 63 38 79 86 12 37
49 78 89 98 12 7 42 42 67 79 24 37 72 94 106 127 33 33 76 83 93 110 18 28
52 63 75 80 25 17 56 51 73 82 30 54 51 74 107 105 22 12 40 35 56 72 20 46
32 58 72 78 41 20 52 32 77 84 25 52 35 63 80 84 44 22 54 32 71 76 26 65 39
80 73 89 40 10 69 42 88 97 14 42 22 52 64 73 50 25 80 57 80 86 0 24 37 67
81 95 21 13 48 42 59 65 12 22 51 70 89 107 37 37 80 85 96 107 16 22 61 74
101 115 39 41 79 88 87 105 8 16 39 48 68 70 34 26 65 60 82 93 22 41 39 58
77 77 41 21 52 33 75 84 21 44 36 63 58 72 47 20 85 57 98 97 15 48 34 69 69
77 37 8 65 40 87 99 14 38 25 52 48 60 57 21 73 36 91 83 19 51 50 93 69 93
25 0 67 44 89 94 15 32 40 65 69 89 26 21 64 64 84 95 35 52 77 99 262 287 38
39 78 89 90 112 14 29 38 54 74 76 42 27 59 46 80 90 22 46 34 60 74 79 41 21
52 33 78 86 24 49 37 64 62 73 52 17 80 46 98 100 15 45 22 53 63 70 53 23 66
38 88 102 14 41 23 51 66 73 41 21 53 34 73 77 25 56 42 76 92 101 21 10 42
36 63 74 17 32 58 84 91 116 32 32 77 83 98 114 21 32 64 79 95 105 31 27 65
66 76 87 11 22 31 47 46 57 64 45 87 69 107 112 16 34 34 52 66 69 52 27 75
54 91 104 9 32 19 42 64 63 52 25 64 40 95 118 7 19 26 35 54 47 55 24 74 46
90 101 11 38 20 48 66 73 46 25 56 36 80 90 24 53 35 64 75 83 38 19 50 32 70
76 14 33 42 70 73 97 28 25 75 79 106 120 31 41 77 92 102 114 26 21 60 60 76
87 17 26 52 64 79 83 33 24 58 53 75 87 16 30 38 57 57 67 57 32 81 56 102
105 18 39 32 54 71 75 41 22 55 38 80 86 25 50 38 64 80 85 44 23 53 33 72 81
12 30 28 58 35 62 7 4 30 15 51 24 38 17 47 31 77 110 8 22 26 39 58 55 37 19
52 35 72 75 31 64 45 81 92 110 21 13 46 41 57 63 11 21 53 72 94 113 41 41
92 100 115 130 23 31 62 73 87 93 25 21 57 59 72 86 17 33 43 59 75 80 36 23
56 46 77 86 22 44 37 60 77 81 40 22 54 37 76 82 21 45 36 61 80 85 46 27 56
38 75 85 17 45 28 58 60 73 55 27 82 55 93 99 13 45 21 53 80 82 39 18 48 29
67 76 22 56 36 72 92 102 21 11 39 35 53 65 12 26 47 73 78 103 31 30 79 84
107 120 28 36 75 88 103 115 29 28 65 69 81 92 16 23 49 56 73 73 25 18 55 53
71 82 19 35 43 60 77 81 38 24 57 45 79 89 24 48 38 62 80 84 45 22 54 33 76
83 22 52 30 60 74 79 44 18 52 26 77 82 25 56 33 64 82 88 49 24 57 32 70 73
20 60 35 77 83 96 33 14 43 25 67 79 22 47 37 67 62 80 48 24 76 52 88 90 10
29 62 86 101 110 8 5 32 34 53 64 42 59 170 202 277 309 37 36 76 84 88 106
13 23 43 54 71 72 35 23 57 48 75 84 16 30 38 57 57 67 58 32 81 56 104 108
19 44 31 56 66 72 52 23 69 43 92 103 14 40 23 49 61 63 53 21 65 35 86 95 13
41 21 49 71 73 49 24 58 32 74 75 22 61 35 76 86 99 34 15 45 28 69 81 22 50
37 68 72 90 29 17 56 45 76 80 18 29 58 80 89 112 152 155 258 274 274 306 10
19 30 42 44 52 63 45 87 69 109 114 19 36 37 54 74 75 40 21 55 38 78 83 23
46 36 60 74 77 49 24 69 48 88 106 10 31 21 41 66 62 55 25 59 29 94 118 7 19
27 36 58 50 37 18 52 32 66 63 36 79 42 88 74 99 44 15 74 47 93 98 13 35 25
48 69 72 44 24 57 37 76 80 22 50 42 75 101 127 16 14 51 54 79 90 27 35 72
84 99 109 27 25 62 65 78 90 15 25 52 63 81 85 32 25 63 61 80 93 20 37 40 58
67 72 43 22 68 50 93 106 13 28 31 46 65 64 38 20 52 36 75 83 24 49 35 61 71
77 47 20 83 59 93 99 8 37 22 51 65 68 46 18 74 52 88 104 9 34 18 43 68 67
51 25 59 33 75 78 18 51 42 77 96 106 20 11 39 34 51 60 19 44 53 81 102 111
15 10 37 35 48 57 11 22 58 80 104 128 46 49 95 107 110 130 14 23 48 58 74
78 27 20 62 58 78 85 18 32 47 61 77 81 30 19 56 46 69 72 24 48 56 86 73 86
26 0 69 46 91 96 20 45 31 57 71 76 41 20 52 32 78 85 26 55 35 65 72 79 52
20 63 33 84 93 14 41 22 49 74 76 55 27 61 35 80 85 18 49 27 58 74 84 40 21
57 37 67 65 28 70 39 83 84 106 35 18 51 35 74 80 16 31 48 72 71 92 23 19 61
62 86 95 41 58 98 120 273 298 41 41 83 93 94 116 13 25 32 46 50 53 38 16 75
56 99 106 11 24 30 46 50 56 66 33 81 49 98 99 15 46 22 52 73 78 52 25 59 32
78 82 19 47 28 58 70 80 47 25 65 48 99 131 6 14 30 33 58 47 37 17 52 31 63
60 28 71 39 85 85 113 25 16 52 41 59 56 31 60 77 121 136 178 33 33 70 78 81
99 11 22 45 58 74 81 36 27 62 57 77 88 14 30 35 55 54 65 58 32 87 63 102
110 14 42 23 50 73 77 52 27 59 35 78 85 18 48 27 58 72 83 43 23 54 35 69 75
22 60 40 81 88 100 32 13 43 25 66 77 19 43 42 73 74 99 25 21 64 66 87 100
23 33 72 93 109 131 37 39 77 89 90 111 13 24 38 51 61 63 70 40 115 114 89
146 -11 13 -248 15 -1951 15 l-1938 0 -25 -22z"/>
<path d="M40727 37338 c-18 -20 -43 -60 -54 -89 -16 -45 -27 -57 -59 -72 -55
-27 -83 -55 -96 -100 -11 -38 -49 -77 -73 -77 -27 0 -64 -43 -80 -91 -16 -47
-22 -53 -72 -75 -44 -20 -57 -31 -69 -62 -28 -71 -40 -87 -87 -110 -37 -17
-52 -31 -63 -60 -28 -71 -39 -84 -84 -107 -38 -19 -51 -34 -79 -90 -20 -40
-49 -78 -73 -98 -22 -18 -67 -68 -100 -111 -33 -44 -81 -96 -106 -117 -26 -20
-60 -59 -75 -85 -18 -30 -47 -61 -78 -81 -36 -24 -56 -48 -78 -90 -24 -48 -37
-62 -76 -81 -40 -19 -50 -31 -72 -81 -22 -52 -31 -61 -75 -81 -45 -20 -54 -30
-78 -82 -24 -54 -33 -63 -81 -87 -49 -24 -56 -31 -74 -81 -17 -46 -27 -58 -62
-75 -59 -29 -79 -50 -93 -101 -12 -43 -49 -84 -75 -84 -17 0 -51 -40 -68 -80
-17 -41 -39 -65 -90 -100 -20 -14 -42 -36 -49 -50 -23 -46 -62 -95 -124 -156
-33 -34 -75 -81 -91 -105 -17 -24 -54 -63 -82 -87 -29 -24 -62 -65 -76 -93
-18 -34 -37 -55 -63 -68 -47 -24 -76 -55 -96 -104 -9 -22 -28 -45 -47 -55 -59
-32 -82 -56 -105 -108 -18 -42 -30 -54 -57 -63 -45 -15 -74 -48 -95 -107 -16
-43 -23 -50 -62 -64 -46 -16 -90 -65 -90 -100 0 -22 -37 -70 -54 -70 -26 0
-67 -43 -92 -95 -19 -41 -36 -61 -74 -84 -36 -22 -56 -44 -75 -81 -14 -27 -48
-71 -76 -98 -28 -26 -74 -78 -104 -117 -29 -38 -76 -89 -104 -113 -28 -24 -60
-61 -71 -82 -11 -22 -44 -57 -75 -80 -37 -27 -63 -57 -81 -91 -15 -30 -37 -57
-56 -67 -56 -31 -85 -61 -102 -107 -15 -38 -26 -50 -67 -70 -52 -27 -70 -48
-89 -108 -10 -31 -20 -42 -54 -57 -50 -21 -76 -49 -96 -103 -12 -33 -24 -46
-57 -62 -56 -27 -81 -51 -89 -88 -10 -48 -25 -66 -75 -93 -35 -19 -52 -37 -68
-72 -27 -57 -46 -80 -88 -110 -18 -13 -49 -49 -70 -80 -21 -31 -70 -88 -109
-127 -40 -38 -83 -88 -97 -111 -14 -23 -47 -57 -74 -77 -30 -22 -60 -56 -77
-87 -19 -35 -43 -60 -74 -80 -35 -21 -55 -44 -77 -87 -25 -48 -39 -62 -78 -81
-42 -19 -52 -31 -75 -82 -24 -53 -34 -63 -82 -87 -51 -26 -56 -32 -73 -83 -16
-51 -22 -58 -75 -85 -51 -27 -59 -35 -77 -85 -18 -48 -27 -58 -70 -80 -42 -21
-55 -35 -80 -85 -21 -41 -44 -69 -75 -90 -25 -18 -58 -54 -75 -83 -17 -29 -55
-76 -86 -105 -30 -29 -76 -82 -102 -119 -26 -36 -67 -82 -92 -103 -25 -20 -61
-60 -79 -89 -21 -33 -51 -63 -78 -79 -35 -20 -51 -39 -71 -81 -20 -41 -36 -60
-64 -75 -49 -24 -74 -53 -94 -104 -12 -32 -26 -47 -59 -64 -59 -31 -78 -50
-92 -95 -13 -44 -24 -55 -82 -83 -40 -19 -46 -28 -90 -124 -6 -14 -24 -29 -41
-34 -42 -13 -83 -54 -91 -91 -10 -47 -25 -65 -75 -92 -35 -20 -51 -37 -72 -80
-18 -37 -42 -65 -75 -88 -26 -19 -58 -54 -71 -77 -14 -24 -65 -86 -115 -139
-50 -53 -98 -110 -108 -127 -9 -18 -34 -43 -55 -56 -46 -29 -60 -45 -93 -105
-17 -31 -40 -55 -70 -72 -34 -19 -52 -40 -75 -84 -25 -48 -39 -63 -79 -83 -42
-21 -52 -33 -75 -84 -22 -52 -31 -61 -68 -75 -52 -20 -67 -36 -90 -99 -14 -37
-26 -53 -48 -63 -73 -31 -79 -37 -102 -97 -20 -53 -29 -63 -70 -85 -39 -20
-53 -36 -78 -85 -21 -42 -43 -68 -72 -88 -23 -15 -55 -50 -72 -77 -17 -28 -62
-81 -99 -118 -38 -37 -85 -92 -106 -122 -20 -30 -57 -71 -80 -90 -24 -19 -58
-58 -76 -87 -17 -28 -44 -59 -58 -69 -48 -30 -83 -68 -102 -111 -14 -32 -29
-46 -67 -65 -41 -20 -52 -32 -77 -84 -25 -53 -35 -64 -80 -85 -40 -19 -55 -33
-69 -64 -36 -79 -42 -89 -72 -98 -45 -14 -73 -44 -90 -98 -15 -44 -22 -52 -73
-77 -52 -25 -59 -32 -77 -82 -18 -48 -27 -58 -73 -83 -44 -24 -56 -37 -82 -93
-22 -46 -42 -72 -70 -90 -21 -14 -55 -51 -76 -82 -20 -31 -72 -93 -114 -137
-42 -44 -87 -96 -100 -115 -13 -19 -30 -39 -38 -43 -39 -25 -86 -76 -108 -118
-17 -34 -36 -55 -62 -68 -47 -24 -66 -45 -92 -103 -14 -32 -29 -49 -51 -59
-49 -20 -87 -56 -100 -97 -15 -49 -25 -60 -68 -78 -51 -21 -68 -40 -87 -96
-14 -44 -21 -51 -68 -72 -42 -19 -56 -31 -70 -62 -34 -78 -42 -88 -91 -113
-44 -23 -52 -32 -69 -79 -15 -43 -29 -61 -72 -93 -30 -22 -63 -56 -73 -77 -11
-20 -55 -73 -98 -118 -43 -44 -92 -100 -107 -125 -16 -24 -51 -62 -78 -84 -28
-22 -63 -63 -79 -91 -20 -35 -45 -61 -78 -81 -34 -22 -57 -46 -77 -84 -21 -38
-42 -60 -74 -79 -35 -20 -52 -39 -75 -85 -24 -48 -38 -64 -70 -79 -57 -26 -72
-42 -91 -98 -14 -44 -21 -51 -67 -72 -52 -23 -62 -34 -91 -108 -11 -28 -27
-43 -66 -63 -40 -20 -55 -35 -66 -63 -26 -68 -39 -87 -72 -103 -48 -24 -63
-40 -83 -84 -22 -48 -43 -75 -86 -104 -18 -12 -50 -48 -70 -79 -21 -31 -68
-86 -106 -122 -37 -36 -79 -84 -93 -107 -13 -23 -45 -59 -72 -80 -57 -46 -66
-57 -92 -108 -14 -28 -35 -48 -70 -68 -41 -22 -55 -37 -78 -85 -23 -48 -35
-61 -76 -82 -43 -22 -53 -33 -77 -87 -24 -51 -34 -63 -63 -73 -40 -13 -83 -59
-92 -98 -9 -38 -23 -52 -69 -72 -49 -21 -59 -32 -82 -95 -16 -42 -26 -54 -68
-76 -49 -26 -58 -36 -91 -112 -10 -23 -34 -50 -61 -68 -24 -17 -55 -49 -70
-72 -14 -23 -60 -78 -103 -122 -42 -44 -89 -99 -104 -121 -15 -23 -50 -61 -77
-84 -27 -23 -62 -64 -78 -92 -18 -31 -46 -61 -77 -81 -33 -22 -58 -50 -79 -87
-20 -36 -42 -61 -65 -72 -47 -24 -72 -51 -91 -100 -12 -33 -25 -48 -56 -63
-60 -29 -80 -51 -98 -106 -15 -44 -22 -52 -69 -74 -44 -21 -56 -33 -71 -68
-28 -69 -30 -71 -81 -97 -47 -24 -56 -35 -90 -113 -12 -27 -29 -44 -63 -60
-37 -19 -51 -34 -71 -75 -24 -51 -74 -112 -90 -112 -4 0 -38 -40 -75 -90 -37
-49 -89 -108 -116 -131 -27 -23 -61 -61 -76 -86 -14 -24 -50 -62 -79 -84 -36
-26 -63 -56 -79 -89 -18 -35 -37 -55 -63 -69 -47 -24 -66 -45 -92 -104 -17
-38 -30 -52 -71 -73 -44 -22 -54 -33 -77 -84 -24 -53 -33 -63 -82 -87 -51 -26
-56 -32 -75 -86 -19 -53 -24 -60 -71 -81 -45 -21 -54 -30 -69 -72 -23 -62 -36
-77 -86 -100 -34 -15 -46 -28 -71 -81 -22 -46 -41 -71 -70 -90 -22 -15 -58
-54 -81 -87 -22 -34 -73 -95 -113 -136 -39 -41 -81 -90 -92 -109 -11 -19 -42
-50 -69 -70 -31 -23 -59 -56 -78 -93 -23 -44 -40 -62 -80 -85 -40 -22 -55 -39
-77 -83 -21 -45 -35 -60 -75 -80 -40 -21 -53 -35 -77 -86 -26 -54 -35 -64 -77
-82 -49 -20 -56 -30 -89 -118 -9 -24 -23 -36 -55 -48 -53 -21 -70 -39 -84 -93
-11 -39 -29 -59 -94 -105 -14 -9 -39 -42 -56 -73 -19 -33 -46 -64 -66 -76 -19
-11 -59 -55 -89 -97 -31 -42 -78 -96 -105 -119 -27 -24 -66 -69 -85 -102 -22
-36 -56 -73 -85 -94 -31 -23 -59 -55 -77 -88 -21 -38 -42 -60 -74 -79 -35 -20
-51 -38 -73 -84 -23 -46 -36 -61 -65 -73 -53 -22 -79 -49 -97 -104 -14 -42
-21 -50 -61 -65 -49 -19 -81 -55 -90 -103 -7 -35 -21 -48 -78 -76 -29 -14 -46
-31 -59 -60 -36 -81 -44 -90 -85 -113 -29 -16 -50 -39 -67 -70 -30 -57 -40
-70 -86 -104 -20 -15 -56 -56 -79 -90 -23 -35 -73 -94 -110 -133 -38 -38 -77
-86 -89 -105 -11 -19 -44 -53 -73 -75 -33 -25 -64 -61 -81 -93 -19 -36 -40
-58 -65 -71 -48 -24 -66 -45 -91 -103 -16 -37 -28 -51 -58 -63 -54 -23 -79
-50 -93 -102 -12 -41 -18 -47 -67 -68 -47 -21 -56 -30 -74 -72 -31 -73 -33
-76 -85 -103 -42 -22 -52 -32 -71 -80 -22 -55 -37 -72 -91 -101 -18 -10 -42
-40 -62 -78 -18 -34 -51 -76 -72 -92 -21 -17 -59 -59 -85 -92 -25 -34 -78 -96
-117 -137 -39 -41 -78 -90 -88 -107 -9 -17 -34 -43 -55 -56 -46 -29 -60 -45
-93 -105 -17 -31 -40 -55 -70 -72 -34 -19 -52 -40 -75 -84 -23 -44 -40 -63
-70 -78 -59 -30 -72 -45 -91 -100 -14 -44 -21 -51 -68 -72 -51 -23 -86 -67
-86 -108 0 -19 -37 -52 -78 -68 -26 -10 -40 -27 -65 -78 -23 -47 -41 -71 -64
-83 -50 -25 -64 -40 -85 -88 -10 -25 -47 -72 -83 -107 -35 -34 -83 -89 -107
-122 -24 -33 -64 -76 -88 -97 -25 -20 -57 -58 -72 -83 -15 -26 -51 -65 -80
-87 -31 -24 -61 -57 -73 -82 -23 -48 -53 -83 -70 -83 -26 0 -69 -46 -91 -97
-21 -46 -31 -57 -69 -73 -47 -20 -79 -60 -91 -113 -4 -22 -17 -33 -57 -51 -62
-27 -69 -36 -91 -103 -15 -45 -23 -54 -64 -75 -39 -19 -52 -33 -75 -81 -20
-41 -42 -68 -75 -92 -26 -18 -58 -53 -72 -77 -13 -23 -55 -74 -93 -112 -38
-38 -84 -92 -103 -121 -18 -29 -58 -74 -89 -101 -31 -26 -65 -65 -76 -86 -10
-20 -44 -55 -73 -77 -36 -27 -64 -59 -83 -93 -18 -34 -39 -58 -58 -67 -45 -21
-83 -60 -96 -100 -16 -48 -26 -60 -71 -78 -42 -17 -71 -51 -82 -98 -10 -41
-21 -52 -73 -75 -38 -17 -47 -27 -72 -83 -26 -58 -33 -65 -76 -81 -43 -17 -49
-24 -75 -82 -21 -45 -40 -71 -70 -93 -23 -17 -62 -61 -87 -98 -25 -37 -67 -87
-94 -111 -26 -23 -68 -73 -93 -110 -24 -37 -57 -74 -73 -84 -38 -22 -73 -61
-98 -108 -12 -23 -40 -52 -70 -72 -38 -25 -56 -47 -77 -90 -22 -45 -34 -58
-61 -67 -43 -15 -70 -44 -96 -104 -17 -39 -28 -51 -63 -66 -52 -22 -65 -36
-87 -98 -14 -41 -25 -52 -71 -78 -47 -27 -57 -37 -75 -85 -18 -48 -27 -58 -70
-80 -42 -21 -55 -35 -85 -93 -23 -44 -47 -76 -71 -92 -20 -13 -56 -52 -79 -87
-23 -35 -74 -95 -112 -134 -38 -39 -79 -87 -91 -106 -12 -20 -46 -55 -76 -78
-34 -27 -60 -58 -73 -87 -12 -28 -31 -51 -50 -61 -54 -29 -91 -67 -108 -113
-13 -35 -26 -48 -58 -64 -56 -28 -69 -42 -91 -101 -16 -43 -25 -52 -73 -76
-40 -19 -58 -34 -66 -57 -7 -17 -17 -44 -23 -60 -7 -21 -23 -34 -54 -45 -51
-20 -68 -38 -85 -91 -15 -49 -34 -72 -80 -95 -26 -13 -44 -35 -64 -74 -17 -34
-48 -73 -78 -98 -28 -23 -74 -76 -103 -117 -29 -42 -78 -97 -108 -123 -30 -26
-62 -62 -71 -81 -15 -33 -40 -58 -100 -99 -13 -10 -37 -41 -53 -70 -20 -37
-41 -59 -73 -78 -35 -20 -52 -40 -76 -85 -23 -47 -39 -64 -70 -79 -56 -26 -71
-42 -90 -98 -14 -44 -21 -51 -67 -72 -56 -25 -70 -41 -87 -105 -9 -35 -18 -45
-60 -66 -51 -26 -74 -52 -85 -96 -8 -32 -46 -74 -85 -94 -16 -9 -39 -34 -51
-57 -12 -23 -56 -78 -98 -123 -42 -44 -91 -101 -109 -126 -17 -26 -54 -66 -82
-89 -28 -24 -61 -63 -74 -89 -16 -31 -40 -56 -77 -81 -41 -27 -60 -48 -80 -89
-19 -41 -35 -58 -65 -74 -58 -29 -71 -44 -90 -99 -14 -44 -21 -51 -68 -72 -51
-23 -67 -42 -95 -121 -8 -22 -26 -37 -64 -55 -47 -23 -54 -30 -72 -80 -18 -49
-27 -58 -73 -83 -46 -25 -57 -37 -83 -92 -21 -44 -41 -70 -68 -88 -23 -15 -59
-57 -85 -97 -25 -38 -72 -95 -105 -126 -33 -31 -74 -77 -90 -103 -17 -25 -52
-62 -79 -83 -31 -22 -57 -53 -70 -81 -21 -45 -44 -68 -101 -99 -22 -12 -40
-35 -57 -73 -20 -47 -31 -59 -67 -74 -51 -22 -63 -36 -86 -98 -15 -39 -26 -52
-59 -68 -59 -29 -79 -52 -98 -107 -13 -42 -22 -52 -53 -65 -49 -20 -78 -49
-92 -92 -15 -46 -35 -68 -81 -92 -28 -14 -45 -34 -66 -77 -18 -37 -44 -69 -73
-91 -24 -18 -67 -68 -95 -111 -29 -42 -75 -96 -103 -119 -27 -23 -64 -66 -81
-96 -21 -37 -46 -63 -80 -84 -38 -23 -56 -44 -79 -88 -24 -48 -37 -62 -76 -81
-40 -19 -50 -31 -72 -81 -22 -51 -31 -61 -77 -83 -43 -21 -55 -34 -70 -69 -10
-24 -21 -51 -25 -59 -4 -8 -26 -24 -48 -35 -59 -29 -70 -41 -88 -96 -16 -46
-22 -53 -73 -77 -50 -24 -59 -32 -73 -72 -26 -74 -30 -80 -75 -111 -25 -17
-53 -48 -65 -71 -11 -22 -58 -79 -103 -127 -46 -47 -97 -106 -113 -132 -17
-25 -50 -58 -73 -74 -23 -16 -55 -53 -74 -84 -21 -38 -47 -66 -79 -86 -37 -23
-54 -43 -74 -87 -19 -41 -35 -61 -56 -69 -47 -20 -85 -57 -98 -97 -16 -50 -27
-62 -74 -82 -49 -21 -62 -36 -84 -97 -14 -41 -24 -52 -66 -73 -49 -25 -61 -40
-89 -112 -10 -26 -29 -46 -61 -65 -33 -21 -52 -42 -72 -82 -15 -30 -47 -70
-71 -90 -24 -20 -66 -67 -94 -106 -28 -38 -94 -111 -147 -162 -80 -75 -94 -93
-83 -105 11 -11 334 -13 1904 -16 l1892 -2 23 22 c13 12 23 30 23 40 0 34 19
57 65 77 44 20 49 26 84 114 7 18 25 34 54 46 51 22 64 36 86 98 14 41 24 52
70 77 45 24 57 37 76 81 21 48 74 105 96 105 5 0 29 32 54 70 25 39 72 96 106
127 33 32 74 80 91 108 17 27 54 68 82 91 28 22 64 64 81 92 20 35 46 62 78
82 35 22 54 43 73 83 21 42 36 58 73 77 36 20 52 37 73 79 35 69 44 78 77 86
38 8 68 42 89 101 15 41 25 52 67 73 49 26 61 41 89 113 11 29 26 42 62 59 39
19 50 31 69 73 23 52 52 84 93 105 13 7 43 44 68 82 24 39 70 93 101 122 31
29 71 75 89 103 18 28 56 70 84 94 28 23 61 63 74 88 15 30 40 56 77 81 42 28
60 49 82 93 22 46 34 59 62 68 42 14 81 58 97 111 10 36 19 44 65 64 53 24 57
29 92 117 6 18 27 35 58 50 48 23 51 28 97 128 7 14 25 31 41 39 45 20 65 41
91 93 13 25 44 63 70 84 25 21 68 70 94 109 27 38 74 95 105 125 31 30 69 74
84 96 14 23 50 60 78 83 33 25 63 60 78 91 18 35 36 55 63 69 48 24 66 45 91
104 16 38 29 51 58 63 54 23 80 50 98 104 14 43 22 51 73 76 50 26 59 34 72
74 21 63 26 69 76 91 39 16 48 26 74 83 22 49 37 69 62 82 49 25 64 40 93 100
18 37 40 64 67 81 22 15 58 54 81 87 22 34 72 94 110 133 39 40 80 90 93 110
12 21 46 56 76 78 35 27 61 57 76 88 14 29 35 55 54 65 58 33 81 56 104 109
20 44 31 56 64 69 48 19 76 52 90 106 10 34 18 42 65 63 44 19 58 31 71 62 34
79 41 89 87 110 36 17 51 32 63 60 33 78 40 88 72 104 48 25 62 39 87 92 23
46 126 165 266 306 36 36 76 85 87 108 12 23 34 50 48 60 57 40 86 70 112 118
17 31 39 56 59 66 51 25 65 40 90 97 19 43 31 56 61 69 53 22 79 49 97 104 14
42 21 50 60 65 54 20 69 36 92 99 16 42 26 54 68 77 41 22 54 36 79 90 25 50
40 68 74 86 31 18 50 38 69 75 14 29 54 80 89 115 35 34 81 88 103 120 21 31
64 79 95 105 31 27 65 66 76 88 13 24 40 52 70 72 36 23 58 48 80 90 25 46 41
62 75 78 47 22 64 43 86 103 11 30 23 43 54 57 51 23 77 52 99 110 14 39 22
48 56 59 50 16 71 39 91 98 12 39 22 51 56 67 55 27 81 52 88 86 9 40 40 76
86 100 30 15 46 33 66 75 16 33 44 70 70 92 24 20 67 69 95 107 28 39 77 94
109 122 31 29 69 73 83 97 14 24 48 60 76 80 33 24 58 53 75 87 16 30 38 57
57 67 56 31 86 62 104 108 14 37 26 50 63 69 56 28 73 47 94 105 14 39 24 49
69 70 48 22 55 31 74 80 19 49 27 58 72 79 50 24 64 42 93 119 9 24 25 40 61
58 40 20 53 34 76 82 18 37 41 67 68 87 23 16 54 50 70 75 16 25 68 86 115
136 48 50 94 105 103 122 9 17 40 50 70 72 32 24 63 60 80 90 18 33 44 61 77
82 36 24 56 47 76 88 23 44 38 60 76 80 49 26 65 45 90 111 11 28 23 38 54 47
48 14 76 44 93 97 17 53 25 62 76 84 33 15 48 29 60 58 34 79 41 89 87 111 41
19 51 30 73 80 17 41 35 64 57 77 50 28 75 55 98 102 12 25 49 72 84 106 34
34 80 87 102 118 23 30 64 75 92 99 29 23 61 60 71 80 11 21 33 49 50 61 17
13 43 34 57 45 15 12 38 43 52 70 17 31 38 55 59 66 51 25 72 48 97 105 19 42
31 55 61 68 54 22 71 41 90 97 14 44 21 51 67 72 52 23 62 34 91 108 11 28 26
42 63 60 48 23 53 29 97 128 6 14 26 32 44 41 48 25 60 37 93 100 19 36 45 67
69 83 21 14 63 60 94 103 30 43 76 95 100 116 25 20 61 63 80 95 23 37 51 67
81 86 32 19 56 46 77 83 22 39 45 64 80 85 39 24 56 43 77 87 22 47 34 60 74
79 43 20 52 30 77 86 26 57 33 65 74 80 48 18 60 33 86 101 12 31 27 46 70 70
47 27 57 37 75 85 18 47 28 59 70 82 41 22 54 37 80 90 24 49 40 68 72 86 29
16 51 40 72 77 17 30 56 78 87 107 31 29 78 83 105 119 28 37 72 86 100 109
27 23 61 64 74 91 18 34 37 54 63 68 45 23 58 37 92 100 15 27 37 51 55 60 47
22 75 52 100 107 18 42 30 54 57 63 45 15 75 47 96 105 15 39 26 50 72 73 49
25 57 34 75 83 18 48 27 58 70 80 48 24 57 35 91 113 12 28 29 44 64 62 39 20
51 33 69 74 13 32 47 76 90 119 38 38 83 89 100 113 18 24 57 66 87 92 30 27
66 71 79 98 18 35 40 58 81 84 44 28 60 46 78 87 18 41 32 56 72 78 40 22 54
38 77 83 23 48 36 61 79 83 44 22 54 33 77 85 22 52 31 61 68 75 52 20 67 36
90 99 13 37 27 54 50 66 65 33 82 49 94 91 13 45 44 88 64 88 25 0 66 43 91
96 18 37 39 63 69 84 24 17 61 56 82 87 20 31 64 82 96 112 32 31 76 83 97
115 22 33 61 76 87 95 28 21 59 58 75 86 18 34 41 58 70 76 41 24 62 49 100
118 10 18 32 38 50 46 43 17 62 39 87 98 16 38 29 51 58 63 55 23 80 50 99
106 14 45 21 51 69 72 47 21 54 29 70 72 23 62 36 77 85 99 33 15 45 29 70 81
23 50 38 68 67 83 46 23 66 45 86 93 15 35 129 166 263 299 36 37 78 88 92
113 17 28 46 58 77 78 37 25 56 46 75 86 21 43 35 59 75 80 41 22 56 38 80 86
24 46 39 63 65 74 51 20 77 49 95 102 14 41 21 49 68 71 41 19 56 32 70 64 36
79 42 88 74 99 44 15 69 42 90 101 16 42 26 54 66 75 38 20 53 36 74 77 23 48
82 113 102 113 4 0 25 26 46 58 21 31 72 93 115 137 42 44 88 99 103 122 14
23 46 55 70 72 29 19 54 49 75 89 21 39 41 63 60 71 42 18 79 56 101 105 15
36 30 50 71 71 46 23 55 33 78 85 22 52 30 61 68 76 53 20 68 36 91 98 15 43
25 54 68 75 49 26 61 41 89 114 12 29 25 42 61 57 39 17 50 28 71 75 24 53 64
95 89 95 18 0 51 40 69 83 8 21 42 63 74 95 33 31 78 82 102 112 23 30 66 76
95 103 29 26 67 69 83 95 16 27 53 66 81 86 34 25 61 56 77 88 15 30 38 56 56
66 51 28 77 55 101 105 18 38 34 55 72 75 47 26 58 39 87 107 8 19 28 37 54
50 58 28 82 52 94 94 14 50 19 55 73 79 40 18 51 29 68 69 31 75 33 77 83 101
41 20 51 31 75 85 24 53 34 65 74 84 39 19 52 33 77 83 21 42 44 71 75 92 24
17 57 52 75 79 17 27 65 83 107 126 42 43 86 94 99 114 12 20 48 58 79 84 31
27 65 66 76 86 10 21 31 46 45 56 63 44 98 80 115 120 12 28 29 48 51 59 50
25 78 54 100 107 18 42 28 52 72 71 51 23 61 35 90 108 11 28 25 41 60 56 47
21 80 62 92 115 5 22 17 33 60 52 45 20 57 31 69 62 28 72 41 88 86 110 38 17
50 31 72 75 23 51 76 108 98 108 5 0 26 26 46 58 20 31 68 88 106 126 38 38
84 93 102 121 19 28 56 69 83 89 27 21 62 60 78 87 19 33 46 61 77 80 36 22
54 42 74 84 22 45 37 61 79 85 41 23 56 39 77 84 22 46 34 59 74 78 41 20 52
32 78 85 23 51 36 65 61 73 52 18 81 47 99 100 15 46 22 53 73 78 52 25 58 32
77 82 17 46 27 58 61 75 59 28 72 42 85 86 13 43 41 72 90 97 24 12 42 34 61
72 15 30 50 75 77 100 27 25 73 77 102 115 29 39 77 92 105 118 29 26 65 67
80 90 15 23 50 60 77 82 28 22 63 60 77 85 15 26 46 58 75 77 36 24 57 48 77
88 21 40 38 60 66 74 47 24 66 45 89 99 15 36 28 48 73 70 50 24 57 33 77 82
19 50 27 58 80 85 51 26 60 36 73 75 21 63 27 69 74 89 50 22 60 33 83 95 15
41 25 53 63 72 36 17 52 35 80 85 23 41 50 73 80 94 25 17 55 49 67 71 22 41
154 191 283 323 41 43 84 92 95 111 11 19 40 48 65 65 27 19 57 53 75 86 19
34 44 61 66 74 56 31 70 46 94 101 18 41 30 54 61 66 48 20 67 40 93 100 17
40 27 50 70 69 40 17 54 30 71 63 11 23 20 47 20 53 0 14 31 39 60 48 39 11
69 45 81 89 14 52 24 64 71 83 42 17 78 55 78 84 0 21 56 89 74 89 18 0 61 49
81 93 10 21 39 56 66 79 26 22 73 73 103 112 30 39 73 86 95 104 23 18 59 60
82 93 22 34 61 75 86 92 29 21 54 50 72 85 19 37 40 61 76 85 38 24 57 46 77
88 22 46 35 60 65 72 49 19 74 48 93 104 16 48 21 53 82 77 37 15 47 29 78
113 8 22 25 38 56 53 43 20 84 68 84 100 1 22 30 53 76 82 21 14 46 38 54 54
30 61 76 121 124 164 27 25 66 71 87 103 21 35 55 71 80 88 31 19 53 46 74 86
21 40 41 63 64 75 50 25 79 56 94 101 14 42 19 47 75 68 18 6 37 20 42 29 6
11 10 857 10 2221 1 2445 6 2270 -63 2197z"/>
</g>
</svg>
