<?xml version="1.0" encoding="UTF-8" standalone="no"?>
<!DOCTYPE svg PUBLIC "-//W3C//DTD SVG 1.1//EN" "http://www.w3.org/Graphics/SVG/1.1/DTD/svg11.dtd">
<!-- Created with Vectornator (http://vectornator.io/) -->
<svg height="100%" stroke-miterlimit="10" style="fill-rule:nonzero;clip-rule:evenodd;stroke-linecap:round;stroke-linejoin:round;" version="1.1" viewBox="0 0 1024 1024" width="100%" xml:space="preserve" xmlns="http://www.w3.org/2000/svg" xmlns:vectornator="http://vectornator.io" xmlns:xlink="http://www.w3.org/1999/xlink">
<defs/>
<g id="Layer-1" vectornator:layerName="Layer 1">
<g opacity="1">
<path d="M513.745 503.461L274.431 418.705L35.1178 503.461L35.1178 802.603L274.431 887.36L513.745 802.603L513.745 503.461Z" fill="#f7becb" fill-rule="evenodd" opacity="1" stroke="none"/>
<path d="M513.745 503.461L274.431 418.705L35.1178 503.461L35.1178 802.603L274.431 887.36L513.745 802.603L513.745 503.461ZM513.745 503.461L274.431 418.705" fill="#f7becb" fill-rule="evenodd" opacity="1" stroke="none"/>
<path d="M274.431 902.317C272.935 902.317 270.941 901.819 269.445 901.32L30.1321 816.563C24.1493 814.569 20.1607 808.586 20.1607 802.603L20.1607 503.461C20.1607 496.98 24.1493 491.496 30.1321 489.502L269.445 404.745C277.423 401.753 285.898 406.24 288.391 413.719C291.383 421.696 286.895 430.172 279.417 432.665L50.0749 513.931L50.0749 792.133L279.417 873.4C287.394 876.391 291.383 884.867 288.391 892.346C286.397 898.329 280.414 902.317 274.431 902.317Z" fill="#423a55" fill-rule="evenodd" opacity="1" stroke="none"/>
<path d="M513.745 503.461L274.431 418.705M513.745 503.461L274.431 418.705" fill="#423a55" fill-rule="evenodd" opacity="1" stroke="none"/>
<path d="M528.702 502.963C528.702 502.464 528.702 501.467 528.702 500.969L528.702 500.47C527.705 495.484 524.215 490.997 519.229 489.502L399.572 447.123L399.074 447.123C396.082 446.126 392.094 445.627 388.604 447.123L154.775 529.387C148.792 531.381 144.803 537.364 144.803 543.347L144.803 598.19C144.803 606.665 151.285 613.147 159.76 613.147C168.236 613.147 174.717 606.665 174.717 598.19L174.717 553.817L393.091 476.539L468.873 503.461L269.445 574.258C263.463 576.253 259.474 581.737 259.474 588.218C259.474 588.218 259.474 588.218 259.474 588.717L259.474 866.919L50.0749 792.133L50.0749 513.931L279.417 432.665C287.394 429.673 291.383 421.197 288.391 413.719C285.4 405.742 276.924 401.753 269.445 404.745L30.1321 489.502C24.1493 491.496 20.1607 497.479 20.1607 503.461L20.1607 802.603C20.1607 809.085 24.1493 814.569 30.1321 816.563L269.445 901.32L269.445 901.32C270.941 901.819 272.935 902.317 274.431 902.317C275.927 902.317 277.921 901.819 279.417 901.32L518.73 816.563C524.713 814.569 528.702 808.586 528.702 802.603L528.702 502.963C528.702 503.461 528.702 502.963 528.702 502.963ZM498.787 792.133L289.388 866.42L289.388 598.688L498.787 524.401L498.787 792.133Z" fill="#423a55" fill-rule="evenodd" opacity="1" stroke="none"/>
</g>
<g opacity="1">
<path d="M510.588 508.479L749.901 423.722L989.215 508.479L989.215 807.621L749.901 892.377L510.588 807.621L510.588 508.479Z" fill="#afd9f7" fill-rule="evenodd" opacity="1" stroke="none"/>
<path d="M510.588 508.479L749.901 423.722L989.215 508.479L989.215 807.621L749.901 892.377L510.588 807.621L510.588 508.479ZM510.588 508.479L749.901 423.722" fill="#afd9f7" fill-rule="evenodd" opacity="1" stroke="none"/>
<path d="M749.901 907.334C751.397 907.334 753.391 906.836 754.887 906.337L994.2 821.581C1000.18 819.586 1004.17 813.603 1004.17 807.621L1004.17 508.479C1004.17 501.997 1000.18 496.513 994.2 494.519L754.887 409.762C746.91 406.771 738.434 411.258 735.941 418.736C732.95 426.713 737.437 435.189 744.916 437.682L974.258 518.949L974.258 797.151L744.916 878.417C736.939 881.409 732.95 889.885 735.941 897.363C737.936 903.346 743.919 907.334 749.901 907.334Z" fill="#423a55" fill-rule="evenodd" opacity="1" stroke="none"/>
<path d="M510.588 508.479L749.901 423.722M510.588 508.479L749.901 423.722" fill="#423a55" fill-rule="evenodd" opacity="1" stroke="none"/>
<path d="M495.631 507.98C495.631 507.482 495.631 506.485 495.631 505.986L495.631 505.487C496.628 500.502 500.118 496.015 505.104 494.519L624.76 452.14L625.259 452.14C628.25 451.143 632.239 450.645 635.729 452.14L869.558 534.404C875.541 536.399 879.529 542.382 879.529 548.364L879.529 603.207C879.529 611.683 873.048 618.164 864.572 618.164C856.097 618.164 849.615 611.683 849.615 603.207L849.615 558.834L631.242 481.556L555.459 508.479L754.887 579.276C760.87 581.27 764.858 586.754 764.858 593.236C764.858 593.236 764.858 593.236 764.858 593.734L764.858 871.936L974.258 797.151L974.258 518.949L744.916 437.682C736.939 434.691 732.95 426.215 735.941 418.736C738.933 410.759 747.409 406.771 754.887 409.762L994.2 494.519C1000.18 496.513 1004.17 502.496 1004.17 508.479L1004.17 807.621C1004.17 814.102 1000.18 819.586 994.2 821.581L754.887 906.337L754.887 906.337C753.391 906.836 751.397 907.334 749.901 907.334C748.406 907.334 746.411 906.836 744.916 906.337L505.602 821.581C499.619 819.586 495.631 813.603 495.631 807.621L495.631 507.98C495.631 508.479 495.631 507.98 495.631 507.98ZM525.545 797.151L734.944 871.437L734.944 603.706L525.545 529.419L525.545 797.151Z" fill="#423a55" fill-rule="evenodd" opacity="1" stroke="none"/>
</g>
<g opacity="1">
<path d="M756.264 591.902L516.951 507.145L277.637 591.902L277.637 891.043L516.951 975.8L756.264 891.043L756.264 591.902Z" fill="#ffd4a5" fill-rule="evenodd" opacity="1" stroke="none"/>
<path d="M756.264 591.902L516.951 507.145L277.637 591.902L277.637 891.043L516.951 975.8L756.264 891.043L756.264 591.902ZM756.264 591.902L516.951 507.145" fill="#ffd4a5" fill-rule="evenodd" opacity="1" stroke="none"/>
<path d="M516.951 990.757C515.455 990.757 513.461 990.259 511.965 989.76L272.652 905.003C266.669 903.009 262.68 897.026 262.68 891.043L262.68 591.902C262.68 585.42 266.669 579.936 272.652 577.942L511.965 493.185C519.942 490.194 528.418 494.681 530.911 502.159C533.902 510.136 529.415 518.612 521.937 521.105L292.595 602.372L292.595 880.573L521.937 961.84C529.914 964.832 533.902 973.307 530.911 980.786C528.917 986.769 522.934 990.757 516.951 990.757Z" fill="#423a55" fill-rule="evenodd" opacity="1" stroke="none"/>
<path d="M756.264 591.902L516.951 507.145M756.264 591.902L516.951 507.145" fill="#423a55" fill-rule="evenodd" opacity="1" stroke="none"/>
<path d="M771.221 591.403C771.221 590.905 771.221 589.907 771.221 589.409L771.221 588.91C770.224 583.925 766.734 579.437 761.749 577.942L642.092 535.563L641.593 535.563C638.602 534.566 634.613 534.068 631.123 535.563L397.294 617.827C391.311 619.822 387.323 625.804 387.323 631.787L387.323 686.63C387.323 695.106 393.804 701.587 402.28 701.587C410.756 701.587 417.237 695.106 417.237 686.63L417.237 642.257L635.61 564.979L711.393 591.902L511.965 662.699C505.982 664.693 501.994 670.177 501.994 676.659C501.994 676.659 501.994 676.659 501.994 677.157L501.994 955.359L292.595 880.573L292.595 602.372L521.937 521.105C529.914 518.113 533.902 509.638 530.911 502.159C527.919 494.182 519.444 490.194 511.965 493.185L272.652 577.942C266.669 579.936 262.68 585.919 262.68 591.902L262.68 891.043C262.68 897.525 266.669 903.009 272.652 905.003L511.965 989.76L511.965 989.76C513.461 990.259 515.455 990.757 516.951 990.757C518.447 990.757 520.441 990.259 521.937 989.76L761.25 905.003C767.233 903.009 771.221 897.026 771.221 891.043L771.221 591.403C771.221 591.902 771.221 591.403 771.221 591.403ZM741.307 880.573L531.908 954.86L531.908 687.128L741.307 612.842L741.307 880.573Z" fill="#423a55" fill-rule="evenodd" opacity="1" stroke="none"/>
</g>
<g opacity="1">
<path d="M522.857 50.1355C518.869 45.1498 512.387 43.1555 506.404 45.6484L267.091 130.405C263.601 131.402 261.108 133.895 259.114 136.887L199.286 236.6C195.796 242.085 196.294 249.065 200.283 253.552C203.773 257.042 207.761 259.036 212.248 259.036C213.744 259.036 215.738 258.538 217.234 258.039L456.548 173.282C460.037 172.285 462.53 169.792 464.525 166.801L524.353 67.0869C527.344 62.1012 526.846 55.1212 522.857 50.1355Z" fill="#423a55" fill-rule="evenodd" opacity="1" stroke="none"/>
<path d="M750.704 144.365L511.39 59.6083L272.077 144.365L272.077 443.507L511.39 528.264L750.704 443.507L750.704 144.365Z" fill="#e7e1fb" fill-rule="evenodd" opacity="1" stroke="none"/>
<path d="M750.704 144.365L511.39 59.6083L272.077 144.365L272.077 443.507L511.39 528.264L750.704 443.507L750.704 144.365ZM750.704 144.365L511.39 59.6083" fill="#e7e1fb" fill-rule="evenodd" opacity="1" stroke="none"/>
<path d="M511.39 543.221C509.894 543.221 507.9 542.722 506.404 542.224L267.091 457.467C261.108 455.473 257.12 449.49 257.12 443.507L257.12 144.365C257.12 137.884 261.108 132.399 267.091 130.405L506.404 45.6484C514.382 42.6569 522.857 47.1441 525.35 54.6226C528.342 62.5997 523.854 71.0754 516.376 73.5683L287.034 154.835L287.034 433.037L516.376 514.304C524.353 517.295 528.342 525.771 525.35 533.249C523.356 539.232 517.373 543.221 511.39 543.221Z" fill="#423a55" fill-rule="evenodd" opacity="1" stroke="none"/>
<path d="M750.704 144.365L511.39 59.6083M750.704 144.365L511.39 59.6083M511.39 229.122L272.077 144.365M810.532 244.079L571.219 328.836L511.39 229.122L750.704 144.365L810.532 244.079Z" fill="#e7e1fb" fill-rule="evenodd" opacity="1" stroke="none"/>
<path d="M823.495 236.6L763.666 136.887L763.168 136.388C763.168 135.889 762.669 135.889 762.669 135.391L762.669 135.391C762.669 134.892 762.171 134.892 762.171 134.394C762.171 134.394 762.171 134.394 762.171 133.895C761.672 133.397 761.672 133.397 761.173 132.898L760.675 132.399L760.176 131.901L759.678 131.901L759.179 131.402C758.681 130.904 758.182 130.904 757.684 130.904C757.185 130.904 757.185 130.405 756.686 130.405L756.686 130.405L756.686 130.405L517.373 45.6484C516.376 45.1498 515.379 45.1498 514.382 45.1498L513.883 45.1498C512.886 45.1498 511.889 45.1498 511.39 45.1498C510.892 45.1498 510.892 45.1498 510.393 45.1498C509.396 45.1498 508.399 45.6484 507.402 45.6484L268.088 130.405C262.105 132.399 258.117 138.382 258.117 144.365L258.117 443.507C258.117 449.988 262.105 455.473 268.088 457.467L507.402 542.224L507.402 542.224C507.9 542.224 508.399 542.722 508.897 542.722C509.396 542.722 509.396 542.722 509.894 542.722C510.393 542.722 510.892 542.722 511.889 542.722L512.387 542.722C513.384 542.722 513.883 542.722 514.88 542.722L515.379 542.722C515.877 542.722 516.376 542.224 516.874 542.224L516.874 542.224L756.188 457.467C762.171 455.473 766.159 449.49 766.159 443.507L766.159 275.987L816.016 258.538C820.005 257.042 823.495 253.552 824.99 249.563C826.486 245.575 825.489 240.09 823.495 236.6ZM705.832 144.365L526.347 208.182L526.347 80.5482L705.832 144.365ZM287.034 165.305L496.433 239.592L496.433 506.825L287.034 432.538L287.034 165.305ZM735.746 433.037L526.347 507.324L526.347 282.967L558.256 336.314C561.247 341.3 566.233 343.793 571.219 343.793C572.714 343.793 574.708 343.294 576.204 342.796L735.746 286.457L735.746 433.037ZM577.7 310.887L533.327 237.099L743.724 162.314L788.096 236.102L577.7 310.887Z" fill="#423a55" fill-rule="evenodd" opacity="1" stroke="none"/>
</g>
</g>
</svg>
