<?xml version="1.0" encoding="UTF-8" standalone="no"?>
<!DOCTYPE svg PUBLIC "-//W3C//DTD SVG 1.1//EN" "http://www.w3.org/Graphics/SVG/1.1/DTD/svg11.dtd">
<!-- Created with Vectornator (http://vectornator.io/) -->
<svg height="100%" stroke-miterlimit="10" style="fill-rule:nonzero;clip-rule:evenodd;stroke-linecap:round;stroke-linejoin:round;" version="1.1" viewBox="0 0 1024 1024" width="100%" xml:space="preserve" xmlns="http://www.w3.org/2000/svg" xmlns:vectornator="http://vectornator.io" xmlns:xlink="http://www.w3.org/1999/xlink">
<defs/>
<g id="Layer-1" vectornator:layerName="Layer 1">
<g opacity="1">
<path d="M578.54 841.685L578.351 686.895L698.253 600.267L819.527 686.368L818.65 841.826L578.54 841.685Z" fill="#afd9f7" fill-rule="evenodd" opacity="1" stroke="none"/>
<g opacity="1">
<path d="M670.039 678.828C670.039 682.347 672.729 685.037 676.248 685.037L715.573 685.037C719.092 685.037 721.783 682.347 721.783 678.828C721.783 675.31 719.092 672.619 715.573 672.619L676.248 672.619C672.729 672.619 670.039 675.31 670.039 678.828Z" fill="#423a55" fill-rule="evenodd" opacity="1" stroke="none"/>
<path d="M824.65 677.793L700.464 590.863C698.394 589.415 695.497 589.415 693.427 590.863L569.241 677.793C567.585 679.035 566.551 680.898 566.551 682.968L566.551 844.409C566.551 847.928 569.241 850.618 572.76 850.618L614.155 850.618L779.736 850.618L821.131 850.618C824.65 850.618 827.34 847.928 827.34 844.409L827.34 682.968C827.34 680.898 826.305 679.035 824.65 677.793ZM690.736 831.99C690.736 835.509 688.045 838.2 684.527 838.2L647.271 838.2C643.753 838.2 641.062 835.509 641.062 831.99L641.062 794.735C641.062 791.216 643.753 788.525 647.271 788.525L657.62 788.525C658.862 788.525 659.69 789.353 659.69 790.595L659.69 798.874C659.69 802.393 672.108 802.393 672.108 798.874L672.108 790.595C672.108 789.353 672.936 788.525 674.178 788.525L684.527 788.525C688.045 788.525 690.736 791.216 690.736 794.735L690.736 831.99ZM703.155 738.851L703.155 730.572C703.155 729.33 703.983 728.502 705.224 728.502L715.573 728.502C719.092 728.502 721.783 731.193 721.783 734.712L721.783 771.967C721.783 775.486 719.092 778.177 715.573 778.177L678.318 778.177C674.799 778.177 672.108 775.486 672.108 771.967L672.108 734.712C672.108 731.193 674.799 728.502 678.318 728.502L688.666 728.502C689.908 728.502 690.736 729.33 690.736 730.572L690.736 738.851C690.736 742.37 703.155 742.37 703.155 738.851ZM752.829 831.99C752.829 835.509 750.138 838.2 746.62 838.2L709.364 838.2C705.845 838.2 703.155 835.509 703.155 831.99L703.155 794.735C703.155 791.216 705.845 788.525 709.364 788.525L719.713 788.525C720.955 788.525 721.783 789.353 721.783 790.595L721.783 798.874C721.783 802.393 734.201 802.393 734.201 798.874L734.201 790.595C734.201 789.353 735.029 788.525 736.271 788.525L746.62 788.525C750.138 788.525 752.829 791.216 752.829 794.735L752.829 831.99ZM814.922 838.2L785.945 838.2L785.945 720.223L785.945 718.154C785.945 714.635 783.254 711.944 779.736 711.944L614.155 711.944C610.636 711.944 607.946 714.635 607.946 718.154L607.946 720.223L607.946 838.2L578.969 838.2L578.969 686.279L696.945 603.696L814.922 686.279L814.922 838.2Z" fill="#423a55" fill-rule="evenodd" opacity="1" stroke="none"/>
</g>
</g>
<g opacity="1">
<path d="M391.859 741.63L390.508 742.778C387.162 745.62 382.105 745.208 379.263 741.863L265.636 608.111C262.797 604.768 263.206 599.708 266.551 596.866L267.902 595.718C271.247 592.876 276.307 593.291 279.146 596.633L392.773 730.386C395.615 733.731 395.204 738.788 391.859 741.63Z" fill="#7c8ca3" fill-rule="evenodd" opacity="1" stroke="none"/>
<path d="M394.154 744.332L392.803 745.48C387.961 749.593 380.675 749.001 376.561 744.159L262.934 610.406C258.82 605.564 259.413 598.277 264.255 594.164L265.606 593.016C270.449 588.903 277.735 589.495 281.849 594.338L395.475 728.09C399.589 732.932 398.996 740.219 394.154 744.332ZM268.846 599.568C266.985 601.15 266.757 603.953 268.338 605.815L381.965 739.568C383.547 741.429 386.35 741.657 388.212 740.076L389.563 738.928C391.425 737.346 391.653 734.543 390.071 732.681L276.444 598.929C274.863 597.067 272.059 596.839 270.197 598.42L268.846 599.568Z" fill="#423a55" fill-rule="evenodd" opacity="1" stroke="none"/>
<path d="M269.639 652.525C254.322 634.489 230.321 628.207 209.048 634.589L240.055 671.088C242.928 674.463 244.508 678.931 244.126 683.689C243.744 688.452 241.466 692.611 238.094 695.476L229.315 702.939C225.942 705.803 221.476 707.369 216.716 706.98C211.954 706.587 207.803 704.313 204.933 700.935L173.923 664.433C163.88 685.014 166.663 710.642 183.299 728.795C198.438 745.313 221.753 751.028 242.352 744.981L327.662 845.401C335.763 854.937 350.193 856.113 359.731 848.01L360.182 847.627C369.718 839.526 370.892 825.093 362.791 815.557L277.505 715.165C287.225 695.212 284.955 670.548 269.639 652.525Z" fill="#8f9eb6" fill-rule="evenodd" opacity="1" stroke="none"/>
<path d="M362.472 850.334L362.024 850.715C350.972 860.103 334.346 858.75 324.957 847.699L241.109 749C219.27 754.518 195.779 747.664 180.686 731.191C163.528 712.477 159.622 685.658 170.734 662.88C171.265 661.797 172.291 661.065 173.477 660.918C174.667 660.768 175.847 661.226 176.623 662.14L207.633 698.642C210.011 701.441 213.338 703.151 217.001 703.449C220.666 703.749 224.228 702.608 227.021 700.239L235.798 692.779C238.595 690.403 240.299 687.075 240.593 683.407C240.888 679.751 239.736 676.188 237.355 673.391L206.345 636.889C205.57 635.976 205.308 634.737 205.648 633.588C205.98 632.44 206.879 631.542 208.028 631.198C231.336 624.2 256.581 631.672 272.339 650.232C287.567 668.152 291.125 693.177 281.67 714.603L365.49 813.269C374.877 824.318 373.524 840.945 362.472 850.334ZM174.926 671.094C167.939 690.037 172.003 711.228 185.913 726.402C199.712 741.457 221.473 747.418 241.361 741.586C242.701 741.192 244.154 741.627 245.059 742.691L330.366 843.108C337.223 851.18 349.367 852.167 357.438 845.311L357.886 844.93C365.958 838.073 366.946 825.929 360.089 817.858L274.8 717.463C273.888 716.39 273.697 714.878 274.316 713.612C283.745 694.265 280.846 671.187 266.937 654.82L266.937 654.82C254.212 639.83 234.49 633.021 215.462 636.662L242.76 668.795C246.366 673.035 248.111 678.424 247.662 683.974C247.215 689.532 244.631 694.579 240.392 698.18L231.612 705.643C227.373 709.24 221.981 710.97 216.429 710.513C210.879 710.059 205.835 707.473 202.231 703.231L174.928 671.092L174.926 671.094Z" fill="#423a55" fill-rule="evenodd" opacity="1" stroke="none"/>
<path d="M345.032 830.259L345.032 830.259C342.06 832.784 337.562 832.418 335.037 829.445L335.037 829.445C332.512 826.473 332.878 821.975 335.85 819.45L335.85 819.45C338.822 816.925 343.32 817.291 345.845 820.263L345.845 820.263C348.37 823.236 348.004 827.733 345.032 830.259Z" fill="#ffffff" fill-rule="evenodd" opacity="1" stroke="none"/>
<path d="M346.18 831.61C342.454 834.775 336.851 834.319 333.686 830.593C330.52 826.867 330.976 821.265 334.702 818.099C338.428 814.934 344.031 815.389 347.196 819.116C350.362 822.842 349.906 828.444 346.18 831.61ZM336.998 820.801C334.763 822.7 334.49 826.063 336.388 828.298C338.286 830.532 341.65 830.806 343.884 828.907C346.119 827.009 346.392 823.646 344.494 821.411C342.596 819.177 339.232 818.903 336.998 820.801Z" fill="#423a55" fill-rule="evenodd" opacity="1" stroke="none"/>
<path d="M341.483 719.296L395.418 782.784C403.652 792.476 417.478 795.789 427.45 789.439C439.35 781.865 440.7 764.896 430.992 753.469L376.61 689.454L341.483 719.296Z" fill="#f37e98" fill-rule="evenodd" opacity="1" stroke="none"/>
<path d="M432.134 790.381C431.264 791.12 430.338 791.805 429.354 792.431C418.107 799.591 402.359 796.43 392.716 785.079L338.781 721.591C337.511 720.097 337.693 717.863 339.187 716.594L374.314 686.752C375.808 685.483 378.042 685.665 379.312 687.159L433.694 751.173C439.378 757.864 441.92 766.474 440.664 774.798C439.72 781.058 436.728 786.479 432.134 790.381ZM346.48 719.702L398.12 780.488C405.479 789.151 417.269 791.715 425.547 786.45C429.954 783.631 432.839 779.125 433.649 773.742C434.599 767.446 432.647 760.893 428.29 755.764L376.203 694.452L346.48 719.702Z" fill="#423a55" fill-rule="evenodd" opacity="1" stroke="none"/>
<path d="M257.327 600.05L272.707 586.984L303.638 611.881L301.925 622.641L288.414 634.118L276.898 634.597L257.327 600.05Z" fill="#8f9eb6" fill-rule="evenodd" opacity="1" stroke="none"/>
<path d="M304.22 625.343L290.71 636.82C290.107 637.332 289.354 637.628 288.561 637.659L277.048 638.136C275.72 638.194 274.471 637.501 273.816 636.341L254.245 601.793C253.405 600.312 253.74 598.445 255.035 597.345L270.415 584.279C271.709 583.18 273.61 583.151 274.932 584.219L305.862 609.117C306.851 609.914 307.337 611.181 307.137 612.435L305.424 623.195C305.295 624.034 304.863 624.797 304.22 625.343ZM287.048 630.627L298.629 620.788L299.813 613.353L272.768 591.584L261.857 600.853L278.916 630.966L287.048 630.627Z" fill="#423a55" fill-rule="evenodd" opacity="1" stroke="none"/>
<path d="M406.911 773.038L405.56 774.186C403.701 775.766 400.892 775.537 399.313 773.678L359.141 726.392C357.564 724.535 357.791 721.724 359.65 720.145L361.001 718.997C362.86 717.418 365.668 717.646 367.248 719.505L407.419 766.792C408.998 768.651 408.77 771.459 406.911 773.038Z" fill="#ef5390" fill-rule="evenodd" opacity="1" stroke="none"/>
<path d="M408.058 774.39L406.707 775.537C404.1 777.752 400.177 777.433 397.962 774.826L357.79 727.54C355.575 724.932 355.894 721.009 358.502 718.794L359.853 717.646C362.46 715.431 366.384 715.75 368.599 718.358L408.77 765.644C410.985 768.251 410.666 772.174 408.058 774.39ZM360.797 721.496C359.682 722.444 359.544 724.128 360.493 725.244L400.664 772.53C401.612 773.646 403.296 773.783 404.412 772.835L405.763 771.687C406.879 770.739 407.016 769.055 406.068 767.939L365.897 720.653C364.949 719.537 363.264 719.4 362.149 720.348L360.797 721.496Z" fill="#423a55" fill-rule="evenodd" opacity="1" stroke="none"/>
<path d="M420.421 761.561L419.07 762.709C417.211 764.288 414.402 764.06 412.823 762.201L372.652 714.914C371.075 713.058 371.301 710.247 373.16 708.667L374.511 707.52C376.37 705.94 379.179 706.169 380.758 708.028L420.929 755.314C422.509 757.173 422.28 759.982 420.421 761.561Z" fill="#ef5390" fill-rule="evenodd" opacity="1" stroke="none"/>
<path d="M421.569 762.912L420.218 764.06C417.61 766.275 413.687 765.956 411.472 763.348L371.301 716.062C369.086 713.455 369.405 709.531 372.012 707.316L373.363 706.169C375.971 703.953 379.894 704.273 382.109 706.88L422.28 754.166C424.495 756.774 424.176 760.697 421.569 762.912ZM374.308 710.018C373.192 710.966 373.055 712.651 374.003 713.767L414.174 761.053C415.122 762.169 416.806 762.306 417.922 761.358L419.273 760.21C420.389 759.262 420.526 757.578 419.578 756.462L379.407 709.176C378.459 708.06 376.775 707.923 375.659 708.871L374.308 710.018ZM299.05 792.561C298.304 793.194 297.185 793.103 296.551 792.358L255.232 743.72C254.599 742.975 254.69 741.855 255.436 741.222C256.181 740.588 257.301 740.679 257.934 741.425L299.253 790.062C299.889 790.811 299.799 791.925 299.05 792.561ZM310.528 806.071C309.782 806.705 308.662 806.614 308.029 805.868L298.847 795.06C298.213 794.314 298.304 793.194 299.05 792.561C299.796 791.927 300.915 792.018 301.549 792.764L310.731 803.572C311.367 804.321 311.276 805.435 310.528 806.071ZM319.71 816.879C318.964 817.513 317.844 817.422 317.211 816.676L312.62 811.272C311.986 810.526 312.077 809.407 312.823 808.773C313.569 808.14 314.688 808.231 315.322 808.977L319.913 814.381C320.549 815.129 320.458 816.244 319.71 816.879Z" fill="#423a55" fill-rule="evenodd" opacity="1" stroke="none"/>
</g>
<g opacity="1">
<g opacity="1">
<path d="M804.394 152.552C802.754 151.499 800.568 151.454 798.859 152.623L654.213 251.521C653.411 252.07 652.835 252.789 652.477 253.578C651.405 255.945 652.285 258.992 654.934 260.209L783.231 319.146L637.803 413.386C635.485 414.888 634.838 417.997 636.34 420.314C637.842 422.631 640.909 423.294 643.226 421.792L796.307 322.573C797.134 322.037 797.724 321.334 798.1 320.542C799.227 318.169 798.356 315.089 795.669 313.855L667.116 254.801L804.528 160.867C806.808 159.309 807.382 156.21 805.823 153.931C805.434 153.361 804.94 152.903 804.394 152.552Z" fill="#ffff63" fill-rule="evenodd" opacity="1" stroke="#423a55" stroke-linecap="round" stroke-linejoin="round" stroke-width="3"/>
<path d="M719.528 433.209L590.865 374.104C588.685 373.103 587.045 374.231 587.201 376.625L592.296 454.633C592.452 457.027 594.492 458.617 596.851 458.185L719.202 435.803C721.562 435.371 721.707 434.21 719.528 433.209Z" fill="#ffff63" fill-rule="evenodd" opacity="1" stroke="#423a55" stroke-linecap="round" stroke-linejoin="round" stroke-width="3"/>
</g>
<path d="M653.253 409.352L663.636 402.561L672.258 397.04" fill="none" fill-rule="evenodd" opacity="1" stroke="#ffff63" stroke-linecap="round" stroke-linejoin="round" stroke-width="7"/>
</g>
<g opacity="1">
<path d="M302.677 197.984L172.102 281.748L433.253 281.748L302.677 197.984Z" fill="#e7e1fb" fill-rule="evenodd" opacity="1" stroke="none"/>
<g opacity="1">
<path d="M433.491 276.228L433.491 447.042L171.963 447.042L171.963 276.228" fill="#e7e1fb" fill-rule="evenodd" opacity="1" stroke="#423a55" stroke-linecap="round" stroke-linejoin="round" stroke-width="10"/>
<path d="M158.436 284.714L302.727 194.532L447.018 284.714L447.018 253.15L302.727 162.968L158.436 253.15L158.436 284.714Z" fill="#423a55" fill-rule="evenodd" opacity="1" stroke="#423a55" stroke-linecap="round" stroke-linejoin="round" stroke-width="10"/>
<path d="M428.982 419.987C426.491 419.987 424.473 422.006 424.473 424.496C424.473 426.987 426.491 429.005 428.982 429.005C431.472 429.005 433.491 426.987 433.491 424.496C433.491 422.006 431.472 419.987 428.982 419.987ZM410.945 419.987C408.455 419.987 406.436 422.006 406.436 424.496C406.436 426.987 408.455 429.005 410.945 429.005C413.436 429.005 415.454 426.987 415.454 424.496C415.454 422.006 413.436 419.987 410.945 419.987ZM392.909 419.987C390.419 419.987 388.4 422.006 388.4 424.496C388.4 426.987 390.419 429.005 392.909 429.005C395.399 429.005 397.418 426.987 397.418 424.496C397.418 422.006 395.399 419.987 392.909 419.987ZM374.872 419.987C372.382 419.987 370.363 422.006 370.363 424.496C370.363 426.987 372.382 429.005 374.872 429.005C377.363 429.005 379.382 426.987 379.382 424.496C379.382 422.006 377.363 419.987 374.872 419.987ZM356.836 419.987C354.346 419.987 352.327 422.006 352.327 424.496C352.327 426.987 354.346 429.005 356.836 429.005C359.326 429.005 361.345 426.987 361.345 424.496C361.345 422.006 359.326 419.987 356.836 419.987ZM338.8 419.987C336.309 419.987 334.291 422.006 334.291 424.496C334.291 426.987 336.309 429.005 338.8 429.005C341.29 429.005 343.309 426.987 343.309 424.496C343.309 422.006 341.29 419.987 338.8 419.987ZM320.763 419.987C318.273 419.987 316.254 422.006 316.254 424.496C316.254 426.987 318.273 429.005 320.763 429.005C323.254 429.005 325.272 426.987 325.272 424.496C325.272 422.006 323.254 419.987 320.763 419.987ZM302.727 419.987C300.237 419.987 298.218 422.006 298.218 424.496C298.218 426.987 300.237 429.005 302.727 429.005C305.217 429.005 307.236 426.987 307.236 424.496C307.236 422.006 305.217 419.987 302.727 419.987ZM284.69 419.987C282.2 419.987 280.181 422.006 280.181 424.496C280.181 426.987 282.2 429.005 284.69 429.005C287.181 429.005 289.2 426.987 289.2 424.496C289.2 422.006 287.181 419.987 284.69 419.987ZM230.581 419.987C228.091 419.987 226.072 422.006 226.072 424.496C226.072 426.987 228.091 429.005 230.581 429.005C233.072 429.005 235.09 426.987 235.09 424.496C235.09 422.006 233.072 419.987 230.581 419.987ZM248.618 419.987C246.127 419.987 244.109 422.006 244.109 424.496C244.109 426.987 246.127 429.005 248.618 429.005C251.108 429.005 253.127 426.987 253.127 424.496C253.127 422.006 251.108 419.987 248.618 419.987ZM266.654 419.987C264.164 419.987 262.145 422.006 262.145 424.496C262.145 426.987 264.164 429.005 266.654 429.005C269.144 429.005 271.163 426.987 271.163 424.496C271.163 422.006 269.144 419.987 266.654 419.987ZM212.545 419.987C210.055 419.987 208.036 422.006 208.036 424.496C208.036 426.987 210.055 429.005 212.545 429.005C215.035 429.005 217.054 426.987 217.054 424.496C217.054 422.006 215.035 419.987 212.545 419.987ZM194.508 419.987C192.018 419.987 189.999 422.006 189.999 424.496C189.999 426.987 192.018 429.005 194.508 429.005C196.999 429.005 199.018 426.987 199.018 424.496C199.018 422.006 196.999 419.987 194.508 419.987ZM176.472 419.987C173.982 419.987 171.963 422.006 171.963 424.496C171.963 426.987 173.982 429.005 176.472 429.005C178.962 429.005 180.981 426.987 180.981 424.496C180.981 422.006 178.962 419.987 176.472 419.987ZM298.155 385.263L298.155 376.253C278.337 374.937 265.865 364.061 265.797 347.986L280.483 347.986C281.178 356.229 287.829 361.982 298.15 363.159L298.15 331.564L291.982 329.968C276.533 326.018 268.079 316.733 268.079 303.22C268.079 287.217 279.442 276.616 298.15 274.884L298.15 265.325L307.642 265.325L307.642 274.884C325.583 276.481 337.366 287.424 337.781 302.877L323.302 302.877C323.022 295.256 316.791 289.295 307.642 288.186L307.642 318.05L314.085 319.502C331.472 323.731 339.652 332.529 339.652 346.868C339.652 363.844 327.942 374.441 307.642 376.177L307.642 385.254L298.155 385.254L298.155 385.263ZM298.155 316.043L298.155 288.123C289.285 288.606 282.914 294.427 282.914 301.98C282.909 309.117 288.176 314.037 298.155 316.043ZM307.646 333.367L307.646 363.299C318.594 362.672 324.898 357.27 324.898 348.473C324.898 340.501 319.424 335.721 307.646 333.367Z" fill="#423a55" fill-rule="evenodd" opacity="1" stroke="none"/>
</g>
<path d="M239.456 223.834L239.456 223.834L239.456 223.834L239.456 223.834L239.456 223.834L239.456 223.834L239.456 223.834Z" fill="#423a55" fill-rule="evenodd" opacity="1" stroke="#423a55" stroke-linecap="round" stroke-linejoin="round" stroke-width="10"/>
</g>
</g>
</svg>
