<?xml version="1.0" encoding="UTF-8" standalone="no"?>
<!DOCTYPE svg PUBLIC "-//W3C//DTD SVG 1.1//EN" "http://www.w3.org/Graphics/SVG/1.1/DTD/svg11.dtd">
<!-- Created with Vectornator (http://vectornator.io/) -->
<svg height="100%" stroke-miterlimit="10" style="fill-rule:nonzero;clip-rule:evenodd;stroke-linecap:round;stroke-linejoin:round;" version="1.1" viewBox="0 0 1024 1024" width="100%" xml:space="preserve" xmlns="http://www.w3.org/2000/svg" xmlns:vectornator="http://vectornator.io" xmlns:xlink="http://www.w3.org/1999/xlink">
<defs>
<filter color-interpolation-filters="sRGB" filterUnits="userSpaceOnUse" height="485.221" id="Filter" width="382.502" x="322.374" y="358.927">
<feDropShadow dx="-0.032482" dy="5.99991" flood-color="#000000" flood-opacity="0.48232" in="SourceGraphic" result="Shadow" stdDeviation="1.5"/>
</filter>
</defs>
<g id="Layer-1" vectornator:layerName="Layer 1">
<path d="M856.112 443.547L856.112 957.426L165.522 957.426L165.522 443.547L510.816 75.9083L856.112 443.547Z" fill="#94d0ac" fill-rule="evenodd" opacity="1" stroke="none"/>
<path d="M856.112 1018.36L165.522 1018.36C130.993 1018.36 104.587 991.956 104.587 957.426L104.587 443.547C104.587 409.017 130.993 382.611 165.522 382.611C200.052 382.611 226.456 409.017 226.456 443.547L226.456 896.492L795.178 896.492L795.178 443.547C795.178 409.017 821.582 382.611 856.112 382.611C890.641 382.611 917.045 409.017 917.045 443.547L917.045 957.426C917.045 991.956 890.641 1018.36 856.112 1018.36ZM754.555 364.331C720.025 364.331 693.619 337.927 693.619 303.397L693.619 142.937C693.619 108.407 720.025 82.0017 754.555 82.0017C789.084 82.0017 815.488 108.407 815.488 142.937L815.488 303.397C815.488 337.927 789.084 364.331 754.555 364.331Z" fill="#423a55" fill-rule="evenodd" opacity="1" stroke="none"/>
<path d="M951.575 585.726C935.327 585.726 919.078 579.633 906.891 567.446L510.816 151.061L112.712 567.446C90.3695 591.82 51.7768 591.82 27.4033 569.477C3.02988 547.134 3.02988 508.543 25.3729 484.17L466.132 23.0984C488.475-1.27523 531.129-1.27523 553.472 23.0984L994.231 484.17C1016.57 508.543 1016.57 547.134 992.198 569.477C982.044 579.633 967.825 585.726 951.575 585.726Z" fill="#423a55" fill-rule="evenodd" opacity="1" stroke="none"/>
<g filter="url(#Filter)" vectornator:shadowAngle="1.57621" vectornator:shadowColor="#000000" vectornator:shadowOffset="6" vectornator:shadowOpacity="0.48232" vectornator:shadowRadius="3">
<path d="M392.072 758.792C372.959 758.792 357.467 775.259 357.467 795.573C357.467 815.888 372.959 832.355 392.072 832.355C411.183 832.355 426.676 815.888 426.676 795.573C426.676 775.259 411.183 758.792 392.072 758.792Z" fill="#e7e1fb" fill-rule="evenodd" opacity="0.754335" stroke="none"/>
<path d="M527.564 703.906C508.453 703.906 492.96 720.373 492.96 740.686C492.96 761 508.453 777.468 527.564 777.468C546.677 777.468 562.17 761 562.17 740.686C562.17 720.373 546.677 703.906 527.564 703.906Z" fill="#e7e1fb" fill-rule="evenodd" opacity="0.754335" stroke="none"/>
<path d="M663.058 758.792C643.947 758.792 628.454 775.259 628.454 795.573C628.454 815.888 643.947 832.355 663.058 832.355C682.171 832.355 697.661 815.888 697.661 795.573C697.661 775.259 682.171 758.792 663.058 758.792Z" fill="#e7e1fb" fill-rule="evenodd" opacity="0.754335" stroke="none"/>
<path d="M367.479 646.443C348.366 646.443 332.876 662.91 332.876 683.224C332.876 703.539 348.366 720.006 367.479 720.006C386.59 720.006 402.083 703.539 402.083 683.224C402.083 662.91 386.59 646.443 367.479 646.443Z" fill="#e7e1fb" fill-rule="evenodd" opacity="0.754335" stroke="none"/>
<path d="M502.973 591.557C483.862 591.557 468.367 608.024 468.367 628.337C468.367 648.652 483.862 665.119 502.973 665.119C522.084 665.119 537.577 648.652 537.577 628.337C537.577 608.024 522.084 591.557 502.973 591.557Z" fill="#e7e1fb" fill-rule="evenodd" opacity="0.754335" stroke="none"/>
<path d="M638.467 646.443C619.354 646.443 603.863 662.91 603.863 683.224C603.863 703.539 619.354 720.006 638.467 720.006C657.578 720.006 673.071 703.539 673.071 683.224C673.071 662.91 657.578 646.443 638.467 646.443Z" fill="#e7e1fb" fill-rule="evenodd" opacity="0.754335" stroke="none"/>
<path d="M383.169 532.367C364.056 532.367 348.563 548.834 348.563 569.147C348.563 589.461 364.056 605.928 383.169 605.928C402.28 605.928 417.773 589.461 417.773 569.147C417.773 548.834 402.28 532.367 383.169 532.367Z" fill="#e7e1fb" fill-rule="evenodd" opacity="0.754335" stroke="none"/>
<path d="M518.661 477.479C499.55 477.479 484.057 493.947 484.057 514.261C484.057 534.574 499.55 551.041 518.661 551.041C537.774 551.041 553.266 534.574 553.266 514.261C553.266 493.947 537.774 477.479 518.661 477.479Z" fill="#e7e1fb" fill-rule="evenodd" opacity="0.754335" stroke="none"/>
<path d="M654.155 532.367C635.044 532.367 619.551 548.834 619.551 569.147C619.551 589.461 635.044 605.928 654.155 605.928C673.267 605.928 688.758 589.461 688.758 569.147C688.758 548.834 673.267 532.367 654.155 532.367Z" fill="#e7e1fb" fill-rule="evenodd" opacity="0.754335" stroke="none"/>
<path d="M673.429 484.231L353.886 484.231L337.907 822.648L689.408 822.648L673.429 484.231Z" fill="none" fill-rule="evenodd" opacity="1" stroke="#ffff63" stroke-linecap="round" stroke-linejoin="round" stroke-width="25"/>
<path d="M434.365 578.236L434.365 465.43C434.365 413.728 470.314 371.427 514.251 371.427L514.251 371.427C558.189 371.427 594.138 413.728 594.138 465.43L594.138 578.236" fill="none" fill-rule="evenodd" opacity="1" stroke="#ffff63" stroke-linecap="round" stroke-linejoin="round" stroke-width="25"/>
<path d="M434.543 560.494C420.974 560.494 409.975 571.743 409.975 585.618C409.975 599.492 420.974 610.742 434.543 610.742C448.11 610.742 459.107 599.492 459.107 585.618C459.107 571.743 448.11 560.494 434.543 560.494Z" fill="#ffff63" fill-rule="evenodd" opacity="1" stroke="none"/>
<path d="M593.961 560.494C580.394 560.494 569.395 571.743 569.395 585.618C569.395 599.492 580.394 610.742 593.961 610.742C607.528 610.742 618.528 599.492 618.528 585.618C618.528 571.743 607.528 560.494 593.961 560.494Z" fill="#ffff63" fill-rule="evenodd" opacity="1" stroke="none"/>
</g>
</g>
</svg>
