<?xml version="1.0" standalone="no"?>
<!DOCTYPE svg PUBLIC "-//W3C//DTD SVG 20010904//EN"
 "http://www.w3.org/TR/2001/REC-SVG-20010904/DTD/svg10.dtd">
<svg version="1.0" xmlns="http://www.w3.org/2000/svg"
 width="1398.000000pt" height="1426.000000pt" viewBox="0 0 1398.000000 1426.000000"
 preserveAspectRatio="xMidYMid meet">

<g transform="translate(0.000000,1426.000000) scale(0.100000,-0.100000)"
fill="#000000" stroke="none">
<path d="M5460 14244 c-36 -3 -74 -8 -85 -13 -11 -5 -63 -12 -115 -16 -52 -3
-100 -11 -107 -16 -7 -6 -41 -13 -75 -16 -35 -3 -72 -12 -83 -19 -11 -8 -42
-14 -70 -14 -28 0 -59 -7 -69 -15 -12 -9 -41 -15 -71 -15 -30 0 -59 -6 -71
-15 -10 -8 -32 -15 -49 -15 -16 0 -39 -7 -49 -15 -11 -8 -39 -15 -62 -15 -25
0 -47 -6 -54 -15 -7 -8 -27 -15 -44 -15 -18 0 -41 -7 -52 -15 -10 -8 -33 -15
-50 -15 -16 0 -39 -7 -50 -15 -10 -8 -29 -15 -41 -15 -19 0 -68 -16 -148 -49
-11 -4 -51 -18 -90 -30 -38 -13 -84 -29 -102 -37 -17 -8 -37 -14 -45 -14 -7 0
-22 -7 -32 -15 -11 -8 -32 -15 -46 -15 -14 0 -35 -7 -46 -15 -10 -8 -26 -15
-35 -15 -9 0 -22 -7 -29 -15 -7 -8 -25 -15 -39 -15 -15 0 -36 -7 -47 -15 -10
-8 -26 -15 -35 -15 -9 0 -22 -7 -29 -15 -7 -8 -25 -15 -39 -15 -15 0 -36 -7
-47 -15 -10 -8 -26 -15 -35 -15 -9 0 -22 -7 -29 -15 -7 -8 -23 -15 -35 -15
-12 0 -28 -7 -35 -15 -7 -8 -19 -15 -27 -15 -8 0 -27 -6 -41 -14 -15 -8 -49
-24 -77 -36 -27 -13 -57 -26 -65 -31 -8 -5 -22 -12 -30 -15 -8 -3 -22 -10 -30
-15 -8 -5 -22 -12 -30 -15 -8 -3 -22 -10 -30 -15 -8 -5 -22 -12 -30 -15 -8 -3
-22 -10 -30 -15 -8 -5 -22 -12 -30 -15 -8 -3 -22 -9 -30 -14 -8 -5 -40 -21
-70 -36 -30 -14 -68 -36 -85 -49 -16 -12 -40 -25 -52 -29 -13 -4 -23 -12 -23
-17 0 -5 -6 -9 -13 -9 -8 0 -32 -12 -53 -28 -21 -15 -50 -33 -64 -40 -45 -22
-95 -53 -116 -73 -11 -10 -25 -19 -31 -19 -6 0 -35 -20 -65 -45 -30 -25 -59
-45 -65 -45 -5 0 -20 -12 -34 -26 -13 -14 -37 -32 -54 -39 -16 -8 -50 -32 -73
-54 -24 -23 -49 -41 -55 -41 -7 0 -32 -20 -57 -43 -25 -24 -63 -55 -85 -69
-23 -14 -57 -41 -77 -61 -20 -19 -45 -38 -55 -41 -10 -4 -43 -30 -74 -60 -31
-29 -86 -77 -122 -105 -36 -28 -96 -80 -134 -117 -37 -36 -85 -77 -106 -90
-21 -14 -43 -36 -49 -49 -6 -14 -26 -34 -45 -45 -19 -11 -42 -33 -51 -50 -9
-16 -21 -30 -25 -30 -12 0 -108 -92 -126 -121 -9 -15 -60 -73 -113 -130 -53
-57 -107 -120 -121 -139 -13 -19 -41 -53 -62 -75 -21 -22 -50 -58 -64 -80 -14
-23 -38 -54 -53 -70 -16 -16 -28 -34 -28 -38 0 -5 -13 -26 -30 -47 -16 -21
-30 -41 -30 -45 0 -4 -14 -24 -30 -45 -17 -21 -30 -41 -30 -45 0 -4 -20 -37
-44 -74 -24 -36 -56 -91 -70 -121 -25 -50 -33 -66 -58 -110 -4 -8 -11 -22 -14
-30 -3 -8 -12 -28 -20 -43 -7 -16 -14 -34 -14 -42 0 -7 -7 -18 -15 -25 -8 -7
-15 -22 -15 -34 0 -12 -7 -31 -15 -42 -8 -10 -15 -28 -15 -39 0 -11 -7 -29
-15 -39 -8 -11 -15 -34 -15 -51 0 -17 -7 -40 -15 -51 -8 -10 -15 -35 -15 -54
0 -20 -6 -44 -14 -55 -7 -11 -16 -46 -19 -78 -3 -32 -10 -64 -16 -71 -6 -7
-14 -55 -17 -107 -3 -52 -10 -103 -15 -114 -13 -26 -6 -299 10 -425 7 -52 19
-109 27 -127 8 -17 14 -42 14 -56 0 -14 7 -38 15 -53 8 -16 15 -38 15 -49 0
-11 7 -29 15 -39 8 -11 15 -30 15 -42 0 -12 7 -27 15 -34 8 -7 15 -20 15 -30
0 -10 7 -23 15 -30 8 -7 15 -21 15 -31 0 -10 4 -20 9 -23 5 -3 19 -25 31 -48
12 -23 42 -64 66 -91 24 -27 44 -54 44 -60 0 -14 201 -217 215 -217 5 0 28
-14 49 -30 22 -17 46 -30 53 -30 8 0 21 -7 29 -15 9 -8 25 -15 38 -15 12 0 31
-7 42 -15 12 -9 44 -15 94 -15 46 0 85 -6 100 -15 20 -11 77 -14 280 -14 203
0 260 3 280 14 14 8 52 14 86 15 37 0 68 6 80 15 10 8 40 15 65 15 25 0 54 7
65 15 10 8 33 15 49 15 17 0 43 7 59 15 15 8 36 15 46 15 10 0 23 7 30 15 7 8
25 15 39 15 15 0 36 7 47 15 10 8 28 15 38 15 16 0 141 54 186 81 8 5 22 12
30 15 23 10 205 101 285 143 39 20 95 53 126 74 31 20 60 37 64 37 4 0 23 14
42 30 18 17 40 30 47 30 7 0 26 13 42 30 16 16 34 30 39 30 6 0 21 9 35 21 14
11 48 35 75 54 28 19 68 51 90 72 22 20 60 52 85 71 72 55 148 130 203 201 28
36 60 75 70 86 11 11 26 34 33 52 8 17 18 34 24 38 5 3 10 14 10 24 0 10 7 24
15 31 8 7 15 20 15 30 0 10 7 23 15 30 24 20 19 50 -9 50 -30 0 -116 -42 -141
-70 -10 -11 -23 -20 -30 -20 -7 0 -30 -12 -52 -27 -61 -43 -76 -52 -108 -67
-16 -8 -41 -26 -54 -40 -14 -14 -32 -26 -41 -26 -9 0 -30 -13 -46 -30 -16 -16
-35 -30 -43 -30 -7 0 -30 -12 -50 -27 -20 -16 -44 -32 -53 -38 -9 -5 -69 -46
-133 -90 -65 -44 -131 -87 -149 -96 -17 -9 -40 -26 -50 -38 -11 -12 -25 -21
-32 -21 -7 0 -29 -13 -47 -30 -19 -16 -39 -30 -44 -30 -6 0 -28 -12 -50 -27
-57 -41 -65 -45 -216 -122 -77 -39 -147 -71 -157 -71 -9 0 -42 -13 -73 -30
-31 -16 -67 -30 -80 -30 -13 0 -32 -7 -43 -15 -10 -8 -32 -15 -49 -15 -16 0
-39 -7 -49 -15 -12 -9 -43 -15 -80 -15 -35 0 -73 -7 -90 -15 -41 -21 -338 -21
-389 0 -20 8 -60 15 -90 15 -31 0 -61 6 -73 15 -10 8 -32 15 -49 15 -16 0 -39
7 -49 15 -11 8 -32 15 -47 15 -14 0 -32 7 -39 15 -7 8 -20 15 -30 15 -10 0
-23 7 -30 15 -7 8 -18 15 -26 15 -37 0 -254 185 -254 217 0 7 -13 27 -29 45
-15 18 -31 44 -34 58 -7 34 -26 88 -46 129 -14 29 -16 77 -16 315 0 252 2 284
18 306 9 13 17 41 17 61 0 20 7 50 15 65 8 16 15 45 15 64 0 19 7 44 15 54 8
11 15 29 15 40 0 12 7 30 15 40 8 11 15 34 15 50 0 17 7 40 15 50 8 11 15 27
15 37 0 9 7 22 15 29 8 7 15 20 15 30 0 10 7 23 15 30 8 7 15 22 15 34 0 12 7
31 15 43 8 12 40 71 70 132 31 60 60 113 65 116 6 3 10 15 10 26 0 10 5 19 10
19 6 0 15 11 20 24 11 30 213 330 251 374 16 18 29 38 29 45 0 7 18 31 41 52
22 22 60 67 84 100 50 69 565 585 584 585 7 0 41 27 75 60 35 33 68 60 75 60
6 0 33 19 59 43 26 23 65 54 87 68 22 14 51 38 65 52 14 15 32 27 41 27 9 0
29 13 45 30 16 16 36 30 44 30 8 0 28 12 44 26 33 31 124 94 136 94 5 0 29 16
54 35 26 19 50 35 54 35 4 0 23 13 42 30 19 16 40 29 45 30 6 0 26 13 45 30
19 16 42 29 51 30 8 0 28 14 44 30 16 17 36 30 46 30 9 0 22 7 29 15 7 8 18
15 26 15 7 0 29 14 47 30 19 17 39 30 44 30 5 0 40 20 78 45 38 25 89 55 114
68 25 12 64 34 85 49 21 16 45 28 51 28 7 0 15 7 19 15 3 8 14 15 25 15 11 0
22 4 25 9 7 10 87 51 100 51 5 0 25 14 46 30 21 17 45 30 53 30 9 0 19 4 22
10 3 5 76 44 161 86 85 42 157 81 160 85 3 5 16 9 28 9 13 0 29 7 36 15 7 8
25 15 40 15 15 0 33 7 40 15 7 8 20 15 30 15 10 0 23 7 30 15 7 8 23 15 35 15
12 0 28 7 35 15 7 8 23 15 35 15 12 0 28 7 35 15 7 8 22 15 34 15 12 0 30 6
41 14 21 14 181 74 225 84 13 3 31 11 38 19 7 7 28 13 46 13 19 0 39 7 46 15
8 9 30 15 60 15 30 0 52 6 60 15 7 8 27 15 44 15 17 1 42 7 56 15 14 8 45 15
70 15 25 0 56 7 70 15 14 8 53 15 90 15 37 0 76 7 90 15 37 21 576 21 604 0
11 -9 42 -15 70 -15 29 0 59 -7 70 -15 11 -8 36 -15 57 -15 20 0 42 -7 49 -15
7 -8 23 -15 35 -15 12 0 28 -7 35 -15 7 -8 27 -15 46 -15 18 0 36 -5 39 -10 4
-6 21 -16 38 -24 18 -7 53 -36 80 -64 36 -39 47 -59 47 -84 1 -18 7 -44 15
-58 20 -35 20 -215 0 -254 -8 -15 -15 -39 -15 -53 0 -14 -6 -37 -14 -51 -8
-15 -22 -49 -31 -77 -10 -27 -24 -66 -33 -85 -8 -19 -23 -55 -34 -80 -11 -25
-24 -52 -29 -60 -5 -8 -12 -22 -15 -30 -3 -8 -10 -22 -15 -30 -5 -8 -12 -22
-15 -30 -3 -8 -10 -22 -15 -30 -5 -8 -12 -22 -15 -30 -3 -8 -10 -22 -15 -30
-5 -8 -20 -35 -34 -60 -14 -25 -29 -52 -34 -60 -5 -8 -12 -22 -15 -30 -4 -8
-17 -33 -30 -55 -14 -22 -32 -54 -41 -72 -9 -18 -23 -37 -31 -44 -8 -6 -14
-16 -14 -21 0 -6 -20 -41 -45 -78 -24 -37 -48 -75 -51 -86 -4 -10 -20 -35 -36
-54 -15 -19 -28 -38 -28 -42 0 -4 -24 -42 -52 -83 -29 -42 -59 -88 -67 -103
-8 -14 -22 -34 -31 -44 -9 -10 -23 -30 -31 -45 -8 -15 -26 -40 -41 -57 -16
-17 -28 -38 -28 -48 0 -10 -4 -18 -9 -18 -5 0 -25 -24 -44 -52 -19 -29 -47
-66 -62 -83 -15 -16 -39 -48 -53 -70 -15 -22 -44 -58 -64 -80 -21 -22 -38 -46
-38 -52 0 -7 -22 -38 -50 -68 -27 -30 -50 -61 -50 -68 0 -6 -27 -39 -60 -72
-33 -33 -60 -67 -60 -75 0 -9 -21 -36 -46 -60 -25 -25 -55 -61 -66 -80 -12
-19 -42 -58 -67 -85 -45 -49 -101 -119 -189 -233 -24 -31 -58 -72 -76 -92 -18
-20 -51 -61 -74 -91 -22 -30 -61 -76 -86 -104 -25 -27 -46 -54 -46 -60 0 -5
-30 -41 -66 -80 -36 -38 -76 -87 -90 -109 -14 -21 -42 -57 -63 -80 -20 -22
-50 -59 -66 -81 -16 -22 -48 -60 -71 -85 -23 -25 -62 -72 -87 -105 -24 -33
-57 -71 -72 -85 -15 -14 -38 -41 -50 -60 -12 -19 -50 -65 -84 -102 -33 -36
-61 -71 -61 -77 0 -6 -27 -40 -60 -77 -33 -36 -60 -70 -60 -74 0 -5 -22 -35
-50 -66 -27 -31 -50 -62 -50 -69 0 -6 -13 -24 -30 -40 -16 -16 -30 -35 -30
-44 0 -8 -9 -24 -19 -35 -20 -21 -51 -71 -73 -116 -7 -14 -25 -43 -40 -64 -16
-21 -28 -45 -28 -53 0 -7 -4 -13 -9 -13 -5 0 -14 -12 -20 -27 -6 -16 -29 -59
-50 -98 -22 -38 -40 -80 -40 -91 -1 -12 -8 -27 -16 -34 -8 -7 -15 -20 -15 -29
0 -9 -5 -22 -12 -29 -13 -13 -38 -75 -45 -114 -3 -15 -11 -33 -19 -39 -8 -6
-14 -23 -14 -38 0 -15 -6 -35 -14 -46 -7 -11 -16 -39 -19 -61 -4 -23 -14 -54
-22 -70 -8 -16 -15 -43 -15 -59 0 -17 -4 -35 -10 -41 -5 -5 -12 -43 -16 -84
-4 -41 -12 -81 -18 -89 -7 -9 -12 -100 -14 -262 -3 -212 -1 -253 12 -280 9
-18 16 -46 16 -63 0 -17 7 -44 15 -60 8 -15 15 -37 15 -47 0 -10 5 -21 10 -24
6 -4 17 -21 25 -38 39 -82 103 -162 144 -180 14 -6 44 -24 65 -39 21 -16 51
-28 66 -28 14 0 32 -6 38 -12 13 -13 136 -29 222 -29 95 -1 249 16 262 29 6 6
30 12 53 12 23 0 50 7 61 15 10 8 33 15 50 15 17 0 37 7 44 15 7 8 25 15 39
15 15 0 36 7 47 15 10 8 26 15 35 15 9 0 57 20 105 43 186 92 240 117 250 117
5 0 24 14 43 30 18 17 39 30 46 30 7 0 18 7 25 15 7 8 20 15 29 15 10 0 30 13
47 29 16 15 39 31 50 35 12 4 33 17 46 29 13 12 37 31 53 41 17 11 62 47 100
81 39 34 75 64 81 66 10 3 158 137 246 222 16 15 34 27 40 27 13 0 1299 1289
1387 1391 35 41 170 182 300 314 130 133 302 313 382 400 80 88 230 246 332
350 103 105 213 220 244 258 32 37 153 165 270 285 116 119 223 233 236 253
38 56 374 392 385 385 12 -7 -12 -81 -33 -103 -8 -8 -15 -19 -15 -24 0 -5 -13
-28 -30 -51 -16 -22 -30 -47 -30 -53 0 -7 -7 -18 -15 -25 -8 -7 -15 -19 -15
-28 0 -9 -9 -25 -19 -36 -10 -12 -33 -48 -50 -81 -18 -33 -36 -64 -42 -70 -5
-5 -9 -17 -9 -26 0 -9 -7 -22 -15 -29 -8 -7 -15 -19 -15 -27 0 -8 -11 -29 -25
-47 -13 -18 -43 -68 -65 -111 -22 -43 -51 -93 -63 -109 -13 -17 -42 -69 -66
-116 -23 -47 -46 -92 -51 -100 -5 -8 -11 -22 -15 -30 -8 -20 -26 -49 -52 -86
-12 -17 -27 -42 -33 -55 -5 -13 -15 -33 -22 -44 -25 -43 -29 -51 -43 -80 -9
-16 -25 -46 -37 -65 -11 -19 -32 -56 -45 -82 -13 -26 -28 -50 -33 -53 -6 -3
-10 -13 -10 -20 0 -8 -20 -44 -45 -81 -25 -36 -45 -71 -45 -78 0 -8 -7 -19
-15 -26 -8 -7 -15 -20 -15 -30 0 -10 -7 -23 -15 -30 -8 -7 -15 -18 -15 -25 0
-7 -13 -28 -30 -46 -16 -19 -30 -41 -30 -50 0 -9 -7 -22 -15 -29 -8 -7 -15
-20 -15 -29 0 -9 -5 -22 -11 -28 -11 -11 -26 -37 -86 -151 -23 -44 -47 -83
-53 -87 -5 -3 -10 -14 -10 -24 0 -10 -7 -24 -15 -31 -8 -7 -15 -21 -15 -32 0
-10 -7 -21 -15 -24 -8 -4 -15 -12 -15 -19 0 -6 -14 -31 -30 -53 -17 -23 -30
-48 -30 -56 0 -8 -4 -17 -9 -21 -6 -3 -21 -30 -35 -59 -14 -30 -43 -80 -64
-113 -22 -32 -51 -83 -66 -113 -15 -30 -32 -64 -39 -75 -51 -82 -64 -106 -86
-150 -13 -27 -27 -52 -30 -55 -3 -3 -17 -27 -30 -55 -13 -27 -33 -63 -45 -80
-12 -16 -27 -41 -34 -55 -6 -14 -16 -33 -22 -42 -5 -10 -15 -26 -20 -35 -6
-10 -14 -27 -19 -38 -5 -11 -21 -37 -35 -58 -14 -21 -26 -43 -26 -50 0 -7 -11
-29 -25 -49 -14 -21 -30 -48 -35 -60 -6 -13 -14 -31 -20 -40 -5 -10 -15 -26
-20 -35 -6 -10 -15 -29 -20 -42 -6 -13 -19 -35 -30 -48 -11 -14 -33 -54 -49
-88 -17 -35 -35 -66 -41 -70 -16 -10 -12 11 5 25 8 7 15 20 15 30 0 10 7 23
15 30 8 7 15 19 15 27 0 9 14 31 30 50 17 18 30 40 30 47 0 8 7 19 15 26 8 7
15 19 15 28 0 8 7 23 16 33 8 9 14 26 12 37 -3 19 -9 18 -113 -24 -60 -24
-113 -44 -117 -44 -16 0 -373 -172 -448 -215 -304 -178 -406 -249 -620 -432
-296 -253 -481 -484 -569 -713 -18 -47 -37 -96 -43 -110 -5 -14 -18 -70 -29
-125 -35 -184 -22 -450 31 -620 12 -38 24 -82 27 -98 3 -15 9 -30 14 -33 5 -3
9 -12 9 -21 0 -16 49 -123 83 -180 l20 -35 75 79 c41 43 91 101 110 128 20 28
53 69 74 91 21 23 51 61 67 85 15 24 35 50 44 58 13 10 17 30 17 84 0 76 13
168 37 262 19 75 87 257 115 310 37 68 149 237 207 310 59 75 239 256 342 345
35 30 66 57 69 60 3 3 54 44 115 90 111 85 144 116 145 136 0 7 7 14 15 18 8
3 15 14 15 25 0 11 6 26 14 33 7 8 23 33 35 55 11 23 25 44 31 48 5 3 10 13
10 22 0 8 9 26 20 40 12 16 20 20 20 11 0 -8 -5 -19 -11 -25 -13 -13 -33 -47
-49 -83 -6 -14 -22 -39 -36 -57 -13 -17 -24 -38 -24 -46 0 -8 -7 -20 -15 -27
-8 -7 -15 -17 -15 -22 0 -5 -12 -28 -27 -51 -46 -69 -53 -81 -63 -106 -6 -13
-20 -35 -31 -50 -11 -14 -27 -39 -35 -56 -15 -32 -23 -44 -67 -112 -15 -24
-27 -45 -27 -48 0 -3 -20 -34 -45 -71 -25 -36 -45 -71 -45 -78 0 -7 -13 -25
-30 -41 -16 -16 -30 -34 -30 -41 0 -7 -19 -41 -42 -75 -24 -34 -51 -76 -62
-93 -10 -17 -27 -41 -37 -55 -10 -13 -19 -28 -19 -34 0 -5 -14 -25 -30 -44
-17 -18 -30 -39 -30 -46 -1 -7 -14 -28 -30 -47 -17 -19 -30 -39 -30 -45 0 -7
-12 -22 -26 -36 -14 -13 -32 -37 -39 -54 -7 -16 -21 -39 -32 -50 -10 -11 -29
-37 -42 -58 -13 -21 -37 -53 -52 -70 -16 -17 -29 -36 -29 -42 0 -5 -20 -33
-45 -60 -25 -28 -45 -54 -45 -60 0 -5 -16 -28 -36 -50 -20 -22 -49 -59 -66
-83 -17 -24 -53 -68 -82 -98 -28 -31 -55 -66 -61 -78 -5 -13 -40 -54 -77 -92
-36 -38 -85 -94 -109 -124 -60 -78 -325 -346 -379 -383 -25 -17 -80 -64 -123
-104 -43 -40 -83 -73 -89 -73 -6 0 -27 -15 -48 -33 -35 -31 -54 -43 -144 -95
-22 -12 -47 -28 -55 -36 -9 -7 -26 -17 -38 -20 -11 -4 -27 -13 -33 -21 -7 -8
-21 -15 -31 -15 -11 0 -19 -4 -19 -10 0 -5 -12 -13 -27 -16 -16 -4 -37 -13
-48 -20 -11 -8 -31 -14 -46 -14 -15 0 -32 -7 -39 -15 -7 -8 -27 -15 -45 -15
-18 0 -38 -7 -45 -15 -7 -9 -30 -15 -54 -15 -22 -1 -59 -7 -81 -15 -58 -21
-341 -21 -381 0 -16 8 -45 15 -65 15 -20 0 -42 7 -49 15 -7 8 -25 15 -41 15
-15 0 -34 6 -41 14 -8 7 -24 17 -37 21 -33 10 -191 164 -191 185 0 10 -7 23
-15 30 -8 7 -15 20 -15 30 0 10 -7 23 -15 30 -8 7 -15 20 -15 30 0 10 -7 23
-15 30 -8 7 -15 25 -15 39 0 15 -7 36 -15 47 -8 10 -15 28 -15 40 0 11 -7 29
-15 40 -8 10 -15 30 -15 44 0 14 -6 37 -14 51 -7 14 -16 43 -21 65 -4 21 -10
43 -13 49 -4 5 -12 32 -17 60 -14 67 -45 84 -163 92 -71 5 -96 2 -122 -11 -18
-9 -38 -16 -45 -16 -6 0 -29 -18 -50 -41 l-40 -40 0 -147 c0 -124 3 -151 17
-172 10 -13 18 -36 18 -51 0 -15 7 -32 15 -39 8 -7 15 -20 15 -29 0 -9 14 -31
30 -50 17 -18 30 -40 30 -47 0 -19 246 -261 273 -270 12 -4 35 -20 51 -35 17
-16 34 -29 39 -29 5 0 26 -14 47 -30 21 -16 45 -30 53 -30 8 0 20 -7 27 -15 7
-8 20 -15 30 -15 10 0 23 -7 30 -15 7 -8 20 -15 29 -15 10 0 26 -7 37 -15 10
-8 31 -15 45 -15 14 0 34 -7 45 -15 10 -8 28 -15 39 -15 11 0 34 -7 50 -16 17
-9 64 -20 105 -25 41 -4 104 -12 140 -18 43 -6 90 -6 140 1 41 5 116 13 165
17 50 4 99 12 110 18 11 6 38 14 60 18 22 4 45 11 51 16 7 5 35 12 63 16 28 3
56 12 62 19 6 8 26 14 44 14 18 0 38 7 45 15 7 8 21 15 32 15 11 0 26 7 34 15
9 8 28 15 44 15 16 0 31 4 34 8 3 5 40 26 83 47 43 20 85 41 93 46 8 5 26 14
40 20 14 6 39 21 57 35 17 13 37 24 43 24 7 0 23 9 37 20 14 11 31 20 37 20 7
0 25 13 41 30 16 16 36 30 45 30 9 0 29 14 45 30 16 17 35 30 43 30 7 0 37 20
65 45 29 25 56 45 62 45 6 0 26 14 44 31 19 17 42 34 52 37 9 4 50 37 90 73
41 37 112 100 159 140 98 85 322 313 332 337 4 9 48 60 97 111 50 52 91 100
91 106 0 6 25 38 56 71 31 32 59 67 62 76 4 9 26 41 50 70 98 122 142 182 142
193 0 6 14 24 30 40 17 16 30 33 30 38 0 5 14 26 30 47 17 21 30 41 30 45 0 4
13 24 30 45 16 21 30 41 30 45 0 10 82 133 109 164 12 13 21 32 21 41 0 10 7
23 15 30 8 7 15 17 15 22 0 6 14 27 30 48 17 21 30 45 30 53 0 8 7 20 15 27 8
7 15 18 15 24 0 7 20 43 45 80 25 38 45 72 45 76 0 3 13 24 29 46 17 22 42 62
56 90 14 27 35 63 45 79 11 17 24 39 29 50 5 11 21 37 35 58 14 21 26 41 26
46 0 4 12 23 26 42 14 19 30 43 35 54 5 11 27 49 49 84 22 34 40 65 40 68 0 3
19 36 43 72 23 36 48 77 55 91 7 14 21 39 32 55 11 17 24 39 29 50 5 11 21 37
35 58 14 21 26 43 26 48 0 6 9 23 21 37 36 48 69 103 69 116 0 8 7 19 15 26 8
6 17 22 21 33 8 27 55 89 61 83 3 -3 -6 -20 -20 -38 -13 -18 -27 -40 -31 -48
-4 -8 -18 -33 -31 -55 -14 -22 -29 -51 -35 -65 -6 -14 -23 -40 -36 -58 l-25
-32 53 21 c29 12 74 29 101 39 26 9 50 20 54 23 3 4 14 7 23 7 9 0 45 12 81
26 64 26 105 38 299 89 58 14 114 30 125 35 11 5 34 11 50 15 88 18 124 26
165 35 25 6 70 15 100 20 30 5 89 16 130 25 41 8 93 15 116 15 22 0 44 4 50 9
5 5 41 12 79 15 39 3 104 10 145 15 147 19 314 30 325 21 11 -9 9 -38 -21
-315 -21 -195 -33 -289 -62 -505 -18 -130 -52 -347 -72 -455 -11 -60 -25 -135
-29 -165 -10 -58 -39 -196 -72 -345 -11 -49 -24 -110 -29 -135 -13 -71 -39
-183 -49 -210 -5 -14 -14 -50 -20 -80 -16 -75 -38 -160 -71 -276 -11 -39 -20
-79 -20 -88 0 -9 -4 -24 -9 -34 -5 -9 -17 -46 -26 -82 -23 -92 -73 -254 -191
-623 -15 -49 -32 -90 -36 -93 -4 -3 -8 -12 -8 -21 0 -23 -138 -399 -190 -518
-5 -11 -30 -72 -56 -135 -25 -63 -59 -144 -76 -180 -16 -36 -41 -92 -55 -125
-22 -53 -150 -325 -172 -366 -5 -8 -41 -78 -81 -155 -40 -76 -79 -148 -86
-160 -8 -11 -26 -44 -42 -73 -73 -139 -397 -645 -441 -690 -9 -9 -37 -46 -63
-83 -27 -37 -54 -72 -61 -80 -7 -7 -30 -35 -51 -63 -20 -27 -56 -69 -78 -93
-36 -39 -43 -42 -76 -37 -20 4 -48 10 -62 15 -23 7 -53 15 -147 40 -21 5 -78
19 -128 30 -49 11 -109 24 -133 30 -23 5 -53 10 -67 10 -13 0 -26 4 -29 9 -3
4 -29 12 -58 15 -29 4 -82 12 -118 17 -301 44 -416 53 -690 53 -260 0 -388
-10 -570 -45 -84 -16 -282 -73 -345 -99 -11 -4 -36 -14 -55 -20 -69 -25 -246
-115 -315 -161 -69 -46 -197 -168 -236 -225 -36 -52 -76 -138 -93 -199 -10
-33 -22 -70 -27 -83 -13 -32 -11 -250 2 -314 62 -296 222 -507 539 -710 126
-80 167 -102 255 -138 44 -17 89 -35 100 -40 18 -7 56 -17 243 -60 56 -13 489
-13 622 0 240 24 457 50 500 60 19 4 60 13 90 20 115 24 226 52 242 61 10 5
27 9 38 9 11 0 28 4 38 10 9 5 60 25 112 45 172 67 388 179 537 279 201 136
473 391 733 686 41 47 80 91 87 97 16 18 47 16 85 -5 18 -10 71 -33 118 -51
47 -19 89 -37 94 -42 6 -5 20 -9 32 -9 13 0 25 -4 28 -9 3 -4 27 -16 53 -26
26 -10 62 -24 78 -31 106 -47 318 -134 327 -134 6 0 31 -11 57 -24 25 -14 105
-48 176 -76 72 -29 145 -58 163 -66 17 -8 47 -20 65 -28 345 -151 596 -247
735 -282 39 -10 72 -22 72 -26 0 -4 13 -8 30 -8 16 0 39 -4 52 -9 21 -8 88
-22 198 -42 25 -5 81 -15 125 -24 44 -9 109 -20 145 -25 36 -4 101 -13 145
-20 76 -11 162 -20 410 -41 174 -15 762 -23 820 -11 28 6 82 16 120 22 126 22
320 76 420 119 11 4 34 14 50 21 17 7 37 16 45 21 8 5 47 25 85 45 253 130
499 331 661 539 82 106 181 276 204 352 6 21 15 47 19 58 5 11 14 33 20 48 6
15 11 39 11 52 0 13 4 26 9 29 10 7 17 49 32 206 16 175 0 469 -33 595 -34
128 -87 282 -132 380 -56 122 -58 126 -98 187 -21 31 -38 62 -38 68 0 5 -4 10
-10 10 -5 0 -10 5 -10 11 0 6 -13 28 -30 49 -16 21 -30 42 -30 47 0 7 -51 70
-160 200 -82 98 -268 281 -390 384 -144 122 -588 439 -615 439 -4 0 -19 9 -34
19 -24 17 -84 53 -241 144 -61 35 -151 82 -290 152 -74 37 -142 70 -150 75 -8
4 -15 13 -15 21 0 11 33 15 160 21 200 9 306 22 500 62 133 27 232 51 270 66
29 11 83 27 135 40 43 12 64 20 198 81 34 16 66 29 72 29 10 0 146 71 265 138
112 64 328 228 405 309 141 147 260 341 308 503 13 41 27 89 32 106 6 17 10
52 10 79 0 26 5 76 12 111 21 114 -19 366 -83 527 -34 85 -120 251 -139 267
-3 3 -27 35 -52 71 -61 86 -210 243 -318 334 -87 73 -326 238 -415 285 -27 15
-68 37 -90 50 -81 47 -313 158 -395 190 -47 18 -98 38 -115 45 -55 23 -170 63
-200 70 l-29 6 39 37 c78 73 297 222 326 222 5 0 9 4 9 8 0 10 95 54 203 94
205 77 394 96 622 62 93 -14 125 -24 210 -65 84 -42 185 -115 185 -135 0 -3
11 -20 24 -37 27 -36 76 -151 76 -179 0 -10 4 -37 10 -60 5 -24 14 -70 20
-103 14 -72 26 -122 48 -192 14 -47 19 -53 43 -53 31 0 53 38 63 110 10 72
-17 297 -44 365 -5 11 -11 33 -15 50 -21 94 -142 279 -252 386 -95 92 -152
133 -263 189 -104 53 -110 55 -185 70 -33 7 -69 16 -81 22 -26 12 -376 4 -464
-11 -56 -9 -135 -28 -255 -60 -16 -4 -50 -17 -75 -28 -25 -11 -56 -24 -70 -28
-26 -7 -227 -104 -245 -117 -5 -5 -62 -42 -125 -84 -97 -64 -190 -132 -210
-154 -3 -3 -25 -21 -50 -41 -25 -20 -63 -53 -84 -73 -23 -21 -47 -34 -55 -31
-14 4 -106 20 -267 45 -28 4 -61 13 -72 19 -11 6 -40 11 -64 11 -24 0 -48 4
-53 9 -6 5 -35 11 -65 14 -110 9 -364 38 -371 43 -22 13 -306 27 -664 33
l-400 6 -7 440 c-3 242 -11 478 -17 525 -7 47 -16 121 -21 165 -13 123 -30
205 -47 231 -21 32 -57 31 -71 -1 -9 -19 -12 -218 -12 -735 l0 -709 -262 -5
c-325 -6 -548 -19 -568 -31 -8 -5 -62 -13 -120 -17 -228 -16 -392 -36 -515
-64 -33 -7 -91 -18 -130 -25 -76 -12 -115 -31 -115 -55 0 -9 -9 -27 -20 -41
-11 -14 -20 -21 -20 -16 0 6 7 16 15 23 8 7 15 19 15 27 0 8 14 32 30 53 17
21 30 45 30 53 0 8 7 20 15 27 8 7 15 20 15 29 0 9 11 26 25 39 13 13 37 51
54 86 16 34 36 68 45 75 8 7 29 41 46 76 17 35 38 69 47 77 9 7 22 27 30 43 7
17 17 37 22 45 4 8 13 24 19 35 6 11 21 38 33 60 11 22 34 59 50 83 16 24 29
46 29 51 0 4 12 23 26 42 14 19 32 48 40 64 8 17 20 39 27 50 49 79 97 165 97
173 0 5 7 15 15 22 8 7 15 20 15 29 0 9 14 29 30 45 17 16 30 35 30 43 0 7 20
42 45 79 25 36 45 70 45 75 0 5 8 22 18 37 24 37 38 60 63 106 12 22 28 46 35
54 8 7 14 22 14 32 0 10 6 20 13 23 7 2 23 25 35 51 13 25 27 48 33 51 5 4 9
15 9 26 0 11 7 22 15 25 8 4 15 13 15 21 0 8 14 32 30 53 16 21 30 43 30 48 0
6 19 39 42 74 24 35 54 86 69 115 14 29 38 68 52 87 15 19 27 41 27 50 0 8 5
18 11 21 5 4 14 17 20 28 5 12 13 29 18 37 40 62 99 169 105 188 4 12 11 22
16 22 5 0 12 10 15 23 4 12 17 36 29 52 12 17 27 41 34 55 13 28 25 47 65 103
15 22 27 46 27 52 0 7 7 18 15 25 8 7 15 18 15 26 0 7 20 42 45 78 25 37 45
70 45 76 0 5 13 28 29 52 16 24 46 77 67 118 22 41 45 79 52 83 6 4 12 13 12
19 0 5 14 30 30 55 17 24 30 51 30 59 0 8 7 17 15 20 8 4 15 15 15 26 0 11 14
36 30 55 17 18 30 40 30 47 0 8 7 19 15 26 8 7 15 18 15 26 0 7 19 41 42 76
24 35 54 86 68 113 14 28 35 64 47 81 12 17 27 42 33 55 6 13 26 51 45 84 19
33 39 71 45 85 6 14 22 39 36 57 13 17 24 38 24 46 0 8 7 20 15 27 8 7 15 18
15 26 0 7 12 28 28 46 15 18 38 56 52 83 14 28 34 61 45 75 11 14 40 64 63
110 24 47 61 117 82 155 33 59 39 79 40 131 0 51 -4 64 -23 82 -22 21 -32 22
-188 22 -128 -1 -168 -4 -183 -15 -11 -8 -32 -15 -47 -15 -14 0 -32 -7 -39
-15 -7 -8 -22 -15 -35 -15 -12 0 -40 -13 -62 -29 -22 -16 -48 -31 -60 -35 -11
-3 -35 -20 -53 -36 -19 -17 -39 -30 -46 -30 -18 0 -271 -258 -310 -315 -18
-28 -44 -61 -59 -75 -14 -13 -25 -28 -25 -33 0 -5 -14 -26 -30 -47 -16 -21
-30 -42 -30 -47 0 -4 -20 -31 -45 -60 -25 -28 -45 -56 -45 -61 0 -6 -20 -34
-45 -63 -25 -29 -45 -56 -45 -60 0 -4 -16 -26 -35 -49 -19 -23 -35 -47 -35
-53 0 -7 -27 -39 -60 -72 -33 -33 -60 -67 -60 -75 0 -9 -18 -34 -41 -55 -22
-22 -57 -62 -77 -90 -20 -27 -64 -82 -99 -121 -35 -39 -63 -75 -63 -79 0 -4
-40 -51 -88 -104 -49 -53 -93 -104 -98 -113 -5 -9 -52 -62 -104 -118 -52 -56
-100 -111 -106 -122 -10 -18 -210 -234 -301 -325 -24 -24 -43 -47 -43 -51 0
-5 -104 -116 -231 -246 -128 -130 -243 -251 -258 -270 -14 -19 -50 -53 -79
-76 -28 -22 -63 -58 -77 -80 -14 -22 -29 -40 -35 -40 -5 0 -47 -37 -93 -82
-46 -46 -203 -200 -349 -343 -145 -143 -291 -282 -324 -309 -32 -26 -110 -96
-171 -155 -62 -58 -132 -121 -155 -139 -24 -19 -85 -73 -137 -120 -52 -48
-100 -89 -107 -92 -6 -3 -47 -36 -89 -75 -43 -38 -98 -85 -124 -105 -26 -19
-65 -52 -87 -72 -21 -20 -57 -49 -79 -63 -21 -15 -69 -54 -106 -86 -36 -33
-70 -59 -75 -59 -6 0 -30 -20 -54 -45 -24 -25 -50 -45 -58 -45 -7 0 -37 -23
-66 -50 -29 -28 -58 -50 -65 -50 -6 0 -34 -20 -60 -45 -26 -25 -52 -45 -57
-45 -5 0 -32 -20 -61 -45 -28 -25 -56 -45 -63 -45 -6 0 -32 -19 -58 -43 -26
-23 -65 -55 -87 -69 -22 -15 -53 -38 -69 -52 -16 -14 -32 -26 -37 -26 -13 0
-159 -102 -159 -111 0 -5 -9 -9 -19 -9 -11 0 -26 -6 -33 -12 -30 -28 -266
-148 -289 -148 -9 0 -30 -7 -45 -15 -21 -10 -61 -15 -137 -15 -103 0 -110 1
-143 28 -19 15 -46 47 -61 71 -26 44 -26 48 -26 222 1 141 4 182 17 207 9 17
16 51 16 75 0 27 6 49 15 57 8 7 15 27 15 44 0 18 7 41 15 52 8 10 15 31 15
46 0 15 6 33 13 40 7 7 21 38 31 68 10 30 30 82 46 115 15 33 38 85 50 115 12
30 26 62 31 70 21 36 79 157 79 165 0 5 7 16 15 25 16 18 58 91 75 130 6 14
20 34 30 45 11 11 31 43 45 70 15 28 39 66 54 85 15 19 33 45 39 56 6 12 34
48 62 80 27 33 50 64 50 69 0 6 23 33 51 60 28 28 66 73 85 100 19 28 59 77
89 110 30 32 55 64 55 70 0 5 26 37 58 70 31 33 62 70 67 82 6 11 36 49 68 82
31 34 57 67 57 74 0 8 14 26 31 43 17 16 58 63 90 105 32 42 64 83 72 90 7 8
29 37 49 64 19 28 49 66 66 85 18 19 32 39 32 45 0 6 23 35 51 65 28 30 63 73
77 95 14 22 36 51 50 65 14 14 36 43 50 65 15 22 46 61 69 87 24 26 43 53 43
61 0 7 16 29 36 48 20 18 43 47 51 64 9 16 33 48 54 70 21 22 39 45 39 52 0 6
20 35 45 64 25 29 45 56 45 60 0 4 16 26 35 49 19 23 35 46 35 52 0 5 20 33
45 61 25 29 45 56 45 62 0 5 13 24 28 40 15 17 39 48 52 70 13 22 27 42 30 45
3 3 17 22 29 43 13 21 37 53 52 70 16 17 29 37 29 44 0 6 14 27 30 45 17 18
30 36 30 41 0 5 14 26 30 47 17 21 30 42 30 48 0 5 13 25 30 43 16 19 30 39
30 46 0 7 14 28 30 46 17 19 30 39 30 44 0 5 12 25 26 44 14 19 30 44 34 56 5
12 22 41 37 65 15 24 36 59 46 78 11 19 32 54 48 78 16 24 29 51 29 61 0 10 7
24 15 31 8 7 15 20 15 30 0 10 6 23 14 29 8 7 17 23 20 36 4 14 11 25 16 25 6
0 10 6 10 14 0 8 22 58 50 113 27 54 50 106 50 115 0 9 6 29 14 45 28 54 46
101 46 120 0 10 7 27 15 37 9 12 15 42 15 71 0 29 7 67 16 85 14 27 16 55 11
168 -3 75 -10 139 -16 145 -6 6 -11 28 -11 48 0 20 -7 42 -15 49 -8 7 -15 23
-15 36 0 25 -36 97 -72 144 -46 60 -173 179 -201 189 -7 2 -31 17 -54 32 -23
16 -49 29 -58 29 -9 0 -30 7 -46 15 -16 8 -42 22 -58 30 -16 8 -47 15 -69 15
-24 0 -47 7 -61 19 -12 10 -30 17 -40 14 -10 -2 -35 3 -57 12 -21 9 -75 19
-119 22 -44 3 -86 10 -93 16 -14 11 -439 18 -572 11z m5055 -6142 c140 -12
230 -24 495 -63 228 -33 296 -46 322 -60 19 -10 19 -12 -9 -42 -141 -152 -340
-399 -433 -537 -24 -36 -46 -67 -50 -70 -3 -3 -38 -54 -78 -115 -39 -60 -85
-128 -102 -151 -16 -23 -30 -43 -30 -46 0 -8 -74 -130 -111 -185 -16 -23 -29
-44 -29 -47 0 -3 -15 -29 -33 -58 -18 -29 -41 -70 -52 -90 -11 -21 -23 -38
-27 -38 -5 0 -8 -4 -8 -8 0 -5 -23 -51 -51 -103 -28 -52 -67 -123 -87 -159
-57 -106 -283 -556 -336 -670 -27 -58 -67 -143 -89 -190 -22 -47 -47 -101 -56
-120 -9 -19 -19 -36 -23 -38 -5 -2 -8 -9 -8 -15 0 -6 -9 -29 -19 -51 -11 -23
-38 -81 -61 -131 -24 -49 -67 -140 -96 -202 -30 -62 -54 -115 -54 -118 0 -3
-33 -74 -74 -158 -40 -83 -81 -170 -91 -192 -9 -22 -34 -76 -55 -120 -21 -44
-55 -116 -75 -160 -21 -44 -60 -127 -87 -185 -27 -58 -53 -114 -58 -125 -22
-51 -88 -192 -146 -313 -35 -73 -64 -135 -64 -138 0 -13 -269 -560 -338 -689
-71 -131 -201 -360 -236 -415 -13 -19 -34 -53 -48 -75 -162 -260 -394 -565
-429 -565 -16 0 -129 37 -219 71 -41 16 -82 29 -91 29 -8 0 -19 4 -25 9 -5 5
-20 11 -34 13 -42 5 -34 34 32 118 35 45 76 98 91 118 16 20 38 49 50 64 12
14 29 36 37 48 8 12 23 32 34 43 10 12 35 47 54 77 20 30 63 93 95 139 54 75
257 405 257 417 0 2 21 39 46 81 107 176 325 618 440 891 20 48 49 115 65 149
16 34 29 67 29 73 0 5 4 18 9 28 7 15 33 76 62 147 4 11 13 38 20 60 6 22 22
63 35 90 12 28 26 64 30 80 4 17 10 35 13 40 4 6 13 28 20 50 11 34 27 79 61
170 4 11 14 40 21 65 7 25 19 56 26 70 7 14 13 33 13 43 0 10 4 26 9 36 6 10
19 51 30 92 10 41 36 130 55 199 20 69 41 143 47 165 6 22 17 60 24 85 13 43
54 221 76 325 6 28 17 77 26 110 8 33 18 76 23 95 5 19 12 51 15 70 3 19 20
109 36 200 52 287 89 549 89 632 0 26 5 59 11 75 22 54 45 379 60 823 6 184
15 340 21 347 5 7 28 14 51 16 87 8 858 -1 982 -11z m1490 -290 c5 -5 37 -18
70 -31 117 -45 350 -167 469 -245 67 -43 123 -82 126 -86 3 -3 28 -23 55 -44
83 -62 265 -237 297 -286 17 -25 41 -56 54 -70 42 -47 152 -270 174 -355 5
-16 18 -66 31 -110 21 -72 23 -101 23 -305 0 -217 -1 -228 -28 -315 -34 -114
-41 -130 -97 -240 -75 -147 -113 -197 -264 -349 -109 -110 -144 -137 -305
-236 -70 -43 -197 -108 -275 -140 -11 -5 -45 -20 -75 -33 -30 -14 -84 -33
-120 -42 -36 -10 -69 -22 -75 -26 -5 -5 -17 -9 -27 -9 -10 0 -26 -4 -36 -9
-17 -9 -117 -36 -197 -52 -22 -4 -60 -13 -85 -19 -128 -32 -223 -42 -440 -50
-255 -8 -313 -19 -385 -75 -19 -14 -37 -25 -41 -25 -9 0 -25 -21 -68 -85 -38
-58 -49 -108 -50 -221 -1 -68 2 -86 19 -104 20 -22 88 -57 195 -100 90 -36 93
-37 152 -64 31 -14 60 -26 63 -26 3 0 31 -11 61 -25 30 -14 104 -46 164 -71
116 -49 437 -209 450 -225 3 -3 32 -21 65 -39 33 -18 84 -48 113 -66 29 -19
54 -34 57 -34 6 0 197 -134 305 -214 157 -117 321 -268 450 -416 36 -41 71
-81 78 -88 13 -14 107 -143 127 -174 6 -8 23 -35 39 -59 28 -42 117 -214 149
-289 72 -165 113 -335 141 -585 25 -212 -3 -437 -75 -610 -42 -100 -155 -239
-249 -308 -30 -22 -59 -45 -65 -51 -30 -35 -242 -126 -385 -166 -25 -7 -56
-16 -70 -20 -14 -5 -56 -14 -95 -20 -38 -6 -83 -13 -100 -16 -79 -13 -337 -28
-490 -29 -269 0 -499 16 -745 51 -58 9 -127 18 -155 21 -27 3 -54 9 -60 14 -5
5 -22 9 -37 9 -30 0 -35 1 -283 61 -189 45 -188 45 -335 95 -58 19 -132 43
-165 54 -148 45 -393 129 -470 161 -11 5 -60 22 -110 38 -49 17 -135 46 -190
66 -55 20 -161 58 -235 85 -74 26 -148 53 -165 60 -57 24 -70 29 -165 61 -52
17 -99 35 -104 40 -6 5 -20 9 -32 9 -13 0 -25 4 -28 9 -4 5 -34 18 -69 30 -82
26 -153 57 -161 69 -3 5 34 58 82 118 85 106 177 228 197 263 6 9 31 47 58 83
26 37 47 69 47 71 0 3 31 52 68 109 38 57 90 141 117 188 26 47 51 87 54 90 3
3 14 20 23 38 20 38 90 166 130 237 31 56 130 249 160 310 10 22 23 47 28 55
6 8 14 25 19 37 6 11 37 77 70 146 34 69 61 130 61 136 0 6 5 11 10 11 6 0 10
7 10 15 0 9 16 47 35 85 20 39 44 93 55 120 11 27 40 92 65 145 25 53 45 98
45 100 0 4 34 78 111 243 16 34 29 69 29 77 0 8 5 15 10 15 6 0 10 7 10 15 0
8 4 23 10 33 9 16 68 145 95 207 19 43 102 228 140 310 76 163 105 227 105
230 0 2 16 39 36 82 20 43 56 123 81 178 25 55 61 134 80 175 71 150 92 196
121 260 61 135 88 191 198 415 63 127 124 248 137 270 24 42 65 115 124 225
121 222 452 702 578 836 5 6 42 49 80 95 39 46 124 137 189 203 l119 118 41
-6 c22 -4 45 -10 51 -14z m-6035 -5820 c58 -6 159 -20 225 -32 182 -33 227
-41 265 -46 19 -3 44 -9 55 -13 46 -18 124 -41 139 -41 9 0 24 -4 34 -9 9 -5
44 -16 77 -25 163 -45 235 -72 235 -86 0 -16 -181 -199 -295 -296 -146 -126
-341 -264 -460 -326 -58 -30 -140 -70 -160 -79 -81 -35 -173 -69 -187 -69 -9
0 -19 -4 -22 -9 -6 -8 -30 -14 -113 -27 -21 -3 -47 -9 -58 -14 -24 -11 -107
-19 -285 -29 -158 -8 -190 -18 -190 -59 0 -36 32 -66 86 -82 63 -19 419 -8
504 14 36 10 82 22 103 27 20 5 56 14 80 20 61 16 295 108 342 134 22 12 67
37 100 55 56 30 284 177 295 190 3 4 15 13 27 21 66 45 224 191 381 352 66 67
102 97 118 97 24 0 48 -10 169 -66 39 -18 105 -48 148 -68 42 -19 80 -41 83
-50 7 -18 -14 -51 -97 -151 -121 -147 -298 -309 -462 -423 -65 -45 -229 -152
-234 -152 -3 0 -31 -15 -62 -34 -61 -37 -258 -138 -336 -173 -28 -12 -75 -33
-105 -46 -99 -44 -209 -83 -330 -117 -102 -29 -117 -33 -155 -45 -125 -40
-524 -55 -685 -26 -160 28 -445 124 -458 154 -2 4 -8 7 -12 7 -9 0 -140 79
-150 90 -3 3 -25 21 -50 39 -46 35 -160 151 -160 163 0 4 -6 13 -12 20 -30 33
-84 142 -99 203 -33 126 -34 318 -4 419 20 66 63 156 75 156 6 0 10 6 10 13 0
27 131 140 235 203 47 29 290 120 380 142 22 6 58 15 80 20 71 18 287 51 395
60 124 11 392 8 540 -6z"/>
<path d="M5568 4956 l-117 -114 77 -73 c95 -91 175 -159 255 -218 34 -25 64
-48 67 -52 6 -8 142 -96 195 -127 75 -42 280 -138 325 -151 25 -7 53 -17 63
-22 68 -36 299 -82 474 -95 59 -4 97 -12 104 -20 19 -23 65 -17 88 12 12 15
21 30 21 34 0 12 -37 50 -49 50 -6 0 -19 4 -29 9 -9 5 -62 19 -117 31 -55 13
-125 31 -156 41 -30 11 -61 19 -67 19 -13 0 -230 101 -347 162 -97 50 -171 96
-248 154 -31 24 -59 44 -61 44 -2 0 -44 39 -94 88 -93 90 -199 225 -235 300
-12 23 -23 42 -26 42 -4 -1 -59 -52 -123 -114z"/>
</g>
</svg>
