<?xml version="1.0" standalone="no"?>
<!DOCTYPE svg PUBLIC "-//W3C//DTD SVG 20010904//EN"
 "http://www.w3.org/TR/2001/REC-SVG-20010904/DTD/svg10.dtd">
<svg version="1.0" xmlns="http://www.w3.org/2000/svg"
 width="1000.000000pt" height="972.000000pt" viewBox="0 0 1000.000000 972.000000"
 preserveAspectRatio="xMidYMid meet">

<g transform="translate(0.000000,972.000000) scale(0.100000,-0.100000)"
fill="#000000" stroke="none">
<path d="M5392 9685 c-9 -19 -12 -218 -12 -735 l0 -709 -262 -5 c-325 -6 -548
-19 -568 -31 -8 -5 -62 -13 -120 -17 -229 -16 -393 -36 -515 -64 -33 -7 -100
-20 -150 -29 -132 -22 -227 -42 -255 -53 -14 -6 -52 -15 -85 -22 -33 -6 -68
-16 -77 -21 -10 -5 -27 -9 -37 -9 -11 0 -30 -4 -43 -9 -13 -5 -72 -24 -133
-42 -60 -18 -114 -36 -119 -41 -6 -4 -17 -8 -26 -8 -9 0 -72 -22 -140 -50 -68
-27 -127 -50 -132 -50 -16 0 -372 -171 -448 -215 -304 -178 -406 -249 -620
-432 -296 -253 -481 -484 -569 -713 -18 -47 -37 -96 -43 -110 -5 -14 -18 -70
-29 -125 -35 -184 -22 -450 31 -620 12 -38 24 -82 27 -98 3 -15 9 -30 14 -33
5 -3 9 -13 9 -23 0 -35 132 -274 202 -366 146 -189 329 -370 511 -504 34 -25
64 -48 67 -52 6 -8 142 -96 195 -127 75 -42 280 -138 325 -151 25 -7 53 -17
63 -22 68 -36 299 -82 474 -95 59 -4 97 -12 104 -20 19 -23 65 -17 88 12 12
15 21 30 21 34 0 12 -37 50 -49 50 -6 0 -19 4 -29 9 -9 5 -62 19 -117 31 -55
13 -125 31 -156 41 -30 11 -61 19 -67 19 -13 0 -230 101 -347 162 -97 50 -171
96 -248 154 -31 24 -59 44 -61 44 -2 0 -44 39 -94 88 -153 148 -255 308 -325
507 -78 224 -90 524 -30 760 19 75 87 257 115 310 37 68 149 237 207 310 59
75 239 256 342 345 35 30 66 57 69 60 14 16 315 239 359 265 9 6 50 31 92 58
42 26 81 47 87 47 7 0 12 5 12 10 0 6 5 10 10 10 6 0 36 16 66 35 30 19 59 35
64 35 5 0 31 13 57 28 26 15 77 41 113 56 36 16 70 32 75 36 6 5 87 38 180 75
94 36 178 71 187 76 10 5 24 9 31 9 8 0 42 12 78 26 64 26 105 38 299 89 58
14 114 30 125 35 11 5 34 11 50 15 88 18 124 26 165 35 25 6 70 15 100 20 30
5 89 16 130 25 41 8 93 15 115 15 23 0 45 4 50 9 6 5 42 12 80 15 39 3 104 10
145 15 147 19 314 30 325 21 11 -9 9 -38 -21 -315 -21 -195 -33 -289 -62 -505
-18 -130 -52 -347 -72 -455 -11 -60 -25 -135 -29 -165 -10 -58 -39 -196 -72
-345 -11 -49 -24 -110 -29 -135 -13 -71 -39 -183 -49 -210 -5 -14 -14 -50 -20
-80 -7 -30 -17 -73 -22 -95 -6 -22 -15 -56 -20 -75 -5 -19 -18 -67 -29 -106
-11 -39 -20 -79 -20 -88 0 -9 -4 -24 -9 -34 -5 -9 -17 -46 -26 -82 -23 -92
-73 -254 -191 -623 -15 -49 -32 -90 -36 -93 -4 -3 -8 -12 -8 -21 0 -23 -138
-399 -190 -518 -5 -11 -30 -72 -56 -135 -25 -63 -59 -144 -76 -180 -16 -36
-41 -92 -55 -125 -22 -53 -150 -325 -172 -366 -5 -8 -41 -78 -81 -155 -40 -76
-79 -148 -86 -160 -8 -11 -26 -44 -42 -73 -73 -139 -397 -645 -441 -690 -9 -9
-37 -46 -63 -83 -27 -37 -54 -72 -61 -80 -7 -7 -30 -35 -51 -63 -20 -27 -56
-69 -78 -93 -36 -39 -43 -42 -76 -37 -20 4 -48 10 -62 15 -23 7 -53 15 -147
40 -21 5 -78 19 -128 30 -49 11 -109 24 -133 30 -23 5 -53 10 -67 10 -13 0
-26 4 -29 9 -3 4 -29 12 -58 15 -29 4 -82 12 -118 17 -301 44 -416 53 -690 53
-260 0 -388 -10 -570 -45 -84 -16 -282 -73 -345 -99 -11 -4 -36 -14 -55 -20
-69 -25 -246 -115 -315 -161 -69 -46 -197 -168 -236 -225 -36 -52 -76 -138
-93 -199 -10 -33 -22 -70 -27 -83 -13 -32 -11 -250 2 -314 62 -296 222 -507
539 -710 126 -80 167 -102 255 -138 44 -17 89 -35 100 -40 18 -7 56 -17 243
-60 56 -13 489 -13 622 0 240 24 457 50 500 60 19 4 60 13 90 20 115 24 226
52 242 61 10 5 27 9 38 9 11 0 28 4 38 10 9 5 60 25 112 45 172 67 388 179
537 279 201 136 473 391 733 686 41 47 80 91 87 97 16 18 47 16 85 -5 18 -10
71 -33 118 -51 47 -19 89 -37 95 -42 5 -5 19 -9 31 -9 13 0 25 -4 28 -9 3 -4
27 -16 53 -26 26 -10 62 -24 78 -31 106 -47 318 -134 327 -134 6 0 31 -11 57
-24 25 -14 105 -48 176 -76 126 -50 150 -60 225 -93 331 -146 599 -249 738
-283 39 -10 72 -22 72 -26 0 -4 13 -8 30 -8 16 0 39 -4 52 -9 21 -8 88 -22
198 -42 25 -5 81 -15 125 -24 44 -9 109 -20 145 -25 36 -4 101 -13 145 -20 76
-11 162 -20 410 -41 174 -15 762 -23 820 -11 28 6 82 16 120 22 128 22 327 78
423 120 12 6 34 15 50 21 15 6 34 15 42 20 8 5 47 25 85 45 253 130 499 331
661 539 82 106 181 276 204 352 6 21 15 47 19 58 5 11 14 33 20 48 6 15 11 39
11 52 0 13 4 26 9 29 10 7 17 49 32 206 15 167 0 471 -30 585 -37 139 -89 289
-135 390 -56 122 -58 126 -98 187 -21 31 -38 62 -38 68 0 5 -4 10 -10 10 -5 0
-10 5 -10 11 0 6 -13 28 -30 49 -16 21 -30 42 -30 47 0 7 -51 70 -160 200 -82
98 -268 281 -390 384 -144 122 -588 439 -615 439 -4 0 -19 9 -34 19 -24 17
-84 53 -241 144 -61 35 -151 82 -290 152 -74 37 -142 70 -150 75 -8 4 -15 13
-15 21 0 11 33 15 160 21 200 9 306 22 500 62 133 27 232 51 270 66 29 11 83
27 135 40 43 12 64 20 198 81 34 16 66 29 72 29 10 0 146 71 265 138 112 64
328 228 405 309 141 147 260 341 308 503 13 41 27 89 32 106 6 17 10 52 10 79
0 26 5 76 12 111 21 114 -19 366 -83 527 -34 85 -120 251 -139 267 -3 3 -27
35 -52 71 -61 86 -210 243 -318 334 -87 73 -326 238 -415 285 -27 15 -68 37
-90 50 -81 47 -313 158 -395 190 -47 18 -98 38 -115 45 -55 23 -170 63 -200
70 l-29 6 39 37 c78 73 297 222 326 222 5 0 9 4 9 8 0 10 95 54 203 94 205 77
394 96 622 62 93 -14 125 -24 210 -65 84 -42 185 -115 185 -135 0 -3 11 -20
24 -37 27 -36 76 -151 76 -179 0 -10 4 -37 10 -60 5 -24 14 -70 20 -103 14
-72 26 -122 48 -192 14 -47 19 -53 43 -53 31 0 53 38 63 110 10 72 -17 297
-44 365 -5 11 -11 33 -15 50 -21 94 -142 279 -252 386 -95 92 -152 133 -263
189 -104 53 -110 55 -185 70 -33 7 -69 16 -81 22 -26 12 -376 4 -464 -11 -56
-9 -135 -28 -255 -60 -16 -4 -50 -17 -75 -28 -25 -11 -56 -24 -70 -28 -26 -7
-227 -104 -245 -117 -5 -5 -62 -42 -125 -84 -97 -64 -190 -132 -210 -154 -3
-3 -25 -21 -50 -41 -25 -20 -63 -53 -84 -73 -23 -21 -47 -34 -55 -31 -14 4
-106 20 -267 45 -28 4 -61 13 -72 19 -11 6 -40 11 -64 11 -24 0 -48 4 -54 9
-5 5 -34 11 -64 14 -110 9 -364 38 -371 43 -22 13 -306 27 -664 33 l-400 6 -7
440 c-3 242 -11 478 -17 525 -7 47 -16 121 -21 165 -13 123 -30 205 -47 231
-21 32 -57 31 -71 -1z m1143 -1583 c140 -12 230 -24 495 -63 228 -33 296 -46
322 -60 19 -10 19 -12 -9 -42 -141 -152 -340 -399 -433 -537 -24 -36 -46 -67
-50 -70 -3 -3 -38 -54 -78 -115 -39 -60 -85 -128 -102 -151 -16 -23 -30 -43
-30 -46 0 -8 -74 -130 -111 -185 -16 -23 -29 -44 -29 -47 0 -3 -15 -29 -33
-58 -18 -29 -41 -70 -52 -90 -11 -21 -23 -38 -27 -38 -5 0 -8 -4 -8 -8 0 -5
-23 -51 -51 -103 -28 -52 -67 -123 -87 -159 -57 -106 -283 -556 -336 -670 -27
-58 -67 -143 -89 -190 -22 -47 -47 -101 -56 -120 -9 -19 -19 -36 -23 -38 -5
-2 -8 -9 -8 -15 0 -6 -9 -29 -19 -51 -11 -23 -38 -81 -61 -131 -24 -49 -67
-140 -96 -202 -30 -62 -54 -115 -54 -118 0 -3 -33 -74 -74 -158 -40 -83 -81
-170 -91 -192 -9 -22 -34 -76 -55 -120 -21 -44 -55 -116 -75 -160 -21 -44 -60
-127 -87 -185 -27 -58 -53 -114 -58 -125 -22 -51 -88 -192 -146 -313 -35 -73
-64 -135 -64 -138 0 -13 -269 -560 -338 -689 -71 -131 -201 -360 -236 -415
-13 -19 -34 -53 -48 -75 -162 -260 -394 -565 -429 -565 -16 0 -129 37 -219 71
-41 16 -82 29 -91 29 -8 0 -19 4 -25 9 -5 5 -20 11 -34 13 -42 5 -34 34 32
118 35 45 76 98 91 118 16 20 38 49 50 64 12 14 29 36 37 48 8 12 23 32 34 43
10 12 35 47 54 77 20 30 63 93 95 139 54 75 257 405 257 417 0 2 21 39 46 81
107 176 325 618 440 891 20 48 49 115 65 149 16 34 29 67 29 73 0 5 4 18 9 28
7 15 33 76 62 147 4 11 13 38 20 60 6 22 22 63 35 90 12 28 26 64 30 80 4 17
10 35 13 40 4 6 13 28 20 50 11 34 27 79 61 170 4 11 14 40 21 65 7 25 19 56
26 70 7 14 13 33 13 43 0 10 4 26 9 36 6 10 19 51 30 92 10 41 36 130 55 199
20 69 41 143 47 165 6 22 17 60 24 85 13 43 54 221 76 325 6 28 17 77 26 110
8 33 18 76 23 95 5 19 12 51 15 70 3 19 20 109 36 200 52 287 89 549 89 632 0
26 5 59 11 75 22 54 45 379 60 823 6 184 15 340 21 347 5 7 28 14 51 16 87 8
858 -1 982 -11z m1490 -290 c5 -5 37 -18 70 -31 117 -45 350 -167 469 -245 67
-43 123 -82 126 -86 3 -3 28 -23 55 -44 83 -62 265 -237 297 -286 17 -25 41
-56 54 -70 42 -47 152 -270 174 -355 5 -16 18 -66 31 -110 21 -72 23 -101 23
-305 0 -217 -1 -228 -28 -315 -34 -114 -41 -130 -97 -240 -75 -147 -113 -197
-264 -349 -109 -110 -144 -137 -305 -236 -70 -43 -197 -108 -275 -140 -11 -5
-45 -20 -75 -33 -30 -14 -84 -33 -120 -42 -36 -10 -69 -22 -75 -26 -5 -5 -17
-9 -27 -9 -10 0 -26 -4 -36 -9 -17 -9 -117 -36 -197 -52 -22 -4 -60 -13 -85
-19 -128 -32 -223 -42 -440 -50 -255 -8 -313 -19 -385 -75 -19 -14 -37 -25
-41 -25 -9 0 -25 -21 -68 -85 -38 -58 -49 -108 -50 -221 -1 -68 2 -86 19 -104
20 -22 88 -57 195 -100 90 -36 93 -37 152 -64 31 -14 60 -26 63 -26 3 0 31
-11 61 -25 30 -14 104 -46 164 -71 116 -49 437 -209 450 -225 3 -3 32 -21 65
-39 33 -18 84 -48 113 -66 29 -19 54 -34 57 -34 6 0 197 -134 305 -214 157
-117 321 -268 450 -416 36 -41 71 -81 78 -88 13 -14 107 -143 127 -174 6 -8
23 -35 39 -59 28 -42 117 -214 149 -289 72 -165 113 -335 141 -585 25 -212 -3
-437 -75 -610 -42 -100 -155 -239 -249 -308 -30 -22 -59 -45 -65 -51 -30 -35
-242 -126 -385 -166 -25 -7 -56 -16 -70 -20 -14 -5 -56 -14 -95 -20 -38 -6
-83 -13 -100 -16 -79 -13 -337 -28 -490 -29 -269 0 -499 16 -745 51 -58 9
-127 18 -155 21 -27 3 -54 9 -60 14 -5 5 -22 9 -37 9 -30 0 -35 1 -283 61
-189 45 -188 45 -335 95 -58 19 -132 43 -165 54 -148 45 -393 129 -470 161
-11 5 -60 22 -110 38 -49 17 -135 46 -190 66 -55 20 -161 58 -235 85 -74 26
-148 53 -165 60 -57 24 -70 29 -165 61 -52 17 -99 35 -104 40 -6 5 -20 9 -32
9 -13 0 -25 4 -28 9 -4 5 -34 18 -69 30 -82 26 -153 57 -161 69 -3 5 34 58 82
118 85 106 177 228 197 263 6 9 31 47 57 83 27 37 48 69 48 71 0 3 31 52 68
109 38 57 90 141 117 188 26 47 51 87 54 90 3 3 14 20 23 38 20 38 90 166 130
237 31 56 130 249 160 310 10 22 23 47 28 55 6 8 14 25 19 37 6 11 37 77 70
146 34 69 61 130 61 136 0 6 5 11 10 11 6 0 10 7 10 15 0 9 16 47 35 85 20 39
44 93 55 120 11 27 40 92 65 145 25 53 45 98 45 100 0 4 34 78 111 243 16 34
29 69 29 77 0 8 5 15 10 15 6 0 10 7 10 15 0 8 4 23 10 33 9 16 68 145 95 207
19 43 102 228 140 310 76 163 105 227 105 230 0 2 16 39 36 82 20 43 56 123
81 178 25 55 61 134 80 175 71 150 92 196 121 260 61 135 88 191 198 415 63
127 124 248 137 270 24 42 65 115 124 225 121 222 452 702 578 836 5 6 42 49
80 95 39 46 124 137 189 203 l119 118 41 -6 c22 -4 45 -10 51 -14z m-6035
-5820 c58 -6 159 -20 225 -32 182 -33 227 -41 265 -46 19 -3 44 -9 55 -13 46
-18 124 -41 139 -41 9 0 24 -4 34 -9 9 -5 44 -16 77 -25 163 -45 235 -72 235
-86 0 -16 -181 -199 -295 -296 -146 -126 -341 -264 -460 -326 -58 -30 -140
-70 -160 -79 -81 -35 -173 -69 -187 -69 -9 0 -19 -4 -22 -9 -6 -8 -30 -14
-113 -27 -21 -3 -47 -9 -58 -14 -24 -11 -107 -19 -285 -29 -158 -8 -190 -18
-190 -59 0 -36 32 -66 86 -82 63 -19 419 -8 504 14 36 10 82 22 103 27 20 5
56 14 80 20 61 16 295 108 342 134 22 12 67 37 100 55 56 30 284 177 295 190
3 4 15 13 27 21 66 45 224 191 381 352 66 67 102 97 118 97 24 0 48 -10 169
-66 39 -18 105 -48 148 -68 42 -19 80 -41 83 -50 7 -18 -14 -51 -97 -151 -121
-147 -298 -309 -462 -423 -65 -45 -229 -152 -234 -152 -3 0 -31 -15 -62 -34
-61 -37 -258 -138 -336 -173 -28 -12 -75 -33 -105 -46 -99 -44 -209 -83 -330
-117 -102 -29 -117 -33 -155 -45 -125 -40 -524 -55 -685 -26 -160 28 -445 124
-458 154 -2 4 -8 7 -12 7 -9 0 -140 79 -150 90 -3 3 -25 21 -50 39 -46 35
-160 151 -160 163 0 4 -6 13 -12 20 -30 33 -84 142 -99 203 -33 126 -34 318
-4 419 20 66 63 156 75 156 6 0 10 6 10 13 0 27 131 140 235 203 47 29 290
120 380 142 22 6 58 15 80 20 71 18 287 51 395 60 124 11 392 8 540 -6z"/>
</g>
</svg>
