<?xml version="1.0" encoding="UTF-8" standalone="no"?>
<!DOCTYPE svg PUBLIC "-//W3C//DTD SVG 1.1//EN" "http://www.w3.org/Graphics/SVG/1.1/DTD/svg11.dtd">
<!-- Created with Vectornator (http://vectornator.io/) -->
<svg height="100%" stroke-miterlimit="10" style="fill-rule:nonzero;clip-rule:evenodd;stroke-linecap:round;stroke-linejoin:round;" version="1.1" viewBox="0 0 1024 1024" width="100%" xml:space="preserve" xmlns="http://www.w3.org/2000/svg" xmlns:vectornator="http://vectornator.io" xmlns:xlink="http://www.w3.org/1999/xlink">
<defs/>
<g id="Layer-1" vectornator:layerName="Layer 1">
<path d="M967.56 439.36L967.56 737.531L711.985 737.531L711.985 226.38L797.176 226.38C848.291 226.38 895.147 257.901 913.889 305.609L967.56 439.36Z" fill="#7ca5c6" fill-rule="evenodd" opacity="1" stroke="none"/>
<path d="M913.889 305.609L967.56 439.36L797.176 396.764L797.176 226.381C822.734 226.381 847.439 234.048 867.885 247.678C887.479 262.161 903.666 281.755 913.889 305.609Z" fill="#e7e1fb" fill-rule="evenodd" opacity="1" stroke="none"/>
<path d="M967.56 464.917C965.856 464.917 963.3 464.917 961.596 464.065L791.213 421.469C780.138 418.914 771.619 408.691 771.619 396.764L771.619 226.38C771.619 211.898 782.694 200.823 797.176 200.823C811.659 200.823 822.734 211.898 822.734 226.38L822.734 377.17L973.523 414.654C987.154 418.062 995.673 431.692 992.265 445.323C988.858 457.25 978.635 464.917 967.56 464.917ZM635.312 686.416L79.8623 686.416C65.3797 686.416 54.3048 675.341 54.3048 660.858L54.3048 226.38C54.3048 211.898 65.3797 200.823 79.8623 200.823L634.46 200.823C648.943 200.823 660.018 211.898 660.018 226.38L660.018 660.858C660.87 675.341 648.943 686.416 635.312 686.416ZM105.42 635.301L608.903 635.301L608.903 251.938L105.42 251.938L105.42 635.301Z" fill="#454b54" fill-rule="evenodd" opacity="1" stroke="none"/>
<path d="M967.56 763.088L79.8623 763.088C65.3797 763.088 54.3048 752.013 54.3048 737.531L54.3048 652.339C54.3048 637.856 65.3797 626.781 79.8623 626.781C94.3449 626.781 105.42 637.856 105.42 652.339L105.42 711.973L966.708 711.973C981.19 711.973 992.265 723.048 992.265 737.531C992.265 752.013 981.19 763.088 967.56 763.088ZM216.169 413.802C230.652 413.802 241.727 402.727 241.727 388.245C241.727 373.762 230.652 362.687 216.169 362.687L165.054 362.687C150.571 362.687 139.497 373.762 139.497 388.245L139.497 507.513C139.497 521.996 150.571 533.071 165.054 533.071C179.537 533.071 190.612 521.996 190.612 507.513L190.612 473.436L216.169 473.436C230.652 473.436 241.727 462.361 241.727 447.879C241.727 433.396 230.652 422.321 216.169 422.321L190.612 422.321L190.612 413.802L216.169 413.802ZM352.476 418.062C352.476 387.393 327.77 362.687 297.101 362.687L275.803 362.687C261.321 362.687 250.246 373.762 250.246 388.245L250.246 507.513C250.246 521.996 261.321 533.071 275.803 533.071C286.878 533.071 296.249 525.403 299.657 515.18L307.324 523.699C312.436 529.663 319.251 532.219 326.918 532.219C332.882 532.219 338.845 530.515 343.957 526.255C355.031 516.884 355.883 500.698 346.512 490.475L325.214 465.769C341.401 456.398 352.476 438.508 352.476 418.062ZM437.667 413.802C452.15 413.802 463.225 402.727 463.225 388.245C463.225 373.762 452.15 362.687 437.667 362.687L386.552 362.687C372.07 362.687 360.995 373.762 360.995 388.245L360.995 507.513C360.995 521.996 372.07 533.071 386.552 533.071L437.667 533.071C452.15 533.071 463.225 521.996 463.225 507.513C463.225 493.03 452.15 481.956 437.667 481.956L412.11 481.956L412.11 473.436L437.667 473.436C452.15 473.436 463.225 462.361 463.225 447.879C463.225 433.396 452.15 422.321 437.667 422.321L412.11 422.321L412.11 413.802L437.667 413.802ZM550.12 473.436C564.603 473.436 575.678 462.361 575.678 447.879C575.678 433.396 564.603 422.321 550.12 422.321L524.563 422.321L524.563 413.802L550.12 413.802C564.603 413.802 575.678 402.727 575.678 388.245C575.678 373.762 564.603 362.687 550.12 362.687L499.005 362.687C484.523 362.687 473.448 373.762 473.448 388.245L473.448 507.513C473.448 521.996 484.523 533.071 499.005 533.071L550.12 533.071C564.603 533.071 575.678 521.996 575.678 507.513C575.678 493.03 564.603 481.956 550.12 481.956L524.563 481.956L524.563 473.436L550.12 473.436Z" fill="#454b54" fill-rule="evenodd" opacity="1" stroke="none"/>
<path d="M79.8623 226.381L634.46 226.381L634.46 660.858L79.8623 660.858L79.8623 226.381Z" fill="#c4b0ff" fill-rule="evenodd" opacity="1" stroke="none"/>
<path d="M967.56 763.088L711.985 763.088C697.502 763.088 686.427 752.013 686.427 737.531L686.427 226.38C686.427 211.898 697.502 200.823 711.985 200.823L797.176 200.823C859.366 200.823 914.741 238.307 937.743 296.238L991.413 429.989C992.265 433.396 993.117 435.952 993.117 439.36L993.117 737.531C993.117 752.013 981.19 763.088 967.56 763.088ZM737.542 711.973L942.002 711.973L942.002 444.471L890.035 314.98C874.701 276.644 838.068 251.938 797.176 251.938L737.542 251.938C737.542 251.938 737.542 711.973 737.542 711.973Z" fill="#454b54" fill-rule="evenodd" opacity="1" stroke="none"/>
<path d="M250.246 688.119C205.059 688.092 168.413 724.716 168.413 769.903C168.413 815.091 205.059 851.714 250.246 851.687C295.433 851.714 332.079 815.091 332.079 769.903C332.079 724.716 295.433 688.092 250.246 688.119Z" fill="#e7e1fb" fill-rule="evenodd" opacity="1" stroke="none"/>
<path d="M250.246 880.653C191.463 880.653 143.756 832.945 143.756 774.163C143.756 715.381 192.315 667.673 250.246 667.673C308.176 667.673 356.735 715.381 356.735 774.163C356.735 832.945 309.028 880.653 250.246 880.653ZM250.246 717.085C218.725 717.085 193.167 742.642 193.167 774.163C193.167 805.684 218.725 831.241 250.246 831.241C281.767 831.241 307.324 805.684 307.324 774.163C307.324 742.642 282.619 717.085 250.246 717.085Z" fill="#454b54" fill-rule="evenodd" opacity="1" stroke="none"/>
<path d="M795.472 682.156C750.304 682.156 713.688 718.772 713.688 763.94C713.688 809.108 750.304 845.724 795.472 845.724C840.641 845.724 877.257 809.108 877.257 763.94C877.257 718.772 840.641 682.156 795.472 682.156Z" fill="#e7e1fb" fill-rule="evenodd" opacity="1" stroke="none"/>
<path d="M795.472 880.653C736.69 880.653 688.983 832.945 688.983 774.163C688.983 715.381 737.542 667.673 795.472 667.673C853.403 667.673 901.962 715.381 901.962 774.163C901.962 832.945 854.255 880.653 795.472 880.653ZM795.472 717.085C763.952 717.085 738.394 742.642 738.394 774.163C738.394 805.684 763.952 831.241 795.472 831.241C826.993 831.241 852.551 805.684 852.551 774.163C852.551 742.642 827.845 717.085 795.472 717.085Z" fill="#454b54" fill-rule="evenodd" opacity="1" stroke="none"/>
<path d="M269.879 556.235C256.152 556.235 245.025 567.362 245.025 581.089C245.025 594.816 256.152 605.943 269.879 605.943C283.605 605.943 294.733 594.816 294.733 581.089C294.733 567.362 283.605 556.235 269.879 556.235Z" fill="#e7e1fb" fill-rule="evenodd" opacity="0.754335" stroke="none"/>
<path d="M367.196 519.146C353.47 519.146 342.342 530.274 342.342 544.001C342.342 557.727 353.47 568.855 367.196 568.855C380.923 568.855 392.05 557.727 392.05 544.001C392.05 530.274 380.923 519.146 367.196 519.146Z" fill="#e7e1fb" fill-rule="evenodd" opacity="0.754335" stroke="none"/>
<path d="M464.514 556.235C450.788 556.235 439.66 567.362 439.66 581.089C439.66 594.816 450.788 605.943 464.514 605.943C478.241 605.943 489.368 594.816 489.368 581.089C489.368 567.362 478.241 556.235 464.514 556.235Z" fill="#e7e1fb" fill-rule="evenodd" opacity="0.754335" stroke="none"/>
<path d="M252.215 480.318C238.489 480.318 227.361 491.445 227.361 505.172C227.361 518.898 238.489 530.026 252.215 530.026C265.942 530.026 277.07 518.898 277.07 505.172C277.07 491.445 265.942 480.318 252.215 480.318Z" fill="#e7e1fb" fill-rule="evenodd" opacity="0.754335" stroke="none"/>
<path d="M349.533 443.229C335.807 443.229 324.679 454.357 324.679 468.084C324.679 481.81 335.807 492.938 349.533 492.938C363.26 492.938 374.387 481.81 374.387 468.084C374.387 454.357 363.26 443.229 349.533 443.229Z" fill="#e7e1fb" fill-rule="evenodd" opacity="0.754335" stroke="none"/>
<path d="M446.851 480.318C433.124 480.318 421.997 491.445 421.997 505.172C421.997 518.898 433.124 530.026 446.851 530.026C460.577 530.026 471.705 518.898 471.705 505.172C471.705 491.445 460.577 480.318 446.851 480.318Z" fill="#e7e1fb" fill-rule="evenodd" opacity="0.754335" stroke="none"/>
<path d="M263.484 403.233C249.757 403.233 238.63 414.361 238.63 428.087C238.63 441.814 249.757 452.941 263.484 452.941C277.21 452.941 288.338 441.814 288.338 428.087C288.338 414.361 277.21 403.233 263.484 403.233Z" fill="#e7e1fb" fill-rule="evenodd" opacity="0.754335" stroke="none"/>
<path d="M360.802 366.145C347.075 366.145 335.947 377.272 335.947 390.999C335.947 404.725 347.075 415.853 360.802 415.853C374.528 415.853 385.656 404.725 385.656 390.999C385.656 377.272 374.528 366.145 360.802 366.145Z" fill="#e7e1fb" fill-rule="evenodd" opacity="0.754335" stroke="none"/>
<path d="M458.12 403.233C444.393 403.233 433.265 414.361 433.265 428.087C433.265 441.814 444.393 452.941 458.12 452.941C471.846 452.941 482.973 441.814 482.973 428.087C482.973 414.361 471.846 403.233 458.12 403.233Z" fill="#e7e1fb" fill-rule="evenodd" opacity="0.754335" stroke="none"/>
<path d="M471.963 370.707L242.451 370.707L230.976 599.384L483.439 599.384L471.963 370.707Z" fill="none" fill-rule="evenodd" opacity="1" stroke="#ffff63" stroke-linecap="round" stroke-linejoin="round" stroke-width="20"/>
<path d="M300.256 434.229L300.256 358.003C300.256 323.067 326.076 294.482 357.634 294.482L357.634 294.482C389.192 294.482 415.012 323.067 415.012 358.003L415.012 434.229" fill="none" fill-rule="evenodd" opacity="1" stroke="#ffff63" stroke-linecap="round" stroke-linejoin="round" stroke-width="20"/>
<path d="M300.383 422.239C290.638 422.239 282.739 429.84 282.739 439.216C282.739 448.593 290.638 456.194 300.383 456.194C310.128 456.194 318.028 448.593 318.028 439.216C318.028 429.84 310.128 422.239 300.383 422.239Z" fill="#ffff63" fill-rule="evenodd" opacity="1" stroke="none"/>
<path d="M414.885 422.239C405.14 422.239 397.24 429.84 397.24 439.216C397.24 448.593 405.14 456.194 414.885 456.194C424.63 456.194 432.53 448.593 432.53 439.216C432.53 429.84 424.63 422.239 414.885 422.239Z" fill="#ffff63" fill-rule="evenodd" opacity="1" stroke="none"/>
</g>
</svg>
