<?xml version="1.0" encoding="UTF-8" standalone="no"?>
<!DOCTYPE svg PUBLIC "-//W3C//DTD SVG 1.1//EN" "http://www.w3.org/Graphics/SVG/1.1/DTD/svg11.dtd"
[
<!ATTLIST g
  xmlns:vectornator CDATA #FIXED "http://vectornator.io"
  vectornator:layerName CDATA #IMPLIED >
<!ATTLIST g
  xmlns:vectornator CDATA #FIXED "http://vectornator.io"
  vectornator:mask CDATA #IMPLIED >
<!ATTLIST text
  xmlns:vectornator CDATA #FIXED "http://vectornator.io"
  vectornator:width CDATA #IMPLIED >
<!ATTLIST text
  xmlns:vectornator CDATA #FIXED "http://vectornator.io"
  vectornator:text CDATA #IMPLIED >

<!ATTLIST path
  xmlns:vectornator CDATA #FIXED "http://vectornator.io"
  vectornator:blendMode CDATA #IMPLIED >
<!ATTLIST path
  xmlns:vectornator CDATA #FIXED "http://vectornator.io"
  vectornator:shadowColor CDATA #IMPLIED >
<!ATTLIST path
  xmlns:vectornator CDATA #FIXED "http://vectornator.io"
  vectornator:shadowOpacity CDATA #IMPLIED >
<!ATTLIST path
  xmlns:vectornator CDATA #FIXED "http://vectornator.io"
  vectornator:shadowRadius CDATA #IMPLIED >
<!ATTLIST path
  xmlns:vectornator CDATA #FIXED "http://vectornator.io"
  vectornator:shadowOffset CDATA #IMPLIED >
<!ATTLIST path
  xmlns:vectornator CDATA #FIXED "http://vectornator.io"
  vectornator:shadowAngle CDATA #IMPLIED >

<!ATTLIST image
  xmlns:vectornator CDATA #FIXED "http://vectornator.io"
  vectornator:blendMode CDATA #IMPLIED >
<!ATTLIST image
  xmlns:vectornator CDATA #FIXED "http://vectornator.io"
  vectornator:shadowColor CDATA #IMPLIED >
<!ATTLIST image
  xmlns:vectornator CDATA #FIXED "http://vectornator.io"
  vectornator:shadowOpacity CDATA #IMPLIED >
<!ATTLIST image
  xmlns:vectornator CDATA #FIXED "http://vectornator.io"
  vectornator:shadowRadius CDATA #IMPLIED >
<!ATTLIST image
  xmlns:vectornator CDATA #FIXED "http://vectornator.io"
  vectornator:shadowOffset CDATA #IMPLIED >
<!ATTLIST image
  xmlns:vectornator CDATA #FIXED "http://vectornator.io"
  vectornator:shadowAngle CDATA #IMPLIED >

<!ATTLIST g
  xmlns:vectornator CDATA #FIXED "http://vectornator.io"
  vectornator:blendMode CDATA #IMPLIED >
<!ATTLIST g
  xmlns:vectornator CDATA #FIXED "http://vectornator.io"
  vectornator:shadowColor CDATA #IMPLIED >
<!ATTLIST g
  xmlns:vectornator CDATA #FIXED "http://vectornator.io"
  vectornator:shadowOpacity CDATA #IMPLIED >
<!ATTLIST g
  xmlns:vectornator CDATA #FIXED "http://vectornator.io"
  vectornator:shadowRadius CDATA #IMPLIED >
<!ATTLIST g
  xmlns:vectornator CDATA #FIXED "http://vectornator.io"
  vectornator:shadowOffset CDATA #IMPLIED >
<!ATTLIST g
  xmlns:vectornator CDATA #FIXED "http://vectornator.io"
  vectornator:shadowAngle CDATA #IMPLIED >

<!ENTITY % SVG.filter.extra.content  "| feDropShadow" >
<!ELEMENT feDropShadow EMPTY>
<!ATTLIST feDropShadow
  xmlns:svg CDATA #FIXED "http://www.w3.org/Graphics/SVG/1.1/DTD/svg11.dtd"
  dx CDATA #IMPLIED>
<!ATTLIST feDropShadow
  xmlns:svg CDATA #FIXED "http://www.w3.org/Graphics/SVG/1.1/DTD/svg11.dtd"
  dy CDATA #IMPLIED>
<!ATTLIST feDropShadow
  xmlns:svg CDATA #FIXED "http://www.w3.org/Graphics/SVG/1.1/DTD/svg11.dtd"
  stdDeviation CDATA #IMPLIED>
<!ATTLIST feDropShadow
  xmlns:svg CDATA #FIXED "http://www.w3.org/Graphics/SVG/1.1/DTD/svg11.dtd"
  flood-opacity CDATA #IMPLIED>
<!ATTLIST feDropShadow
  xmlns:svg CDATA #FIXED "http://www.w3.org/Graphics/SVG/1.1/DTD/svg11.dtd"
  in CDATA #IMPLIED>
<!ATTLIST feDropShadow
  xmlns:svg CDATA #FIXED "http://www.w3.org/Graphics/SVG/1.1/DTD/svg11.dtd"
  result CDATA #IMPLIED>
<!ATTLIST feDropShadow
  xmlns:svg CDATA #FIXED "http://www.w3.org/Graphics/SVG/1.1/DTD/svg11.dtd"
  flood-color CDATA #IMPLIED>
]
>
<!-- Created with Vectornator (http://vectornator.io/) -->
<svg height="100%" stroke-miterlimit="10" style="fill-rule:nonzero;clip-rule:evenodd;stroke-linecap:round;stroke-linejoin:round;" version="1.1" viewBox="0 0 1024 1024" width="100%" xml:space="preserve" xmlns="http://www.w3.org/2000/svg" xmlns:vectornator="http://vectornator.io" xmlns:xlink="http://www.w3.org/1999/xlink">
<defs>
<linearGradient gradientTransform="matrix(1 0 0 1 0 0)" gradientUnits="userSpaceOnUse" id="LinearGradient" x1="19.5062" x2="1004.49" y1="512" y2="512">
<stop offset="0" stop-color="#ffff63"/>
<stop offset="0.454004" stop-color="#000000"/>
</linearGradient>
<linearGradient gradientTransform="matrix(1 0 0 1 0 0)" gradientUnits="userSpaceOnUse" id="LinearGradient_2" x1="402.991" x2="520.888" y1="692.735" y2="692.735">
<stop offset="0" stop-color="#ffff63"/>
<stop offset="0.454004" stop-color="#000000"/>
</linearGradient>
</defs>
<g id="Layer-1" vectornator:layerName="Layer 1">
<path d="M246.019 832.292C204.794 832.292 171.375 865.711 171.375 906.936C171.375 948.161 204.794 981.58 246.019 981.58C287.243 981.58 320.663 948.161 320.663 906.936C320.663 865.711 287.243 832.292 246.019 832.292Z" fill="#e7e1fb" fill-rule="evenodd" opacity="0.754335" stroke="none"/>
<path d="M538.291 720.905C497.066 720.905 463.647 754.324 463.647 795.549C463.647 836.774 497.066 870.193 538.291 870.193C579.516 870.193 612.935 836.774 612.935 795.549C612.935 754.324 579.516 720.905 538.291 720.905Z" fill="#e7e1fb" fill-rule="evenodd" opacity="0.754335" stroke="none"/>
<path d="M830.563 832.292C789.339 832.292 755.92 865.711 755.92 906.936C755.92 948.161 789.339 981.58 830.563 981.58C871.788 981.58 905.207 948.161 905.207 906.936C905.207 865.711 871.788 832.292 830.563 832.292Z" fill="#e7e1fb" fill-rule="evenodd" opacity="0.754335" stroke="none"/>
<path d="M192.971 604.292C151.746 604.292 118.327 637.711 118.327 678.936C118.327 720.16 151.746 753.58 192.971 753.58C234.195 753.58 267.615 720.16 267.615 678.936C267.615 637.711 234.195 604.292 192.971 604.292Z" fill="#e7e1fb" fill-rule="evenodd" opacity="0.754335" stroke="none"/>
<path d="M485.243 492.905C444.019 492.905 410.599 526.324 410.599 567.549C410.599 608.774 444.019 642.193 485.243 642.193C526.468 642.193 559.887 608.774 559.887 567.549C559.887 526.324 526.468 492.905 485.243 492.905Z" fill="#e7e1fb" fill-rule="evenodd" opacity="0.754335" stroke="none"/>
<path d="M777.516 604.292C736.291 604.292 702.872 637.711 702.872 678.936C702.872 720.16 736.291 753.58 777.516 753.58C818.74 753.58 852.159 720.16 852.159 678.936C852.159 637.711 818.74 604.292 777.516 604.292Z" fill="#e7e1fb" fill-rule="evenodd" opacity="0.754335" stroke="none"/>
<path d="M226.814 372.785C185.589 372.785 152.17 406.204 152.17 447.428C152.17 488.653 185.589 522.072 226.814 522.072C268.038 522.072 301.458 488.653 301.458 447.428C301.458 406.204 268.038 372.785 226.814 372.785Z" fill="#e7e1fb" fill-rule="evenodd" opacity="0.754335" stroke="none"/>
<path d="M519.086 261.398C477.861 261.398 444.442 294.817 444.442 336.042C444.442 377.266 477.861 410.685 519.086 410.685C560.311 410.685 593.73 377.266 593.73 336.042C593.73 294.817 560.311 261.398 519.086 261.398Z" fill="#e7e1fb" fill-rule="evenodd" opacity="0.754335" stroke="none"/>
<path d="M811.359 372.785C770.134 372.785 736.715 406.204 736.715 447.428C736.715 488.653 770.134 522.072 811.359 522.072C852.583 522.072 886.002 488.653 886.002 447.428C886.002 406.204 852.583 372.785 811.359 372.785Z" fill="#e7e1fb" fill-rule="evenodd" opacity="0.754335" stroke="none"/>
<path d="M852.936 275.101L163.647 275.101L129.182 961.88L887.401 961.88L852.936 275.101Z" fill="#ffff63" fill-opacity="0.1" fill-rule="evenodd" opacity="1" stroke="#ffff63" stroke-linecap="round" stroke-linejoin="round" stroke-width="50"/>
<path d="M337.251 465.873L337.251 236.947C337.251 132.022 414.796 46.1752 509.573 46.1752L509.573 46.1752C604.35 46.1752 681.895 132.022 681.895 236.947L681.895 465.873" fill="none" fill-rule="evenodd" opacity="1" stroke="#ffff63" stroke-linecap="round" stroke-linejoin="round" stroke-width="50"/>
<path d="M337.633 429.866C308.366 429.866 284.641 452.694 284.641 480.853C284.641 509.012 308.366 531.84 337.633 531.84C366.899 531.84 390.624 509.012 390.624 480.853C390.624 452.694 366.899 429.866 337.633 429.866Z" fill="#ffff63" fill-rule="evenodd" opacity="1" stroke="none"/>
<path d="M681.513 429.866C652.247 429.866 628.521 452.694 628.521 480.853C628.521 509.012 652.247 531.84 681.513 531.84C710.78 531.84 734.505 509.012 734.505 480.853C734.505 452.694 710.78 429.866 681.513 429.866Z" fill="#ffff63" fill-rule="evenodd" opacity="1" stroke="none"/>
<g opacity="1">
<path d="M403.627 9.36817C401.084 9.58009 398.4 9.93328 397.623 10.2865C396.846 10.6397 393.172 11.1341 389.499 11.4167C385.826 11.6286 382.435 12.1937 381.941 12.5469C381.446 12.9708 379.044 13.4652 376.643 13.6772C374.17 13.8891 371.557 14.5248 370.78 15.0193C370.003 15.5844 367.813 16.0083 365.835 16.0083C363.857 16.0083 361.667 16.5027 360.961 17.0678C360.113 17.7036 358.065 18.1274 355.945 18.1274C353.826 18.1274 351.778 18.5513 350.93 19.187C350.224 19.7521 348.67 20.2466 347.469 20.2466C346.338 20.2466 344.714 20.7411 344.007 21.3062C343.23 21.8713 341.252 22.3658 339.628 22.3658C337.862 22.3658 336.308 22.7896 335.813 23.4254C335.319 23.9905 333.906 24.485 332.705 24.485C331.434 24.485 329.809 24.9794 329.032 25.5446C328.325 26.1097 326.701 26.6042 325.5 26.6042C324.37 26.6042 322.745 27.0986 321.968 27.6637C321.261 28.2289 319.919 28.7233 319.072 28.7233C317.73 28.7233 314.268 29.8536 308.617 32.1847C307.84 32.4672 305.014 33.4562 302.26 34.3038C299.575 35.2221 296.326 36.3524 295.054 36.9175C293.853 37.4826 292.441 37.9064 291.876 37.9064C291.381 37.9064 290.321 38.4009 289.615 38.966C288.838 39.5311 287.355 40.0256 286.366 40.0256C285.377 40.0256 283.893 40.5201 283.116 41.0852C282.41 41.6503 281.28 42.1448 280.644 42.1448C280.008 42.1448 279.09 42.6393 278.595 43.2044C278.101 43.7695 276.829 44.264 275.84 44.264C274.781 44.264 273.297 44.7585 272.52 45.3236C271.814 45.8887 270.684 46.3832 270.048 46.3832C269.412 46.3832 268.494 46.8776 267.999 47.4427C267.505 48.0079 266.233 48.5023 265.245 48.5023C264.185 48.5023 262.702 48.9968 261.924 49.5619C261.218 50.127 260.088 50.6215 259.452 50.6215C258.816 50.6215 257.898 51.116 257.404 51.6811C256.909 52.2462 255.779 52.7407 254.931 52.7407C254.084 52.7407 252.953 53.2352 252.459 53.8003C251.964 54.3654 251.117 54.8599 250.552 54.8599C249.986 54.8599 248.644 55.2837 247.655 55.8488C246.596 56.4139 244.194 57.5442 242.216 58.3918C240.309 59.3101 238.19 60.2285 237.625 60.5817C237.059 60.9348 236.071 61.4293 235.505 61.6412C234.94 61.8532 233.951 62.3476 233.386 62.7008C232.821 63.054 231.832 63.5485 231.267 63.7604C230.702 63.9723 229.713 64.4668 229.148 64.82C228.583 65.1732 227.594 65.6677 227.029 65.8796C226.464 66.0915 225.475 66.586 224.91 66.9392C224.344 67.2924 223.355 67.7869 222.79 67.9988C222.225 68.2107 221.236 68.6345 220.671 68.9877C220.106 69.3409 217.846 70.4712 215.726 71.5307C213.607 72.5197 210.923 74.0738 209.722 74.9921C208.592 75.8397 206.896 76.758 206.049 77.0406C205.131 77.3232 204.424 77.8883 204.424 78.2415C204.424 78.5947 204 78.8772 203.506 78.8772C202.941 78.8772 201.245 79.7249 199.762 80.8551C198.279 81.9147 196.23 83.1862 195.241 83.6807C192.062 85.2348 188.53 87.4246 187.047 88.8374C186.27 89.5438 185.281 90.1795 184.857 90.1795C184.433 90.1795 182.385 91.5923 180.265 93.3583C178.146 95.1243 176.098 96.537 175.674 96.537C175.321 96.537 174.261 97.3847 173.272 98.3737C172.354 99.3626 170.659 100.634 169.458 101.129C168.327 101.694 165.926 103.389 164.301 104.943C162.606 106.568 160.84 107.839 160.416 107.839C159.921 107.839 158.155 109.252 156.389 110.877C154.623 112.572 151.939 114.762 150.385 115.751C148.76 116.74 146.359 118.647 144.946 120.06C143.533 121.402 141.767 122.744 141.061 122.956C140.354 123.239 138.023 125.075 135.833 127.194C133.644 129.243 129.758 132.634 127.215 134.612C124.672 136.59 120.434 140.263 117.75 142.876C115.136 145.419 111.745 148.316 110.262 149.234C108.779 150.223 107.224 151.777 106.801 152.695C106.377 153.684 104.964 155.097 103.622 155.874C102.28 156.651 100.655 158.205 100.019 159.406C99.3835 160.536 98.5358 161.525 98.2533 161.525C97.4056 161.525 90.6242 168.024 89.3527 170.073C88.717 171.132 85.1144 175.229 81.3705 179.256C77.6266 183.282 73.8121 187.732 72.8231 189.075C71.9048 190.417 69.9269 192.818 68.4435 194.372C66.9601 195.927 64.9115 198.47 63.9226 200.024C62.9336 201.648 61.2383 203.838 60.1787 204.968C59.0485 206.099 58.2008 207.37 58.2008 207.653C58.2008 208.006 57.2825 209.489 56.0816 210.973C54.9514 212.456 53.9624 213.869 53.9624 214.151C53.9624 214.434 52.9735 215.847 51.8433 217.33C50.6424 218.814 49.7241 220.226 49.7241 220.509C49.7241 220.792 48.3113 223.123 46.616 225.736C44.9206 228.279 42.6602 232.164 41.6712 234.284C39.9052 237.816 39.3401 238.946 37.5741 242.054C37.2916 242.619 36.7971 243.608 36.5852 244.173C36.3733 244.738 35.7375 246.151 35.1724 247.211C34.6779 248.341 34.1834 249.612 34.1834 250.177C34.1834 250.672 33.689 251.449 33.1239 251.943C32.5587 252.438 32.0643 253.498 32.0643 254.345C32.0643 255.193 31.5698 256.535 31.0047 257.312C30.4396 258.018 29.9451 259.29 29.9451 260.067C29.9451 260.844 29.4506 262.116 28.8855 262.822C28.3204 263.599 27.8259 265.224 27.8259 266.425C27.8259 267.625 27.3314 269.25 26.7663 270.027C26.2012 270.734 25.7067 272.5 25.7067 273.842C25.7067 275.254 25.2829 276.95 24.7178 277.727C24.2233 278.504 23.5875 280.976 23.3756 283.237C23.1637 285.497 22.6692 287.758 22.2454 288.252C21.8216 288.747 21.2565 292.137 21.0445 295.81C20.8326 299.484 20.3381 303.086 19.9849 303.863C19.0666 305.7 19.5611 324.984 20.6913 333.885C21.1858 337.558 22.0335 341.585 22.5986 342.856C23.1637 344.057 23.5875 345.823 23.5875 346.812C23.5875 347.801 24.082 349.496 24.6471 350.556C25.2123 351.686 25.7067 353.24 25.7067 354.017C25.7067 354.794 26.2012 356.066 26.7663 356.772C27.3314 357.549 27.8259 358.891 27.8259 359.739C27.8259 360.587 28.3204 361.646 28.8855 362.141C29.4506 362.635 29.9451 363.554 29.9451 364.26C29.9451 364.966 30.4396 365.885 31.0047 366.379C31.5698 366.874 32.0643 367.863 32.0643 368.569C32.0643 369.275 32.3468 369.982 32.7 370.194C33.0532 370.406 34.0422 371.96 34.8898 373.584C35.7375 375.209 37.8567 378.105 39.552 380.013C41.2474 381.92 42.6602 383.827 42.6602 384.251C42.6602 385.24 56.8587 399.58 57.8476 399.58C58.2008 399.58 59.8255 400.569 61.3089 401.699C62.863 402.9 64.5583 403.818 65.0528 403.818C65.6179 403.818 66.5362 404.312 67.1013 404.878C67.7371 405.443 68.8673 405.937 69.7856 405.937C70.6333 405.937 71.9755 406.432 72.7525 406.997C73.6002 407.632 75.8606 408.056 79.3926 408.056C82.642 408.056 85.3969 408.48 86.4565 409.116C87.8693 409.893 91.8957 410.105 106.236 410.105C120.575 410.105 124.602 409.893 126.015 409.116C127.003 408.551 129.688 408.127 132.089 408.056C134.703 408.056 136.893 407.632 137.741 406.997C138.447 406.432 140.566 405.937 142.332 405.937C144.098 405.937 146.147 405.443 146.924 404.878C147.63 404.312 149.255 403.818 150.385 403.818C151.586 403.818 153.423 403.323 154.553 402.758C155.612 402.193 157.096 401.699 157.802 401.699C158.509 401.699 159.427 401.204 159.921 400.639C160.416 400.074 161.687 399.58 162.676 399.58C163.736 399.58 165.219 399.085 165.996 398.52C166.703 397.955 167.974 397.46 168.681 397.46C169.811 397.46 178.641 393.646 181.82 391.739C182.385 391.385 183.374 390.891 183.939 390.679C185.563 389.973 198.42 383.544 204.071 380.578C206.826 379.165 210.782 376.834 212.971 375.35C215.161 373.938 217.21 372.737 217.492 372.737C217.775 372.737 219.117 371.748 220.459 370.617C221.731 369.417 223.285 368.498 223.779 368.498C224.274 368.498 225.616 367.58 226.746 366.379C227.876 365.249 229.148 364.26 229.501 364.26C229.925 364.26 230.984 363.624 231.973 362.777C232.962 361.999 235.364 360.304 237.271 358.962C239.249 357.62 242.075 355.359 243.629 353.876C245.183 352.463 247.867 350.203 249.633 348.861C254.719 344.975 260.088 339.677 263.973 334.662C265.951 332.119 268.211 329.364 268.918 328.587C269.695 327.81 270.754 326.185 271.249 324.914C271.814 323.713 272.52 322.512 272.944 322.23C273.297 322.018 273.651 321.241 273.651 320.534C273.651 319.828 274.145 318.839 274.71 318.344C275.275 317.85 275.77 316.932 275.77 316.225C275.77 315.519 276.264 314.601 276.829 314.106C278.525 312.693 278.172 310.574 276.194 310.574C274.074 310.574 267.999 313.541 266.233 315.519C265.527 316.296 264.609 316.932 264.114 316.932C263.62 316.932 261.995 317.779 260.441 318.839C256.132 321.876 255.072 322.512 252.812 323.572C251.682 324.137 249.916 325.408 248.998 326.397C248.009 327.386 246.737 328.234 246.101 328.234C245.466 328.234 243.982 329.152 242.852 330.353C241.722 331.483 240.38 332.472 239.814 332.472C239.32 332.472 237.695 333.32 236.282 334.38C234.87 335.51 233.174 336.64 232.539 337.064C231.903 337.417 227.664 340.313 223.144 343.421C218.552 346.529 213.89 349.567 212.618 350.203C211.417 350.838 209.793 352.039 209.086 352.887C208.309 353.735 207.32 354.37 206.826 354.37C206.331 354.37 204.777 355.289 203.506 356.49C202.164 357.62 200.751 358.609 200.398 358.609C199.974 358.609 198.42 359.456 196.866 360.516C192.839 363.412 192.274 363.695 181.608 369.134C176.168 371.889 171.224 374.149 170.517 374.149C169.882 374.149 167.55 375.068 165.361 376.269C163.171 377.399 160.628 378.388 159.709 378.388C158.791 378.388 157.449 378.882 156.672 379.447C155.966 380.013 154.412 380.507 153.211 380.507C152.08 380.507 150.456 381.001 149.749 381.567C148.902 382.202 146.712 382.626 144.098 382.626C141.626 382.626 138.942 383.121 137.741 383.686C134.844 385.169 113.865 385.169 110.262 383.686C108.849 383.121 106.024 382.626 103.904 382.626C101.715 382.626 99.5954 382.202 98.7477 381.567C98.0414 381.001 96.4873 380.507 95.2864 380.507C94.1562 380.507 92.5315 380.013 91.8251 379.447C91.0481 378.882 89.5646 378.388 88.5051 378.388C87.5161 378.388 86.2446 377.893 85.7501 377.328C85.2556 376.763 84.3373 376.269 83.6309 376.269C82.9245 376.269 82.0062 375.774 81.5118 375.209C81.0173 374.644 80.2403 374.149 79.6751 374.149C77.0615 374.149 61.7328 361.081 61.7328 358.821C61.7328 358.326 60.8145 356.913 59.6842 355.642C58.6246 354.37 57.4944 352.534 57.2825 351.545C56.788 349.143 55.4459 345.329 54.0331 342.432C53.0441 340.384 52.9029 336.993 52.9029 320.181C52.9029 302.38 53.0441 300.119 54.1744 298.565C54.8101 297.647 55.3752 295.669 55.3752 294.256C55.3752 292.844 55.8697 290.724 56.4348 289.665C56.9999 288.535 57.4944 286.486 57.4944 285.144C57.4944 283.802 57.9889 282.036 58.554 281.329C59.1191 280.552 59.6136 279.281 59.6136 278.504C59.6136 277.656 60.1081 276.385 60.6732 275.678C61.2383 274.901 61.7328 273.277 61.7328 272.146C61.7328 270.945 62.2272 269.321 62.7924 268.614C63.3575 267.837 63.8519 266.707 63.8519 266.001C63.8519 265.365 64.3464 264.447 64.9115 263.952C65.4766 263.458 65.9711 262.539 65.9711 261.833C65.9711 261.127 66.4656 260.208 67.0307 259.714C67.5958 259.219 68.0903 258.16 68.0903 257.312C68.0903 256.464 68.5848 255.122 69.1499 254.275C69.715 253.427 71.9755 249.259 74.0946 244.95C76.2845 240.712 78.333 236.968 78.6862 236.756C79.11 236.544 79.3926 235.696 79.3926 234.919C79.3926 234.213 79.7458 233.577 80.099 233.577C80.5228 233.577 81.1586 232.8 81.5118 231.882C82.2888 229.763 96.5579 208.571 99.2422 205.463C100.372 204.191 101.291 202.779 101.291 202.284C101.291 201.79 102.562 200.094 104.187 198.611C105.741 197.057 108.425 193.878 110.121 191.547C113.653 186.673 150.032 150.223 151.374 150.223C151.868 150.223 154.27 148.316 156.672 145.985C159.144 143.653 161.475 141.746 161.97 141.746C162.394 141.746 164.301 140.404 166.138 138.709C167.974 137.084 170.729 134.894 172.283 133.905C173.837 132.916 175.886 131.221 176.875 130.232C177.864 129.172 179.135 128.325 179.771 128.325C180.407 128.325 181.82 127.406 182.95 126.206C184.08 125.075 185.493 124.086 186.058 124.086C186.623 124.086 188.036 123.239 189.166 122.25C191.497 120.06 197.925 115.61 198.773 115.61C199.126 115.61 200.822 114.479 202.587 113.137C204.424 111.795 206.119 110.665 206.402 110.665C206.685 110.665 208.027 109.747 209.369 108.546C210.711 107.415 212.194 106.497 212.548 106.427C212.971 106.427 214.384 105.508 215.726 104.307C217.069 103.177 218.693 102.259 219.329 102.188C219.894 102.188 221.307 101.199 222.437 100.069C223.567 98.8681 224.98 97.9498 225.687 97.9498C226.322 97.9498 227.241 97.4554 227.735 96.8902C228.23 96.3251 229.007 95.8307 229.572 95.8307C230.066 95.8307 231.62 94.8417 232.892 93.7115C234.234 92.5106 235.647 91.5923 236 91.5923C236.353 91.5923 238.825 90.1795 241.51 88.4135C244.194 86.6475 247.797 84.5284 249.563 83.6101C251.329 82.7624 254.084 81.2083 255.567 80.1487C257.05 79.0185 258.746 78.1708 259.17 78.1708C259.664 78.1708 260.229 77.6764 260.512 77.1112C260.724 76.5461 261.501 76.0517 262.278 76.0517C263.055 76.0517 263.832 75.7691 264.044 75.4159C264.538 74.7095 270.189 71.8133 271.108 71.8133C271.461 71.8133 272.874 70.8243 274.357 69.6941C275.84 68.4933 277.536 67.5749 278.101 67.5749C278.737 67.5749 279.443 67.2924 279.655 66.8685C279.867 66.5154 285.024 63.7604 291.028 60.7936C297.032 57.8267 302.118 55.0718 302.33 54.7892C302.542 54.436 303.46 54.1535 304.308 54.1535C305.226 54.1535 306.357 53.659 306.851 53.0939C307.346 52.5288 308.617 52.0343 309.677 52.0343C310.736 52.0343 312.008 51.5398 312.502 50.9747C312.997 50.4096 313.915 49.9151 314.621 49.9151C315.328 49.9151 316.246 49.4206 316.741 48.8555C317.235 48.2904 318.365 47.7959 319.213 47.7959C320.061 47.7959 321.191 47.3015 321.685 46.7364C322.18 46.1712 323.31 45.6768 324.158 45.6768C325.005 45.6768 326.136 45.1823 326.63 44.6172C327.125 44.0521 328.184 43.5576 329.032 43.5576C329.879 43.5576 331.151 43.1337 331.928 42.5686C333.411 41.5797 344.714 37.3413 347.822 36.6349C348.74 36.423 350.012 35.8579 350.506 35.2928C351.001 34.7983 352.484 34.3745 353.756 34.3745C355.098 34.3745 356.511 33.88 357.005 33.3149C357.57 32.6791 359.124 32.2553 361.243 32.2553C363.363 32.2553 364.917 31.8315 365.482 31.1957C365.976 30.6306 367.389 30.1361 368.59 30.1361C369.791 30.0655 371.557 29.6416 372.546 29.0765C373.535 28.5114 375.724 28.0169 377.49 28.0169C379.256 28.0169 381.446 27.5225 382.435 26.9573C383.424 26.3922 386.179 25.8978 388.793 25.8978C391.406 25.8978 394.161 25.4033 395.15 24.8382C397.764 23.3547 435.838 23.3547 437.816 24.8382C438.593 25.4739 440.783 25.8978 442.761 25.8978C444.81 25.8978 446.929 26.3922 447.706 26.9573C448.483 27.5225 450.249 28.0169 451.732 28.0169C453.145 28.0169 454.699 28.5114 455.194 29.0765C455.688 29.6416 456.818 30.1361 457.666 30.1361C458.514 30.1361 459.644 30.6306 460.138 31.1957C460.633 31.7608 462.046 32.2553 463.388 32.2553C464.659 32.2553 465.931 32.6085 466.143 32.9617C466.425 33.3855 467.626 34.0919 468.827 34.657C470.098 35.1515 472.571 37.2 474.478 39.1779C477.021 41.9329 477.798 43.3457 477.798 45.1116C477.869 46.3832 478.293 48.2198 478.858 49.2087C480.271 51.6811 480.271 64.3962 478.858 67.1511C478.293 68.2107 477.798 69.906 477.798 70.895C477.798 71.8839 477.374 73.5086 476.809 74.4976C476.244 75.5572 475.255 77.9589 474.619 79.9368C473.913 81.8441 472.924 84.599 472.288 85.9412C471.723 87.2833 470.664 89.8263 469.887 91.5923C469.11 93.3583 468.191 95.2655 467.838 95.8307C467.485 96.3958 466.99 97.3847 466.778 97.9498C466.567 98.5149 466.072 99.5039 465.719 100.069C465.366 100.634 464.871 101.623 464.659 102.188C464.447 102.753 463.953 103.742 463.6 104.307C463.246 104.872 462.752 105.861 462.54 106.427C462.328 106.992 461.834 107.981 461.48 108.546C461.127 109.111 460.068 111.018 459.079 112.784C458.09 114.55 457.03 116.457 456.677 117.022C456.324 117.588 455.829 118.577 455.617 119.142C455.335 119.707 454.417 121.473 453.498 123.027C452.509 124.581 451.238 126.841 450.602 128.113C449.966 129.384 448.977 130.726 448.412 131.221C447.847 131.645 447.423 132.351 447.423 132.704C447.423 133.128 446.01 135.601 444.244 138.214C442.549 140.828 440.854 143.512 440.642 144.289C440.359 144.996 439.229 146.762 438.099 148.104C437.039 149.446 436.121 150.788 436.121 151.071C436.121 151.353 434.426 154.037 432.448 156.934C430.399 159.9 428.28 163.15 427.715 164.209C427.15 165.198 426.161 166.611 425.525 167.318C424.889 168.024 423.9 169.437 423.335 170.496C422.77 171.556 421.499 173.322 420.439 174.523C419.309 175.724 418.461 177.207 418.461 177.914C418.461 178.62 418.179 179.185 417.825 179.185C417.472 179.185 416.059 180.88 414.717 182.858C413.375 184.907 411.397 187.52 410.338 188.721C409.278 189.852 407.583 192.112 406.594 193.666C405.534 195.22 403.486 197.763 402.073 199.317C400.589 200.871 399.389 202.567 399.389 202.99C399.389 203.485 397.834 205.675 395.857 207.794C393.949 209.913 392.325 212.103 392.325 212.597C392.325 213.021 390.417 215.352 388.086 217.683C385.755 220.015 383.848 222.416 383.848 222.981C383.848 223.617 382.364 225.524 380.599 227.22C378.833 228.986 376.713 231.529 375.936 232.871C375.089 234.213 372.969 236.968 371.203 238.875C368.025 242.337 364.069 247.281 357.853 255.334C356.157 257.524 353.756 260.42 352.484 261.833C351.213 263.246 348.881 266.142 347.257 268.261C345.703 270.38 342.948 273.63 341.182 275.608C339.416 277.515 337.932 279.422 337.932 279.846C337.932 280.199 335.813 282.742 333.27 285.497C330.727 288.181 327.902 291.643 326.913 293.197C325.924 294.68 323.946 297.223 322.462 298.848C321.05 300.402 318.93 303.016 317.8 304.57C316.67 306.124 314.409 308.808 312.785 310.574C311.16 312.34 308.405 315.66 306.639 317.991C304.944 320.322 302.613 323.007 301.553 323.996C300.494 324.984 298.869 326.892 298.021 328.234C297.174 329.576 294.489 332.825 292.087 335.439C289.756 337.982 287.778 340.455 287.778 340.878C287.778 341.302 285.871 343.704 283.54 346.318C281.209 348.861 279.302 351.262 279.302 351.545C279.302 351.898 277.748 354.017 275.77 356.207C273.863 358.397 272.238 360.587 272.238 361.081C272.238 361.505 271.32 362.777 270.119 363.907C268.988 365.037 267.999 366.379 267.999 367.015C267.999 367.58 267.364 368.71 266.657 369.487C265.245 370.971 263.055 374.503 261.501 377.681C261.006 378.67 259.735 380.719 258.675 382.202C257.545 383.686 256.697 385.381 256.697 385.946C256.697 386.441 256.415 386.865 256.061 386.865C255.708 386.865 255.072 387.712 254.649 388.772C254.225 389.902 252.6 392.939 251.117 395.694C249.563 398.379 248.291 401.346 248.291 402.123C248.22 402.97 247.726 404.03 247.161 404.524C246.596 405.019 246.101 405.937 246.101 406.573C246.101 407.209 245.748 408.127 245.254 408.621C244.335 409.54 242.569 413.919 242.075 416.674C241.863 417.734 241.298 419.005 240.733 419.429C240.168 419.853 239.744 421.054 239.744 422.114C239.744 423.173 239.32 424.586 238.755 425.363C238.26 426.14 237.625 428.118 237.413 429.672C237.13 431.297 236.424 433.486 235.859 434.617C235.293 435.747 234.799 437.654 234.799 438.784C234.799 439.985 234.516 441.257 234.093 441.681C233.739 442.034 233.245 444.718 232.962 447.614C232.68 450.511 232.115 453.336 231.691 453.901C231.196 454.537 230.843 460.965 230.702 472.409C230.49 487.384 230.631 490.28 231.55 492.188C232.185 493.459 232.68 495.437 232.68 496.638C232.68 497.839 233.174 499.746 233.739 500.876C234.305 501.936 234.799 503.49 234.799 504.196C234.799 504.903 235.152 505.68 235.505 505.892C235.929 506.174 236.706 507.375 237.271 508.576C240.026 514.368 244.547 520.02 247.443 521.291C248.432 521.715 250.552 522.986 252.035 524.046C253.518 525.176 255.638 526.024 256.697 526.024C257.686 526.024 258.958 526.448 259.381 526.872C260.3 527.79 268.988 528.92 275.063 528.92C281.774 528.991 292.653 527.79 293.571 526.872C293.995 526.448 295.69 526.024 297.315 526.024C298.939 526.024 300.847 525.529 301.624 524.964C302.33 524.399 303.955 523.905 305.156 523.905C306.357 523.905 307.769 523.41 308.264 522.845C308.758 522.28 310.03 521.786 311.019 521.786C312.078 521.786 313.562 521.291 314.339 520.726C315.045 520.161 316.175 519.666 316.811 519.666C317.447 519.666 320.838 518.254 324.228 516.629C337.367 510.13 341.182 508.364 341.888 508.364C342.241 508.364 343.584 507.375 344.926 506.245C346.197 505.044 347.681 504.126 348.175 504.126C348.67 504.126 349.447 503.631 349.941 503.066C350.436 502.501 351.354 502.007 351.99 502.007C352.696 502.007 354.109 501.088 355.31 499.958C356.44 498.898 358.065 497.768 358.842 497.486C359.689 497.203 361.173 496.285 362.091 495.437C363.009 494.589 364.705 493.247 365.835 492.541C367.036 491.764 370.215 489.221 372.899 486.819C375.654 484.417 378.197 482.298 378.621 482.157C379.327 481.945 389.782 472.479 395.998 466.475C397.128 465.415 398.4 464.568 398.823 464.568C399.742 464.568 490.584 373.514 496.8 366.308C499.273 363.412 508.809 353.452 517.992 344.128C527.175 334.733 539.325 322.018 544.976 315.872C550.627 309.656 561.223 298.495 568.428 291.148C575.704 283.731 583.475 275.608 585.664 272.923C587.925 270.31 596.472 261.268 604.737 252.791C612.931 244.385 620.49 236.332 621.408 234.919C624.092 230.964 647.827 207.229 648.604 207.723C649.452 208.218 647.756 213.445 646.273 214.999C645.708 215.564 645.213 216.341 645.213 216.694C645.213 217.048 644.295 218.672 643.094 220.297C641.964 221.851 640.975 223.617 640.975 224.041C640.975 224.535 640.48 225.312 639.915 225.807C639.35 226.301 638.856 227.149 638.856 227.785C638.856 228.421 638.22 229.551 637.514 230.328C636.807 231.176 635.182 233.719 633.982 236.05C632.71 238.381 631.439 240.571 631.015 240.994C630.662 241.348 630.379 242.195 630.379 242.831C630.379 243.467 629.885 244.385 629.319 244.88C628.754 245.374 628.26 246.222 628.26 246.787C628.26 247.352 627.483 248.835 626.494 250.107C625.576 251.378 623.456 254.91 621.902 257.948C620.348 260.985 618.3 264.517 617.452 265.647C616.534 266.848 614.485 270.522 612.79 273.842C611.165 277.162 609.54 280.34 609.187 280.906C608.834 281.471 608.41 282.46 608.128 283.025C607.563 284.438 606.291 286.486 604.454 289.1C603.607 290.301 602.547 292.067 602.123 292.985C601.77 293.903 601.064 295.316 600.569 296.093C598.803 299.131 598.521 299.696 597.532 301.744C596.896 302.874 595.766 304.994 594.918 306.336C594.141 307.678 592.658 310.292 591.739 312.128C590.821 313.965 589.761 315.66 589.408 315.872C588.984 316.084 588.702 316.79 588.702 317.285C588.702 317.85 587.289 320.393 585.523 323.007C583.757 325.55 582.344 328.022 582.344 328.516C582.344 329.082 581.85 329.859 581.285 330.353C580.72 330.848 580.225 331.766 580.225 332.472C580.225 333.179 579.731 334.097 579.166 334.591C578.6 335.086 578.106 335.863 578.106 336.357C578.106 336.852 577.188 338.335 575.987 339.607C574.857 340.949 573.868 342.503 573.868 343.139C573.868 343.775 573.373 344.693 572.808 345.187C572.243 345.682 571.748 346.6 571.748 347.236C571.748 347.872 571.395 348.79 570.971 349.214C570.194 349.991 569.135 351.827 564.896 359.88C563.272 362.988 561.576 365.743 561.153 366.026C560.799 366.238 560.446 367.015 560.446 367.721C560.446 368.428 559.952 369.417 559.387 369.911C558.821 370.406 558.327 371.395 558.327 372.172C558.327 372.878 557.832 373.655 557.267 373.867C556.702 374.149 556.208 374.715 556.208 375.209C556.208 375.633 555.219 377.399 554.089 378.953C552.888 380.578 551.969 382.344 551.969 382.909C551.969 383.474 551.687 384.11 551.334 384.392C550.91 384.604 549.85 386.511 548.861 388.56C547.872 390.679 545.824 394.211 544.34 396.542C542.786 398.803 540.738 402.405 539.678 404.524C538.619 406.644 537.418 409.045 536.923 409.822C533.321 415.615 532.402 417.31 530.848 420.418C529.93 422.325 528.941 424.091 528.729 424.303C528.517 424.515 527.528 426.211 526.61 428.188C525.692 430.096 524.279 432.639 523.431 433.84C522.583 434.97 521.524 436.736 521.029 437.725C520.606 438.714 519.899 440.056 519.475 440.692C519.122 441.398 518.416 442.528 518.063 443.164C517.639 443.87 517.074 445.071 516.72 445.848C516.367 446.625 515.237 448.462 514.248 449.945C513.259 451.429 512.411 452.983 512.411 453.477C512.411 453.972 511.634 455.526 510.645 456.939C509.656 458.422 508.526 460.329 508.173 461.177C507.749 462.095 507.184 463.367 506.76 464.003C506.407 464.709 505.701 465.839 505.347 466.475C504.924 467.181 504.288 468.524 503.935 469.442C503.511 470.36 502.593 471.914 501.816 472.833C501.038 473.821 499.484 476.647 498.354 479.049C497.153 481.521 495.882 483.711 495.458 483.994C494.328 484.7 494.61 483.217 495.811 482.228C496.376 481.733 496.871 480.815 496.871 480.108C496.871 479.402 497.365 478.484 497.93 477.989C498.495 477.495 498.99 476.647 498.99 476.082C498.99 475.446 499.979 473.892 501.109 472.55C502.31 471.278 503.228 469.724 503.228 469.23C503.228 468.665 503.723 467.888 504.288 467.393C504.853 466.899 505.347 466.051 505.347 465.415C505.347 464.85 505.842 463.791 506.478 463.084C507.043 462.449 507.467 461.248 507.325 460.471C507.113 459.129 506.69 459.199 499.343 462.166C495.105 463.861 491.361 465.274 491.078 465.274C489.948 465.274 464.73 477.424 459.432 480.462C437.958 493.035 430.752 498.051 415.636 510.978C394.726 528.849 381.658 545.167 375.442 561.344C374.17 564.664 372.828 568.125 372.404 569.114C372.051 570.103 371.133 574.059 370.356 577.944C367.883 590.941 368.802 609.731 372.546 621.74C373.393 624.424 374.241 627.533 374.453 628.663C374.665 629.722 375.089 630.782 375.442 630.994C375.795 631.206 376.078 631.842 376.078 632.477C376.078 633.608 379.539 641.166 381.941 645.192L383.353 647.665L388.651 642.084C391.548 639.047 395.08 634.95 396.422 633.042C397.834 631.065 400.166 628.168 401.649 626.614C403.132 624.99 405.252 622.305 406.382 620.61C407.441 618.915 408.854 617.078 409.49 616.513C410.408 615.806 410.691 614.394 410.691 610.579C410.691 605.211 411.609 598.712 413.304 592.072C414.647 586.774 419.45 573.917 421.428 570.173C424.042 565.37 431.953 553.432 436.05 548.275C440.218 542.977 452.933 530.192 460.209 523.905C462.681 521.786 464.871 519.878 465.083 519.666C465.295 519.454 468.898 516.558 473.207 513.309C481.048 507.304 483.379 505.115 483.449 503.702C483.449 503.207 483.944 502.713 484.509 502.43C485.074 502.218 485.568 501.441 485.568 500.664C485.568 499.887 485.992 498.828 486.557 498.333C487.052 497.768 488.182 496.002 489.03 494.448C489.807 492.823 490.796 491.34 491.22 491.057C491.573 490.846 491.926 490.139 491.926 489.503C491.926 488.938 492.562 487.667 493.339 486.678C494.186 485.548 494.752 485.265 494.752 485.901C494.752 486.466 494.398 487.243 493.975 487.667C493.056 488.585 491.643 490.987 490.513 493.53C490.089 494.519 488.959 496.285 487.97 497.556C487.052 498.757 486.275 500.241 486.275 500.806C486.275 501.371 485.78 502.218 485.215 502.713C484.65 503.207 484.156 503.914 484.156 504.267C484.156 504.62 483.308 506.245 482.248 507.87C478.999 512.744 478.505 513.591 477.798 515.357C477.374 516.276 476.385 517.83 475.608 518.889C474.831 519.878 473.701 521.644 473.136 522.845C472.076 525.106 471.511 525.953 468.403 530.757C467.344 532.452 466.496 533.936 466.496 534.147C466.496 534.359 465.083 536.549 463.317 539.163C461.551 541.706 460.138 544.178 460.138 544.673C460.138 545.167 459.22 546.439 458.019 547.569C456.889 548.699 455.9 549.971 455.9 550.465C455.9 550.96 454.558 553.361 452.933 555.763C451.238 558.165 449.331 561.132 448.553 562.333C447.847 563.533 446.646 565.229 445.94 566.218C445.233 567.136 444.598 568.196 444.598 568.619C444.598 568.973 443.609 570.385 442.479 571.728C441.278 572.999 440.359 574.482 440.359 574.977C440.289 575.471 439.37 576.955 438.24 578.297C437.039 579.639 436.121 581.052 436.121 581.476C436.121 581.97 435.273 583.03 434.284 584.019C433.295 584.937 432.024 586.632 431.529 587.833C431.035 588.964 430.046 590.588 429.269 591.365C428.563 592.142 427.22 593.979 426.302 595.462C425.384 596.946 423.688 599.206 422.629 600.407C421.499 601.608 420.58 602.95 420.58 603.374C420.58 603.727 419.168 605.705 417.402 607.612C415.636 609.59 414.223 611.427 414.223 611.851C414.223 612.204 413.093 613.829 411.68 615.383C410.267 616.937 408.218 619.55 407.018 621.246C405.817 622.941 403.274 626.049 401.225 628.168C399.247 630.358 397.34 632.831 396.916 633.678C396.563 634.596 394.091 637.493 391.477 640.177C388.934 642.861 385.473 646.817 383.777 648.936C379.539 654.446 360.82 673.377 357.005 675.991C355.239 677.192 351.354 680.512 348.316 683.338C345.279 686.163 342.453 688.494 342.029 688.494C341.606 688.494 340.122 689.554 338.639 690.825C336.166 693.015 334.824 693.863 328.467 697.536C326.913 698.384 325.147 699.514 324.582 700.079C323.946 700.574 322.745 701.28 321.897 701.492C321.12 701.774 319.99 702.41 319.566 702.975C319.072 703.54 318.083 704.035 317.376 704.035C316.599 704.035 316.034 704.317 316.034 704.741C316.034 705.095 315.187 705.66 314.127 705.872C312.997 706.154 311.513 706.79 310.736 707.284C309.959 707.849 308.546 708.273 307.487 708.273C306.427 708.273 305.226 708.768 304.732 709.333C304.237 709.898 302.825 710.392 301.553 710.392C300.282 710.392 298.869 710.887 298.374 711.452C297.88 712.088 296.255 712.512 294.56 712.512C293.006 712.582 290.392 713.006 288.838 713.571C284.741 715.055 264.75 715.055 261.924 713.571C260.794 713.006 258.746 712.512 257.333 712.512C255.92 712.512 254.366 712.017 253.872 711.452C253.377 710.887 252.106 710.392 250.975 710.392C249.916 710.392 248.574 709.969 248.079 709.403C247.514 708.909 246.384 708.203 245.466 707.92C243.134 707.214 231.973 696.335 231.973 694.852C231.973 694.145 231.479 693.227 230.914 692.733C230.349 692.238 229.854 691.32 229.854 690.613C229.854 689.907 229.36 688.989 228.795 688.494C228.23 688 227.735 687.081 227.735 686.375C227.735 685.669 227.241 684.75 226.675 684.256C226.11 683.761 225.616 682.49 225.616 681.501C225.616 680.441 225.121 678.958 224.556 678.181C223.991 677.475 223.497 676.203 223.497 675.355C223.497 674.578 223.002 673.307 222.437 672.53C221.872 671.823 221.378 670.411 221.378 669.422C221.378 668.433 220.954 666.808 220.389 665.819C219.894 664.83 219.258 662.782 218.905 661.228C218.623 659.744 218.199 658.19 217.987 657.766C217.704 657.413 217.139 655.506 216.786 653.528C215.797 648.795 213.607 647.594 205.272 647.029C200.256 646.676 198.49 646.888 196.654 647.806C195.382 648.442 193.97 648.936 193.475 648.936C193.051 648.936 191.426 650.208 189.943 651.832L187.117 654.658L187.117 665.042C187.117 673.801 187.329 675.709 188.318 677.192C189.025 678.11 189.59 679.735 189.59 680.795C189.59 681.854 190.084 683.055 190.649 683.55C191.215 684.044 191.709 684.962 191.709 685.598C191.709 686.234 192.698 687.788 193.828 689.13C195.029 690.402 195.947 691.956 195.947 692.45C195.947 693.792 213.325 710.887 215.232 711.523C216.08 711.805 217.704 712.935 218.835 713.995C220.035 715.125 221.236 716.044 221.589 716.044C221.943 716.044 223.426 717.033 224.91 718.163C226.393 719.293 228.088 720.282 228.653 720.282C229.219 720.282 230.066 720.776 230.561 721.342C231.055 721.907 231.973 722.401 232.68 722.401C233.386 722.401 234.305 722.896 234.799 723.461C235.293 724.026 236.212 724.52 236.848 724.52C237.554 724.52 238.684 725.015 239.461 725.58C240.168 726.145 241.651 726.639 242.64 726.639C243.629 726.639 245.042 727.134 245.819 727.699C246.525 728.264 247.797 728.759 248.574 728.759C249.351 728.759 250.975 729.253 252.106 729.889C253.307 730.525 256.627 731.302 259.523 731.655C262.419 731.937 266.869 732.503 269.412 732.926C272.45 733.35 275.77 733.35 279.302 732.856C282.198 732.503 287.496 731.937 290.957 731.655C294.489 731.372 297.951 730.807 298.728 730.383C299.505 729.96 301.412 729.394 302.966 729.112C304.52 728.829 306.145 728.335 306.569 727.982C307.063 727.628 309.041 727.134 311.019 726.851C312.997 726.639 314.975 726.004 315.398 725.509C315.822 724.944 317.235 724.52 318.507 724.52C319.778 724.52 321.191 724.026 321.685 723.461C322.18 722.896 323.169 722.401 323.946 722.401C324.723 722.401 325.782 721.907 326.348 721.342C326.983 720.776 328.325 720.282 329.456 720.282C330.586 720.282 331.645 719.999 331.857 719.717C332.069 719.364 334.683 717.88 337.72 716.397C340.758 714.984 343.725 713.501 344.29 713.147C344.855 712.794 346.127 712.158 347.115 711.735C348.104 711.311 349.87 710.251 351.142 709.262C352.343 708.344 353.756 707.567 354.179 707.567C354.674 707.567 355.804 706.931 356.793 706.154C357.782 705.377 358.983 704.741 359.407 704.741C359.901 704.741 361.173 703.823 362.303 702.622C363.433 701.492 364.846 700.503 365.482 700.503C366.117 700.503 367.53 699.514 368.66 698.384C369.791 697.183 371.133 696.265 371.698 696.265C372.192 696.265 374.312 694.852 376.29 693.086C378.338 691.32 380.245 689.907 380.669 689.907C381.093 689.907 382.506 688.918 383.777 687.717C385.119 686.516 386.744 685.316 387.451 685.104C388.086 684.821 390.982 682.49 393.808 679.947C396.704 677.333 401.72 672.883 405.04 670.057C411.962 664.053 427.786 647.947 428.492 646.252C428.774 645.616 431.883 642.014 435.344 638.411C438.876 634.738 441.772 631.347 441.772 630.923C441.772 630.499 443.538 628.239 445.728 625.908C447.918 623.647 449.896 621.175 450.108 620.539C450.39 619.904 451.944 617.643 453.64 615.595C460.562 606.977 463.67 602.738 463.67 601.961C463.67 601.537 464.659 600.266 465.789 599.136C466.99 598.005 467.909 596.804 467.909 596.451C467.909 596.098 468.898 594.615 470.028 593.131C471.229 591.648 472.147 590.235 472.147 589.952C472.147 589.67 473.065 588.257 474.266 586.774C475.396 585.29 476.385 583.877 476.385 583.595C476.385 582.889 482.178 574.2 484.085 572.01C484.933 571.092 485.568 569.75 485.568 569.114C485.568 568.407 486.063 567.489 486.628 566.995C487.193 566.5 487.688 565.794 487.688 565.441C487.688 565.017 488.677 563.533 489.807 562.05C491.008 560.567 491.926 558.871 491.926 558.306C491.926 557.741 492.42 556.893 492.986 556.399C493.551 555.904 494.045 555.127 494.045 554.703C494.045 554.209 495.458 551.666 497.224 549.052C498.99 546.368 500.403 543.966 500.403 543.684C500.403 543.472 501.321 541.988 502.451 540.434C503.652 538.88 505.418 536.055 506.407 534.077C507.396 532.17 508.879 529.627 509.586 528.496C510.363 527.295 511.281 525.741 511.634 524.964C511.988 524.187 513.118 522.351 514.107 520.867C515.096 519.384 515.943 517.971 515.943 517.618C515.943 517.335 516.791 515.993 517.78 514.651C518.769 513.309 519.899 511.613 520.252 510.836C520.606 510.059 522.16 507.375 523.714 504.903C525.268 502.501 526.539 500.311 526.539 500.099C526.539 499.887 527.881 497.556 529.577 495.013C531.201 492.47 532.967 489.574 533.462 488.585C533.956 487.596 534.945 485.83 535.722 484.7C536.499 483.499 537.418 481.945 537.771 481.168C538.124 480.391 539.254 478.554 540.243 477.071C541.232 475.587 542.08 474.033 542.08 473.68C542.08 473.256 542.716 472.055 543.563 471.067C546.106 467.676 548.437 463.791 548.437 462.872C548.437 462.307 548.932 461.53 549.497 461.036C550.062 460.612 550.698 459.482 550.98 458.705C551.546 456.797 554.866 452.418 555.289 452.842C555.501 453.054 554.866 454.254 553.877 455.526C552.958 456.797 551.969 458.351 551.687 458.917C551.404 459.482 550.415 461.248 549.497 462.802C548.508 464.356 547.448 466.404 547.025 467.393C546.601 468.382 545.4 470.219 544.482 471.49L542.716 473.751L546.46 472.267C548.508 471.42 551.687 470.219 553.594 469.512C555.431 468.877 557.126 468.1 557.409 467.888C557.621 467.605 558.398 467.393 559.033 467.393C559.669 467.393 562.212 466.546 564.755 465.557C569.276 463.72 572.172 462.872 585.876 459.27C589.973 458.281 593.929 457.151 594.706 456.797C595.483 456.444 597.108 456.02 598.238 455.738C604.454 454.466 606.997 453.901 609.894 453.265C611.66 452.842 614.838 452.206 616.958 451.853C619.077 451.499 623.244 450.722 626.141 450.087C629.037 449.522 632.71 449.027 634.335 449.027C635.889 449.027 637.443 448.745 637.867 448.391C638.22 448.038 640.763 447.544 643.447 447.332C646.202 447.12 650.794 446.625 653.69 446.272C664.074 444.93 675.871 444.153 676.648 444.789C677.425 445.424 677.284 447.473 675.164 467.04C673.681 480.815 672.833 487.455 670.785 502.713C669.513 511.896 667.111 527.225 665.699 534.854C664.922 539.092 663.933 544.39 663.65 546.509C662.944 550.606 660.895 560.355 658.564 570.88C657.787 574.341 656.869 578.65 656.516 580.416C655.597 585.432 653.761 593.343 653.054 595.25C652.701 596.239 652.065 598.782 651.641 600.902C650.511 606.199 648.957 612.204 646.626 620.398C645.849 623.153 645.213 625.978 645.213 626.614C645.213 627.25 644.931 628.31 644.578 629.016C644.224 629.652 643.377 632.265 642.741 634.808C641.116 641.307 637.584 652.751 629.249 678.817C628.189 682.278 626.988 685.174 626.706 685.386C626.423 685.598 626.141 686.234 626.141 686.87C626.141 688.494 616.392 715.055 612.719 723.461C612.366 724.238 610.6 728.547 608.763 732.997C606.997 737.447 604.596 743.169 603.395 745.712C602.265 748.255 600.499 752.211 599.51 754.542C597.956 758.286 588.914 777.5 587.36 780.396C587.006 780.961 584.463 785.906 581.638 791.345C578.812 796.714 576.057 801.8 575.563 802.647C574.998 803.424 573.726 805.755 572.596 807.804C567.439 817.623 544.552 853.366 541.444 856.545C540.808 857.181 538.831 859.795 536.994 862.408C535.087 865.022 533.179 867.494 532.685 868.059C532.19 868.554 530.566 870.532 529.082 872.51C527.669 874.417 525.126 877.384 523.572 879.079C521.029 881.834 520.535 882.046 518.204 881.693C516.791 881.41 514.813 880.986 513.824 880.633C512.199 880.139 510.08 879.574 503.44 877.808C501.957 877.454 497.93 876.465 494.398 875.688C490.937 874.911 486.699 873.993 485.003 873.569C483.379 873.216 481.259 872.863 480.271 872.863C479.352 872.863 478.434 872.58 478.222 872.227C478.01 871.944 476.173 871.379 474.125 871.167C472.076 870.885 468.332 870.32 465.789 869.967C444.527 866.858 436.404 866.223 417.048 866.223C398.682 866.223 389.64 866.929 376.784 869.401C370.85 870.532 356.864 874.558 352.413 876.395C351.636 876.677 349.87 877.384 348.528 877.808C343.654 879.574 331.151 885.931 326.277 889.18C321.403 892.43 312.361 901.048 309.606 905.074C307.063 908.748 304.237 914.823 303.037 919.132C302.33 921.463 301.482 924.076 301.129 924.995C300.211 927.255 300.352 942.654 301.271 947.175C305.65 968.085 316.953 982.989 339.345 997.329C348.246 1002.98 351.142 1004.53 357.358 1007.08C360.466 1008.28 363.645 1009.55 364.422 1009.9C365.694 1010.4 368.378 1011.1 381.587 1014.14C385.543 1015.06 416.13 1015.06 425.525 1014.14C442.479 1012.45 457.807 1010.61 460.845 1009.9C462.187 1009.62 465.083 1008.98 467.202 1008.49C475.326 1006.79 483.167 1004.82 484.297 1004.18C485.003 1003.83 486.204 1003.55 486.981 1003.55C487.758 1003.55 488.959 1003.26 489.666 1002.84C490.301 1002.49 493.904 1001.07 497.577 999.66C509.727 994.927 524.985 987.016 535.51 979.952C549.709 970.345 568.923 952.332 587.289 931.493C590.185 928.173 592.94 925.065 593.435 924.641C594.565 923.37 596.755 923.511 599.439 924.995C600.711 925.701 604.454 927.326 607.774 928.597C611.094 929.939 614.061 931.211 614.415 931.564C614.838 931.917 615.827 932.2 616.675 932.2C617.593 932.2 618.441 932.482 618.653 932.836C618.865 933.118 620.56 933.966 622.397 934.672C624.233 935.379 626.776 936.368 627.907 936.862C635.394 940.182 650.37 946.328 651.006 946.328C651.43 946.328 653.196 947.105 655.032 948.023C656.798 949.012 662.449 951.414 667.465 953.392C672.551 955.44 677.707 957.489 678.979 958.054C680.18 958.619 682.299 959.467 683.57 960.032C707.941 970.698 725.671 977.48 735.49 979.952C738.245 980.658 740.576 981.506 740.576 981.789C740.576 982.071 741.495 982.354 742.695 982.354C743.826 982.354 745.45 982.636 746.369 982.989C747.852 983.555 752.585 984.544 760.355 985.956C762.121 986.309 766.077 987.016 769.185 987.652C772.293 988.287 776.885 989.064 779.428 989.418C781.971 989.7 786.562 990.336 789.671 990.83C795.039 991.607 801.114 992.243 818.633 993.727C830.924 994.786 872.46 995.351 876.557 994.504C878.535 994.08 882.349 993.373 885.034 992.95C893.934 991.396 907.638 987.581 914.702 984.544C915.479 984.261 917.104 983.555 918.234 983.06C919.435 982.566 920.848 981.93 921.413 981.577C921.978 981.223 924.733 979.811 927.417 978.398C945.289 969.215 962.666 955.016 974.11 940.323C979.902 932.836 986.895 920.827 988.52 915.458C988.944 913.975 989.58 912.138 989.862 911.361C990.216 910.584 990.851 909.03 991.275 907.971C991.699 906.911 992.052 905.216 992.052 904.297C992.052 903.379 992.335 902.461 992.688 902.249C993.394 901.754 993.889 898.787 994.948 887.697C996.079 875.335 994.948 854.567 992.617 845.667C990.216 836.625 986.472 825.746 983.293 818.824C979.337 810.206 979.196 809.923 976.37 805.614C974.887 803.424 973.686 801.235 973.686 800.811C973.686 800.458 973.403 800.104 972.98 800.104C972.626 800.104 972.273 799.751 972.273 799.327C972.273 798.903 971.355 797.349 970.154 795.866C969.024 794.383 968.035 792.899 968.035 792.546C968.035 792.051 964.432 787.601 956.733 778.418C950.94 771.495 937.801 758.568 929.183 751.293C919.011 742.675 887.647 720.282 885.74 720.282C885.457 720.282 884.398 719.646 883.338 718.94C881.643 717.739 877.405 715.196 866.314 708.768C862.005 706.295 855.648 702.975 845.829 698.031C840.602 695.417 835.798 693.086 835.233 692.733C834.668 692.45 834.173 691.814 834.173 691.249C834.173 690.472 836.504 690.19 845.476 689.766C859.604 689.13 867.091 688.212 880.795 685.386C890.19 683.479 897.184 681.784 899.868 680.724C901.916 679.947 905.731 678.817 909.404 677.898C912.442 677.051 913.925 676.486 923.391 672.177C925.793 671.046 928.053 670.128 928.477 670.128C929.183 670.128 938.79 665.113 947.196 660.38C955.108 655.859 970.366 644.274 975.805 638.552C985.765 628.168 994.171 614.464 997.562 603.021C998.48 600.125 999.469 596.734 999.822 595.533C1000.25 594.332 1000.53 591.86 1000.53 589.952C1000.53 588.116 1000.88 584.584 1001.38 582.112C1002.86 574.059 1000.03 556.258 995.513 544.885C993.112 538.88 987.037 527.154 985.695 526.024C985.483 525.812 983.787 523.552 982.021 521.009C977.712 514.934 967.187 503.843 959.558 497.415C953.412 492.258 936.53 480.603 930.243 477.283C928.336 476.223 925.439 474.669 923.885 473.751C918.163 470.431 901.775 462.59 895.983 460.329C892.663 459.058 889.06 457.645 887.859 457.151C883.974 455.526 875.851 452.7 873.731 452.206L871.683 451.782L874.438 449.168C879.948 444.012 895.418 433.486 897.466 433.486C897.819 433.486 898.102 433.204 898.102 432.921C898.102 432.215 904.813 429.107 912.442 426.281C926.923 420.842 940.274 419.5 956.379 421.902C962.949 422.891 965.209 423.597 971.214 426.493C977.147 429.46 984.282 434.617 984.282 436.029C984.282 436.241 985.059 437.442 985.977 438.643C987.884 441.186 991.346 449.31 991.346 451.288C991.346 451.994 991.628 453.901 992.052 455.526C992.405 457.221 993.041 460.471 993.465 462.802C994.454 467.888 995.302 471.42 996.856 476.364C997.845 479.685 998.198 480.108 999.893 480.108C1002.08 480.108 1003.64 477.424 1004.34 472.338C1005.05 467.252 1003.14 451.358 1001.24 446.555C1000.88 445.778 1000.46 444.224 1000.18 443.023C998.692 436.383 990.145 423.314 982.375 415.756C975.664 409.257 971.637 406.361 963.796 402.405C956.45 398.661 956.026 398.52 950.728 397.46C948.397 396.966 945.854 396.33 945.006 395.906C943.17 395.059 918.446 395.624 912.23 396.683C908.274 397.319 902.693 398.661 894.217 400.922C893.087 401.204 890.685 402.123 888.919 402.9C887.153 403.677 884.963 404.595 883.974 404.878C882.137 405.372 867.939 412.224 866.667 413.142C866.314 413.496 862.288 416.109 857.838 419.076C850.986 423.597 844.416 428.4 843.003 429.954C842.791 430.166 841.237 431.438 839.471 432.851C837.705 434.263 835.021 436.595 833.538 438.007C831.913 439.491 830.218 440.409 829.652 440.197C828.663 439.915 822.165 438.784 810.792 437.018C808.814 436.736 806.483 436.1 805.706 435.676C804.929 435.252 802.88 434.899 801.185 434.899C799.489 434.899 797.794 434.617 797.441 434.263C797.017 433.91 794.969 433.486 792.849 433.275C785.079 432.639 767.137 430.59 766.642 430.237C765.088 429.319 745.027 428.33 719.738 427.906L691.482 427.482L690.988 396.401C690.776 379.306 690.21 362.635 689.787 359.315C689.292 355.995 688.656 350.768 688.303 347.66C687.385 338.971 686.184 333.179 684.983 331.342C683.5 329.082 680.957 329.152 679.968 331.413C679.332 332.755 679.12 346.812 679.12 383.333L679.12 433.416L660.613 433.769C637.655 434.193 621.902 435.111 620.49 435.959C619.924 436.312 616.11 436.877 612.013 437.16C595.907 438.29 584.322 439.703 575.634 441.681C573.302 442.175 569.205 442.952 566.45 443.447C561.082 444.294 558.327 445.636 558.327 447.332C558.327 447.967 557.691 449.239 556.914 450.228C556.137 451.217 555.501 451.711 555.501 451.358C555.501 450.934 555.996 450.228 556.561 449.733C557.126 449.239 557.621 448.391 557.621 447.826C557.621 447.261 558.61 445.566 559.74 444.082C560.941 442.599 561.859 440.904 561.859 440.338C561.859 439.773 562.353 438.926 562.918 438.431C563.484 437.937 563.978 437.018 563.978 436.383C563.978 435.747 564.755 434.546 565.744 433.628C566.662 432.709 568.358 430.025 569.559 427.553C570.689 425.151 572.102 422.749 572.737 422.255C573.302 421.76 574.786 419.359 575.987 416.886C577.188 414.414 578.671 412.012 579.307 411.447C579.943 410.953 580.861 409.54 581.426 408.409C581.92 407.209 582.627 405.796 582.98 405.231C583.263 404.666 583.898 403.535 584.322 402.758C584.746 401.981 585.806 400.074 586.653 398.52C587.43 396.966 589.055 394.352 590.185 392.657C591.315 390.962 592.234 389.408 592.234 389.054C592.234 388.772 593.081 387.43 594.07 386.087C595.059 384.745 596.331 382.697 596.896 381.567C597.461 380.366 598.309 378.812 598.803 378.035C602.265 372.454 605.655 366.379 605.655 365.814C605.655 365.461 606.15 364.754 606.715 364.26C607.28 363.765 607.774 362.847 607.774 362.211C607.774 361.576 608.763 360.163 609.894 359.033C611.094 357.902 612.013 356.56 612.013 355.995C612.013 355.501 613.426 353.028 615.192 350.415C616.958 347.872 618.37 345.47 618.37 345.117C618.37 344.763 618.935 343.563 619.642 342.503C621.337 339.889 622.326 338.265 624.092 335.015C624.94 333.461 626.07 331.766 626.564 331.201C627.13 330.706 627.553 329.647 627.553 328.94C627.553 328.234 627.977 327.528 628.472 327.316C628.966 327.174 630.096 325.55 630.944 323.713C631.862 321.947 632.851 320.322 633.275 320.11C633.628 319.828 633.911 319.051 633.911 318.274C633.911 317.497 634.405 316.72 634.971 316.508C635.536 316.225 636.03 315.589 636.03 315.024C636.03 314.459 637.019 312.764 638.149 311.28C639.28 309.797 640.269 308.243 640.269 307.89C640.269 307.466 641.611 305.135 643.235 302.662C644.931 300.19 647.05 296.588 648.109 294.539C649.098 292.49 650.794 289.735 651.783 288.393C652.842 287.051 653.69 285.497 653.69 284.861C653.69 284.296 654.043 283.59 654.467 283.378C654.82 283.095 655.456 282.177 655.88 281.4C656.233 280.552 656.798 279.352 657.151 278.786C659.977 274.407 664.145 266.848 664.568 265.506C664.851 264.659 665.345 263.952 665.699 263.952C666.052 263.952 666.546 263.246 666.758 262.327C667.041 261.48 667.959 259.784 668.807 258.654C669.654 257.453 670.714 255.758 671.209 254.769C672.127 252.791 672.975 251.449 675.8 247.493C676.86 245.939 677.707 244.244 677.707 243.82C677.707 243.325 678.202 242.548 678.767 242.054C679.332 241.56 679.827 240.782 679.827 240.217C679.827 239.723 681.239 237.251 683.005 234.707C684.771 232.094 686.184 229.763 686.184 229.339C686.184 228.986 687.102 227.361 688.233 225.666C689.363 223.97 691.482 220.226 692.965 217.33C694.519 214.434 696.144 211.75 696.639 211.467C697.063 211.185 697.486 210.549 697.486 210.125C697.486 209.772 698.475 208.006 699.606 206.24C700.806 204.545 701.725 202.637 701.725 202.072C701.725 201.507 702.219 200.871 702.784 200.659C703.349 200.377 703.844 199.6 703.844 198.823C703.844 198.046 704.833 196.28 705.963 194.938C707.164 193.666 708.082 192.112 708.082 191.618C708.082 191.052 708.577 190.275 709.142 189.781C709.707 189.286 710.201 188.509 710.201 187.944C710.201 187.45 711.544 185.048 713.168 182.576C714.864 180.103 716.983 176.501 717.972 174.593C718.961 172.616 720.444 170.073 721.292 168.872C722.139 167.671 723.199 165.905 723.623 164.987C724.047 164.068 725.459 161.384 726.802 159.053C728.144 156.722 729.557 154.037 729.98 153.048C730.404 152.06 731.534 150.294 732.523 149.022C733.442 147.821 734.219 146.338 734.219 145.773C734.219 145.208 734.713 144.36 735.278 143.865C735.843 143.371 736.338 142.594 736.338 142.029C736.338 141.534 737.186 140.051 738.316 138.779C739.375 137.508 741 134.824 741.989 132.916C742.978 130.938 744.391 128.607 745.168 127.618C745.945 126.629 747.993 123.097 749.618 119.848C751.313 116.528 753.927 111.583 755.411 108.899C757.742 104.731 758.165 103.318 758.236 99.6452C758.236 96.0426 757.954 95.1243 756.611 93.8528C755.057 92.3693 754.351 92.2987 743.331 92.2987C734.289 92.3693 731.464 92.5812 730.404 93.3583C729.627 93.9234 728.144 94.4179 727.084 94.4179C726.095 94.4179 724.824 94.9123 724.329 95.4775C723.835 96.0426 722.775 96.537 721.857 96.537C721.009 96.537 719.031 97.4554 717.477 98.5856C715.923 99.7158 714.087 100.775 713.239 101.058C712.462 101.27 710.767 102.471 709.495 103.601C708.153 104.802 706.74 105.72 706.246 105.72C704.974 105.72 687.102 123.945 684.347 127.972C683.076 129.949 681.239 132.281 680.18 133.269C679.191 134.188 678.414 135.247 678.414 135.601C678.414 135.954 677.425 137.437 676.295 138.921C675.164 140.404 674.175 141.887 674.175 142.241C674.175 142.523 672.763 144.43 670.997 146.479C669.231 148.457 667.818 150.435 667.818 150.788C667.818 151.212 666.405 153.19 664.639 155.238C662.873 157.287 661.46 159.194 661.46 159.477C661.46 159.759 660.33 161.313 658.988 162.938C657.646 164.563 656.516 166.258 656.516 166.682C656.516 167.176 654.608 169.437 652.277 171.768C649.946 174.099 648.039 176.501 648.039 177.066C648.039 177.702 646.767 179.468 645.143 180.951C643.589 182.505 641.116 185.331 639.703 187.309C638.291 189.216 635.182 193.101 632.71 195.856C630.238 198.611 628.26 201.154 628.26 201.436C628.26 201.719 625.434 205.039 622.044 208.783C618.582 212.527 615.474 216.129 615.121 216.765C614.768 217.401 611.448 221.145 607.774 225.101C604.101 229.056 600.711 232.942 600.287 233.719C599.58 234.99 585.452 250.248 579.024 256.676C577.329 258.372 575.987 259.996 575.987 260.279C575.987 260.632 568.64 268.473 559.669 277.656C550.627 286.839 542.504 295.387 541.444 296.729C540.455 298.071 537.912 300.473 535.864 302.097C533.886 303.651 531.413 306.194 530.424 307.749C529.435 309.303 528.376 310.574 527.952 310.574C527.599 310.574 524.632 313.188 521.383 316.367C518.133 319.616 507.043 330.494 496.729 340.596C486.487 350.697 476.173 360.516 473.842 362.423C471.582 364.26 466.072 369.205 461.763 373.372C457.383 377.469 452.439 381.92 450.814 383.191C449.119 384.533 444.81 388.348 441.136 391.668C437.463 395.059 434.072 397.955 433.578 398.167C433.154 398.379 430.258 400.71 427.291 403.465C424.254 406.149 420.368 409.469 418.532 410.882C416.695 412.224 413.94 414.555 412.386 415.968C410.903 417.381 408.36 419.429 406.806 420.418C405.322 421.478 401.932 424.233 399.318 426.493C396.775 428.824 394.373 430.661 394.02 430.661C393.596 430.661 391.901 432.074 390.205 433.84C388.51 435.606 386.673 437.018 386.108 437.018C385.614 437.018 383.495 438.643 381.446 440.55C379.398 442.528 377.349 444.082 376.855 444.082C376.431 444.082 374.453 445.495 372.616 447.261C370.78 449.027 368.943 450.44 368.59 450.44C368.237 450.44 366.329 451.853 364.281 453.619C362.303 455.385 360.325 456.797 359.831 456.797C359.407 456.797 357.57 458.14 355.733 459.835C353.897 461.46 351.142 463.72 349.588 464.709C348.034 465.769 345.844 467.393 344.714 468.382C343.584 469.371 342.453 470.219 342.1 470.219C341.182 470.219 330.868 477.424 330.868 478.06C330.868 478.413 330.233 478.696 329.526 478.696C328.749 478.696 327.69 479.119 327.195 479.543C325.076 481.521 308.405 489.998 306.78 489.998C306.145 489.998 304.661 490.492 303.602 491.057C302.118 491.764 299.293 492.117 293.924 492.117C286.648 492.117 286.154 492.046 283.823 490.139C282.481 489.08 280.573 486.819 279.514 485.124C277.677 482.016 277.677 481.733 277.677 469.442C277.748 459.482 277.96 456.585 278.878 454.82C279.514 453.619 280.008 451.217 280.008 449.522C280.008 447.614 280.432 446.06 281.068 445.495C281.633 445.001 282.127 443.588 282.127 442.387C282.127 441.115 282.622 439.491 283.187 438.714C283.752 438.007 284.247 436.524 284.247 435.464C284.247 434.405 284.67 433.133 285.165 432.639C285.659 432.144 286.648 429.954 287.355 427.835C288.061 425.716 289.474 422.043 290.604 419.712C291.664 417.381 293.288 413.707 294.136 411.588C294.984 409.469 295.973 407.209 296.326 406.644C297.809 404.101 301.906 395.553 301.906 394.988C301.906 394.635 302.401 393.858 302.966 393.222C304.096 391.951 307.063 386.794 308.264 384.039C308.688 383.05 309.677 381.637 310.383 380.86C311.16 380.083 312.573 377.823 313.562 375.915C314.621 373.938 316.317 371.253 317.376 369.911C318.436 368.569 319.707 366.732 320.131 365.955C320.555 365.108 322.533 362.565 324.511 360.304C326.418 357.973 328.043 355.783 328.043 355.43C328.043 355.006 329.668 353.099 331.645 351.192C333.623 349.214 336.308 346.035 337.65 344.128C338.992 342.15 341.818 338.689 343.937 336.357C346.056 334.097 347.822 331.837 347.822 331.413C347.822 331.059 349.658 328.799 351.919 326.468C354.109 324.137 356.299 321.523 356.652 320.676C357.076 319.898 359.195 317.214 361.455 314.883C363.645 312.481 365.482 310.15 365.482 309.656C365.482 309.091 366.471 307.819 367.672 306.618C368.872 305.488 371.769 302.168 374.029 299.201C376.29 296.234 378.55 293.338 379.115 292.844C379.61 292.279 381.164 290.23 382.576 288.323C383.919 286.345 386.038 283.661 387.239 282.318C388.51 280.976 389.499 279.563 389.499 279.14C389.499 278.716 391.124 276.667 393.102 274.548C395.08 272.429 397.552 269.391 398.541 267.837C399.53 266.283 401.084 264.235 402.073 263.246C403.062 262.257 404.616 260.208 405.605 258.654C406.664 257.1 408.854 254.345 410.479 252.509C412.174 250.672 413.516 248.765 413.516 248.2C413.516 247.705 414.647 246.151 416.059 244.809C417.472 243.537 419.097 241.489 419.662 240.288C420.298 239.158 421.993 236.897 423.477 235.343C424.96 233.789 426.231 232.164 426.231 231.67C426.231 231.246 427.644 229.198 429.41 227.149C431.176 225.101 432.589 223.193 432.589 222.911C432.589 222.628 433.719 221.074 435.061 219.449C436.404 217.825 437.534 216.2 437.534 215.776C437.534 215.423 438.947 213.445 440.713 211.467C442.479 209.419 443.891 207.511 443.891 207.088C443.891 206.734 444.81 205.392 445.869 204.262C446.929 203.061 448.624 200.871 449.542 199.317C450.461 197.763 451.45 196.35 451.662 196.138C451.874 195.927 452.862 194.584 453.71 193.101C454.628 191.618 456.324 189.357 457.383 188.156C458.514 186.955 459.432 185.543 459.432 185.048C459.432 184.624 460.421 183.141 461.551 181.869C462.752 180.598 463.67 179.326 463.67 178.973C463.67 178.62 464.659 177.136 465.789 175.653C466.99 174.17 467.909 172.686 467.909 172.262C467.909 171.909 468.827 170.496 470.028 169.225C471.158 167.883 472.147 166.47 472.147 165.975C472.147 165.481 473.136 163.998 474.266 162.726C475.467 161.384 476.385 159.971 476.385 159.618C476.385 159.265 477.233 157.852 478.222 156.51C479.211 155.168 480.341 153.402 480.624 152.554C480.977 151.706 482.178 149.658 483.237 147.962C484.297 146.267 485.78 143.795 486.487 142.453C487.264 141.11 488.747 138.638 489.877 136.943C491.008 135.247 491.926 133.34 491.926 132.634C491.926 131.927 492.42 130.938 492.986 130.444C493.551 129.949 494.045 129.031 494.045 128.325C494.045 127.618 494.469 126.7 495.034 126.276C495.599 125.782 496.235 124.651 496.447 123.733C496.729 122.744 497.224 121.967 497.577 121.967C498.001 121.967 498.284 121.543 498.284 120.978C498.284 120.413 499.838 116.881 501.816 112.996C503.723 109.181 505.347 105.508 505.347 104.872C505.347 104.237 505.771 102.824 506.336 101.694C508.314 97.8792 509.586 94.5591 509.586 93.217C509.586 92.5106 510.08 91.3097 510.645 90.6033C511.281 89.7557 511.705 87.6365 511.705 85.588C511.705 83.5394 512.199 80.8551 512.835 79.5836C513.824 77.6764 513.965 75.6985 513.612 67.7162C513.4 62.4183 512.906 57.8974 512.482 57.4735C512.058 57.0497 511.705 55.4956 511.705 54.0828C511.705 52.6701 511.211 51.116 510.645 50.6215C510.08 50.127 509.586 48.9968 509.586 48.0785C509.586 46.3125 507.043 41.2265 504.5 37.9064C501.25 33.6681 492.279 25.262 490.301 24.5556C489.807 24.4143 488.111 23.3547 486.487 22.2952C484.862 21.1649 483.025 20.2466 482.39 20.2466C481.754 20.2466 480.271 19.7521 479.14 19.187C478.01 18.6219 476.173 17.633 475.043 17.0678C473.913 16.5027 471.723 16.0083 470.169 16.0083C468.474 16.0083 466.849 15.5138 465.86 14.6661C465.012 13.9597 463.741 13.4652 463.035 13.6772C462.328 13.8184 460.562 13.4652 459.008 12.8295C457.525 12.1937 453.71 11.4873 450.602 11.2754C447.494 11.0635 444.527 10.569 444.033 10.1452C443.044 9.36817 413.022 8.87369 403.627 9.36817ZM760.709 443.235C770.598 444.082 776.956 444.93 795.675 447.685C811.781 450.016 816.584 450.934 818.421 451.923C819.763 452.63 819.763 452.771 817.785 454.89C807.825 465.627 793.768 483.075 787.198 492.823C785.503 495.366 783.949 497.556 783.666 497.768C783.454 497.98 780.982 501.583 778.156 505.892C775.401 510.13 772.152 514.934 770.951 516.558C769.821 518.183 768.832 519.596 768.832 519.808C768.832 520.373 763.605 528.991 760.991 532.876C759.861 534.501 758.943 535.984 758.943 536.196C758.943 536.408 757.883 538.245 756.611 540.293C755.34 542.342 753.715 545.238 752.938 546.651C752.161 548.134 751.313 549.335 751.031 549.335C750.678 549.335 750.466 549.617 750.466 549.9C750.466 550.253 748.841 553.503 746.863 557.176C744.885 560.849 742.13 565.864 740.718 568.407C736.691 575.895 720.727 607.683 716.983 615.736C715.076 619.833 712.25 625.837 710.696 629.157C709.142 632.477 707.376 636.292 706.74 637.634C706.104 638.976 705.398 640.177 705.115 640.318C704.762 640.46 704.55 640.954 704.55 641.378C704.55 641.802 703.915 643.426 703.208 644.98C702.431 646.605 700.524 650.702 698.899 654.234C697.204 657.696 694.166 664.124 692.118 668.503C689.999 672.883 688.303 676.627 688.303 676.839C688.303 677.051 685.972 682.066 683.076 688C680.25 693.863 677.354 700.008 676.648 701.563C676.012 703.117 674.246 706.931 672.763 710.039C671.279 713.147 668.877 718.233 667.465 721.342C665.981 724.45 663.226 730.313 661.319 734.41C659.412 738.507 657.575 742.463 657.222 743.24C655.668 746.842 651.006 756.802 646.909 765.35C644.436 770.506 642.388 774.886 642.388 775.098C642.388 776.016 623.386 814.656 618.512 823.769C613.496 833.022 604.313 849.199 601.841 853.084C600.922 854.426 599.439 856.828 598.45 858.382C587.006 876.748 570.618 898.293 568.146 898.293C567.016 898.293 559.033 895.679 552.676 893.278C549.78 892.147 546.883 891.229 546.248 891.229C545.683 891.229 544.905 890.946 544.482 890.593C544.128 890.24 543.069 889.816 542.08 889.675C539.113 889.322 539.678 887.273 544.34 881.34C546.813 878.161 549.709 874.417 550.769 873.004C551.899 871.591 553.453 869.543 554.301 868.483C555.148 867.494 556.349 865.94 556.914 865.092C557.479 864.245 558.539 862.832 559.316 862.055C560.022 861.207 561.788 858.735 563.13 856.616C564.543 854.497 567.581 850.046 569.841 846.797C573.656 841.499 587.995 818.188 587.995 817.34C587.995 817.199 589.479 814.585 591.245 811.619C598.803 799.186 614.203 767.963 622.326 748.679C623.739 745.288 625.787 740.555 626.918 738.154C628.048 735.752 628.966 733.421 628.966 732.997C628.966 732.644 629.249 731.726 629.602 731.019C630.096 729.96 631.933 725.651 633.982 720.635C634.264 719.858 634.9 717.951 635.394 716.397C635.818 714.843 636.948 711.947 637.867 710.039C638.714 708.061 639.703 705.518 639.986 704.388C640.269 703.187 640.692 701.916 640.904 701.563C641.187 701.139 641.823 699.585 642.317 698.031C643.094 695.629 644.224 692.45 646.626 686.022C646.909 685.245 647.615 683.196 648.109 681.43C648.604 679.664 649.452 677.475 649.946 676.486C650.441 675.497 650.864 674.154 650.864 673.448C650.864 672.742 651.147 671.611 651.5 670.905C651.924 670.199 652.842 667.302 653.619 664.406C654.326 661.51 656.162 655.223 657.505 650.349C658.917 645.475 660.401 640.248 660.825 638.694C661.248 637.14 662.025 634.455 662.52 632.689C663.438 629.652 666.334 617.078 667.888 609.731C668.312 607.754 669.089 604.292 669.725 601.961C670.29 599.63 670.997 596.593 671.35 595.25C671.703 593.908 672.197 591.648 672.409 590.306C672.621 588.964 673.822 582.606 674.952 576.178C678.626 555.904 681.239 537.397 681.239 531.534C681.239 529.697 681.593 527.366 682.016 526.236C683.57 522.421 685.195 499.464 686.255 468.1C686.679 455.102 687.314 444.082 687.738 443.588C688.091 443.093 689.716 442.599 691.341 442.458C697.486 441.893 751.949 442.528 760.709 443.235ZM865.961 463.72C866.314 464.073 868.575 464.992 870.906 465.91C879.171 469.089 895.63 477.707 904.036 483.217C908.768 486.254 912.724 489.009 912.936 489.291C913.148 489.503 914.914 490.916 916.821 492.4C922.684 496.779 935.541 509.141 937.801 512.602C939.002 514.368 940.697 516.558 941.616 517.547C944.583 520.867 952.353 536.62 953.907 542.624C954.26 543.754 955.178 547.286 956.097 550.394C957.58 555.48 957.721 557.529 957.721 571.939C957.721 587.268 957.651 588.045 955.744 594.191C953.342 602.244 952.847 603.374 948.892 611.144C943.594 621.528 940.909 625.06 930.243 635.797C922.543 643.568 920.071 645.475 908.698 652.468C903.753 655.506 894.782 660.097 889.272 662.358C888.495 662.711 886.093 663.771 883.974 664.689C881.855 665.678 878.04 667.02 875.497 667.656C872.954 668.362 870.623 669.21 870.199 669.492C869.846 669.845 868.999 670.128 868.292 670.128C867.586 670.128 866.456 670.411 865.749 670.764C864.548 671.4 857.484 673.307 851.833 674.437C850.279 674.72 847.595 675.355 845.829 675.779C836.787 678.04 830.076 678.746 814.748 679.311C796.735 679.876 792.637 680.653 787.551 684.609C786.209 685.598 784.938 686.375 784.655 686.375C784.019 686.375 782.889 687.859 779.852 692.379C777.167 696.477 776.39 700.008 776.32 707.991C776.249 712.794 776.461 714.066 777.662 715.337C779.075 716.891 783.878 719.364 791.437 722.401C797.794 724.944 798.006 725.015 802.174 726.922C804.364 727.911 806.412 728.759 806.624 728.759C806.836 728.759 808.814 729.536 810.933 730.525C813.052 731.514 818.28 733.774 822.518 735.54C830.712 739.001 853.387 750.304 854.306 751.434C854.517 751.646 856.566 752.917 858.897 754.189C861.228 755.46 864.831 757.579 866.879 758.851C868.928 760.193 870.694 761.253 870.906 761.253C871.33 761.253 884.822 770.718 892.451 776.37C903.541 784.634 915.126 795.301 924.238 805.755C926.781 808.652 929.254 811.477 929.748 811.972C930.667 812.961 937.307 822.073 938.72 824.263C939.143 824.828 940.344 826.735 941.474 828.431C943.452 831.398 949.739 843.548 952 848.845C957.086 860.501 959.982 872.51 961.96 890.169C963.726 905.145 961.748 921.039 956.662 933.259C953.695 940.323 945.713 950.142 939.073 955.016C936.954 956.57 934.905 958.195 934.481 958.619C932.362 961.091 917.386 967.519 907.285 970.345C905.519 970.839 903.329 971.475 902.34 971.758C901.351 972.111 898.384 972.747 895.63 973.171C892.945 973.594 889.766 974.089 888.566 974.301C882.985 975.219 864.76 976.279 853.952 976.349C834.95 976.349 818.703 975.219 801.326 972.747C797.229 972.111 792.355 971.475 790.377 971.263C788.47 971.051 786.562 970.628 786.139 970.274C785.785 969.921 784.585 969.639 783.525 969.639C781.406 969.639 781.053 969.568 763.534 965.33C750.183 962.151 750.254 962.151 739.87 958.619C735.773 957.277 730.546 955.581 728.214 954.804C717.76 951.626 700.453 945.692 695.014 943.431C694.237 943.078 690.776 941.877 687.244 940.747C683.782 939.546 677.707 937.498 673.822 936.085C669.937 934.672 662.449 931.988 657.222 930.081C651.995 928.244 646.767 926.337 645.566 925.842C641.54 924.147 640.622 923.794 633.911 921.533C630.238 920.332 626.918 919.061 626.564 918.708C626.141 918.355 625.152 918.072 624.304 918.072C623.386 918.072 622.538 917.789 622.326 917.436C622.044 917.083 619.924 916.165 617.452 915.317C611.66 913.48 606.644 911.291 606.079 910.443C605.867 910.09 608.481 906.346 611.872 902.107C617.876 894.62 624.375 886.002 625.787 883.529C626.211 882.894 627.977 880.209 629.885 877.666C631.721 875.053 633.205 872.792 633.205 872.651C633.205 872.439 635.394 868.978 638.008 864.951C640.692 860.925 644.366 854.991 646.273 851.671C648.109 848.351 649.875 845.525 650.087 845.313C650.299 845.102 651.076 843.901 651.712 842.629C653.125 839.945 658.07 830.903 660.895 825.888C663.085 821.932 670.078 808.298 672.197 803.99C672.904 802.435 673.822 800.669 674.175 800.104C674.599 799.539 675.164 798.338 675.518 797.491C675.941 796.714 678.131 792.051 680.462 787.177C682.864 782.303 684.771 777.994 684.771 777.57C684.771 777.147 685.124 776.793 685.478 776.793C685.901 776.793 686.184 776.299 686.184 775.734C686.184 775.098 687.314 772.414 688.656 769.729C690.069 766.975 691.765 763.16 692.542 761.253C693.319 759.345 695.367 754.754 697.133 751.01C698.899 747.266 700.312 744.087 700.312 743.946C700.312 743.664 702.714 738.436 708.153 726.781C709.283 724.379 710.201 721.907 710.201 721.342C710.201 720.776 710.555 720.282 710.908 720.282C711.332 720.282 711.614 719.787 711.614 719.222C711.614 718.657 711.897 717.598 712.321 716.891C712.956 715.761 717.124 706.649 719.031 702.269C720.373 699.231 726.237 686.163 728.921 680.371C734.289 668.857 736.338 664.336 736.338 664.124C736.338 663.982 737.468 661.369 738.881 658.331C740.294 655.294 742.837 649.643 744.603 645.757C746.369 641.872 748.912 636.292 750.254 633.396C755.269 622.8 756.753 619.55 758.801 615.029C763.11 605.493 765.017 601.537 772.788 585.714C777.238 576.743 781.547 568.196 782.465 566.641C784.161 563.675 787.057 558.518 791.225 550.748C799.772 535.066 823.154 501.159 832.054 491.693C832.407 491.269 835.021 488.232 837.705 484.982C840.46 481.733 846.465 475.305 851.056 470.643L859.462 462.307L862.358 462.731C863.912 463.014 865.537 463.438 865.961 463.72ZM439.653 874.841C443.75 875.265 450.885 876.253 455.547 877.101C468.403 879.432 471.582 879.997 474.266 880.351C475.608 880.562 477.374 880.986 478.151 881.269C481.401 882.54 486.911 884.165 487.97 884.165C488.606 884.165 489.666 884.448 490.372 884.801C491.008 885.154 493.48 885.931 495.811 886.567C507.325 889.746 512.411 891.653 512.411 892.642C512.411 893.772 499.626 906.699 491.573 913.551C481.259 922.452 467.485 932.2 459.079 936.579C454.982 938.699 449.189 941.524 447.776 942.16C442.055 944.632 435.556 947.034 434.567 947.034C433.931 947.034 433.225 947.317 433.013 947.67C432.589 948.235 430.894 948.659 425.031 949.577C423.547 949.789 421.711 950.213 420.934 950.566C419.238 951.343 413.375 951.908 400.801 952.615C389.64 953.18 387.38 953.886 387.38 956.782C387.38 959.325 389.64 961.444 393.455 962.575C397.905 963.917 423.053 963.14 429.057 961.586C431.6 960.879 434.849 960.032 436.333 959.678C437.746 959.325 440.289 958.69 441.984 958.266C446.293 957.135 462.823 950.637 466.143 948.8C467.697 947.952 470.876 946.186 473.207 944.915C477.162 942.796 493.268 932.412 494.045 931.493C494.257 931.211 495.105 930.575 495.952 930.01C500.615 926.831 511.776 916.518 522.866 905.145C527.528 900.412 530.071 898.293 531.201 898.293C532.897 898.293 534.592 898.999 543.139 902.955C545.894 904.227 550.557 906.346 553.594 907.759C556.561 909.101 559.245 910.655 559.457 911.291C559.952 912.562 558.468 914.893 552.605 921.957C544.058 932.341 531.555 943.785 519.97 951.838C515.378 955.016 503.793 962.575 503.44 962.575C503.228 962.575 501.25 963.634 499.061 964.976C494.752 967.59 480.836 974.725 475.326 977.197C473.348 978.045 470.028 979.528 467.909 980.446C460.915 983.555 453.145 986.309 444.598 988.711C437.392 990.76 436.333 991.042 433.649 991.89C424.819 994.716 396.634 995.775 385.261 993.727C373.958 991.749 353.826 984.967 352.908 982.848C352.767 982.566 352.343 982.354 352.06 982.354C351.424 982.354 342.171 976.773 341.464 975.996C341.252 975.784 339.698 974.513 337.932 973.241C334.683 970.769 326.63 962.575 326.63 961.727C326.63 961.444 326.206 960.809 325.782 960.314C323.663 957.983 319.849 950.283 318.789 945.974C316.458 937.074 316.387 923.511 318.507 916.377C319.919 911.714 322.957 905.357 323.805 905.357C324.228 905.357 324.511 904.933 324.511 904.439C324.511 902.531 333.765 894.549 341.111 890.099C344.431 888.05 361.597 881.622 367.954 880.068C369.508 879.644 372.051 879.008 373.605 878.655C378.621 877.384 393.879 875.053 401.508 874.417C410.267 873.64 429.198 873.852 439.653 874.841Z" fill="url(#LinearGradient)" fill-rule="evenodd" opacity="1" stroke="none"/>
<path d="M411.256 665.466L402.991 673.519L408.43 678.675C415.141 685.104 420.792 689.907 426.443 694.075C428.845 695.841 430.964 697.465 431.176 697.748C431.6 698.313 441.207 704.529 444.951 706.719C450.249 709.686 464.73 716.467 467.909 717.386C469.675 717.88 471.653 718.587 472.359 718.94C477.162 721.483 493.48 724.732 505.842 725.651C510.01 725.933 512.694 726.498 513.188 727.063C514.531 728.688 517.78 728.264 519.405 726.216C520.252 725.156 520.888 724.096 520.888 723.814C520.888 722.966 518.274 720.282 517.427 720.282C517.003 720.282 516.085 719.999 515.378 719.646C514.743 719.293 510.999 718.304 507.113 717.456C503.228 716.538 498.284 715.267 496.094 714.56C493.975 713.783 491.785 713.218 491.361 713.218C490.443 713.218 475.114 706.083 466.849 701.774C459.997 698.242 454.77 694.993 449.331 690.896C447.141 689.201 445.163 687.788 445.022 687.788C444.88 687.788 441.913 685.033 438.381 681.572C431.812 675.214 424.324 665.678 421.781 660.38C420.934 658.755 420.157 657.413 419.945 657.413C419.662 657.484 415.777 661.086 411.256 665.466Z" fill="url(#LinearGradient_2)" fill-rule="evenodd" opacity="1" stroke="none"/>
</g>
</g>
</svg>
