<?xml version="1.0" encoding="UTF-8" standalone="no"?>
<!DOCTYPE svg PUBLIC "-//W3C//DTD SVG 1.1//EN" "http://www.w3.org/Graphics/SVG/1.1/DTD/svg11.dtd">
<!-- Created with Vectornator (http://vectornator.io/) -->
<svg height="100%" stroke-miterlimit="10" style="fill-rule:nonzero;clip-rule:evenodd;stroke-linecap:round;stroke-linejoin:round;" version="1.1" viewBox="0 0 1024 1024" width="100%" xml:space="preserve" xmlns="http://www.w3.org/2000/svg" xmlns:vectornator="http://vectornator.io" xmlns:xlink="http://www.w3.org/1999/xlink">
<defs/>
<g id="Layer-1" vectornator:layerName="Layer 1">
<path d="M246.019 832.292C204.794 832.292 171.375 865.711 171.375 906.936C171.375 948.161 204.794 981.58 246.019 981.58C287.243 981.58 320.663 948.161 320.663 906.936C320.663 865.711 287.243 832.292 246.019 832.292Z" fill="#e7e1fb" fill-rule="evenodd" opacity="0.754335" stroke="none" vectornator:layerName="path"/>
<path d="M538.291 720.905C497.066 720.905 463.647 754.324 463.647 795.549C463.647 836.774 497.066 870.193 538.291 870.193C579.516 870.193 612.935 836.774 612.935 795.549C612.935 754.324 579.516 720.905 538.291 720.905Z" fill="#e7e1fb" fill-rule="evenodd" opacity="0.754335" stroke="none" vectornator:layerName="path"/>
<path d="M830.563 832.292C789.339 832.292 755.92 865.711 755.92 906.936C755.92 948.161 789.339 981.58 830.563 981.58C871.788 981.58 905.207 948.161 905.207 906.936C905.207 865.711 871.788 832.292 830.563 832.292Z" fill="#e7e1fb" fill-rule="evenodd" opacity="0.754335" stroke="none" vectornator:layerName="path"/>
<path d="M192.971 604.292C151.746 604.292 118.327 637.711 118.327 678.936C118.327 720.16 151.746 753.58 192.971 753.58C234.195 753.58 267.615 720.16 267.615 678.936C267.615 637.711 234.195 604.292 192.971 604.292Z" fill="#e7e1fb" fill-rule="evenodd" opacity="0.754335" stroke="none" vectornator:layerName="path"/>
<path d="M485.243 492.905C444.019 492.905 410.599 526.324 410.599 567.549C410.599 608.774 444.019 642.193 485.243 642.193C526.468 642.193 559.887 608.774 559.887 567.549C559.887 526.324 526.468 492.905 485.243 492.905Z" fill="#e7e1fb" fill-rule="evenodd" opacity="0.754335" stroke="none" vectornator:layerName="path"/>
<path d="M777.516 604.292C736.291 604.292 702.872 637.711 702.872 678.936C702.872 720.16 736.291 753.58 777.516 753.58C818.74 753.58 852.159 720.16 852.159 678.936C852.159 637.711 818.74 604.292 777.516 604.292Z" fill="#e7e1fb" fill-rule="evenodd" opacity="0.754335" stroke="none" vectornator:layerName="path"/>
<path d="M226.814 372.785C185.589 372.785 152.17 406.204 152.17 447.428C152.17 488.653 185.589 522.072 226.814 522.072C268.038 522.072 301.458 488.653 301.458 447.428C301.458 406.204 268.038 372.785 226.814 372.785Z" fill="#e7e1fb" fill-rule="evenodd" opacity="0.754335" stroke="none" vectornator:layerName="path"/>
<path d="M519.086 261.398C477.861 261.398 444.442 294.817 444.442 336.042C444.442 377.266 477.861 410.685 519.086 410.685C560.311 410.685 593.73 377.266 593.73 336.042C593.73 294.817 560.311 261.398 519.086 261.398Z" fill="#e7e1fb" fill-rule="evenodd" opacity="0.754335" stroke="none" vectornator:layerName="path"/>
<path d="M811.359 372.785C770.134 372.785 736.715 406.204 736.715 447.428C736.715 488.653 770.134 522.072 811.359 522.072C852.583 522.072 886.002 488.653 886.002 447.428C886.002 406.204 852.583 372.785 811.359 372.785Z" fill="#e7e1fb" fill-rule="evenodd" opacity="0.754335" stroke="none" vectornator:layerName="path"/>
<path d="M852.936 275.101L163.647 275.101L129.182 961.88L887.401 961.88L852.936 275.101Z" fill="none" opacity="1" stroke="#e7e1fb" stroke-linecap="round" stroke-linejoin="round" stroke-width="50" vectornator:layerName="path"/>
<path d="M337.251 465.873L337.251 236.947C337.251 132.022 414.796 46.1752 509.573 46.1752L509.573 46.1752C604.35 46.1752 681.895 132.022 681.895 236.947L681.895 465.873" fill="none" opacity="1" stroke="#e7e1fb" stroke-linecap="round" stroke-linejoin="round" stroke-width="50" vectornator:layerName="path"/>
<path d="M337.633 429.866C308.366 429.866 284.641 452.694 284.641 480.853C284.641 509.012 308.366 531.84 337.633 531.84C366.899 531.84 390.624 509.012 390.624 480.853C390.624 452.694 366.899 429.866 337.633 429.866Z" fill="#e7e1fb" fill-rule="evenodd" opacity="1" stroke="none" vectornator:layerName="path"/>
<path d="M681.513 429.866C652.247 429.866 628.521 452.694 628.521 480.853C628.521 509.012 652.247 531.84 681.513 531.84C710.78 531.84 734.505 509.012 734.505 480.853C734.505 452.694 710.78 429.866 681.513 429.866Z" fill="#e7e1fb" fill-rule="evenodd" opacity="1" stroke="none" vectornator:layerName="path"/>
</g>
</svg>
